G04 #@! TF.FileFunction,Copper,L1,Top,Signal*
%FSLAX46Y46*%
G04 Gerber Fmt 4.6, Leading zero omitted, Abs format (unit mm)*
G04 Created by KiCad (PCBNEW 4.0.7) date 02/27/18 15:26:36*
%MOMM*%
%LPD*%
G01*
G04 APERTURE LIST*
%ADD10C,0.100000*%
%ADD11R,1.300000X0.700000*%
%ADD12R,1.000000X0.700000*%
%ADD13R,3.200000X1.500000*%
%ADD14R,2.000000X0.500000*%
%ADD15C,1.500000*%
%ADD16C,1.524000*%
%ADD17R,1.524000X1.524000*%
%ADD18C,1.600000*%
%ADD19R,0.900000X0.600000*%
%ADD20R,0.600000X0.900000*%
%ADD21R,0.700000X1.000000*%
%ADD22R,2.540000X2.670000*%
%ADD23R,1.270000X0.800000*%
%ADD24R,1.500000X0.600000*%
%ADD25C,0.812800*%
%ADD26C,0.177800*%
%ADD27C,0.381000*%
%ADD28C,0.508000*%
G04 APERTURE END LIST*
D10*
D11*
X62500000Y-112550000D03*
X62500000Y-110650000D03*
D12*
X99600000Y-137550000D03*
X99600000Y-136600000D03*
X99600000Y-135650000D03*
X97200000Y-135650000D03*
X97200000Y-136600000D03*
X97200000Y-137550000D03*
D13*
X108400000Y-116300000D03*
X108400000Y-112100000D03*
D14*
X102950000Y-136000000D03*
X102950000Y-135200000D03*
X102950000Y-134400000D03*
X102950000Y-137600000D03*
X102950000Y-136800000D03*
D15*
X103200000Y-139650000D03*
X103200000Y-132350000D03*
X108500000Y-139650000D03*
X108500000Y-132350000D03*
D16*
X89240000Y-109600000D03*
D17*
X86700000Y-109600000D03*
D16*
X108440000Y-125800000D03*
D17*
X105900000Y-125800000D03*
D16*
X65700000Y-144960000D03*
D17*
X65700000Y-147500000D03*
D16*
X68240000Y-144960000D03*
X68240000Y-147500000D03*
X70780000Y-144960000D03*
X70780000Y-147500000D03*
X73320000Y-144960000D03*
X73320000Y-147500000D03*
X75860000Y-144960000D03*
X75860000Y-147500000D03*
X78400000Y-144960000D03*
X78400000Y-147500000D03*
X80940000Y-144960000D03*
X80940000Y-147500000D03*
X83480000Y-144960000D03*
X83480000Y-147500000D03*
X86020000Y-144960000D03*
X86020000Y-147500000D03*
X88560000Y-144960000D03*
X88560000Y-147500000D03*
X91100000Y-144960000D03*
X91100000Y-147500000D03*
X93640000Y-144960000D03*
X93640000Y-147500000D03*
X96180000Y-144960000D03*
X96180000Y-147500000D03*
X98720000Y-144960000D03*
X98720000Y-147500000D03*
X101260000Y-144960000D03*
X101260000Y-147500000D03*
X103800000Y-144960000D03*
X103800000Y-147500000D03*
X106340000Y-144960000D03*
X106340000Y-147500000D03*
X65700000Y-102560000D03*
D17*
X65700000Y-105100000D03*
D16*
X68240000Y-102560000D03*
X68240000Y-105100000D03*
X70780000Y-102560000D03*
X70780000Y-105100000D03*
X73320000Y-102560000D03*
X73320000Y-105100000D03*
X75860000Y-102560000D03*
X75860000Y-105100000D03*
X78400000Y-102560000D03*
X78400000Y-105100000D03*
X80940000Y-102560000D03*
X80940000Y-105100000D03*
X83480000Y-102560000D03*
X83480000Y-105100000D03*
X86020000Y-102560000D03*
X86020000Y-105100000D03*
X88560000Y-102560000D03*
X88560000Y-105100000D03*
X91100000Y-102560000D03*
X91100000Y-105100000D03*
X93640000Y-102560000D03*
X93640000Y-105100000D03*
X96180000Y-102560000D03*
X96180000Y-105100000D03*
X98720000Y-102560000D03*
X98720000Y-105100000D03*
X101260000Y-102560000D03*
X101260000Y-105100000D03*
X103800000Y-102560000D03*
X103800000Y-105100000D03*
X106340000Y-102560000D03*
X106340000Y-105100000D03*
D18*
X100900000Y-129500000D03*
X103440000Y-129500000D03*
X105980000Y-129500000D03*
X108520000Y-129500000D03*
D19*
X93900000Y-109650000D03*
X93900000Y-111150000D03*
X95800000Y-109650000D03*
X95800000Y-111150000D03*
X85100000Y-139950000D03*
X85100000Y-138450000D03*
X83400000Y-139950000D03*
X83400000Y-138450000D03*
X64700000Y-110650000D03*
X64700000Y-112150000D03*
X91900000Y-109650000D03*
X91900000Y-111150000D03*
D20*
X97550000Y-134000000D03*
X99050000Y-134000000D03*
X97650000Y-139400000D03*
X99150000Y-139400000D03*
D10*
G36*
X86781282Y-115572776D02*
X85720622Y-114512116D01*
X85897398Y-114335340D01*
X86958058Y-115396000D01*
X86781282Y-115572776D01*
X86781282Y-115572776D01*
G37*
G36*
X86427728Y-115926330D02*
X85367068Y-114865670D01*
X85543844Y-114688894D01*
X86604504Y-115749554D01*
X86427728Y-115926330D01*
X86427728Y-115926330D01*
G37*
G36*
X86074175Y-116279883D02*
X85013515Y-115219223D01*
X85190291Y-115042447D01*
X86250951Y-116103107D01*
X86074175Y-116279883D01*
X86074175Y-116279883D01*
G37*
G36*
X85720622Y-116633437D02*
X84659962Y-115572777D01*
X84836738Y-115396001D01*
X85897398Y-116456661D01*
X85720622Y-116633437D01*
X85720622Y-116633437D01*
G37*
G36*
X85367068Y-116986990D02*
X84306408Y-115926330D01*
X84483184Y-115749554D01*
X85543844Y-116810214D01*
X85367068Y-116986990D01*
X85367068Y-116986990D01*
G37*
G36*
X85013515Y-117340543D02*
X83952855Y-116279883D01*
X84129631Y-116103107D01*
X85190291Y-117163767D01*
X85013515Y-117340543D01*
X85013515Y-117340543D01*
G37*
G36*
X84659961Y-117694097D02*
X83599301Y-116633437D01*
X83776077Y-116456661D01*
X84836737Y-117517321D01*
X84659961Y-117694097D01*
X84659961Y-117694097D01*
G37*
G36*
X84306408Y-118047650D02*
X83245748Y-116986990D01*
X83422524Y-116810214D01*
X84483184Y-117870874D01*
X84306408Y-118047650D01*
X84306408Y-118047650D01*
G37*
G36*
X83952855Y-118401204D02*
X82892195Y-117340544D01*
X83068971Y-117163768D01*
X84129631Y-118224428D01*
X83952855Y-118401204D01*
X83952855Y-118401204D01*
G37*
G36*
X83599301Y-118754757D02*
X82538641Y-117694097D01*
X82715417Y-117517321D01*
X83776077Y-118577981D01*
X83599301Y-118754757D01*
X83599301Y-118754757D01*
G37*
G36*
X83245748Y-119108310D02*
X82185088Y-118047650D01*
X82361864Y-117870874D01*
X83422524Y-118931534D01*
X83245748Y-119108310D01*
X83245748Y-119108310D01*
G37*
G36*
X82892195Y-119461864D02*
X81831535Y-118401204D01*
X82008311Y-118224428D01*
X83068971Y-119285088D01*
X82892195Y-119461864D01*
X82892195Y-119461864D01*
G37*
G36*
X82538641Y-119815417D02*
X81477981Y-118754757D01*
X81654757Y-118577981D01*
X82715417Y-119638641D01*
X82538641Y-119815417D01*
X82538641Y-119815417D01*
G37*
G36*
X82185088Y-120168971D02*
X81124428Y-119108311D01*
X81301204Y-118931535D01*
X82361864Y-119992195D01*
X82185088Y-120168971D01*
X82185088Y-120168971D01*
G37*
G36*
X81831534Y-120522524D02*
X80770874Y-119461864D01*
X80947650Y-119285088D01*
X82008310Y-120345748D01*
X81831534Y-120522524D01*
X81831534Y-120522524D01*
G37*
G36*
X81477981Y-120876077D02*
X80417321Y-119815417D01*
X80594097Y-119638641D01*
X81654757Y-120699301D01*
X81477981Y-120876077D01*
X81477981Y-120876077D01*
G37*
G36*
X81124428Y-121229631D02*
X80063768Y-120168971D01*
X80240544Y-119992195D01*
X81301204Y-121052855D01*
X81124428Y-121229631D01*
X81124428Y-121229631D01*
G37*
G36*
X80770874Y-121583184D02*
X79710214Y-120522524D01*
X79886990Y-120345748D01*
X80947650Y-121406408D01*
X80770874Y-121583184D01*
X80770874Y-121583184D01*
G37*
G36*
X80417321Y-121936737D02*
X79356661Y-120876077D01*
X79533437Y-120699301D01*
X80594097Y-121759961D01*
X80417321Y-121936737D01*
X80417321Y-121936737D01*
G37*
G36*
X80063767Y-122290291D02*
X79003107Y-121229631D01*
X79179883Y-121052855D01*
X80240543Y-122113515D01*
X80063767Y-122290291D01*
X80063767Y-122290291D01*
G37*
G36*
X79710214Y-122643844D02*
X78649554Y-121583184D01*
X78826330Y-121406408D01*
X79886990Y-122467068D01*
X79710214Y-122643844D01*
X79710214Y-122643844D01*
G37*
G36*
X79356661Y-122997398D02*
X78296001Y-121936738D01*
X78472777Y-121759962D01*
X79533437Y-122820622D01*
X79356661Y-122997398D01*
X79356661Y-122997398D01*
G37*
G36*
X79003107Y-123350951D02*
X77942447Y-122290291D01*
X78119223Y-122113515D01*
X79179883Y-123174175D01*
X79003107Y-123350951D01*
X79003107Y-123350951D01*
G37*
G36*
X78649554Y-123704504D02*
X77588894Y-122643844D01*
X77765670Y-122467068D01*
X78826330Y-123527728D01*
X78649554Y-123704504D01*
X78649554Y-123704504D01*
G37*
G36*
X78296000Y-124058058D02*
X77235340Y-122997398D01*
X77412116Y-122820622D01*
X78472776Y-123881282D01*
X78296000Y-124058058D01*
X78296000Y-124058058D01*
G37*
G36*
X77235340Y-126002602D02*
X78296000Y-124941942D01*
X78472776Y-125118718D01*
X77412116Y-126179378D01*
X77235340Y-126002602D01*
X77235340Y-126002602D01*
G37*
G36*
X77588894Y-126356156D02*
X78649554Y-125295496D01*
X78826330Y-125472272D01*
X77765670Y-126532932D01*
X77588894Y-126356156D01*
X77588894Y-126356156D01*
G37*
G36*
X77942447Y-126709709D02*
X79003107Y-125649049D01*
X79179883Y-125825825D01*
X78119223Y-126886485D01*
X77942447Y-126709709D01*
X77942447Y-126709709D01*
G37*
G36*
X78296001Y-127063262D02*
X79356661Y-126002602D01*
X79533437Y-126179378D01*
X78472777Y-127240038D01*
X78296001Y-127063262D01*
X78296001Y-127063262D01*
G37*
G36*
X78649554Y-127416816D02*
X79710214Y-126356156D01*
X79886990Y-126532932D01*
X78826330Y-127593592D01*
X78649554Y-127416816D01*
X78649554Y-127416816D01*
G37*
G36*
X79003107Y-127770369D02*
X80063767Y-126709709D01*
X80240543Y-126886485D01*
X79179883Y-127947145D01*
X79003107Y-127770369D01*
X79003107Y-127770369D01*
G37*
G36*
X79356661Y-128123923D02*
X80417321Y-127063263D01*
X80594097Y-127240039D01*
X79533437Y-128300699D01*
X79356661Y-128123923D01*
X79356661Y-128123923D01*
G37*
G36*
X79710214Y-128477476D02*
X80770874Y-127416816D01*
X80947650Y-127593592D01*
X79886990Y-128654252D01*
X79710214Y-128477476D01*
X79710214Y-128477476D01*
G37*
G36*
X80063768Y-128831029D02*
X81124428Y-127770369D01*
X81301204Y-127947145D01*
X80240544Y-129007805D01*
X80063768Y-128831029D01*
X80063768Y-128831029D01*
G37*
G36*
X80417321Y-129184583D02*
X81477981Y-128123923D01*
X81654757Y-128300699D01*
X80594097Y-129361359D01*
X80417321Y-129184583D01*
X80417321Y-129184583D01*
G37*
G36*
X80770874Y-129538136D02*
X81831534Y-128477476D01*
X82008310Y-128654252D01*
X80947650Y-129714912D01*
X80770874Y-129538136D01*
X80770874Y-129538136D01*
G37*
G36*
X81124428Y-129891689D02*
X82185088Y-128831029D01*
X82361864Y-129007805D01*
X81301204Y-130068465D01*
X81124428Y-129891689D01*
X81124428Y-129891689D01*
G37*
G36*
X81477981Y-130245243D02*
X82538641Y-129184583D01*
X82715417Y-129361359D01*
X81654757Y-130422019D01*
X81477981Y-130245243D01*
X81477981Y-130245243D01*
G37*
G36*
X81831535Y-130598796D02*
X82892195Y-129538136D01*
X83068971Y-129714912D01*
X82008311Y-130775572D01*
X81831535Y-130598796D01*
X81831535Y-130598796D01*
G37*
G36*
X82185088Y-130952350D02*
X83245748Y-129891690D01*
X83422524Y-130068466D01*
X82361864Y-131129126D01*
X82185088Y-130952350D01*
X82185088Y-130952350D01*
G37*
G36*
X82538641Y-131305903D02*
X83599301Y-130245243D01*
X83776077Y-130422019D01*
X82715417Y-131482679D01*
X82538641Y-131305903D01*
X82538641Y-131305903D01*
G37*
G36*
X82892195Y-131659456D02*
X83952855Y-130598796D01*
X84129631Y-130775572D01*
X83068971Y-131836232D01*
X82892195Y-131659456D01*
X82892195Y-131659456D01*
G37*
G36*
X83245748Y-132013010D02*
X84306408Y-130952350D01*
X84483184Y-131129126D01*
X83422524Y-132189786D01*
X83245748Y-132013010D01*
X83245748Y-132013010D01*
G37*
G36*
X83599301Y-132366563D02*
X84659961Y-131305903D01*
X84836737Y-131482679D01*
X83776077Y-132543339D01*
X83599301Y-132366563D01*
X83599301Y-132366563D01*
G37*
G36*
X83952855Y-132720117D02*
X85013515Y-131659457D01*
X85190291Y-131836233D01*
X84129631Y-132896893D01*
X83952855Y-132720117D01*
X83952855Y-132720117D01*
G37*
G36*
X84306408Y-133073670D02*
X85367068Y-132013010D01*
X85543844Y-132189786D01*
X84483184Y-133250446D01*
X84306408Y-133073670D01*
X84306408Y-133073670D01*
G37*
G36*
X84659962Y-133427223D02*
X85720622Y-132366563D01*
X85897398Y-132543339D01*
X84836738Y-133603999D01*
X84659962Y-133427223D01*
X84659962Y-133427223D01*
G37*
G36*
X85013515Y-133780777D02*
X86074175Y-132720117D01*
X86250951Y-132896893D01*
X85190291Y-133957553D01*
X85013515Y-133780777D01*
X85013515Y-133780777D01*
G37*
G36*
X85367068Y-134134330D02*
X86427728Y-133073670D01*
X86604504Y-133250446D01*
X85543844Y-134311106D01*
X85367068Y-134134330D01*
X85367068Y-134134330D01*
G37*
G36*
X85720622Y-134487884D02*
X86781282Y-133427224D01*
X86958058Y-133604000D01*
X85897398Y-134664660D01*
X85720622Y-134487884D01*
X85720622Y-134487884D01*
G37*
G36*
X88902602Y-134664660D02*
X87841942Y-133604000D01*
X88018718Y-133427224D01*
X89079378Y-134487884D01*
X88902602Y-134664660D01*
X88902602Y-134664660D01*
G37*
G36*
X89256156Y-134311106D02*
X88195496Y-133250446D01*
X88372272Y-133073670D01*
X89432932Y-134134330D01*
X89256156Y-134311106D01*
X89256156Y-134311106D01*
G37*
G36*
X89609709Y-133957553D02*
X88549049Y-132896893D01*
X88725825Y-132720117D01*
X89786485Y-133780777D01*
X89609709Y-133957553D01*
X89609709Y-133957553D01*
G37*
G36*
X89963262Y-133603999D02*
X88902602Y-132543339D01*
X89079378Y-132366563D01*
X90140038Y-133427223D01*
X89963262Y-133603999D01*
X89963262Y-133603999D01*
G37*
G36*
X90316816Y-133250446D02*
X89256156Y-132189786D01*
X89432932Y-132013010D01*
X90493592Y-133073670D01*
X90316816Y-133250446D01*
X90316816Y-133250446D01*
G37*
G36*
X90670369Y-132896893D02*
X89609709Y-131836233D01*
X89786485Y-131659457D01*
X90847145Y-132720117D01*
X90670369Y-132896893D01*
X90670369Y-132896893D01*
G37*
G36*
X91023923Y-132543339D02*
X89963263Y-131482679D01*
X90140039Y-131305903D01*
X91200699Y-132366563D01*
X91023923Y-132543339D01*
X91023923Y-132543339D01*
G37*
G36*
X91377476Y-132189786D02*
X90316816Y-131129126D01*
X90493592Y-130952350D01*
X91554252Y-132013010D01*
X91377476Y-132189786D01*
X91377476Y-132189786D01*
G37*
G36*
X91731029Y-131836232D02*
X90670369Y-130775572D01*
X90847145Y-130598796D01*
X91907805Y-131659456D01*
X91731029Y-131836232D01*
X91731029Y-131836232D01*
G37*
G36*
X92084583Y-131482679D02*
X91023923Y-130422019D01*
X91200699Y-130245243D01*
X92261359Y-131305903D01*
X92084583Y-131482679D01*
X92084583Y-131482679D01*
G37*
G36*
X92438136Y-131129126D02*
X91377476Y-130068466D01*
X91554252Y-129891690D01*
X92614912Y-130952350D01*
X92438136Y-131129126D01*
X92438136Y-131129126D01*
G37*
G36*
X92791689Y-130775572D02*
X91731029Y-129714912D01*
X91907805Y-129538136D01*
X92968465Y-130598796D01*
X92791689Y-130775572D01*
X92791689Y-130775572D01*
G37*
G36*
X93145243Y-130422019D02*
X92084583Y-129361359D01*
X92261359Y-129184583D01*
X93322019Y-130245243D01*
X93145243Y-130422019D01*
X93145243Y-130422019D01*
G37*
G36*
X93498796Y-130068465D02*
X92438136Y-129007805D01*
X92614912Y-128831029D01*
X93675572Y-129891689D01*
X93498796Y-130068465D01*
X93498796Y-130068465D01*
G37*
G36*
X93852350Y-129714912D02*
X92791690Y-128654252D01*
X92968466Y-128477476D01*
X94029126Y-129538136D01*
X93852350Y-129714912D01*
X93852350Y-129714912D01*
G37*
G36*
X94205903Y-129361359D02*
X93145243Y-128300699D01*
X93322019Y-128123923D01*
X94382679Y-129184583D01*
X94205903Y-129361359D01*
X94205903Y-129361359D01*
G37*
G36*
X94559456Y-129007805D02*
X93498796Y-127947145D01*
X93675572Y-127770369D01*
X94736232Y-128831029D01*
X94559456Y-129007805D01*
X94559456Y-129007805D01*
G37*
G36*
X94913010Y-128654252D02*
X93852350Y-127593592D01*
X94029126Y-127416816D01*
X95089786Y-128477476D01*
X94913010Y-128654252D01*
X94913010Y-128654252D01*
G37*
G36*
X95266563Y-128300699D02*
X94205903Y-127240039D01*
X94382679Y-127063263D01*
X95443339Y-128123923D01*
X95266563Y-128300699D01*
X95266563Y-128300699D01*
G37*
G36*
X95620117Y-127947145D02*
X94559457Y-126886485D01*
X94736233Y-126709709D01*
X95796893Y-127770369D01*
X95620117Y-127947145D01*
X95620117Y-127947145D01*
G37*
G36*
X95973670Y-127593592D02*
X94913010Y-126532932D01*
X95089786Y-126356156D01*
X96150446Y-127416816D01*
X95973670Y-127593592D01*
X95973670Y-127593592D01*
G37*
G36*
X96327223Y-127240038D02*
X95266563Y-126179378D01*
X95443339Y-126002602D01*
X96503999Y-127063262D01*
X96327223Y-127240038D01*
X96327223Y-127240038D01*
G37*
G36*
X96680777Y-126886485D02*
X95620117Y-125825825D01*
X95796893Y-125649049D01*
X96857553Y-126709709D01*
X96680777Y-126886485D01*
X96680777Y-126886485D01*
G37*
G36*
X97034330Y-126532932D02*
X95973670Y-125472272D01*
X96150446Y-125295496D01*
X97211106Y-126356156D01*
X97034330Y-126532932D01*
X97034330Y-126532932D01*
G37*
G36*
X97387884Y-126179378D02*
X96327224Y-125118718D01*
X96504000Y-124941942D01*
X97564660Y-126002602D01*
X97387884Y-126179378D01*
X97387884Y-126179378D01*
G37*
G36*
X96327224Y-123881282D02*
X97387884Y-122820622D01*
X97564660Y-122997398D01*
X96504000Y-124058058D01*
X96327224Y-123881282D01*
X96327224Y-123881282D01*
G37*
G36*
X95973670Y-123527728D02*
X97034330Y-122467068D01*
X97211106Y-122643844D01*
X96150446Y-123704504D01*
X95973670Y-123527728D01*
X95973670Y-123527728D01*
G37*
G36*
X95620117Y-123174175D02*
X96680777Y-122113515D01*
X96857553Y-122290291D01*
X95796893Y-123350951D01*
X95620117Y-123174175D01*
X95620117Y-123174175D01*
G37*
G36*
X95266563Y-122820622D02*
X96327223Y-121759962D01*
X96503999Y-121936738D01*
X95443339Y-122997398D01*
X95266563Y-122820622D01*
X95266563Y-122820622D01*
G37*
G36*
X94913010Y-122467068D02*
X95973670Y-121406408D01*
X96150446Y-121583184D01*
X95089786Y-122643844D01*
X94913010Y-122467068D01*
X94913010Y-122467068D01*
G37*
G36*
X94559457Y-122113515D02*
X95620117Y-121052855D01*
X95796893Y-121229631D01*
X94736233Y-122290291D01*
X94559457Y-122113515D01*
X94559457Y-122113515D01*
G37*
G36*
X94205903Y-121759961D02*
X95266563Y-120699301D01*
X95443339Y-120876077D01*
X94382679Y-121936737D01*
X94205903Y-121759961D01*
X94205903Y-121759961D01*
G37*
G36*
X93852350Y-121406408D02*
X94913010Y-120345748D01*
X95089786Y-120522524D01*
X94029126Y-121583184D01*
X93852350Y-121406408D01*
X93852350Y-121406408D01*
G37*
G36*
X93498796Y-121052855D02*
X94559456Y-119992195D01*
X94736232Y-120168971D01*
X93675572Y-121229631D01*
X93498796Y-121052855D01*
X93498796Y-121052855D01*
G37*
G36*
X93145243Y-120699301D02*
X94205903Y-119638641D01*
X94382679Y-119815417D01*
X93322019Y-120876077D01*
X93145243Y-120699301D01*
X93145243Y-120699301D01*
G37*
G36*
X92791690Y-120345748D02*
X93852350Y-119285088D01*
X94029126Y-119461864D01*
X92968466Y-120522524D01*
X92791690Y-120345748D01*
X92791690Y-120345748D01*
G37*
G36*
X92438136Y-119992195D02*
X93498796Y-118931535D01*
X93675572Y-119108311D01*
X92614912Y-120168971D01*
X92438136Y-119992195D01*
X92438136Y-119992195D01*
G37*
G36*
X92084583Y-119638641D02*
X93145243Y-118577981D01*
X93322019Y-118754757D01*
X92261359Y-119815417D01*
X92084583Y-119638641D01*
X92084583Y-119638641D01*
G37*
G36*
X91731029Y-119285088D02*
X92791689Y-118224428D01*
X92968465Y-118401204D01*
X91907805Y-119461864D01*
X91731029Y-119285088D01*
X91731029Y-119285088D01*
G37*
G36*
X91377476Y-118931534D02*
X92438136Y-117870874D01*
X92614912Y-118047650D01*
X91554252Y-119108310D01*
X91377476Y-118931534D01*
X91377476Y-118931534D01*
G37*
G36*
X91023923Y-118577981D02*
X92084583Y-117517321D01*
X92261359Y-117694097D01*
X91200699Y-118754757D01*
X91023923Y-118577981D01*
X91023923Y-118577981D01*
G37*
G36*
X90670369Y-118224428D02*
X91731029Y-117163768D01*
X91907805Y-117340544D01*
X90847145Y-118401204D01*
X90670369Y-118224428D01*
X90670369Y-118224428D01*
G37*
G36*
X90316816Y-117870874D02*
X91377476Y-116810214D01*
X91554252Y-116986990D01*
X90493592Y-118047650D01*
X90316816Y-117870874D01*
X90316816Y-117870874D01*
G37*
G36*
X89963263Y-117517321D02*
X91023923Y-116456661D01*
X91200699Y-116633437D01*
X90140039Y-117694097D01*
X89963263Y-117517321D01*
X89963263Y-117517321D01*
G37*
G36*
X89609709Y-117163767D02*
X90670369Y-116103107D01*
X90847145Y-116279883D01*
X89786485Y-117340543D01*
X89609709Y-117163767D01*
X89609709Y-117163767D01*
G37*
G36*
X89256156Y-116810214D02*
X90316816Y-115749554D01*
X90493592Y-115926330D01*
X89432932Y-116986990D01*
X89256156Y-116810214D01*
X89256156Y-116810214D01*
G37*
G36*
X88902602Y-116456661D02*
X89963262Y-115396001D01*
X90140038Y-115572777D01*
X89079378Y-116633437D01*
X88902602Y-116456661D01*
X88902602Y-116456661D01*
G37*
G36*
X88549049Y-116103107D02*
X89609709Y-115042447D01*
X89786485Y-115219223D01*
X88725825Y-116279883D01*
X88549049Y-116103107D01*
X88549049Y-116103107D01*
G37*
G36*
X88195496Y-115749554D02*
X89256156Y-114688894D01*
X89432932Y-114865670D01*
X88372272Y-115926330D01*
X88195496Y-115749554D01*
X88195496Y-115749554D01*
G37*
G36*
X87841942Y-115396000D02*
X88902602Y-114335340D01*
X89079378Y-114512116D01*
X88018718Y-115572776D01*
X87841942Y-115396000D01*
X87841942Y-115396000D01*
G37*
D21*
X99950000Y-109800000D03*
X99000000Y-109800000D03*
X98050000Y-109800000D03*
X98050000Y-112200000D03*
X99000000Y-112200000D03*
X99950000Y-112200000D03*
D10*
G36*
X70469849Y-111768629D02*
X69762742Y-112475736D01*
X69267767Y-111980761D01*
X69974874Y-111273654D01*
X70469849Y-111768629D01*
X70469849Y-111768629D01*
G37*
G36*
X69798097Y-111096878D02*
X69090990Y-111803985D01*
X68596015Y-111309010D01*
X69303122Y-110601903D01*
X69798097Y-111096878D01*
X69798097Y-111096878D01*
G37*
G36*
X69126346Y-110425126D02*
X68419239Y-111132233D01*
X67924264Y-110637258D01*
X68631371Y-109930151D01*
X69126346Y-110425126D01*
X69126346Y-110425126D01*
G37*
G36*
X67429290Y-112122183D02*
X66722183Y-112829290D01*
X66227208Y-112334315D01*
X66934315Y-111627208D01*
X67429290Y-112122183D01*
X67429290Y-112122183D01*
G37*
G36*
X68101041Y-112793934D02*
X67393934Y-113501041D01*
X66898959Y-113006066D01*
X67606066Y-112298959D01*
X68101041Y-112793934D01*
X68101041Y-112793934D01*
G37*
G36*
X68772792Y-113465685D02*
X68065685Y-114172792D01*
X67570710Y-113677817D01*
X68277817Y-112970710D01*
X68772792Y-113465685D01*
X68772792Y-113465685D01*
G37*
D22*
X105900000Y-120700000D03*
D23*
X105900000Y-123050000D03*
D10*
G36*
X79575736Y-116060660D02*
X78939340Y-115424264D01*
X79363604Y-115000000D01*
X80000000Y-115636396D01*
X79575736Y-116060660D01*
X79575736Y-116060660D01*
G37*
G36*
X80636396Y-115000000D02*
X80000000Y-114363604D01*
X80424264Y-113939340D01*
X81060660Y-114575736D01*
X80636396Y-115000000D01*
X80636396Y-115000000D01*
G37*
G36*
X78375736Y-114860660D02*
X77739340Y-114224264D01*
X78163604Y-113800000D01*
X78800000Y-114436396D01*
X78375736Y-114860660D01*
X78375736Y-114860660D01*
G37*
G36*
X79436396Y-113800000D02*
X78800000Y-113163604D01*
X79224264Y-112739340D01*
X79860660Y-113375736D01*
X79436396Y-113800000D01*
X79436396Y-113800000D01*
G37*
G36*
X77760660Y-120524264D02*
X77124264Y-121160660D01*
X76700000Y-120736396D01*
X77336396Y-120100000D01*
X77760660Y-120524264D01*
X77760660Y-120524264D01*
G37*
G36*
X76700000Y-119463604D02*
X76063604Y-120100000D01*
X75639340Y-119675736D01*
X76275736Y-119039340D01*
X76700000Y-119463604D01*
X76700000Y-119463604D01*
G37*
G36*
X76560660Y-121724264D02*
X75924264Y-122360660D01*
X75500000Y-121936396D01*
X76136396Y-121300000D01*
X76560660Y-121724264D01*
X76560660Y-121724264D01*
G37*
G36*
X75500000Y-120663604D02*
X74863604Y-121300000D01*
X74439340Y-120875736D01*
X75075736Y-120239340D01*
X75500000Y-120663604D01*
X75500000Y-120663604D01*
G37*
G36*
X73239340Y-122075736D02*
X73875736Y-121439340D01*
X74300000Y-121863604D01*
X73663604Y-122500000D01*
X73239340Y-122075736D01*
X73239340Y-122075736D01*
G37*
G36*
X74300000Y-123136396D02*
X74936396Y-122500000D01*
X75360660Y-122924264D01*
X74724264Y-123560660D01*
X74300000Y-123136396D01*
X74300000Y-123136396D01*
G37*
D20*
X100550000Y-114900000D03*
X99050000Y-114900000D03*
X100550000Y-116600000D03*
X99050000Y-116600000D03*
X75550000Y-113800000D03*
X74050000Y-113800000D03*
X75550000Y-112100000D03*
X74050000Y-112100000D03*
D24*
X71900000Y-135795000D03*
X66500000Y-135795000D03*
X71900000Y-137065000D03*
X66500000Y-137065000D03*
X71900000Y-138335000D03*
X66500000Y-138335000D03*
X71900000Y-139605000D03*
X66500000Y-139605000D03*
D10*
G36*
X71760660Y-110224264D02*
X71124264Y-110860660D01*
X70700000Y-110436396D01*
X71336396Y-109800000D01*
X71760660Y-110224264D01*
X71760660Y-110224264D01*
G37*
G36*
X70700000Y-109163604D02*
X70063604Y-109800000D01*
X69639340Y-109375736D01*
X70275736Y-108739340D01*
X70700000Y-109163604D01*
X70700000Y-109163604D01*
G37*
D25*
X83775300Y-119412200D03*
X74050000Y-110900000D03*
X109900000Y-109700000D03*
X109800000Y-121000000D03*
X103800000Y-120700000D03*
X67841100Y-135757600D03*
X100704900Y-136687800D03*
X69569300Y-108618900D03*
X90615300Y-112500000D03*
X97542800Y-126864600D03*
X74390600Y-120081500D03*
X81263400Y-115202800D03*
X76713400Y-133596700D03*
X103961600Y-112789400D03*
X90940700Y-124637100D03*
X98058200Y-115685400D03*
X98937100Y-110892000D03*
X87915100Y-116299400D03*
X83062100Y-125227400D03*
X76999500Y-126621600D03*
X86421400Y-131860300D03*
X66734300Y-113692600D03*
X78893100Y-120492900D03*
X82300000Y-115400000D03*
X83093600Y-120282900D03*
X82317700Y-116486600D03*
X85504000Y-135116500D03*
X83400000Y-137562300D03*
X96003900Y-112039800D03*
X68831700Y-114239100D03*
X67841100Y-137082100D03*
X89945500Y-129675400D03*
X97550000Y-132962300D03*
X98291800Y-136269100D03*
X87953900Y-114447300D03*
X89744900Y-111041700D03*
X93719400Y-112247900D03*
X99950000Y-111097700D03*
X92329400Y-113099100D03*
X95319900Y-124187700D03*
X96754700Y-139031600D03*
X85100000Y-137557200D03*
X81634200Y-117770500D03*
X73268300Y-121215600D03*
X79507600Y-125312700D03*
X65972500Y-111594500D03*
X92376900Y-128064200D03*
X94470500Y-129931600D03*
X96993400Y-120563600D03*
X99451300Y-118043300D03*
X103163900Y-117100000D03*
X100800000Y-121550000D03*
X66692400Y-128246100D03*
X85689200Y-125565800D03*
X86121700Y-129881700D03*
X85930900Y-128034700D03*
X84400000Y-141850000D03*
X71200000Y-113600000D03*
X77886700Y-124500000D03*
X78200000Y-110400000D03*
X85450000Y-111050000D03*
X95827200Y-108317400D03*
X93327900Y-114037100D03*
X99448500Y-108317400D03*
X94150000Y-106850000D03*
X88947300Y-117998700D03*
X100300000Y-107400000D03*
X73400000Y-110100000D03*
X71400000Y-111900000D03*
X70200000Y-138350000D03*
X101850000Y-114900000D03*
X70000000Y-127250000D03*
X75550000Y-117800000D03*
D26*
X82450300Y-118843100D02*
X83169500Y-119562200D01*
X83319500Y-119412200D02*
X83169500Y-119562200D01*
X83775300Y-119412200D02*
X83319500Y-119412200D01*
D27*
X74050000Y-112100000D02*
X74050000Y-110900000D01*
X74050000Y-112100000D02*
X74050000Y-113800000D01*
D28*
X105900000Y-120700000D02*
X103800000Y-120700000D01*
D26*
X66500000Y-135795000D02*
X67517000Y-135795000D01*
X67554400Y-135757600D02*
X67517000Y-135795000D01*
X67841100Y-135757600D02*
X67554400Y-135757600D01*
X99600000Y-136600000D02*
X100367000Y-136600000D01*
X100454800Y-136687800D02*
X100367000Y-136600000D01*
X100704900Y-136687800D02*
X100454800Y-136687800D01*
X74969700Y-120769700D02*
X76169700Y-119569700D01*
X69197100Y-111202900D02*
X68760800Y-110766600D01*
X70169700Y-109269700D02*
X68716800Y-110722600D01*
X68760800Y-110766600D02*
X68716800Y-110722600D01*
X68525400Y-110531200D02*
X68525300Y-110531200D01*
X68716800Y-110722600D02*
X68525400Y-110531200D01*
X70169700Y-109269700D02*
X69768700Y-108868700D01*
X69768700Y-108818300D02*
X69768700Y-108868700D01*
X69569300Y-108618900D02*
X69768700Y-108818300D01*
X80530300Y-114469700D02*
X79330300Y-113269700D01*
X74969700Y-120769700D02*
X74568700Y-120368700D01*
X74568700Y-120259600D02*
X74568700Y-120368700D01*
X74390600Y-120081500D02*
X74568700Y-120259600D01*
X80530300Y-114469700D02*
X81263400Y-115202800D01*
X104217000Y-133367000D02*
X104217000Y-134400000D01*
X103200000Y-132350000D02*
X104217000Y-133367000D01*
X102950000Y-134400000D02*
X104217000Y-134400000D01*
X98050000Y-112200000D02*
X98667000Y-112200000D01*
X99000000Y-112200000D02*
X98667000Y-112200000D01*
X99050000Y-116600000D02*
X98483000Y-116600000D01*
X99050000Y-114900000D02*
X99050000Y-115617000D01*
X98976200Y-115617000D02*
X99050000Y-115617000D01*
X98483000Y-116110200D02*
X98976200Y-115617000D01*
X98058200Y-115685400D02*
X98483000Y-116110200D01*
X98483000Y-116110200D02*
X98483000Y-116600000D01*
X99000000Y-109800000D02*
X99000000Y-110892000D01*
X99000000Y-110892000D02*
X99000000Y-112200000D01*
X98937100Y-110892000D02*
X99000000Y-110892000D01*
X88814200Y-115307600D02*
X88095000Y-116026800D01*
X88095000Y-116119500D02*
X88095000Y-116026800D01*
X87915100Y-116299400D02*
X88095000Y-116119500D01*
X96592400Y-125914200D02*
X97542800Y-126864600D01*
X83157400Y-118136000D02*
X82438300Y-117416800D01*
X78207600Y-125914200D02*
X77488400Y-126633400D01*
X77476500Y-126621600D02*
X77488400Y-126633400D01*
X76999500Y-126621600D02*
X77476500Y-126621600D01*
X86545100Y-132813200D02*
X86705100Y-132973100D01*
X86545100Y-131984000D02*
X86545100Y-132813200D01*
X86421400Y-131860300D02*
X86545100Y-131984000D01*
X85985800Y-133692400D02*
X86705100Y-132973100D01*
X79975400Y-121318000D02*
X79256200Y-120598700D01*
X79621800Y-121671600D02*
X78902600Y-120952300D01*
X67500000Y-112900000D02*
X66957700Y-113442300D01*
X66957700Y-113469200D02*
X66957700Y-113442300D01*
X66734300Y-113692600D02*
X66957700Y-113469200D01*
X82181400Y-117160000D02*
X82438300Y-117416800D01*
X82038800Y-117160000D02*
X82181400Y-117160000D01*
X81644300Y-116765500D02*
X82038800Y-117160000D01*
X81644300Y-116444300D02*
X81644300Y-116765500D01*
X81263400Y-116063400D02*
X81644300Y-116444300D01*
X81263400Y-115202800D02*
X81263400Y-116063400D01*
X79256200Y-120598700D02*
X79127600Y-120727300D01*
X79127600Y-120727300D02*
X78902600Y-120952300D01*
X78893100Y-120492900D02*
X79127600Y-120727300D01*
X83864466Y-117428932D02*
X83864466Y-117414466D01*
X83864466Y-117414466D02*
X83050000Y-116600000D01*
X83050000Y-116600000D02*
X83050000Y-116150000D01*
X83050000Y-116150000D02*
X82300000Y-115400000D01*
X82815800Y-120005100D02*
X82815800Y-119915800D01*
X83093600Y-120282900D02*
X82815800Y-120005100D01*
X82096700Y-119196700D02*
X82815800Y-119915800D01*
X82791700Y-116960600D02*
X82791700Y-117063200D01*
X82317700Y-116486600D02*
X82791700Y-116960600D01*
X83510900Y-117782500D02*
X82791700Y-117063200D01*
X83510900Y-131217500D02*
X84230200Y-130498200D01*
X62500000Y-112550000D02*
X62500000Y-113167000D01*
X84409900Y-130678000D02*
X84230200Y-130498200D01*
X85844100Y-130678000D02*
X84409900Y-130678000D01*
X86353000Y-131186900D02*
X85844100Y-130678000D01*
X86700400Y-131186900D02*
X86353000Y-131186900D01*
X87094800Y-131581300D02*
X86700400Y-131186900D01*
X87094800Y-131928700D02*
X87094800Y-131581300D01*
X87274800Y-132108700D02*
X87094800Y-131928700D01*
X87274800Y-134298300D02*
X87274800Y-132108700D01*
X85842100Y-135731000D02*
X87274800Y-134298300D01*
X85842100Y-141589000D02*
X85842100Y-135731000D01*
X84740900Y-142690200D02*
X85842100Y-141589000D01*
X84740900Y-148052100D02*
X84740900Y-142690200D01*
X83944500Y-148848500D02*
X84740900Y-148052100D01*
X64751200Y-148848500D02*
X83944500Y-148848500D01*
X64420900Y-148518200D02*
X64751200Y-148848500D01*
X64420900Y-144536900D02*
X64420900Y-148518200D01*
X65211400Y-143746400D02*
X64420900Y-144536900D01*
X65211400Y-142890800D02*
X65211400Y-143746400D01*
X68530100Y-139572100D02*
X65211400Y-142890800D01*
X68530100Y-119197100D02*
X68530100Y-139572100D01*
X62500000Y-113167000D02*
X68530100Y-119197100D01*
X62500000Y-110650000D02*
X64700000Y-110650000D01*
D28*
X105900000Y-125800000D02*
X105900000Y-123050000D01*
D26*
X86339300Y-134045900D02*
X85620200Y-134765000D01*
X85620200Y-135000300D02*
X85620200Y-134765000D01*
X85504000Y-135116500D02*
X85620200Y-135000300D01*
X78269700Y-114330300D02*
X79469700Y-115530300D01*
X83400000Y-137562300D02*
X83400000Y-138450000D01*
X95800000Y-111150000D02*
X95800000Y-111717000D01*
X96003900Y-111920900D02*
X95800000Y-111717000D01*
X96003900Y-112039800D02*
X96003900Y-111920900D01*
X68171800Y-113571800D02*
X68608100Y-114008000D01*
X66500000Y-137065000D02*
X67517000Y-137065000D01*
X67534100Y-137082100D02*
X67517000Y-137065000D01*
X67841100Y-137082100D02*
X67534100Y-137082100D01*
X97550000Y-132962300D02*
X97550000Y-134000000D01*
X97200000Y-136600000D02*
X97967000Y-136600000D01*
X97967000Y-136593900D02*
X97967000Y-136600000D01*
X98291800Y-136269100D02*
X97967000Y-136593900D01*
X88460700Y-114954100D02*
X87953900Y-114447300D01*
X93900000Y-111150000D02*
X93900000Y-111717000D01*
X93719400Y-111897600D02*
X93900000Y-111717000D01*
X93719400Y-112247900D02*
X93719400Y-111897600D01*
X99950000Y-112200000D02*
X99950000Y-111097700D01*
X91900000Y-111150000D02*
X91900000Y-111717000D01*
X92329400Y-112146400D02*
X91900000Y-111717000D01*
X92329400Y-113099100D02*
X92329400Y-112146400D01*
X97650000Y-139400000D02*
X97083000Y-139400000D01*
X97083000Y-139359900D02*
X97083000Y-139400000D01*
X96754700Y-139031600D02*
X97083000Y-139359900D01*
X95572900Y-124187700D02*
X96945900Y-125560700D01*
X95319900Y-124187700D02*
X95572900Y-124187700D01*
X85100000Y-137557200D02*
X85100000Y-138450000D01*
X82803800Y-118489600D02*
X82084700Y-117770500D01*
X82084700Y-117770500D02*
X81634200Y-117770500D01*
X79976700Y-116113000D02*
X79976700Y-116037300D01*
X81634200Y-117770500D02*
X79976700Y-116113000D01*
X79469700Y-115530300D02*
X79976700Y-116037300D01*
X73769700Y-121969700D02*
X73368700Y-121568700D01*
X73368700Y-121316000D02*
X73368700Y-121568700D01*
X73268300Y-121215600D02*
X73368700Y-121316000D01*
X68608000Y-114015400D02*
X68831700Y-114239100D01*
X68608000Y-114008100D02*
X68608000Y-114015400D01*
X68608100Y-114008000D02*
X68608000Y-114008100D01*
X78561200Y-126267800D02*
X79280400Y-125548600D01*
X79280300Y-125548600D02*
X79280400Y-125548600D01*
X79280300Y-125540000D02*
X79280300Y-125548600D01*
X79507600Y-125312700D02*
X79280300Y-125540000D01*
X66828200Y-112228200D02*
X66392000Y-111791900D01*
X64700000Y-112150000D02*
X65417000Y-112150000D01*
X66194500Y-111594500D02*
X65972500Y-111594500D01*
X66392000Y-111791900D02*
X66194500Y-111594500D01*
X65972500Y-111594500D02*
X65417000Y-112150000D01*
X100933000Y-137550000D02*
X99600000Y-137550000D01*
X101683000Y-136800000D02*
X100933000Y-137550000D01*
X102950000Y-136800000D02*
X101683000Y-136800000D01*
X102950000Y-136000000D02*
X101683000Y-136000000D01*
X101333000Y-135650000D02*
X99600000Y-135650000D01*
X101683000Y-136000000D02*
X101333000Y-135650000D01*
X99050000Y-134000000D02*
X99050000Y-134467000D01*
X99616000Y-135033000D02*
X99050000Y-134467000D01*
X99600000Y-135033000D02*
X99616000Y-135033000D01*
X99600000Y-135650000D02*
X99600000Y-135033000D01*
X96789000Y-134622000D02*
X97200000Y-135033000D01*
X96789000Y-128232200D02*
X96789000Y-134622000D01*
X95531700Y-126974900D02*
X96789000Y-128232200D01*
X97200000Y-135650000D02*
X97200000Y-135033000D01*
X96233000Y-128383200D02*
X96233000Y-137550000D01*
X95178200Y-127328400D02*
X96233000Y-128383200D01*
X97200000Y-137550000D02*
X96233000Y-137550000D01*
D28*
X108400000Y-125760000D02*
X108440000Y-125800000D01*
X108400000Y-116300000D02*
X108400000Y-125760000D01*
X106340000Y-102560000D02*
X106340000Y-105100000D01*
X108400000Y-107160000D02*
X108400000Y-112100000D01*
X106340000Y-105100000D02*
X108400000Y-107160000D01*
D26*
X93004100Y-128064200D02*
X92376900Y-128064200D01*
X93044900Y-128023400D02*
X93004100Y-128064200D01*
X93764000Y-128742600D02*
X93044900Y-128023400D01*
X94245800Y-129931600D02*
X94470500Y-129931600D01*
X93410400Y-129096200D02*
X94245800Y-129931600D01*
X96251100Y-121305900D02*
X96993400Y-120563600D01*
X96251000Y-121305900D02*
X96251100Y-121305900D01*
X96251000Y-121305800D02*
X96251000Y-121305900D01*
X95531700Y-122025100D02*
X96251000Y-121305800D01*
X94471100Y-120964500D02*
X97392300Y-118043300D01*
X97392300Y-118043300D02*
X99451300Y-118043300D01*
X95885300Y-122378700D02*
X96604600Y-121659400D01*
X100341800Y-119922100D02*
X103163900Y-117100000D01*
X98587300Y-119922100D02*
X100341800Y-119922100D01*
X97272400Y-121237000D02*
X98587300Y-119922100D01*
X97179500Y-121237000D02*
X97272400Y-121237000D01*
X96757000Y-121659500D02*
X97179500Y-121237000D01*
X96604600Y-121659500D02*
X96757000Y-121659500D01*
X96604600Y-121659400D02*
X96604600Y-121659500D01*
X96238800Y-122732200D02*
X96958000Y-122013000D01*
X97481200Y-121531500D02*
X100800000Y-121550000D01*
X96999600Y-122013100D02*
X97481200Y-121531500D01*
X96958000Y-122013100D02*
X96999600Y-122013100D01*
X96958000Y-122013000D02*
X96958000Y-122013100D01*
X99883000Y-139400000D02*
X99150000Y-139400000D01*
X101683000Y-137600000D02*
X99883000Y-139400000D01*
X102950000Y-137600000D02*
X101683000Y-137600000D01*
X65083000Y-129855500D02*
X66692400Y-128246100D01*
X65083000Y-138335000D02*
X65083000Y-129855500D01*
X66500000Y-138335000D02*
X65083000Y-138335000D01*
X95502500Y-125565800D02*
X95519700Y-125548600D01*
X85689200Y-125565800D02*
X95502500Y-125565800D01*
X96238800Y-126267800D02*
X95519700Y-125548600D01*
X94471100Y-128035500D02*
X93752000Y-127316300D01*
X93751900Y-127316400D02*
X93752000Y-127316300D01*
X92190400Y-127316400D02*
X93751900Y-127316400D01*
X92116000Y-127390800D02*
X92190400Y-127316400D01*
X91987600Y-127390800D02*
X92116000Y-127390800D01*
X91896000Y-127482400D02*
X91987600Y-127390800D01*
X91232500Y-127482400D02*
X91896000Y-127482400D01*
X90876600Y-127838300D02*
X91232500Y-127482400D01*
X88165100Y-127838300D02*
X90876600Y-127838300D01*
X86121700Y-129881700D02*
X88165100Y-127838300D01*
X87008000Y-126957600D02*
X85930900Y-128034700D01*
X94100200Y-126957600D02*
X87008000Y-126957600D01*
X94824600Y-127682000D02*
X94100200Y-126957600D01*
X90582000Y-117075400D02*
X91301300Y-116356100D01*
X91900000Y-109650000D02*
X91900000Y-110217000D01*
X89282200Y-109600000D02*
X90793300Y-111111100D01*
X89240000Y-109600000D02*
X89282200Y-109600000D01*
X91687400Y-110217000D02*
X91900000Y-110217000D01*
X90793300Y-111111100D02*
X91687400Y-110217000D01*
X90793300Y-111725600D02*
X90793300Y-111111100D01*
X91288700Y-112221000D02*
X90793300Y-111725600D01*
X91288700Y-113034800D02*
X91288700Y-112221000D01*
X91368600Y-113114700D02*
X91288700Y-113034800D01*
X91368600Y-116084900D02*
X91368600Y-113114700D01*
X91301200Y-116152300D02*
X91368600Y-116084900D01*
X91301200Y-116356100D02*
X91301200Y-116152300D01*
X91301300Y-116356100D02*
X91301200Y-116356100D01*
X73329600Y-133620600D02*
X73329600Y-140270400D01*
X79621800Y-127328400D02*
X73329600Y-133620600D01*
X68100000Y-142350000D02*
X66979000Y-143471000D01*
X71250000Y-142350000D02*
X68100000Y-142350000D01*
X73329600Y-140270400D02*
X71250000Y-142350000D01*
X66979000Y-145792000D02*
X65700000Y-147071000D01*
X66979000Y-143471000D02*
X66979000Y-145792000D01*
X65700000Y-147500000D02*
X65700000Y-147071000D01*
X75506000Y-132151400D02*
X75498600Y-132151400D01*
X75506000Y-132151400D02*
X79975400Y-127682000D01*
X68240000Y-143660000D02*
X68240000Y-144960000D01*
X68800000Y-143100000D02*
X68240000Y-143660000D01*
X71200000Y-143100000D02*
X68800000Y-143100000D01*
X74750000Y-139550000D02*
X71200000Y-143100000D01*
X74750000Y-132900000D02*
X74750000Y-139550000D01*
X75498600Y-132151400D02*
X74750000Y-132900000D01*
X75862000Y-132502400D02*
X75862000Y-132538000D01*
X75862000Y-132502400D02*
X80328900Y-128035500D01*
X69500000Y-144400000D02*
X69500000Y-146240000D01*
X70350000Y-143550000D02*
X69500000Y-144400000D01*
X71450000Y-143550000D02*
X70350000Y-143550000D01*
X75150000Y-139850000D02*
X71450000Y-143550000D01*
X75150000Y-133250000D02*
X75150000Y-139850000D01*
X75862000Y-132538000D02*
X75150000Y-133250000D01*
X68240000Y-147500000D02*
X69500000Y-146240000D01*
X76039900Y-133127400D02*
X76022600Y-133127400D01*
X76039900Y-133127400D02*
X79963300Y-129204000D01*
X79963300Y-129204000D02*
X79963300Y-129108300D01*
X80682500Y-128389100D02*
X79963300Y-129108300D01*
X70780000Y-144870000D02*
X70780000Y-144960000D01*
X75600000Y-140050000D02*
X70780000Y-144870000D01*
X75600000Y-135750000D02*
X75600000Y-140050000D01*
X75950000Y-135400000D02*
X75600000Y-135750000D01*
X75950000Y-133200000D02*
X75950000Y-135400000D01*
X76022600Y-133127400D02*
X75950000Y-133200000D01*
X76050000Y-135900000D02*
X76050000Y-140300000D01*
X77654400Y-134295600D02*
X76050000Y-135900000D01*
X81389600Y-129096200D02*
X77661400Y-132824400D01*
X77661400Y-134295600D02*
X77661400Y-132824400D01*
X72000000Y-146280000D02*
X70780000Y-147500000D01*
X77661400Y-134295600D02*
X77654400Y-134295600D01*
X72000000Y-144350000D02*
X72000000Y-146280000D01*
X76050000Y-140300000D02*
X72000000Y-144350000D01*
X78017300Y-133175500D02*
X78017300Y-134482700D01*
X73320000Y-144960000D02*
X73320000Y-143975600D01*
X73320000Y-143975600D02*
X76450000Y-140845600D01*
X78017300Y-133175500D02*
X81743100Y-129449700D01*
X76450000Y-136050000D02*
X76450000Y-140845600D01*
X78017300Y-134482700D02*
X76450000Y-136050000D01*
X78400000Y-133500000D02*
X78400000Y-134650000D01*
X74600000Y-146220000D02*
X73320000Y-147500000D01*
X74600000Y-144250000D02*
X74600000Y-146220000D01*
X76850000Y-142000000D02*
X74600000Y-144250000D01*
X76850000Y-136200000D02*
X76850000Y-142000000D01*
X78400000Y-134650000D02*
X76850000Y-136200000D01*
X82096700Y-129803300D02*
X78400000Y-133500000D01*
X79418850Y-133268850D02*
X79418850Y-133281150D01*
X75860000Y-143890000D02*
X75860000Y-144960000D01*
X77350000Y-142400000D02*
X75860000Y-143890000D01*
X77350000Y-136300000D02*
X77350000Y-142400000D01*
X78800000Y-134850000D02*
X77350000Y-136300000D01*
X78800000Y-133900000D02*
X78800000Y-134850000D01*
X79418850Y-133281150D02*
X78800000Y-133900000D01*
X82450300Y-130156900D02*
X81731200Y-130876000D01*
X81731200Y-130956500D02*
X81731200Y-130876000D01*
X79418850Y-133268850D02*
X81731200Y-130956500D01*
X79782100Y-133532100D02*
X79767900Y-133532100D01*
X77150000Y-146210000D02*
X75860000Y-147500000D01*
X77150000Y-143700000D02*
X77150000Y-146210000D01*
X77850000Y-143000000D02*
X77150000Y-143700000D01*
X77850000Y-136400000D02*
X77850000Y-143000000D01*
X79200000Y-135050000D02*
X77850000Y-136400000D01*
X79200000Y-134100000D02*
X79200000Y-135050000D01*
X79767900Y-133532100D02*
X79200000Y-134100000D01*
X82803800Y-130510400D02*
X79782100Y-133532100D01*
X80110700Y-133910700D02*
X80089300Y-133910700D01*
X78400000Y-136450000D02*
X78400000Y-144960000D01*
X79600000Y-135250000D02*
X78400000Y-136450000D01*
X79600000Y-134400000D02*
X79600000Y-135250000D01*
X80089300Y-133910700D02*
X79600000Y-134400000D01*
X83157400Y-130864000D02*
X80110700Y-133910700D01*
X79670000Y-146230000D02*
X78400000Y-147500000D01*
X79670000Y-136541000D02*
X79670000Y-146230000D01*
X83498800Y-132712200D02*
X79670000Y-136541000D01*
X83498800Y-132643800D02*
X83498800Y-132712200D01*
X84218000Y-131924600D02*
X83498800Y-132643800D01*
X80940000Y-135909800D02*
X80940000Y-144960000D01*
X84571600Y-132278200D02*
X80940000Y-135909800D01*
X82210000Y-135346800D02*
X84925100Y-132631700D01*
X82210000Y-146230000D02*
X82210000Y-135346800D01*
X80940000Y-147500000D02*
X82210000Y-146230000D01*
X83400000Y-144880000D02*
X83400000Y-139950000D01*
X83480000Y-144960000D02*
X83400000Y-144880000D01*
X83400000Y-139950000D02*
X83400000Y-139383000D01*
X82682900Y-135581100D02*
X85278700Y-132985300D01*
X82682900Y-138878500D02*
X82682900Y-135581100D01*
X83187400Y-139383000D02*
X82682900Y-138878500D01*
X83400000Y-139383000D02*
X83187400Y-139383000D01*
X85100000Y-139950000D02*
X85100000Y-141150000D01*
X85100000Y-141150000D02*
X84400000Y-141850000D01*
X85100000Y-139950000D02*
X85100000Y-139383000D01*
X84382900Y-134588100D02*
X85632200Y-133338800D01*
X84382900Y-138878500D02*
X84382900Y-134588100D01*
X84887400Y-139383000D02*
X84382900Y-138878500D01*
X85100000Y-139383000D02*
X84887400Y-139383000D01*
X86375900Y-136130700D02*
X88460700Y-134045900D01*
X86375900Y-144604100D02*
X86375900Y-136130700D01*
X86020000Y-144960000D02*
X86375900Y-144604100D01*
X87272100Y-146247900D02*
X86020000Y-147500000D01*
X87272100Y-142982300D02*
X87272100Y-146247900D01*
X89450000Y-140804400D02*
X87272100Y-142982300D01*
X89450000Y-134328200D02*
X89450000Y-140804400D01*
X88814200Y-133692400D02*
X89450000Y-134328200D01*
X89900000Y-134025322D02*
X89887000Y-134057900D01*
X89900000Y-143726299D02*
X89900000Y-134025322D01*
X88560000Y-144960000D02*
X89900000Y-143726299D01*
X89167800Y-133338800D02*
X89887000Y-134057900D01*
X89830000Y-146230000D02*
X88560000Y-147500000D01*
X89830000Y-144470000D02*
X89830000Y-146230000D01*
X90350000Y-143950000D02*
X89830000Y-144470000D01*
X90350000Y-133814000D02*
X90350000Y-143950000D01*
X89521300Y-132985300D02*
X90350000Y-133814000D01*
X90850000Y-144710000D02*
X91100000Y-144960000D01*
X90850000Y-133702500D02*
X90850000Y-144710000D01*
X89874900Y-132727400D02*
X90850000Y-133702500D01*
X89874900Y-132631700D02*
X89874900Y-132727400D01*
X90228427Y-132278175D02*
X90228427Y-132278427D01*
X90228427Y-132278427D02*
X91350000Y-133400000D01*
X91350000Y-133400000D02*
X91350000Y-143300000D01*
X91350000Y-143300000D02*
X92331900Y-144281900D01*
X92331900Y-144281900D02*
X92331900Y-146268100D01*
X92331900Y-146268100D02*
X91100000Y-147500000D01*
X91750000Y-143070000D02*
X93640000Y-144960000D01*
X91750000Y-133092600D02*
X91750000Y-143070000D01*
X90582000Y-131924600D02*
X91750000Y-133092600D01*
X94921900Y-146218100D02*
X93640000Y-147500000D01*
X94921900Y-144539900D02*
X94921900Y-146218100D01*
X92250000Y-141868000D02*
X94921900Y-144539900D01*
X92250000Y-132885600D02*
X92250000Y-141868000D01*
X90935500Y-131571100D02*
X92250000Y-132885600D01*
X92700000Y-132628400D02*
X91289100Y-131217500D01*
X92700000Y-141480000D02*
X92700000Y-132628400D01*
X96180000Y-144960000D02*
X92700000Y-141480000D01*
X97411900Y-146268100D02*
X96180000Y-147500000D01*
X97411900Y-144490100D02*
X97411900Y-146268100D01*
X93200000Y-140278200D02*
X97411900Y-144490100D01*
X93200000Y-132421400D02*
X93200000Y-140278200D01*
X91642600Y-130864000D02*
X93200000Y-132421400D01*
X93700000Y-139940000D02*
X98720000Y-144960000D01*
X93700000Y-132214200D02*
X93700000Y-139940000D01*
X91996200Y-130510400D02*
X93700000Y-132214200D01*
X66500000Y-139605000D02*
X65483000Y-139605000D01*
X96915600Y-149304400D02*
X98720000Y-147500000D01*
X64403800Y-149304400D02*
X96915600Y-149304400D01*
X63865000Y-148765600D02*
X64403800Y-149304400D01*
X63865000Y-141223000D02*
X63865000Y-148765600D01*
X65483000Y-139605000D02*
X63865000Y-141223000D01*
X94210500Y-132017700D02*
X92349700Y-130156900D01*
X94210500Y-138810500D02*
X94210500Y-132017700D01*
X99983200Y-144583200D02*
X94210500Y-138810500D01*
X99983200Y-146236800D02*
X99983200Y-144583200D01*
X98720000Y-147500000D02*
X99983200Y-146236800D01*
X94609500Y-131709500D02*
X92703300Y-129803300D01*
X94609500Y-138354700D02*
X94609500Y-131709500D01*
X101214800Y-144960000D02*
X94609500Y-138354700D01*
X101260000Y-144960000D02*
X101214800Y-144960000D01*
X95147500Y-131652500D02*
X95147500Y-138376700D01*
X102541900Y-146218100D02*
X101260000Y-147500000D01*
X102541900Y-146218100D02*
X102541900Y-144591900D01*
X102541900Y-144591900D02*
X98378700Y-140428700D01*
X98378700Y-140428700D02*
X97199500Y-140428700D01*
X97199500Y-140428700D02*
X95147500Y-138376700D01*
X93056900Y-129449700D02*
X93776100Y-130168800D01*
X93776000Y-130168900D02*
X93776100Y-130168800D01*
X93776000Y-130281000D02*
X93776000Y-130168900D01*
X95147500Y-131652500D02*
X93776000Y-130281000D01*
X94117500Y-128389100D02*
X94836800Y-129108300D01*
X95368700Y-129640300D02*
X94836800Y-129108300D01*
X95368700Y-129652600D02*
X95368700Y-129640300D01*
X95724600Y-130008500D02*
X95368700Y-129652600D01*
X95724600Y-134658800D02*
X95724600Y-130008500D01*
X95737600Y-134671800D02*
X95724600Y-134658800D01*
X95737600Y-137905400D02*
X95737600Y-134671800D01*
X96182200Y-138350000D02*
X95737600Y-137905400D01*
X97025500Y-138350000D02*
X96182200Y-138350000D01*
X97088400Y-138412900D02*
X97025500Y-138350000D01*
X97796500Y-138412900D02*
X97088400Y-138412900D01*
X98467900Y-139084300D02*
X97796500Y-138412900D01*
X98467900Y-139897100D02*
X98467900Y-139084300D01*
X103530800Y-144960000D02*
X98467900Y-139897100D01*
X103800000Y-144960000D02*
X103530800Y-144960000D01*
X105070000Y-146230000D02*
X103800000Y-147500000D01*
X105070000Y-144315100D02*
X105070000Y-146230000D01*
X107215100Y-142170000D02*
X105070000Y-144315100D01*
X107215100Y-129225900D02*
X107215100Y-142170000D01*
X100351500Y-122362300D02*
X107215100Y-129225900D01*
X97307503Y-122362300D02*
X100351500Y-122362300D01*
X97311700Y-122366500D02*
X97307503Y-122362300D01*
X96592400Y-123085800D02*
X97311700Y-122366500D01*
X78345500Y-127897700D02*
X79268300Y-126974900D01*
X75589800Y-127897700D02*
X78345500Y-127897700D01*
X69540100Y-121848000D02*
X75589800Y-127897700D01*
X69540100Y-113592300D02*
X69540100Y-121848000D01*
X64070900Y-108123100D02*
X69540100Y-113592300D01*
X64070900Y-104189100D02*
X64070900Y-108123100D01*
X65700000Y-102560000D02*
X64070900Y-104189100D01*
X70252000Y-120324000D02*
X70252000Y-113702000D01*
X65700000Y-107203500D02*
X65700000Y-105100000D01*
X65700000Y-107203500D02*
X65705900Y-107209400D01*
X65705900Y-107209400D02*
X65705900Y-109191400D01*
X65741400Y-109191400D02*
X65705900Y-109191400D01*
X70252000Y-113702000D02*
X65741400Y-109191400D01*
X78914700Y-126621300D02*
X78195500Y-127340500D01*
X78176000Y-127321100D02*
X78195500Y-127340500D01*
X75694200Y-127321100D02*
X78176000Y-127321100D01*
X70231600Y-121858500D02*
X75694200Y-127321100D01*
X70231600Y-120303600D02*
X70231600Y-121858500D01*
X70252000Y-120324000D02*
X70231600Y-120303600D01*
X71176700Y-122076300D02*
X71176700Y-113623300D01*
X71176700Y-122076300D02*
X74661100Y-125560700D01*
X77854100Y-125560700D02*
X74661100Y-125560700D01*
X71176700Y-113623300D02*
X71200000Y-113600000D01*
X72192000Y-109052000D02*
X68240000Y-105100000D01*
X72192000Y-122388100D02*
X72192000Y-109052000D01*
X74241500Y-124437600D02*
X72192000Y-122388100D01*
X75417500Y-124437600D02*
X74241500Y-124437600D01*
X77135000Y-122720100D02*
X75417500Y-124437600D01*
X77854100Y-123439300D02*
X77135000Y-122720100D01*
X72552900Y-108702900D02*
X69500000Y-105650000D01*
X69500000Y-103840000D02*
X70780000Y-102560000D01*
X69500000Y-105650000D02*
X69500000Y-103840000D01*
X78561200Y-122732200D02*
X77842100Y-122013000D01*
X72552900Y-122123400D02*
X72552900Y-108702900D01*
X74261200Y-123831700D02*
X72552900Y-122123400D01*
X74968400Y-123831700D02*
X74261200Y-123831700D01*
X74986800Y-123813300D02*
X74968400Y-123831700D01*
X75165700Y-123813300D02*
X74986800Y-123813300D01*
X75292300Y-123686700D02*
X75165700Y-123813300D01*
X75324700Y-123686700D02*
X75292300Y-123686700D01*
X76825300Y-122186100D02*
X75324700Y-123686700D01*
X77669000Y-122186100D02*
X76825300Y-122186100D01*
X77842100Y-122013000D02*
X77669000Y-122186100D01*
X78207600Y-123085800D02*
X78926900Y-123805000D01*
X78231900Y-124500000D02*
X77886700Y-124500000D01*
X78926900Y-123805000D02*
X78231900Y-124500000D01*
X76668300Y-116596700D02*
X80682500Y-120610900D01*
X76668300Y-107832300D02*
X76668300Y-116596700D01*
X74590000Y-105754000D02*
X76668300Y-107832300D01*
X74590000Y-103830000D02*
X74590000Y-105754000D01*
X73320000Y-102560000D02*
X74590000Y-103830000D01*
X80328900Y-120964500D02*
X79609800Y-120245300D01*
X76943700Y-117579300D02*
X79609800Y-120245300D01*
X76943700Y-117498200D02*
X76943700Y-117579300D01*
X76312400Y-116866900D02*
X76943700Y-117498200D01*
X76312400Y-115391400D02*
X76312400Y-116866900D01*
X76303200Y-115382200D02*
X76312400Y-115391400D01*
X76303200Y-108053200D02*
X76303200Y-115382200D01*
X75956500Y-107706500D02*
X76303200Y-108053200D01*
X75956500Y-107736500D02*
X75956500Y-107706500D01*
X73320000Y-105100000D02*
X75956500Y-107736500D01*
X81389600Y-119903800D02*
X77462200Y-115976400D01*
X77115000Y-103815000D02*
X75860000Y-102560000D01*
X77115000Y-106735500D02*
X77115000Y-103815000D01*
X77462200Y-107082700D02*
X77115000Y-106735500D01*
X77462200Y-115976400D02*
X77462200Y-107082700D01*
X75860000Y-106161900D02*
X75860000Y-105100000D01*
X77106300Y-107408200D02*
X75860000Y-106161900D01*
X77106300Y-116327700D02*
X77106300Y-107408200D01*
X81036000Y-120257400D02*
X77106300Y-116327700D01*
X83498800Y-116356100D02*
X83498800Y-115048800D01*
X84218000Y-117075400D02*
X83498800Y-116356100D01*
X78850000Y-110400000D02*
X78200000Y-110400000D01*
X83498800Y-115048800D02*
X78850000Y-110400000D01*
X78400000Y-109311500D02*
X78400000Y-105100000D01*
X83867300Y-114778800D02*
X78400000Y-109311500D01*
X83867300Y-115310500D02*
X83867300Y-114778800D01*
X84925100Y-116368300D02*
X83867300Y-115310500D01*
X85278700Y-116014700D02*
X84559500Y-115295400D01*
X79608100Y-103891900D02*
X80940000Y-102560000D01*
X79608100Y-109866300D02*
X79608100Y-103891900D01*
X84223200Y-114481400D02*
X79608100Y-109866300D01*
X84223200Y-114836400D02*
X84223200Y-114481400D01*
X84559500Y-115172700D02*
X84223200Y-114836400D01*
X84559500Y-115295400D02*
X84559500Y-115172700D01*
X85632200Y-115661200D02*
X84913100Y-114942000D01*
X80942100Y-105102100D02*
X80940000Y-105100000D01*
X80942100Y-110497000D02*
X80942100Y-105102100D01*
X84579100Y-114134000D02*
X80942100Y-110497000D01*
X84579100Y-114589200D02*
X84579100Y-114134000D01*
X84913100Y-114923200D02*
X84579100Y-114589200D01*
X84913100Y-114942000D02*
X84913100Y-114923200D01*
X82250900Y-103789100D02*
X83480000Y-102560000D01*
X82250900Y-111252500D02*
X82250900Y-103789100D01*
X84935000Y-113936600D02*
X82250900Y-111252500D01*
X84935000Y-114256800D02*
X84935000Y-113936600D01*
X85985800Y-115307600D02*
X84935000Y-114256800D01*
X86339300Y-114954100D02*
X85620200Y-114234900D01*
X83480000Y-111828300D02*
X83480000Y-105100000D01*
X85290900Y-113639200D02*
X83480000Y-111828300D01*
X85290900Y-113791100D02*
X85290900Y-113639200D01*
X85620200Y-114120400D02*
X85290900Y-113791100D01*
X85620200Y-114234900D02*
X85620200Y-114120400D01*
X89714600Y-115114400D02*
X89714600Y-114514600D01*
X89167800Y-115661200D02*
X89714600Y-115114400D01*
X86250000Y-111050000D02*
X85450000Y-111050000D01*
X89714600Y-114514600D02*
X86250000Y-111050000D01*
X89521300Y-116014700D02*
X90240600Y-115295400D01*
X90072000Y-115126900D02*
X90240600Y-115295400D01*
X90072000Y-114222000D02*
X90072000Y-115126900D01*
X87854900Y-112004900D02*
X90072000Y-114222000D01*
X87854900Y-108626300D02*
X87854900Y-112004900D01*
X87829200Y-108600600D02*
X87854900Y-108626300D01*
X87829200Y-106909200D02*
X87829200Y-108600600D01*
X86020000Y-105100000D02*
X87829200Y-106909200D01*
X87485100Y-101485100D02*
X88560000Y-102560000D01*
X85622100Y-101485100D02*
X87485100Y-101485100D01*
X84726500Y-102380700D02*
X85622100Y-101485100D01*
X84726500Y-111606300D02*
X84726500Y-102380700D01*
X87225300Y-114105100D02*
X84726500Y-111606300D01*
X87225300Y-116566100D02*
X87225300Y-114105100D01*
X87661500Y-117002300D02*
X87225300Y-116566100D01*
X89070400Y-117002300D02*
X87661500Y-117002300D01*
X89155700Y-117087500D02*
X89070400Y-117002300D01*
X89874900Y-116368300D02*
X89155700Y-117087500D01*
X90767700Y-115822600D02*
X90947700Y-116002500D01*
X90767700Y-113604700D02*
X90767700Y-115822600D01*
X88210900Y-111047900D02*
X90767700Y-113604700D01*
X88210900Y-105449100D02*
X88210900Y-111047900D01*
X88560000Y-105100000D02*
X88210900Y-105449100D01*
X90228400Y-116721800D02*
X90947700Y-116002500D01*
X99475500Y-101300000D02*
X92360000Y-101300000D01*
X99475500Y-101300000D02*
X100049100Y-101873600D01*
X100049100Y-101873600D02*
X100049100Y-106127600D01*
X100049100Y-106127600D02*
X98076200Y-108100500D01*
X98076200Y-108100500D02*
X98076200Y-109006800D01*
X98076200Y-109006800D02*
X98050000Y-109033000D01*
X98050000Y-109800000D02*
X98050000Y-109033000D01*
X92360000Y-101300000D02*
X91100000Y-102560000D01*
X93900000Y-109650000D02*
X93900000Y-109083000D01*
X91100000Y-102560000D02*
X91602000Y-103061900D01*
X92400000Y-107583000D02*
X93900000Y-109083000D01*
X92400000Y-103859981D02*
X92400000Y-107583000D01*
X91602000Y-103061900D02*
X92400000Y-103859981D01*
X93002800Y-109980200D02*
X93900000Y-109083000D01*
X93002800Y-113408800D02*
X93002800Y-109980200D01*
X92654500Y-113757100D02*
X93002800Y-113408800D01*
X92654500Y-115709900D02*
X92654500Y-113757100D01*
X90935500Y-117428900D02*
X92654500Y-115709900D01*
X95800000Y-109650000D02*
X95800000Y-108344600D01*
X95800000Y-108344600D02*
X95827200Y-108317400D01*
X93327900Y-115743700D02*
X93327900Y-114037100D01*
X91289100Y-117782500D02*
X93327900Y-115743700D01*
X99950000Y-109800000D02*
X99950000Y-108833000D01*
X99448600Y-108317400D02*
X99448500Y-108317400D01*
X99448600Y-108331600D02*
X99448600Y-108317400D01*
X99950000Y-108833000D02*
X99448600Y-108331600D01*
X94626500Y-112227500D02*
X94626500Y-107326500D01*
X94626500Y-107326500D02*
X94150000Y-106850000D01*
X94392800Y-112461200D02*
X94626500Y-112227500D01*
X94392800Y-113038800D02*
X94392800Y-112461200D01*
X94001300Y-113430300D02*
X94392800Y-113038800D01*
X94001300Y-114461500D02*
X94001300Y-113430300D01*
X93797700Y-114665100D02*
X94001300Y-114461500D01*
X93797700Y-115980900D02*
X93797700Y-114665100D01*
X91642600Y-118136000D02*
X93797700Y-115980900D01*
X91996200Y-118489600D02*
X91277100Y-119208700D01*
X90157300Y-119208700D02*
X88947300Y-117998700D01*
X91277100Y-119208700D02*
X90157300Y-119208700D01*
X94997400Y-109071200D02*
X94997400Y-106197400D01*
X94900000Y-103840000D02*
X96180000Y-102560000D01*
X94900000Y-106100000D02*
X94900000Y-103840000D01*
X94997400Y-106197400D02*
X94900000Y-106100000D01*
X92349700Y-118843100D02*
X93068900Y-118123900D01*
X94989900Y-109078700D02*
X94997400Y-109071200D01*
X94989900Y-109124300D02*
X94989900Y-109078700D01*
X94987700Y-109126500D02*
X94989900Y-109124300D01*
X94987700Y-112369600D02*
X94987700Y-109126500D01*
X94748700Y-112608600D02*
X94987700Y-112369600D01*
X94748700Y-113186200D02*
X94748700Y-112608600D01*
X94534600Y-113400300D02*
X94748700Y-113186200D01*
X94534600Y-114045000D02*
X94534600Y-113400300D01*
X94357200Y-114222400D02*
X94534600Y-114045000D01*
X94357200Y-114608900D02*
X94357200Y-114222400D01*
X94178700Y-114787400D02*
X94357200Y-114608900D01*
X94178700Y-116385100D02*
X94178700Y-114787400D01*
X94153600Y-116410200D02*
X94178700Y-116385100D01*
X94153600Y-116587100D02*
X94153600Y-116410200D01*
X93202900Y-117537800D02*
X94153600Y-116587100D01*
X93202900Y-117612500D02*
X93202900Y-117537800D01*
X93153900Y-117661500D02*
X93202900Y-117612500D01*
X93153900Y-118036200D02*
X93153900Y-117661500D01*
X93068800Y-118121300D02*
X93153900Y-118036200D01*
X93068800Y-118123900D02*
X93068800Y-118121300D01*
X93068900Y-118123900D02*
X93068800Y-118123900D01*
X95066000Y-116834000D02*
X92703300Y-119196700D01*
X95066000Y-115201300D02*
X95066000Y-116834000D01*
X96677300Y-113590000D02*
X95066000Y-115201300D01*
X96677300Y-105597300D02*
X96677300Y-113590000D01*
X96180000Y-105100000D02*
X96677300Y-105597300D01*
X95599900Y-117007300D02*
X93056900Y-119550300D01*
X95599900Y-115170700D02*
X95599900Y-117007300D01*
X97033200Y-113737400D02*
X95599900Y-115170700D01*
X97033200Y-106718600D02*
X97033200Y-113737400D01*
X97387000Y-106364800D02*
X97033200Y-106718600D01*
X97387000Y-103893000D02*
X97387000Y-106364800D01*
X98720000Y-102560000D02*
X97387000Y-103893000D01*
X98720000Y-106403200D02*
X98720000Y-105100000D01*
X97389200Y-107734000D02*
X98720000Y-106403200D01*
X97389200Y-114387500D02*
X97389200Y-107734000D01*
X95963300Y-115813400D02*
X97389200Y-114387500D01*
X95963300Y-117350900D02*
X95963300Y-115813400D01*
X93410400Y-119903800D02*
X95963300Y-117350900D01*
X100826400Y-112901200D02*
X100826400Y-107926400D01*
X100826400Y-107926400D02*
X100300000Y-107400000D01*
X100398900Y-113328700D02*
X100826400Y-112901200D01*
X98951600Y-113328700D02*
X100398900Y-113328700D01*
X96578400Y-115701900D02*
X98951600Y-113328700D01*
X96578400Y-117443000D02*
X96578400Y-115701900D01*
X93764000Y-120257400D02*
X96578400Y-117443000D01*
X101260000Y-113011000D02*
X101260000Y-105100000D01*
X100586400Y-113684600D02*
X101260000Y-113011000D01*
X99099200Y-113684600D02*
X100586400Y-113684600D01*
X97327000Y-115456800D02*
X99099200Y-113684600D01*
X97327000Y-117401400D02*
X97327000Y-115456800D01*
X94117500Y-120610900D02*
X97327000Y-117401400D01*
X102136200Y-116365000D02*
X102136200Y-116363800D01*
X95587600Y-120555000D02*
X95587600Y-120513800D01*
X95587600Y-120513800D02*
X96567100Y-119534300D01*
X96567100Y-119534300D02*
X97193600Y-119534300D01*
X97193600Y-119534300D02*
X97627900Y-119100000D01*
X97627900Y-119100000D02*
X98378400Y-119100000D01*
X98378400Y-119100000D02*
X98428400Y-119050000D01*
X98428400Y-119050000D02*
X99369000Y-119050000D01*
X99369000Y-119050000D02*
X99456000Y-118963000D01*
X99456000Y-118963000D02*
X99538200Y-118963000D01*
X99538200Y-118963000D02*
X102136200Y-116365000D01*
X102542900Y-115957100D02*
X102542900Y-103817100D01*
X103800000Y-102560000D02*
X102542900Y-103817100D01*
X95587600Y-120555000D02*
X94824600Y-121318000D01*
X102136200Y-116363800D02*
X102542900Y-115957100D01*
X99650000Y-119500000D02*
X103150000Y-116000000D01*
X95943500Y-120906300D02*
X95943500Y-120661200D01*
X95943500Y-120661200D02*
X96714500Y-119890200D01*
X96714500Y-119890200D02*
X97341000Y-119890200D01*
X97341000Y-119890200D02*
X97681200Y-119550000D01*
X97681200Y-119550000D02*
X98431700Y-119550000D01*
X98431700Y-119550000D02*
X98484800Y-119496900D01*
X98484800Y-119496900D02*
X99425400Y-119496900D01*
X99425400Y-119496900D02*
X99422300Y-119500000D01*
X99422300Y-119500000D02*
X99650000Y-119500000D01*
X103148800Y-115295300D02*
X103148800Y-105751200D01*
X103800000Y-105100000D02*
X103148800Y-105751200D01*
X95943500Y-120906300D02*
X95178200Y-121671600D01*
X103150000Y-115296500D02*
X103148800Y-115295300D01*
X103150000Y-116000000D02*
X103150000Y-115296500D01*
X103006600Y-129500000D02*
X103440000Y-129500000D01*
X96945900Y-123439300D02*
X103006600Y-129500000D01*
X104860000Y-130620000D02*
X105980000Y-129500000D01*
X99884000Y-130620000D02*
X104860000Y-130620000D01*
X95885300Y-126621300D02*
X99884000Y-130620000D01*
X74830300Y-123030300D02*
X76030300Y-121830300D01*
X76030300Y-121830300D02*
X77230300Y-120630300D01*
X77230300Y-120630300D02*
X77631300Y-121031300D01*
X77631300Y-121095300D02*
X78914700Y-122378700D01*
X77631300Y-121031300D02*
X77631300Y-121095300D01*
X79778100Y-122953800D02*
X79634000Y-123097900D01*
X81410900Y-122953800D02*
X79778100Y-122953800D01*
X85119600Y-119245100D02*
X81410900Y-122953800D01*
X85119600Y-117612300D02*
X85119600Y-119245100D01*
X85290900Y-117441000D02*
X85119600Y-117612300D01*
X84571600Y-116721800D02*
X85290900Y-117441000D01*
X78914700Y-122378700D02*
X79634000Y-123097900D01*
X79268272Y-122025126D02*
X79268272Y-122018272D01*
X79268272Y-122018272D02*
X78100000Y-120850000D01*
X78100000Y-120850000D02*
X78100000Y-120250000D01*
X78100000Y-120250000D02*
X76550000Y-118700000D01*
X76550000Y-118700000D02*
X74150000Y-118700000D01*
X74150000Y-118700000D02*
X73000000Y-117550000D01*
X73000000Y-117550000D02*
X73000000Y-110500000D01*
X73000000Y-110500000D02*
X73400000Y-110100000D01*
X71400000Y-111900000D02*
X71400000Y-110750000D01*
X71400000Y-110750000D02*
X71230330Y-110580330D01*
X71230330Y-110580330D02*
X71230330Y-110330330D01*
X71230300Y-110330300D02*
X70411100Y-111149500D01*
X70411100Y-111332300D02*
X70411200Y-111332300D01*
X70411100Y-111149500D02*
X70411100Y-111332300D01*
X69868800Y-111874700D02*
X70411200Y-111332300D01*
D27*
X70215000Y-138335000D02*
X71900000Y-138335000D01*
X70200000Y-138350000D02*
X70215000Y-138335000D01*
X100550000Y-114900000D02*
X101850000Y-114900000D01*
X100550000Y-114900000D02*
X100550000Y-116600000D01*
X70565000Y-137065000D02*
X71900000Y-137065000D01*
X70050000Y-136550000D02*
X70565000Y-137065000D01*
X70050000Y-134550000D02*
X70050000Y-136550000D01*
X70000000Y-134500000D02*
X70050000Y-134550000D01*
X70000000Y-127250000D02*
X70000000Y-134500000D01*
X75550000Y-113800000D02*
X75550000Y-117800000D01*
X75550000Y-112100000D02*
X75550000Y-113800000D01*
M02*
