G04 #@! TF.FileFunction,Legend,Bot*
%FSLAX46Y46*%
G04 Gerber Fmt 4.6, Leading zero omitted, Abs format (unit mm)*
G04 Created by KiCad (PCBNEW 4.0.7) date 02/27/18 15:26:36*
%MOMM*%
%LPD*%
G01*
G04 APERTURE LIST*
%ADD10C,0.100000*%
%ADD11C,0.200000*%
%ADD12C,0.150000*%
%ADD13C,0.381000*%
%ADD14C,0.127000*%
%ADD15C,0.097500*%
G04 APERTURE END LIST*
D10*
D11*
X85724264Y-119056497D02*
X83956497Y-120824264D01*
X83956497Y-120824264D02*
X84875736Y-121743503D01*
X84875736Y-121743503D02*
X86643503Y-119975736D01*
X86643503Y-119975736D02*
X85724264Y-119056497D01*
X83324264Y-110756497D02*
X81556497Y-112524264D01*
X81556497Y-112524264D02*
X82475736Y-113443503D01*
X82475736Y-113443503D02*
X84243503Y-111675736D01*
X84243503Y-111675736D02*
X83324264Y-110756497D01*
X89075736Y-125943503D02*
X90843503Y-124175736D01*
X90843503Y-124175736D02*
X89924264Y-123256497D01*
X89924264Y-123256497D02*
X88156497Y-125024264D01*
X88156497Y-125024264D02*
X89075736Y-125943503D01*
X80175736Y-115743503D02*
X81943503Y-113975736D01*
X81943503Y-113975736D02*
X81024264Y-113056497D01*
X81024264Y-113056497D02*
X79256497Y-114824264D01*
X79256497Y-114824264D02*
X80175736Y-115743503D01*
D12*
X108600000Y-116000000D02*
X108600000Y-118200000D01*
X94400000Y-121000000D02*
X94400000Y-123000000D01*
X94400000Y-123000000D02*
X108200000Y-123000000D01*
X110000000Y-120400000D02*
X110000000Y-119600000D01*
X110000000Y-119600000D02*
G75*
G02X108600000Y-118200000I0J1400000D01*
G01*
X110000000Y-121700000D02*
X110000000Y-120400000D01*
X108600000Y-116000000D02*
X108600000Y-110700000D01*
X94400000Y-121000000D02*
X94400000Y-117900000D01*
X94400000Y-112200000D02*
X94400000Y-115700000D01*
X106900000Y-109000000D02*
X94400000Y-109000000D01*
X94400000Y-109000000D02*
X94400000Y-109900000D01*
X61800000Y-114900000D02*
G75*
G03X61800000Y-114900000I-500000J0D01*
G01*
X62000000Y-132000000D02*
X57000000Y-132000000D01*
X57000000Y-132000000D02*
X57000000Y-116000000D01*
X57000000Y-116000000D02*
X62000000Y-116000000D01*
X78000000Y-132000000D02*
X79000000Y-132000000D01*
X79000000Y-132000000D02*
X79000000Y-116000000D01*
X79000000Y-116000000D02*
X78000000Y-116000000D01*
D13*
X88248528Y-119968629D02*
G75*
G03X88248528Y-119968629I-200000J0D01*
G01*
D14*
X87624264Y-125059798D02*
X90028427Y-122655635D01*
X90028427Y-122655635D02*
X87200000Y-119827208D01*
X87200000Y-119827208D02*
X84725126Y-122302082D01*
X84725126Y-122302082D02*
X87553553Y-125130509D01*
X87553553Y-125130509D02*
X87694975Y-124989087D01*
X81146447Y-108615076D02*
X77045227Y-112716295D01*
X77045227Y-112716295D02*
X78883705Y-114554773D01*
X78883705Y-114554773D02*
X83055635Y-110382843D01*
X83055635Y-110382843D02*
X81217157Y-108544365D01*
D11*
X88943503Y-131624264D02*
X87175736Y-129856497D01*
X87175736Y-129856497D02*
X86256497Y-130775736D01*
X86256497Y-130775736D02*
X88024264Y-132543503D01*
X88024264Y-132543503D02*
X88943503Y-131624264D01*
X90143503Y-130424264D02*
X88375736Y-128656497D01*
X88375736Y-128656497D02*
X87456497Y-129575736D01*
X87456497Y-129575736D02*
X89224264Y-131343503D01*
X89224264Y-131343503D02*
X90143503Y-130424264D01*
X94624264Y-124056497D02*
X92856497Y-125824264D01*
X92856497Y-125824264D02*
X93775736Y-126743503D01*
X93775736Y-126743503D02*
X95543503Y-124975736D01*
X95543503Y-124975736D02*
X94624264Y-124056497D01*
X93424264Y-122756497D02*
X91656497Y-124524264D01*
X91656497Y-124524264D02*
X92575736Y-125443503D01*
X92575736Y-125443503D02*
X94343503Y-123675736D01*
X94343503Y-123675736D02*
X93424264Y-122756497D01*
X80175736Y-125143503D02*
X81943503Y-123375736D01*
X81943503Y-123375736D02*
X81024264Y-122456497D01*
X81024264Y-122456497D02*
X79256497Y-124224264D01*
X79256497Y-124224264D02*
X80175736Y-125143503D01*
X81375736Y-126343503D02*
X83143503Y-124575736D01*
X83143503Y-124575736D02*
X82224264Y-123656497D01*
X82224264Y-123656497D02*
X80456497Y-125424264D01*
X80456497Y-125424264D02*
X81375736Y-126343503D01*
X88656497Y-112675736D02*
X90424264Y-114443503D01*
X90424264Y-114443503D02*
X91343503Y-113524264D01*
X91343503Y-113524264D02*
X89575736Y-111756497D01*
X89575736Y-111756497D02*
X88656497Y-112675736D01*
X89856497Y-111475736D02*
X91624264Y-113243503D01*
X91624264Y-113243503D02*
X92543503Y-112324264D01*
X92543503Y-112324264D02*
X90775736Y-110556497D01*
X90775736Y-110556497D02*
X89856497Y-111475736D01*
D15*
X86940754Y-119087546D02*
X86984526Y-119087546D01*
X87072073Y-119043773D01*
X87115847Y-119000000D01*
X87159619Y-118912453D01*
X87159619Y-118824906D01*
X87137733Y-118759247D01*
X87072073Y-118649814D01*
X87006413Y-118584154D01*
X86896980Y-118518494D01*
X86831320Y-118496607D01*
X86743773Y-118496607D01*
X86656227Y-118540381D01*
X86612454Y-118584154D01*
X86568680Y-118671700D01*
X86568680Y-118715473D01*
X86546794Y-119569053D02*
X86809433Y-119306413D01*
X86678114Y-119437733D02*
X86218494Y-118978114D01*
X86327927Y-119000000D01*
X86415474Y-119000000D01*
X86481133Y-118978114D01*
X83940754Y-113287546D02*
X83984526Y-113287546D01*
X84072073Y-113243773D01*
X84115847Y-113200000D01*
X84159619Y-113112453D01*
X84159619Y-113024906D01*
X84137733Y-112959247D01*
X84072073Y-112849814D01*
X84006413Y-112784154D01*
X83896980Y-112718494D01*
X83831320Y-112696607D01*
X83743773Y-112696607D01*
X83656227Y-112740381D01*
X83612454Y-112784154D01*
X83568680Y-112871700D01*
X83568680Y-112915473D01*
X83393587Y-113090567D02*
X83349814Y-113090567D01*
X83284154Y-113112454D01*
X83174721Y-113221887D01*
X83152834Y-113287546D01*
X83152834Y-113331320D01*
X83174721Y-113396979D01*
X83218494Y-113440753D01*
X83306040Y-113484526D01*
X83831320Y-113484526D01*
X83546794Y-113769053D01*
X91340754Y-123287546D02*
X91384526Y-123287546D01*
X91472073Y-123243773D01*
X91515847Y-123200000D01*
X91559619Y-123112453D01*
X91559619Y-123024906D01*
X91537733Y-122959247D01*
X91472073Y-122849814D01*
X91406413Y-122784154D01*
X91296980Y-122718494D01*
X91231320Y-122696607D01*
X91143773Y-122696607D01*
X91056227Y-122740381D01*
X91012454Y-122784154D01*
X90968680Y-122871700D01*
X90968680Y-122915473D01*
X90771701Y-123024907D02*
X90487175Y-123309433D01*
X90815474Y-123331320D01*
X90749814Y-123396980D01*
X90727927Y-123462639D01*
X90727927Y-123506413D01*
X90749814Y-123572073D01*
X90859247Y-123681506D01*
X90924907Y-123703393D01*
X90968680Y-123703392D01*
X91034340Y-123681506D01*
X91165661Y-123550186D01*
X91187546Y-123484526D01*
X91187547Y-123440753D01*
X81840754Y-115387546D02*
X81884526Y-115387546D01*
X81972073Y-115343773D01*
X82015847Y-115300000D01*
X82059619Y-115212453D01*
X82059619Y-115124906D01*
X82037733Y-115059247D01*
X81972073Y-114949814D01*
X81906413Y-114884154D01*
X81796980Y-114818494D01*
X81731320Y-114796607D01*
X81643773Y-114796607D01*
X81556227Y-114840381D01*
X81512454Y-114884154D01*
X81468680Y-114971700D01*
X81468680Y-115015473D01*
X81184154Y-115518866D02*
X81490567Y-115825279D01*
X81118494Y-115234339D02*
X81556227Y-115453207D01*
X81271701Y-115737732D01*
D10*
X109544048Y-109383333D02*
X110008333Y-109383333D01*
X110101190Y-109352381D01*
X110163095Y-109290476D01*
X110194048Y-109197619D01*
X110194048Y-109135714D01*
X110194048Y-110033333D02*
X110194048Y-109661905D01*
X110194048Y-109847619D02*
X109544048Y-109847619D01*
X109636905Y-109785714D01*
X109698810Y-109723809D01*
X109729762Y-109661905D01*
D12*
X65633333Y-114302381D02*
X65633333Y-113302381D01*
X65299999Y-114016667D01*
X64966666Y-113302381D01*
X64966666Y-114302381D01*
X64300000Y-113302381D02*
X64109523Y-113302381D01*
X64014285Y-113350000D01*
X63919047Y-113445238D01*
X63871428Y-113635714D01*
X63871428Y-113969048D01*
X63919047Y-114159524D01*
X64014285Y-114254762D01*
X64109523Y-114302381D01*
X64300000Y-114302381D01*
X64395238Y-114254762D01*
X64490476Y-114159524D01*
X64538095Y-113969048D01*
X64538095Y-113635714D01*
X64490476Y-113445238D01*
X64395238Y-113350000D01*
X64300000Y-113302381D01*
X63442857Y-114302381D02*
X63442857Y-113302381D01*
X63204762Y-113302381D01*
X63061904Y-113350000D01*
X62966666Y-113445238D01*
X62919047Y-113540476D01*
X62871428Y-113730952D01*
X62871428Y-113873810D01*
X62919047Y-114064286D01*
X62966666Y-114159524D01*
X63061904Y-114254762D01*
X63204762Y-114302381D01*
X63442857Y-114302381D01*
X61919047Y-114302381D02*
X62490476Y-114302381D01*
X62204762Y-114302381D02*
X62204762Y-113302381D01*
X62300000Y-113445238D01*
X62395238Y-113540476D01*
X62490476Y-113588095D01*
D10*
X90019734Y-120938896D02*
X89135850Y-121115673D01*
X89666180Y-120585343D02*
X89489404Y-121469226D01*
X88656027Y-120635850D02*
X88959073Y-120938896D01*
X88807550Y-120787373D02*
X89337880Y-120257043D01*
X89312627Y-120383313D01*
X89312627Y-120484327D01*
X89337881Y-120560089D01*
X78938896Y-108980266D02*
X79115673Y-109864150D01*
X78585343Y-109333820D02*
X79469226Y-109510596D01*
X78459073Y-109561104D02*
X78408566Y-109561104D01*
X78332805Y-109586358D01*
X78206536Y-109712627D01*
X78181282Y-109788388D01*
X78181282Y-109838896D01*
X78206535Y-109914658D01*
X78257042Y-109965165D01*
X78358058Y-110015672D01*
X78964150Y-110015673D01*
X78635850Y-110343973D01*
D15*
X86012454Y-129840754D02*
X86012454Y-129884526D01*
X86056227Y-129972073D01*
X86100000Y-130015847D01*
X86187547Y-130059619D01*
X86275094Y-130059619D01*
X86340753Y-130037733D01*
X86450186Y-129972073D01*
X86515846Y-129906413D01*
X86581506Y-129796980D01*
X86603393Y-129731320D01*
X86603393Y-129643773D01*
X86559619Y-129556227D01*
X86515846Y-129512454D01*
X86428300Y-129468680D01*
X86384527Y-129468680D01*
X86012453Y-129009061D02*
X86231320Y-129227927D01*
X86034340Y-129468680D01*
X86034340Y-129424907D01*
X86012453Y-129359247D01*
X85903020Y-129249814D01*
X85837361Y-129227927D01*
X85793587Y-129227927D01*
X85727927Y-129249814D01*
X85618494Y-129359247D01*
X85596607Y-129424907D01*
X85596608Y-129468680D01*
X85618494Y-129534340D01*
X85727927Y-129643773D01*
X85793587Y-129665660D01*
X85837360Y-129665660D01*
X87212454Y-128940754D02*
X87212454Y-128984526D01*
X87256227Y-129072073D01*
X87300000Y-129115847D01*
X87387547Y-129159619D01*
X87475094Y-129159619D01*
X87540753Y-129137733D01*
X87650186Y-129072073D01*
X87715846Y-129006413D01*
X87781506Y-128896980D01*
X87803393Y-128831320D01*
X87803393Y-128743773D01*
X87759619Y-128656227D01*
X87715846Y-128612454D01*
X87628300Y-128568680D01*
X87584527Y-128568680D01*
X87234340Y-128130948D02*
X87321886Y-128218494D01*
X87343773Y-128284154D01*
X87343773Y-128327927D01*
X87321886Y-128437361D01*
X87256227Y-128546793D01*
X87081133Y-128721886D01*
X87015474Y-128743773D01*
X86971701Y-128743773D01*
X86906040Y-128721887D01*
X86818494Y-128634340D01*
X86796608Y-128568680D01*
X86796607Y-128524907D01*
X86818494Y-128459247D01*
X86927927Y-128349814D01*
X86993587Y-128327927D01*
X87037361Y-128327927D01*
X87103020Y-128349814D01*
X87190567Y-128437361D01*
X87212454Y-128503021D01*
X87212454Y-128546793D01*
X87190567Y-128612453D01*
X92940754Y-126787546D02*
X92984526Y-126787546D01*
X93072073Y-126743773D01*
X93115847Y-126700000D01*
X93159619Y-126612453D01*
X93159619Y-126524906D01*
X93137733Y-126459247D01*
X93072073Y-126349814D01*
X93006413Y-126284154D01*
X92896980Y-126218494D01*
X92831320Y-126196607D01*
X92743773Y-126196607D01*
X92656227Y-126240381D01*
X92612454Y-126284154D01*
X92568680Y-126371700D01*
X92568680Y-126415473D01*
X92371701Y-126524907D02*
X92065288Y-126831320D01*
X92721887Y-127093960D01*
X91840754Y-125587546D02*
X91884526Y-125587546D01*
X91972073Y-125543773D01*
X92015847Y-125500000D01*
X92059619Y-125412453D01*
X92059619Y-125324906D01*
X92037733Y-125259247D01*
X91972073Y-125149814D01*
X91906413Y-125084154D01*
X91796980Y-125018494D01*
X91731320Y-124996607D01*
X91643773Y-124996607D01*
X91556227Y-125040381D01*
X91512454Y-125084154D01*
X91468680Y-125171700D01*
X91468680Y-125215473D01*
X91359247Y-125631320D02*
X91381134Y-125565660D01*
X91381133Y-125521886D01*
X91359247Y-125456227D01*
X91337360Y-125434340D01*
X91271700Y-125412453D01*
X91227927Y-125412453D01*
X91162268Y-125434340D01*
X91074721Y-125521887D01*
X91052834Y-125587546D01*
X91052834Y-125631320D01*
X91074721Y-125696979D01*
X91096608Y-125718867D01*
X91162267Y-125740753D01*
X91206041Y-125740753D01*
X91271700Y-125718867D01*
X91359247Y-125631320D01*
X91424907Y-125609433D01*
X91468680Y-125609433D01*
X91534340Y-125631320D01*
X91621886Y-125718867D01*
X91643773Y-125784526D01*
X91643773Y-125828299D01*
X91621887Y-125893960D01*
X91534340Y-125981506D01*
X91468680Y-126003392D01*
X91424907Y-126003393D01*
X91359247Y-125981506D01*
X91271701Y-125893960D01*
X91249814Y-125828300D01*
X91249814Y-125784526D01*
X91271700Y-125718867D01*
X82340754Y-122487546D02*
X82384526Y-122487546D01*
X82472073Y-122443773D01*
X82515847Y-122400000D01*
X82559619Y-122312453D01*
X82559619Y-122224906D01*
X82537733Y-122159247D01*
X82472073Y-122049814D01*
X82406413Y-121984154D01*
X82296980Y-121918494D01*
X82231320Y-121896607D01*
X82143773Y-121896607D01*
X82056227Y-121940381D01*
X82012454Y-121984154D01*
X81968680Y-122071700D01*
X81968680Y-122115473D01*
X82165661Y-122750186D02*
X82078114Y-122837733D01*
X82012453Y-122859619D01*
X81968680Y-122859619D01*
X81859247Y-122837733D01*
X81749814Y-122772073D01*
X81574721Y-122596979D01*
X81552834Y-122531320D01*
X81552834Y-122487546D01*
X81574721Y-122421887D01*
X81662268Y-122334340D01*
X81727927Y-122312453D01*
X81771700Y-122312453D01*
X81837360Y-122334340D01*
X81946793Y-122443773D01*
X81968680Y-122509433D01*
X81968680Y-122553206D01*
X81946794Y-122618867D01*
X81859247Y-122706413D01*
X81793587Y-122728299D01*
X81749814Y-122728300D01*
X81684154Y-122706413D01*
X83959620Y-123168680D02*
X84003393Y-123168680D01*
X84090940Y-123124907D01*
X84134713Y-123081133D01*
X84178486Y-122993587D01*
X84178486Y-122906040D01*
X84156600Y-122840381D01*
X84090939Y-122730947D01*
X84025279Y-122665288D01*
X83915847Y-122599628D01*
X83850187Y-122577741D01*
X83762640Y-122577741D01*
X83675094Y-122621514D01*
X83631320Y-122665288D01*
X83587547Y-122752834D01*
X83587547Y-122796606D01*
X83565661Y-123650186D02*
X83828300Y-123387547D01*
X83696980Y-123518867D02*
X83237361Y-123059247D01*
X83346794Y-123081133D01*
X83434341Y-123081133D01*
X83500000Y-123059247D01*
X82821515Y-123475093D02*
X82777741Y-123518867D01*
X82755854Y-123584526D01*
X82755854Y-123628299D01*
X82777741Y-123693960D01*
X82843401Y-123803393D01*
X82952834Y-123912826D01*
X83062267Y-123978486D01*
X83127927Y-124000372D01*
X83171700Y-124000372D01*
X83237361Y-123978486D01*
X83281134Y-123934712D01*
X83303020Y-123869053D01*
X83303021Y-123825279D01*
X83281133Y-123759619D01*
X83215474Y-123650187D01*
X83106040Y-123540754D01*
X82996607Y-123475093D01*
X82930947Y-123453206D01*
X82887174Y-123453207D01*
X82821515Y-123475093D01*
X92081320Y-115109620D02*
X92081320Y-115153393D01*
X92125093Y-115240940D01*
X92168867Y-115284713D01*
X92256413Y-115328486D01*
X92343960Y-115328486D01*
X92409619Y-115306600D01*
X92519053Y-115240939D01*
X92584712Y-115175279D01*
X92650372Y-115065847D01*
X92672259Y-115000187D01*
X92672259Y-114912640D01*
X92628486Y-114825094D01*
X92584712Y-114781320D01*
X92497166Y-114737547D01*
X92453394Y-114737547D01*
X91599814Y-114715661D02*
X91862453Y-114978300D01*
X91731133Y-114846980D02*
X92190753Y-114387361D01*
X92168867Y-114496794D01*
X92168867Y-114584341D01*
X92190753Y-114650000D01*
X91162081Y-114277927D02*
X91424720Y-114540567D01*
X91293400Y-114409247D02*
X91753020Y-113949628D01*
X91731133Y-114059061D01*
X91731133Y-114146608D01*
X91753020Y-114212267D01*
X93231320Y-114009620D02*
X93231320Y-114053393D01*
X93275093Y-114140940D01*
X93318867Y-114184713D01*
X93406413Y-114228486D01*
X93493960Y-114228486D01*
X93559619Y-114206600D01*
X93669053Y-114140939D01*
X93734712Y-114075279D01*
X93800372Y-113965847D01*
X93822259Y-113900187D01*
X93822259Y-113812640D01*
X93778486Y-113725094D01*
X93734712Y-113681320D01*
X93647166Y-113637547D01*
X93603394Y-113637547D01*
X92749814Y-113615661D02*
X93012453Y-113878300D01*
X92881133Y-113746980D02*
X93340753Y-113287361D01*
X93318867Y-113396794D01*
X93318867Y-113484341D01*
X93340753Y-113550000D01*
X92990567Y-113024720D02*
X92990567Y-112980947D01*
X92968680Y-112915288D01*
X92859246Y-112805854D01*
X92793587Y-112783968D01*
X92749814Y-112783967D01*
X92684154Y-112805854D01*
X92640381Y-112849628D01*
X92596607Y-112937174D01*
X92596607Y-113462454D01*
X92312081Y-113177927D01*
M02*
