M48
;DRILL file {KiCad 4.0.7} date 02/27/18 15:26:51
;FORMAT={-:-/ absolute / metric / decimal}
FMAT,2
METRIC,TZ
T1C0.406
T2C0.406
T3C0.800
T4C0.914
T5C1.200
T6C0.900
%
G90
G05
M71
T1
X65.972Y-111.594
X66.692Y-128.246
X66.734Y-113.693
X67.841Y-135.758
X67.841Y-137.082
X68.832Y-114.239
X69.569Y-108.619
X73.268Y-121.216
X74.391Y-120.081
X76.713Y-133.597
X76.999Y-126.622
X77.887Y-124.5
X78.893Y-120.493
X79.508Y-125.313
X81.263Y-115.203
X81.634Y-117.77
X82.318Y-116.487
X83.062Y-125.227
X83.094Y-120.283
X83.4Y-137.562
X83.775Y-119.412
X85.1Y-137.557
X85.504Y-135.117
X85.689Y-125.566
X85.931Y-128.035
X86.122Y-129.882
X86.421Y-131.86
X87.915Y-116.299
X87.954Y-114.447
X88.947Y-117.999
X89.745Y-111.042
X89.945Y-129.675
X90.615Y-112.5
X90.941Y-124.637
X92.329Y-113.099
X92.377Y-128.064
X93.328Y-114.037
X93.719Y-112.248
X94.471Y-129.932
X95.32Y-124.188
X95.827Y-108.317
X96.004Y-112.04
X96.755Y-139.032
X96.993Y-120.564
X97.543Y-126.865
X97.55Y-132.962
X98.058Y-115.685
X98.292Y-136.269
X98.937Y-110.892
X99.448Y-108.317
X99.451Y-118.043
X99.95Y-111.098
X100.705Y-136.688
X100.8Y-121.55
X103.164Y-117.1
X103.8Y-120.7
X103.962Y-112.789
X109.8Y-121.
X109.9Y-109.7
T2
X70.Y-127.25
X70.2Y-138.35
X71.2Y-113.6
X71.4Y-111.9
X73.4Y-110.1
X74.05Y-110.9
X75.55Y-117.8
X78.2Y-110.4
X82.3Y-115.4
X84.4Y-141.85
X85.45Y-111.05
X94.15Y-106.85
X100.3Y-107.4
X101.85Y-114.9
T3
X100.9Y-129.5
X103.44Y-129.5
X105.98Y-129.5
X108.52Y-129.5
T4
X65.7Y-102.56
X65.7Y-105.1
X65.7Y-144.96
X65.7Y-147.5
X68.24Y-102.56
X68.24Y-105.1
X68.24Y-144.96
X68.24Y-147.5
X70.78Y-102.56
X70.78Y-105.1
X70.78Y-144.96
X70.78Y-147.5
X73.32Y-102.56
X73.32Y-105.1
X73.32Y-144.96
X73.32Y-147.5
X75.86Y-102.56
X75.86Y-105.1
X75.86Y-144.96
X75.86Y-147.5
X78.4Y-102.56
X78.4Y-105.1
X78.4Y-144.96
X78.4Y-147.5
X80.94Y-102.56
X80.94Y-105.1
X80.94Y-144.96
X80.94Y-147.5
X83.48Y-102.56
X83.48Y-105.1
X83.48Y-144.96
X83.48Y-147.5
X86.02Y-102.56
X86.02Y-105.1
X86.02Y-144.96
X86.02Y-147.5
X86.7Y-109.6
X88.56Y-102.56
X88.56Y-105.1
X88.56Y-144.96
X88.56Y-147.5
X89.24Y-109.6
X91.1Y-102.56
X91.1Y-105.1
X91.1Y-144.96
X91.1Y-147.5
X93.64Y-102.56
X93.64Y-105.1
X93.64Y-144.96
X93.64Y-147.5
X96.18Y-102.56
X96.18Y-105.1
X96.18Y-144.96
X96.18Y-147.5
X98.72Y-102.56
X98.72Y-105.1
X98.72Y-144.96
X98.72Y-147.5
X101.26Y-102.56
X101.26Y-105.1
X101.26Y-144.96
X101.26Y-147.5
X103.8Y-102.56
X103.8Y-105.1
X103.8Y-144.96
X103.8Y-147.5
X105.9Y-125.8
X106.34Y-102.56
X106.34Y-105.1
X106.34Y-144.96
X106.34Y-147.5
X108.44Y-125.8
T5
X103.2Y-132.35
X103.2Y-139.65
X108.5Y-132.35
X108.5Y-139.65
T6
X105.2Y-134.25
X105.2Y-137.75
T0
M30
