G04 #@! TF.FileFunction,Copper,L2,Inr,Plane*
%FSLAX46Y46*%
G04 Gerber Fmt 4.6, Leading zero omitted, Abs format (unit mm)*
G04 Created by KiCad (PCBNEW 4.0.7) date 02/27/18 15:26:36*
%MOMM*%
%LPD*%
G01*
G04 APERTURE LIST*
%ADD10C,0.100000*%
%ADD11C,1.500000*%
%ADD12C,1.524000*%
%ADD13R,1.524000X1.524000*%
%ADD14C,1.600000*%
%ADD15C,0.812800*%
%ADD16C,0.200000*%
G04 APERTURE END LIST*
D10*
D11*
X103200000Y-139650000D03*
X103200000Y-132350000D03*
X108500000Y-139650000D03*
X108500000Y-132350000D03*
D12*
X89240000Y-109600000D03*
D13*
X86700000Y-109600000D03*
D12*
X108440000Y-125800000D03*
D13*
X105900000Y-125800000D03*
D12*
X65700000Y-144960000D03*
D13*
X65700000Y-147500000D03*
D12*
X68240000Y-144960000D03*
X68240000Y-147500000D03*
X70780000Y-144960000D03*
X70780000Y-147500000D03*
X73320000Y-144960000D03*
X73320000Y-147500000D03*
X75860000Y-144960000D03*
X75860000Y-147500000D03*
X78400000Y-144960000D03*
X78400000Y-147500000D03*
X80940000Y-144960000D03*
X80940000Y-147500000D03*
X83480000Y-144960000D03*
X83480000Y-147500000D03*
X86020000Y-144960000D03*
X86020000Y-147500000D03*
X88560000Y-144960000D03*
X88560000Y-147500000D03*
X91100000Y-144960000D03*
X91100000Y-147500000D03*
X93640000Y-144960000D03*
X93640000Y-147500000D03*
X96180000Y-144960000D03*
X96180000Y-147500000D03*
X98720000Y-144960000D03*
X98720000Y-147500000D03*
X101260000Y-144960000D03*
X101260000Y-147500000D03*
X103800000Y-144960000D03*
X103800000Y-147500000D03*
X106340000Y-144960000D03*
X106340000Y-147500000D03*
X65700000Y-102560000D03*
D13*
X65700000Y-105100000D03*
D12*
X68240000Y-102560000D03*
X68240000Y-105100000D03*
X70780000Y-102560000D03*
X70780000Y-105100000D03*
X73320000Y-102560000D03*
X73320000Y-105100000D03*
X75860000Y-102560000D03*
X75860000Y-105100000D03*
X78400000Y-102560000D03*
X78400000Y-105100000D03*
X80940000Y-102560000D03*
X80940000Y-105100000D03*
X83480000Y-102560000D03*
X83480000Y-105100000D03*
X86020000Y-102560000D03*
X86020000Y-105100000D03*
X88560000Y-102560000D03*
X88560000Y-105100000D03*
X91100000Y-102560000D03*
X91100000Y-105100000D03*
X93640000Y-102560000D03*
X93640000Y-105100000D03*
X96180000Y-102560000D03*
X96180000Y-105100000D03*
X98720000Y-102560000D03*
X98720000Y-105100000D03*
X101260000Y-102560000D03*
X101260000Y-105100000D03*
X103800000Y-102560000D03*
X103800000Y-105100000D03*
X106340000Y-102560000D03*
X106340000Y-105100000D03*
D14*
X100900000Y-129500000D03*
X103440000Y-129500000D03*
X105980000Y-129500000D03*
X108520000Y-129500000D03*
D15*
X83775300Y-119412200D03*
X74050000Y-110900000D03*
X109900000Y-109700000D03*
X109800000Y-121000000D03*
X103800000Y-120700000D03*
X67841100Y-135757600D03*
X100704900Y-136687800D03*
X69569300Y-108618900D03*
X90615300Y-112500000D03*
X97542800Y-126864600D03*
X74390600Y-120081500D03*
X81263400Y-115202800D03*
X76713400Y-133596700D03*
X103961600Y-112789400D03*
X90940700Y-124637100D03*
X98058200Y-115685400D03*
X98937100Y-110892000D03*
X87915100Y-116299400D03*
X83062100Y-125227400D03*
X76999500Y-126621600D03*
X86421400Y-131860300D03*
X66734300Y-113692600D03*
X78893100Y-120492900D03*
X82300000Y-115400000D03*
X83093600Y-120282900D03*
X82317700Y-116486600D03*
X85504000Y-135116500D03*
X83400000Y-137562300D03*
X96003900Y-112039800D03*
X68831700Y-114239100D03*
X67841100Y-137082100D03*
X89945500Y-129675400D03*
X97550000Y-132962300D03*
X98291800Y-136269100D03*
X87953900Y-114447300D03*
X89744900Y-111041700D03*
X93719400Y-112247900D03*
X99950000Y-111097700D03*
X92329400Y-113099100D03*
X95319900Y-124187700D03*
X96754700Y-139031600D03*
X85100000Y-137557200D03*
X81634200Y-117770500D03*
X73268300Y-121215600D03*
X79507600Y-125312700D03*
X65972500Y-111594500D03*
X92376900Y-128064200D03*
X94470500Y-129931600D03*
X96993400Y-120563600D03*
X99451300Y-118043300D03*
X103163900Y-117100000D03*
X100800000Y-121550000D03*
X66692400Y-128246100D03*
X85689200Y-125565800D03*
X86121700Y-129881700D03*
X85930900Y-128034700D03*
X84400000Y-141850000D03*
X71200000Y-113600000D03*
X77886700Y-124500000D03*
X78200000Y-110400000D03*
X85450000Y-111050000D03*
X95827200Y-108317400D03*
X93327900Y-114037100D03*
X99448500Y-108317400D03*
X94150000Y-106850000D03*
X88947300Y-117998700D03*
X100300000Y-107400000D03*
X73400000Y-110100000D03*
X71400000Y-111900000D03*
X70200000Y-138350000D03*
X101850000Y-114900000D03*
X70000000Y-127250000D03*
X75550000Y-117800000D03*
D16*
G36*
X110325000Y-149325000D02*
X61675000Y-149325000D01*
X61675000Y-146738000D01*
X64326246Y-146738000D01*
X64326246Y-148262000D01*
X64368083Y-148484346D01*
X64499490Y-148688558D01*
X64699993Y-148825556D01*
X64938000Y-148873754D01*
X66462000Y-148873754D01*
X66684346Y-148831917D01*
X66888558Y-148700510D01*
X67025556Y-148500007D01*
X67073754Y-148262000D01*
X67073754Y-148244062D01*
X67084679Y-148270503D01*
X67467482Y-148653974D01*
X67967893Y-148861763D01*
X68509730Y-148862236D01*
X69010503Y-148655321D01*
X69393974Y-148272518D01*
X69510029Y-147993028D01*
X69624679Y-148270503D01*
X70007482Y-148653974D01*
X70507893Y-148861763D01*
X71049730Y-148862236D01*
X71550503Y-148655321D01*
X71933974Y-148272518D01*
X72050029Y-147993028D01*
X72164679Y-148270503D01*
X72547482Y-148653974D01*
X73047893Y-148861763D01*
X73589730Y-148862236D01*
X74090503Y-148655321D01*
X74473974Y-148272518D01*
X74590029Y-147993028D01*
X74704679Y-148270503D01*
X75087482Y-148653974D01*
X75587893Y-148861763D01*
X76129730Y-148862236D01*
X76630503Y-148655321D01*
X77013974Y-148272518D01*
X77130029Y-147993028D01*
X77244679Y-148270503D01*
X77627482Y-148653974D01*
X78127893Y-148861763D01*
X78669730Y-148862236D01*
X79170503Y-148655321D01*
X79553974Y-148272518D01*
X79670029Y-147993028D01*
X79784679Y-148270503D01*
X80167482Y-148653974D01*
X80667893Y-148861763D01*
X81209730Y-148862236D01*
X81710503Y-148655321D01*
X82093974Y-148272518D01*
X82210029Y-147993028D01*
X82324679Y-148270503D01*
X82707482Y-148653974D01*
X83207893Y-148861763D01*
X83749730Y-148862236D01*
X84250503Y-148655321D01*
X84633974Y-148272518D01*
X84750029Y-147993028D01*
X84864679Y-148270503D01*
X85247482Y-148653974D01*
X85747893Y-148861763D01*
X86289730Y-148862236D01*
X86790503Y-148655321D01*
X87173974Y-148272518D01*
X87290029Y-147993028D01*
X87404679Y-148270503D01*
X87787482Y-148653974D01*
X88287893Y-148861763D01*
X88829730Y-148862236D01*
X89330503Y-148655321D01*
X89713974Y-148272518D01*
X89830029Y-147993028D01*
X89944679Y-148270503D01*
X90327482Y-148653974D01*
X90827893Y-148861763D01*
X91369730Y-148862236D01*
X91870503Y-148655321D01*
X92253974Y-148272518D01*
X92370029Y-147993028D01*
X92484679Y-148270503D01*
X92867482Y-148653974D01*
X93367893Y-148861763D01*
X93909730Y-148862236D01*
X94410503Y-148655321D01*
X94793974Y-148272518D01*
X94910029Y-147993028D01*
X95024679Y-148270503D01*
X95407482Y-148653974D01*
X95907893Y-148861763D01*
X96449730Y-148862236D01*
X96950503Y-148655321D01*
X97333974Y-148272518D01*
X97450029Y-147993028D01*
X97564679Y-148270503D01*
X97947482Y-148653974D01*
X98447893Y-148861763D01*
X98989730Y-148862236D01*
X99490503Y-148655321D01*
X99873974Y-148272518D01*
X99990029Y-147993028D01*
X100104679Y-148270503D01*
X100487482Y-148653974D01*
X100987893Y-148861763D01*
X101529730Y-148862236D01*
X102030503Y-148655321D01*
X102413974Y-148272518D01*
X102530029Y-147993028D01*
X102644679Y-148270503D01*
X103027482Y-148653974D01*
X103527893Y-148861763D01*
X104069730Y-148862236D01*
X104570503Y-148655321D01*
X104743757Y-148482368D01*
X105575421Y-148482368D01*
X105648551Y-148713698D01*
X106165647Y-148885917D01*
X106709287Y-148847142D01*
X107031449Y-148713698D01*
X107104579Y-148482368D01*
X106340000Y-147717789D01*
X105575421Y-148482368D01*
X104743757Y-148482368D01*
X104953974Y-148272518D01*
X105057055Y-148024272D01*
X105126302Y-148191449D01*
X105357632Y-148264579D01*
X106122211Y-147500000D01*
X106557789Y-147500000D01*
X107322368Y-148264579D01*
X107553698Y-148191449D01*
X107725917Y-147674353D01*
X107687142Y-147130713D01*
X107553698Y-146808551D01*
X107322368Y-146735421D01*
X106557789Y-147500000D01*
X106122211Y-147500000D01*
X105357632Y-146735421D01*
X105126302Y-146808551D01*
X105064571Y-146993902D01*
X104955321Y-146729497D01*
X104572518Y-146346026D01*
X104293028Y-146229971D01*
X104570503Y-146115321D01*
X104743757Y-145942368D01*
X105575421Y-145942368D01*
X105648551Y-146173698D01*
X105799239Y-146223885D01*
X105648551Y-146286302D01*
X105575421Y-146517632D01*
X106340000Y-147282211D01*
X107104579Y-146517632D01*
X107031449Y-146286302D01*
X106880761Y-146236115D01*
X107031449Y-146173698D01*
X107104579Y-145942368D01*
X106340000Y-145177789D01*
X105575421Y-145942368D01*
X104743757Y-145942368D01*
X104953974Y-145732518D01*
X105057055Y-145484272D01*
X105126302Y-145651449D01*
X105357632Y-145724579D01*
X106122211Y-144960000D01*
X106557789Y-144960000D01*
X107322368Y-145724579D01*
X107553698Y-145651449D01*
X107725917Y-145134353D01*
X107687142Y-144590713D01*
X107553698Y-144268551D01*
X107322368Y-144195421D01*
X106557789Y-144960000D01*
X106122211Y-144960000D01*
X105357632Y-144195421D01*
X105126302Y-144268551D01*
X105064571Y-144453902D01*
X104955321Y-144189497D01*
X104743826Y-143977632D01*
X105575421Y-143977632D01*
X106340000Y-144742211D01*
X107104579Y-143977632D01*
X107031449Y-143746302D01*
X106514353Y-143574083D01*
X105970713Y-143612858D01*
X105648551Y-143746302D01*
X105575421Y-143977632D01*
X104743826Y-143977632D01*
X104572518Y-143806026D01*
X104072107Y-143598237D01*
X103530270Y-143597764D01*
X103029497Y-143804679D01*
X102646026Y-144187482D01*
X102529971Y-144466972D01*
X102415321Y-144189497D01*
X102032518Y-143806026D01*
X101532107Y-143598237D01*
X100990270Y-143597764D01*
X100489497Y-143804679D01*
X100106026Y-144187482D01*
X99989971Y-144466972D01*
X99875321Y-144189497D01*
X99492518Y-143806026D01*
X98992107Y-143598237D01*
X98450270Y-143597764D01*
X97949497Y-143804679D01*
X97566026Y-144187482D01*
X97449971Y-144466972D01*
X97335321Y-144189497D01*
X96952518Y-143806026D01*
X96452107Y-143598237D01*
X95910270Y-143597764D01*
X95409497Y-143804679D01*
X95026026Y-144187482D01*
X94909971Y-144466972D01*
X94795321Y-144189497D01*
X94412518Y-143806026D01*
X93912107Y-143598237D01*
X93370270Y-143597764D01*
X92869497Y-143804679D01*
X92486026Y-144187482D01*
X92369971Y-144466972D01*
X92255321Y-144189497D01*
X91872518Y-143806026D01*
X91372107Y-143598237D01*
X90830270Y-143597764D01*
X90329497Y-143804679D01*
X89946026Y-144187482D01*
X89829971Y-144466972D01*
X89715321Y-144189497D01*
X89332518Y-143806026D01*
X88832107Y-143598237D01*
X88290270Y-143597764D01*
X87789497Y-143804679D01*
X87406026Y-144187482D01*
X87289971Y-144466972D01*
X87175321Y-144189497D01*
X86792518Y-143806026D01*
X86292107Y-143598237D01*
X85750270Y-143597764D01*
X85249497Y-143804679D01*
X84866026Y-144187482D01*
X84749971Y-144466972D01*
X84635321Y-144189497D01*
X84252518Y-143806026D01*
X83752107Y-143598237D01*
X83210270Y-143597764D01*
X82709497Y-143804679D01*
X82326026Y-144187482D01*
X82209971Y-144466972D01*
X82095321Y-144189497D01*
X81712518Y-143806026D01*
X81212107Y-143598237D01*
X80670270Y-143597764D01*
X80169497Y-143804679D01*
X79786026Y-144187482D01*
X79669971Y-144466972D01*
X79555321Y-144189497D01*
X79172518Y-143806026D01*
X78672107Y-143598237D01*
X78130270Y-143597764D01*
X77629497Y-143804679D01*
X77246026Y-144187482D01*
X77129971Y-144466972D01*
X77015321Y-144189497D01*
X76632518Y-143806026D01*
X76132107Y-143598237D01*
X75590270Y-143597764D01*
X75089497Y-143804679D01*
X74706026Y-144187482D01*
X74589971Y-144466972D01*
X74475321Y-144189497D01*
X74092518Y-143806026D01*
X73592107Y-143598237D01*
X73050270Y-143597764D01*
X72549497Y-143804679D01*
X72166026Y-144187482D01*
X72049971Y-144466972D01*
X71935321Y-144189497D01*
X71552518Y-143806026D01*
X71052107Y-143598237D01*
X70510270Y-143597764D01*
X70009497Y-143804679D01*
X69626026Y-144187482D01*
X69509971Y-144466972D01*
X69395321Y-144189497D01*
X69012518Y-143806026D01*
X68512107Y-143598237D01*
X67970270Y-143597764D01*
X67469497Y-143804679D01*
X67086026Y-144187482D01*
X66969971Y-144466972D01*
X66855321Y-144189497D01*
X66472518Y-143806026D01*
X65972107Y-143598237D01*
X65430270Y-143597764D01*
X64929497Y-143804679D01*
X64546026Y-144187482D01*
X64338237Y-144687893D01*
X64337764Y-145229730D01*
X64544679Y-145730503D01*
X64927482Y-146113974D01*
X64957036Y-146126246D01*
X64938000Y-146126246D01*
X64715654Y-146168083D01*
X64511442Y-146299490D01*
X64374444Y-146499993D01*
X64326246Y-146738000D01*
X61675000Y-146738000D01*
X61675000Y-142049307D01*
X83393425Y-142049307D01*
X83546318Y-142419335D01*
X83829176Y-142702687D01*
X84198936Y-142856225D01*
X84599307Y-142856575D01*
X84969335Y-142703682D01*
X85252687Y-142420824D01*
X85406225Y-142051064D01*
X85406575Y-141650693D01*
X85253682Y-141280665D01*
X84970824Y-140997313D01*
X84601064Y-140843775D01*
X84200693Y-140843425D01*
X83830665Y-140996318D01*
X83547313Y-141279176D01*
X83393775Y-141648936D01*
X83393425Y-142049307D01*
X61675000Y-142049307D01*
X61675000Y-140623649D01*
X102444140Y-140623649D01*
X102515788Y-140853738D01*
X103028521Y-141023945D01*
X103567360Y-140984982D01*
X103884212Y-140853738D01*
X103955860Y-140623649D01*
X107744140Y-140623649D01*
X107815788Y-140853738D01*
X108328521Y-141023945D01*
X108867360Y-140984982D01*
X109184212Y-140853738D01*
X109255860Y-140623649D01*
X108500000Y-139867789D01*
X107744140Y-140623649D01*
X103955860Y-140623649D01*
X103200000Y-139867789D01*
X102444140Y-140623649D01*
X61675000Y-140623649D01*
X61675000Y-138549307D01*
X69193425Y-138549307D01*
X69346318Y-138919335D01*
X69629176Y-139202687D01*
X69998936Y-139356225D01*
X70399307Y-139356575D01*
X70703445Y-139230907D01*
X95748125Y-139230907D01*
X95901018Y-139600935D01*
X96183876Y-139884287D01*
X96553636Y-140037825D01*
X96954007Y-140038175D01*
X97324035Y-139885282D01*
X97607387Y-139602424D01*
X97658836Y-139478521D01*
X101826055Y-139478521D01*
X101865018Y-140017360D01*
X101996262Y-140334212D01*
X102226351Y-140405860D01*
X102982211Y-139650000D01*
X103417789Y-139650000D01*
X104173649Y-140405860D01*
X104403738Y-140334212D01*
X104573945Y-139821479D01*
X104549146Y-139478521D01*
X107126055Y-139478521D01*
X107165018Y-140017360D01*
X107296262Y-140334212D01*
X107526351Y-140405860D01*
X108282211Y-139650000D01*
X108717789Y-139650000D01*
X109473649Y-140405860D01*
X109703738Y-140334212D01*
X109873945Y-139821479D01*
X109834982Y-139282640D01*
X109703738Y-138965788D01*
X109473649Y-138894140D01*
X108717789Y-139650000D01*
X108282211Y-139650000D01*
X107526351Y-138894140D01*
X107296262Y-138965788D01*
X107126055Y-139478521D01*
X104549146Y-139478521D01*
X104534982Y-139282640D01*
X104403738Y-138965788D01*
X104173649Y-138894140D01*
X103417789Y-139650000D01*
X102982211Y-139650000D01*
X102226351Y-138894140D01*
X101996262Y-138965788D01*
X101826055Y-139478521D01*
X97658836Y-139478521D01*
X97760925Y-139232664D01*
X97761275Y-138832293D01*
X97696841Y-138676351D01*
X102444140Y-138676351D01*
X103200000Y-139432211D01*
X103955860Y-138676351D01*
X103884212Y-138446262D01*
X103371479Y-138276055D01*
X102832640Y-138315018D01*
X102515788Y-138446262D01*
X102444140Y-138676351D01*
X97696841Y-138676351D01*
X97608382Y-138462265D01*
X97325524Y-138178913D01*
X96955764Y-138025375D01*
X96555393Y-138025025D01*
X96185365Y-138177918D01*
X95902013Y-138460776D01*
X95748475Y-138830536D01*
X95748125Y-139230907D01*
X70703445Y-139230907D01*
X70769335Y-139203682D01*
X71052687Y-138920824D01*
X71206225Y-138551064D01*
X71206575Y-138150693D01*
X71053682Y-137780665D01*
X71034658Y-137761607D01*
X82393425Y-137761607D01*
X82546318Y-138131635D01*
X82829176Y-138414987D01*
X83198936Y-138568525D01*
X83599307Y-138568875D01*
X83969335Y-138415982D01*
X84252687Y-138133124D01*
X84252748Y-138132976D01*
X84529176Y-138409887D01*
X84898936Y-138563425D01*
X85299307Y-138563775D01*
X85669335Y-138410882D01*
X85952687Y-138128024D01*
X86023311Y-137957942D01*
X104149818Y-137957942D01*
X104309334Y-138344000D01*
X104604446Y-138639628D01*
X104990226Y-138799818D01*
X105407942Y-138800182D01*
X105707635Y-138676351D01*
X107744140Y-138676351D01*
X108500000Y-139432211D01*
X109255860Y-138676351D01*
X109184212Y-138446262D01*
X108671479Y-138276055D01*
X108132640Y-138315018D01*
X107815788Y-138446262D01*
X107744140Y-138676351D01*
X105707635Y-138676351D01*
X105794000Y-138640666D01*
X106089628Y-138345554D01*
X106249818Y-137959774D01*
X106250182Y-137542058D01*
X106090666Y-137156000D01*
X105795554Y-136860372D01*
X105409774Y-136700182D01*
X104992058Y-136699818D01*
X104606000Y-136859334D01*
X104310372Y-137154446D01*
X104150182Y-137540226D01*
X104149818Y-137957942D01*
X86023311Y-137957942D01*
X86106225Y-137758264D01*
X86106575Y-137357893D01*
X85953682Y-136987865D01*
X85670824Y-136704513D01*
X85301064Y-136550975D01*
X84900693Y-136550625D01*
X84530665Y-136703518D01*
X84247313Y-136986376D01*
X84247252Y-136986524D01*
X83970824Y-136709613D01*
X83601064Y-136556075D01*
X83200693Y-136555725D01*
X82830665Y-136708618D01*
X82547313Y-136991476D01*
X82393775Y-137361236D01*
X82393425Y-137761607D01*
X71034658Y-137761607D01*
X70770824Y-137497313D01*
X70401064Y-137343775D01*
X70000693Y-137343425D01*
X69630665Y-137496318D01*
X69347313Y-137779176D01*
X69193775Y-138148936D01*
X69193425Y-138549307D01*
X61675000Y-138549307D01*
X61675000Y-137281407D01*
X66834525Y-137281407D01*
X66987418Y-137651435D01*
X67270276Y-137934787D01*
X67640036Y-138088325D01*
X68040407Y-138088675D01*
X68410435Y-137935782D01*
X68693787Y-137652924D01*
X68847325Y-137283164D01*
X68847675Y-136882793D01*
X68694782Y-136512765D01*
X68650502Y-136468407D01*
X97285225Y-136468407D01*
X97438118Y-136838435D01*
X97720976Y-137121787D01*
X98090736Y-137275325D01*
X98491107Y-137275675D01*
X98861135Y-137122782D01*
X99144487Y-136839924D01*
X99298025Y-136470164D01*
X99298375Y-136069793D01*
X99145482Y-135699765D01*
X98862624Y-135416413D01*
X98492864Y-135262875D01*
X98092493Y-135262525D01*
X97722465Y-135415418D01*
X97439113Y-135698276D01*
X97285575Y-136068036D01*
X97285225Y-136468407D01*
X68650502Y-136468407D01*
X68411924Y-136229413D01*
X68042164Y-136075875D01*
X67641793Y-136075525D01*
X67271765Y-136228418D01*
X66988413Y-136511276D01*
X66834875Y-136881036D01*
X66834525Y-137281407D01*
X61675000Y-137281407D01*
X61675000Y-135315807D01*
X84497425Y-135315807D01*
X84650318Y-135685835D01*
X84933176Y-135969187D01*
X85302936Y-136122725D01*
X85703307Y-136123075D01*
X86073335Y-135970182D01*
X86356687Y-135687324D01*
X86510225Y-135317564D01*
X86510575Y-134917193D01*
X86357682Y-134547165D01*
X86268615Y-134457942D01*
X104149818Y-134457942D01*
X104309334Y-134844000D01*
X104604446Y-135139628D01*
X104990226Y-135299818D01*
X105407942Y-135300182D01*
X105794000Y-135140666D01*
X106089628Y-134845554D01*
X106249818Y-134459774D01*
X106250182Y-134042058D01*
X106090666Y-133656000D01*
X105795554Y-133360372D01*
X105707116Y-133323649D01*
X107744140Y-133323649D01*
X107815788Y-133553738D01*
X108328521Y-133723945D01*
X108867360Y-133684982D01*
X109184212Y-133553738D01*
X109255860Y-133323649D01*
X108500000Y-132567789D01*
X107744140Y-133323649D01*
X105707116Y-133323649D01*
X105409774Y-133200182D01*
X104992058Y-133199818D01*
X104606000Y-133359334D01*
X104310372Y-133654446D01*
X104150182Y-134040226D01*
X104149818Y-134457942D01*
X86268615Y-134457942D01*
X86074824Y-134263813D01*
X85705064Y-134110275D01*
X85304693Y-134109925D01*
X84934665Y-134262818D01*
X84651313Y-134545676D01*
X84497775Y-134915436D01*
X84497425Y-135315807D01*
X61675000Y-135315807D01*
X61675000Y-133161607D01*
X96543425Y-133161607D01*
X96696318Y-133531635D01*
X96979176Y-133814987D01*
X97348936Y-133968525D01*
X97749307Y-133968875D01*
X98119335Y-133815982D01*
X98402687Y-133533124D01*
X98489668Y-133323649D01*
X102444140Y-133323649D01*
X102515788Y-133553738D01*
X103028521Y-133723945D01*
X103567360Y-133684982D01*
X103884212Y-133553738D01*
X103955860Y-133323649D01*
X103200000Y-132567789D01*
X102444140Y-133323649D01*
X98489668Y-133323649D01*
X98556225Y-133163364D01*
X98556575Y-132762993D01*
X98403682Y-132392965D01*
X98189612Y-132178521D01*
X101826055Y-132178521D01*
X101865018Y-132717360D01*
X101996262Y-133034212D01*
X102226351Y-133105860D01*
X102982211Y-132350000D01*
X103417789Y-132350000D01*
X104173649Y-133105860D01*
X104403738Y-133034212D01*
X104573945Y-132521479D01*
X104549146Y-132178521D01*
X107126055Y-132178521D01*
X107165018Y-132717360D01*
X107296262Y-133034212D01*
X107526351Y-133105860D01*
X108282211Y-132350000D01*
X108717789Y-132350000D01*
X109473649Y-133105860D01*
X109703738Y-133034212D01*
X109873945Y-132521479D01*
X109834982Y-131982640D01*
X109703738Y-131665788D01*
X109473649Y-131594140D01*
X108717789Y-132350000D01*
X108282211Y-132350000D01*
X107526351Y-131594140D01*
X107296262Y-131665788D01*
X107126055Y-132178521D01*
X104549146Y-132178521D01*
X104534982Y-131982640D01*
X104403738Y-131665788D01*
X104173649Y-131594140D01*
X103417789Y-132350000D01*
X102982211Y-132350000D01*
X102226351Y-131594140D01*
X101996262Y-131665788D01*
X101826055Y-132178521D01*
X98189612Y-132178521D01*
X98120824Y-132109613D01*
X97751064Y-131956075D01*
X97350693Y-131955725D01*
X96980665Y-132108618D01*
X96697313Y-132391476D01*
X96543775Y-132761236D01*
X96543425Y-133161607D01*
X61675000Y-133161607D01*
X61675000Y-131376351D01*
X102444140Y-131376351D01*
X103200000Y-132132211D01*
X103955860Y-131376351D01*
X107744140Y-131376351D01*
X108500000Y-132132211D01*
X109255860Y-131376351D01*
X109184212Y-131146262D01*
X108671479Y-130976055D01*
X108132640Y-131015018D01*
X107815788Y-131146262D01*
X107744140Y-131376351D01*
X103955860Y-131376351D01*
X103884212Y-131146262D01*
X103371479Y-130976055D01*
X102832640Y-131015018D01*
X102515788Y-131146262D01*
X102444140Y-131376351D01*
X61675000Y-131376351D01*
X61675000Y-128445407D01*
X65685825Y-128445407D01*
X65838718Y-128815435D01*
X66121576Y-129098787D01*
X66491336Y-129252325D01*
X66891707Y-129252675D01*
X67261735Y-129099782D01*
X67545087Y-128816924D01*
X67698625Y-128447164D01*
X67698975Y-128046793D01*
X67546082Y-127676765D01*
X67319021Y-127449307D01*
X68993425Y-127449307D01*
X69146318Y-127819335D01*
X69429176Y-128102687D01*
X69798936Y-128256225D01*
X70199307Y-128256575D01*
X70253925Y-128234007D01*
X84924325Y-128234007D01*
X85077218Y-128604035D01*
X85360076Y-128887387D01*
X85625739Y-128997700D01*
X85552365Y-129028018D01*
X85269013Y-129310876D01*
X85115475Y-129680636D01*
X85115125Y-130081007D01*
X85268018Y-130451035D01*
X85550876Y-130734387D01*
X85920636Y-130887925D01*
X86321007Y-130888275D01*
X86691035Y-130735382D01*
X86974387Y-130452524D01*
X87127925Y-130082764D01*
X87128106Y-129874707D01*
X88938925Y-129874707D01*
X89091818Y-130244735D01*
X89374676Y-130528087D01*
X89744436Y-130681625D01*
X90144807Y-130681975D01*
X90514835Y-130529082D01*
X90798187Y-130246224D01*
X90846070Y-130130907D01*
X93463925Y-130130907D01*
X93616818Y-130500935D01*
X93899676Y-130784287D01*
X94269436Y-130937825D01*
X94669807Y-130938175D01*
X95039835Y-130785282D01*
X95323187Y-130502424D01*
X95476725Y-130132664D01*
X95477035Y-129777256D01*
X99499757Y-129777256D01*
X99712445Y-130292000D01*
X100105928Y-130686170D01*
X100620301Y-130899757D01*
X101177256Y-130900243D01*
X101692000Y-130687555D01*
X102086170Y-130294072D01*
X102169942Y-130092327D01*
X102252445Y-130292000D01*
X102645928Y-130686170D01*
X103160301Y-130899757D01*
X103717256Y-130900243D01*
X104232000Y-130687555D01*
X104626170Y-130294072D01*
X104709942Y-130092327D01*
X104792445Y-130292000D01*
X105185928Y-130686170D01*
X105700301Y-130899757D01*
X106257256Y-130900243D01*
X106772000Y-130687555D01*
X106949896Y-130509969D01*
X107727820Y-130509969D01*
X107805643Y-130745229D01*
X108336548Y-130923815D01*
X108895382Y-130885637D01*
X109234357Y-130745229D01*
X109312180Y-130509969D01*
X108520000Y-129717789D01*
X107727820Y-130509969D01*
X106949896Y-130509969D01*
X107166170Y-130294072D01*
X107237067Y-130123333D01*
X107274771Y-130214357D01*
X107510031Y-130292180D01*
X108302211Y-129500000D01*
X108737789Y-129500000D01*
X109529969Y-130292180D01*
X109765229Y-130214357D01*
X109943815Y-129683452D01*
X109905637Y-129124618D01*
X109765229Y-128785643D01*
X109529969Y-128707820D01*
X108737789Y-129500000D01*
X108302211Y-129500000D01*
X107510031Y-128707820D01*
X107274771Y-128785643D01*
X107241053Y-128885880D01*
X107167555Y-128708000D01*
X106949966Y-128490031D01*
X107727820Y-128490031D01*
X108520000Y-129282211D01*
X109312180Y-128490031D01*
X109234357Y-128254771D01*
X108703452Y-128076185D01*
X108144618Y-128114363D01*
X107805643Y-128254771D01*
X107727820Y-128490031D01*
X106949966Y-128490031D01*
X106774072Y-128313830D01*
X106259699Y-128100243D01*
X105702744Y-128099757D01*
X105188000Y-128312445D01*
X104793830Y-128705928D01*
X104710058Y-128907673D01*
X104627555Y-128708000D01*
X104234072Y-128313830D01*
X103719699Y-128100243D01*
X103162744Y-128099757D01*
X102648000Y-128312445D01*
X102253830Y-128705928D01*
X102170058Y-128907673D01*
X102087555Y-128708000D01*
X101694072Y-128313830D01*
X101179699Y-128100243D01*
X100622744Y-128099757D01*
X100108000Y-128312445D01*
X99713830Y-128705928D01*
X99500243Y-129220301D01*
X99499757Y-129777256D01*
X95477035Y-129777256D01*
X95477075Y-129732293D01*
X95324182Y-129362265D01*
X95041324Y-129078913D01*
X94671564Y-128925375D01*
X94271193Y-128925025D01*
X93901165Y-129077918D01*
X93617813Y-129360776D01*
X93464275Y-129730536D01*
X93463925Y-130130907D01*
X90846070Y-130130907D01*
X90951725Y-129876464D01*
X90952075Y-129476093D01*
X90799182Y-129106065D01*
X90516324Y-128822713D01*
X90146564Y-128669175D01*
X89746193Y-128668825D01*
X89376165Y-128821718D01*
X89092813Y-129104576D01*
X88939275Y-129474336D01*
X88938925Y-129874707D01*
X87128106Y-129874707D01*
X87128275Y-129682393D01*
X86975382Y-129312365D01*
X86692524Y-129029013D01*
X86426861Y-128918700D01*
X86500235Y-128888382D01*
X86783587Y-128605524D01*
X86925605Y-128263507D01*
X91370325Y-128263507D01*
X91523218Y-128633535D01*
X91806076Y-128916887D01*
X92175836Y-129070425D01*
X92576207Y-129070775D01*
X92946235Y-128917882D01*
X93229587Y-128635024D01*
X93383125Y-128265264D01*
X93383475Y-127864893D01*
X93230582Y-127494865D01*
X92947724Y-127211513D01*
X92577964Y-127057975D01*
X92177593Y-127057625D01*
X91807565Y-127210518D01*
X91524213Y-127493376D01*
X91370675Y-127863136D01*
X91370325Y-128263507D01*
X86925605Y-128263507D01*
X86937125Y-128235764D01*
X86937475Y-127835393D01*
X86784582Y-127465365D01*
X86501724Y-127182013D01*
X86131964Y-127028475D01*
X85731593Y-127028125D01*
X85361565Y-127181018D01*
X85078213Y-127463876D01*
X84924675Y-127833636D01*
X84924325Y-128234007D01*
X70253925Y-128234007D01*
X70569335Y-128103682D01*
X70852687Y-127820824D01*
X71006225Y-127451064D01*
X71006575Y-127050693D01*
X70853682Y-126680665D01*
X70570824Y-126397313D01*
X70201064Y-126243775D01*
X69800693Y-126243425D01*
X69430665Y-126396318D01*
X69147313Y-126679176D01*
X68993775Y-127048936D01*
X68993425Y-127449307D01*
X67319021Y-127449307D01*
X67263224Y-127393413D01*
X66893464Y-127239875D01*
X66493093Y-127239525D01*
X66123065Y-127392418D01*
X65839713Y-127675276D01*
X65686175Y-128045036D01*
X65685825Y-128445407D01*
X61675000Y-128445407D01*
X61675000Y-124699307D01*
X76880125Y-124699307D01*
X77033018Y-125069335D01*
X77315876Y-125352687D01*
X77685636Y-125506225D01*
X78086007Y-125506575D01*
X78456035Y-125353682D01*
X78501203Y-125308593D01*
X78501025Y-125512007D01*
X78653918Y-125882035D01*
X78936776Y-126165387D01*
X79306536Y-126318925D01*
X79706907Y-126319275D01*
X80076935Y-126166382D01*
X80360287Y-125883524D01*
X80409458Y-125765107D01*
X84682625Y-125765107D01*
X84835518Y-126135135D01*
X85118376Y-126418487D01*
X85488136Y-126572025D01*
X85888507Y-126572375D01*
X86258535Y-126419482D01*
X86541887Y-126136624D01*
X86695425Y-125766864D01*
X86695775Y-125366493D01*
X86542882Y-124996465D01*
X86260024Y-124713113D01*
X85890264Y-124559575D01*
X85489893Y-124559225D01*
X85119865Y-124712118D01*
X84836513Y-124994976D01*
X84682975Y-125364736D01*
X84682625Y-125765107D01*
X80409458Y-125765107D01*
X80513825Y-125513764D01*
X80514175Y-125113393D01*
X80361282Y-124743365D01*
X80078424Y-124460013D01*
X79902607Y-124387007D01*
X94313325Y-124387007D01*
X94466218Y-124757035D01*
X94749076Y-125040387D01*
X95118836Y-125193925D01*
X95519207Y-125194275D01*
X95889235Y-125041382D01*
X95892622Y-125038000D01*
X104526246Y-125038000D01*
X104526246Y-126562000D01*
X104568083Y-126784346D01*
X104699490Y-126988558D01*
X104899993Y-127125556D01*
X105138000Y-127173754D01*
X106662000Y-127173754D01*
X106884346Y-127131917D01*
X107088558Y-127000510D01*
X107225556Y-126800007D01*
X107273754Y-126562000D01*
X107273754Y-126544062D01*
X107284679Y-126570503D01*
X107667482Y-126953974D01*
X108167893Y-127161763D01*
X108709730Y-127162236D01*
X109210503Y-126955321D01*
X109593974Y-126572518D01*
X109801763Y-126072107D01*
X109802236Y-125530270D01*
X109595321Y-125029497D01*
X109212518Y-124646026D01*
X108712107Y-124438237D01*
X108170270Y-124437764D01*
X107669497Y-124644679D01*
X107286026Y-125027482D01*
X107273754Y-125057036D01*
X107273754Y-125038000D01*
X107231917Y-124815654D01*
X107100510Y-124611442D01*
X106900007Y-124474444D01*
X106662000Y-124426246D01*
X105138000Y-124426246D01*
X104915654Y-124468083D01*
X104711442Y-124599490D01*
X104574444Y-124799993D01*
X104526246Y-125038000D01*
X95892622Y-125038000D01*
X96172587Y-124758524D01*
X96326125Y-124388764D01*
X96326475Y-123988393D01*
X96173582Y-123618365D01*
X95890724Y-123335013D01*
X95520964Y-123181475D01*
X95120593Y-123181125D01*
X94750565Y-123334018D01*
X94467213Y-123616876D01*
X94313675Y-123986636D01*
X94313325Y-124387007D01*
X79902607Y-124387007D01*
X79708664Y-124306475D01*
X79308293Y-124306125D01*
X78938265Y-124459018D01*
X78893097Y-124504107D01*
X78893275Y-124300693D01*
X78740382Y-123930665D01*
X78457524Y-123647313D01*
X78087764Y-123493775D01*
X77687393Y-123493425D01*
X77317365Y-123646318D01*
X77034013Y-123929176D01*
X76880475Y-124298936D01*
X76880125Y-124699307D01*
X61675000Y-124699307D01*
X61675000Y-121414907D01*
X72261725Y-121414907D01*
X72414618Y-121784935D01*
X72697476Y-122068287D01*
X73067236Y-122221825D01*
X73467607Y-122222175D01*
X73837635Y-122069282D01*
X74120987Y-121786424D01*
X74136399Y-121749307D01*
X99793425Y-121749307D01*
X99946318Y-122119335D01*
X100229176Y-122402687D01*
X100598936Y-122556225D01*
X100999307Y-122556575D01*
X101369335Y-122403682D01*
X101652687Y-122120824D01*
X101806225Y-121751064D01*
X101806575Y-121350693D01*
X101653682Y-120980665D01*
X101370824Y-120697313D01*
X101001064Y-120543775D01*
X100600693Y-120543425D01*
X100230665Y-120696318D01*
X99947313Y-120979176D01*
X99793775Y-121348936D01*
X99793425Y-121749307D01*
X74136399Y-121749307D01*
X74274525Y-121416664D01*
X74274875Y-121016293D01*
X74121982Y-120646265D01*
X73958211Y-120482207D01*
X82087025Y-120482207D01*
X82239918Y-120852235D01*
X82522776Y-121135587D01*
X82892536Y-121289125D01*
X83292907Y-121289475D01*
X83662935Y-121136582D01*
X83946287Y-120853724D01*
X83983997Y-120762907D01*
X95986825Y-120762907D01*
X96139718Y-121132935D01*
X96422576Y-121416287D01*
X96792336Y-121569825D01*
X97192707Y-121570175D01*
X97562735Y-121417282D01*
X97846087Y-121134424D01*
X97999625Y-120764664D01*
X97999975Y-120364293D01*
X97847082Y-119994265D01*
X97564224Y-119710913D01*
X97194464Y-119557375D01*
X96794093Y-119557025D01*
X96424065Y-119709918D01*
X96140713Y-119992776D01*
X95987175Y-120362536D01*
X95986825Y-120762907D01*
X83983997Y-120762907D01*
X84099825Y-120483964D01*
X84099927Y-120366994D01*
X84344635Y-120265882D01*
X84627987Y-119983024D01*
X84781525Y-119613264D01*
X84781875Y-119212893D01*
X84628982Y-118842865D01*
X84346124Y-118559513D01*
X83976364Y-118405975D01*
X83575993Y-118405625D01*
X83205965Y-118558518D01*
X82922613Y-118841376D01*
X82769075Y-119211136D01*
X82768973Y-119328106D01*
X82524265Y-119429218D01*
X82240913Y-119712076D01*
X82087375Y-120081836D01*
X82087025Y-120482207D01*
X73958211Y-120482207D01*
X73839124Y-120362913D01*
X73469364Y-120209375D01*
X73068993Y-120209025D01*
X72698965Y-120361918D01*
X72415613Y-120644776D01*
X72262075Y-121014536D01*
X72261725Y-121414907D01*
X61675000Y-121414907D01*
X61675000Y-117999307D01*
X74543425Y-117999307D01*
X74696318Y-118369335D01*
X74979176Y-118652687D01*
X75348936Y-118806225D01*
X75749307Y-118806575D01*
X76119335Y-118653682D01*
X76402687Y-118370824D01*
X76556225Y-118001064D01*
X76556252Y-117969807D01*
X80627625Y-117969807D01*
X80780518Y-118339835D01*
X81063376Y-118623187D01*
X81433136Y-118776725D01*
X81833507Y-118777075D01*
X82203535Y-118624182D01*
X82486887Y-118341324D01*
X82546397Y-118198007D01*
X87940725Y-118198007D01*
X88093618Y-118568035D01*
X88376476Y-118851387D01*
X88746236Y-119004925D01*
X89146607Y-119005275D01*
X89516635Y-118852382D01*
X89799987Y-118569524D01*
X89935735Y-118242607D01*
X98444725Y-118242607D01*
X98597618Y-118612635D01*
X98880476Y-118895987D01*
X99250236Y-119049525D01*
X99650607Y-119049875D01*
X100020635Y-118896982D01*
X100303987Y-118614124D01*
X100457525Y-118244364D01*
X100457875Y-117843993D01*
X100304982Y-117473965D01*
X100130629Y-117299307D01*
X102157325Y-117299307D01*
X102310218Y-117669335D01*
X102593076Y-117952687D01*
X102962836Y-118106225D01*
X103363207Y-118106575D01*
X103733235Y-117953682D01*
X104016587Y-117670824D01*
X104170125Y-117301064D01*
X104170475Y-116900693D01*
X104017582Y-116530665D01*
X103734724Y-116247313D01*
X103364964Y-116093775D01*
X102964593Y-116093425D01*
X102594565Y-116246318D01*
X102311213Y-116529176D01*
X102157675Y-116898936D01*
X102157325Y-117299307D01*
X100130629Y-117299307D01*
X100022124Y-117190613D01*
X99652364Y-117037075D01*
X99251993Y-117036725D01*
X98881965Y-117189618D01*
X98598613Y-117472476D01*
X98445075Y-117842236D01*
X98444725Y-118242607D01*
X89935735Y-118242607D01*
X89953525Y-118199764D01*
X89953875Y-117799393D01*
X89800982Y-117429365D01*
X89518124Y-117146013D01*
X89148364Y-116992475D01*
X88747993Y-116992125D01*
X88377965Y-117145018D01*
X88094613Y-117427876D01*
X87941075Y-117797636D01*
X87940725Y-118198007D01*
X82546397Y-118198007D01*
X82640425Y-117971564D01*
X82640775Y-117571193D01*
X82595190Y-117460870D01*
X82887035Y-117340282D01*
X83170387Y-117057424D01*
X83323925Y-116687664D01*
X83324275Y-116287293D01*
X83173150Y-115921544D01*
X83306225Y-115601064D01*
X83306575Y-115200693D01*
X83153682Y-114830665D01*
X82969945Y-114646607D01*
X86947325Y-114646607D01*
X87100218Y-115016635D01*
X87383076Y-115299987D01*
X87752836Y-115453525D01*
X88153207Y-115453875D01*
X88523235Y-115300982D01*
X88725262Y-115099307D01*
X100843425Y-115099307D01*
X100996318Y-115469335D01*
X101279176Y-115752687D01*
X101648936Y-115906225D01*
X102049307Y-115906575D01*
X102419335Y-115753682D01*
X102702687Y-115470824D01*
X102856225Y-115101064D01*
X102856575Y-114700693D01*
X102703682Y-114330665D01*
X102420824Y-114047313D01*
X102051064Y-113893775D01*
X101650693Y-113893425D01*
X101280665Y-114046318D01*
X100997313Y-114329176D01*
X100843775Y-114698936D01*
X100843425Y-115099307D01*
X88725262Y-115099307D01*
X88806587Y-115018124D01*
X88960125Y-114648364D01*
X88960475Y-114247993D01*
X88807582Y-113877965D01*
X88524724Y-113594613D01*
X88154964Y-113441075D01*
X87754593Y-113440725D01*
X87384565Y-113593618D01*
X87101213Y-113876476D01*
X86947675Y-114246236D01*
X86947325Y-114646607D01*
X82969945Y-114646607D01*
X82870824Y-114547313D01*
X82501064Y-114393775D01*
X82100693Y-114393425D01*
X81730665Y-114546318D01*
X81447313Y-114829176D01*
X81293775Y-115198936D01*
X81293425Y-115599307D01*
X81444550Y-115965056D01*
X81311475Y-116285536D01*
X81311125Y-116685907D01*
X81356710Y-116796230D01*
X81064865Y-116916818D01*
X80781513Y-117199676D01*
X80627975Y-117569436D01*
X80627625Y-117969807D01*
X76556252Y-117969807D01*
X76556575Y-117600693D01*
X76403682Y-117230665D01*
X76120824Y-116947313D01*
X75751064Y-116793775D01*
X75350693Y-116793425D01*
X74980665Y-116946318D01*
X74697313Y-117229176D01*
X74543775Y-117598936D01*
X74543425Y-117999307D01*
X61675000Y-117999307D01*
X61675000Y-114438407D01*
X67825125Y-114438407D01*
X67978018Y-114808435D01*
X68260876Y-115091787D01*
X68630636Y-115245325D01*
X69031007Y-115245675D01*
X69401035Y-115092782D01*
X69684387Y-114809924D01*
X69837925Y-114440164D01*
X69838275Y-114039793D01*
X69738908Y-113799307D01*
X70193425Y-113799307D01*
X70346318Y-114169335D01*
X70629176Y-114452687D01*
X70998936Y-114606225D01*
X71399307Y-114606575D01*
X71769335Y-114453682D01*
X72052687Y-114170824D01*
X72206225Y-113801064D01*
X72206575Y-113400693D01*
X72164312Y-113298407D01*
X91322825Y-113298407D01*
X91475718Y-113668435D01*
X91758576Y-113951787D01*
X92128336Y-114105325D01*
X92321439Y-114105494D01*
X92321325Y-114236407D01*
X92474218Y-114606435D01*
X92757076Y-114889787D01*
X93126836Y-115043325D01*
X93527207Y-115043675D01*
X93897235Y-114890782D01*
X94180587Y-114607924D01*
X94334125Y-114238164D01*
X94334475Y-113837793D01*
X94181582Y-113467765D01*
X93954075Y-113239861D01*
X94288735Y-113101582D01*
X94572087Y-112818724D01*
X94725625Y-112448964D01*
X94725808Y-112239107D01*
X94997325Y-112239107D01*
X95150218Y-112609135D01*
X95433076Y-112892487D01*
X95802836Y-113046025D01*
X96203207Y-113046375D01*
X96573235Y-112893482D01*
X96856587Y-112610624D01*
X97010125Y-112240864D01*
X97010475Y-111840493D01*
X96857582Y-111470465D01*
X96684427Y-111297007D01*
X98943425Y-111297007D01*
X99096318Y-111667035D01*
X99379176Y-111950387D01*
X99748936Y-112103925D01*
X100149307Y-112104275D01*
X100519335Y-111951382D01*
X100802687Y-111668524D01*
X100956225Y-111298764D01*
X100956575Y-110898393D01*
X100803682Y-110528365D01*
X100520824Y-110245013D01*
X100151064Y-110091475D01*
X99750693Y-110091125D01*
X99380665Y-110244018D01*
X99097313Y-110526876D01*
X98943775Y-110896636D01*
X98943425Y-111297007D01*
X96684427Y-111297007D01*
X96574724Y-111187113D01*
X96204964Y-111033575D01*
X95804593Y-111033225D01*
X95434565Y-111186118D01*
X95151213Y-111468976D01*
X94997675Y-111838736D01*
X94997325Y-112239107D01*
X94725808Y-112239107D01*
X94725975Y-112048593D01*
X94573082Y-111678565D01*
X94290224Y-111395213D01*
X93920464Y-111241675D01*
X93520093Y-111241325D01*
X93150065Y-111394218D01*
X92866713Y-111677076D01*
X92713175Y-112046836D01*
X92713068Y-112168699D01*
X92530464Y-112092875D01*
X92130093Y-112092525D01*
X91760065Y-112245418D01*
X91476713Y-112528276D01*
X91323175Y-112898036D01*
X91322825Y-113298407D01*
X72164312Y-113298407D01*
X72053682Y-113030665D01*
X71833295Y-112809893D01*
X71969335Y-112753682D01*
X72252687Y-112470824D01*
X72406225Y-112101064D01*
X72406575Y-111700693D01*
X72253682Y-111330665D01*
X71970824Y-111047313D01*
X71601064Y-110893775D01*
X71200693Y-110893425D01*
X70830665Y-111046318D01*
X70547313Y-111329176D01*
X70393775Y-111698936D01*
X70393425Y-112099307D01*
X70546318Y-112469335D01*
X70766705Y-112690107D01*
X70630665Y-112746318D01*
X70347313Y-113029176D01*
X70193775Y-113398936D01*
X70193425Y-113799307D01*
X69738908Y-113799307D01*
X69685382Y-113669765D01*
X69402524Y-113386413D01*
X69032764Y-113232875D01*
X68632393Y-113232525D01*
X68262365Y-113385418D01*
X67979013Y-113668276D01*
X67825475Y-114038036D01*
X67825125Y-114438407D01*
X61675000Y-114438407D01*
X61675000Y-111793807D01*
X64965925Y-111793807D01*
X65118818Y-112163835D01*
X65401676Y-112447187D01*
X65771436Y-112600725D01*
X66171807Y-112601075D01*
X66541835Y-112448182D01*
X66825187Y-112165324D01*
X66978725Y-111795564D01*
X66979075Y-111395193D01*
X66826182Y-111025165D01*
X66543324Y-110741813D01*
X66173564Y-110588275D01*
X65773193Y-110587925D01*
X65403165Y-110740818D01*
X65119813Y-111023676D01*
X64966275Y-111393436D01*
X64965925Y-111793807D01*
X61675000Y-111793807D01*
X61675000Y-110299307D01*
X72393425Y-110299307D01*
X72546318Y-110669335D01*
X72829176Y-110952687D01*
X73198936Y-111106225D01*
X73599307Y-111106575D01*
X73969335Y-110953682D01*
X74252687Y-110670824D01*
X74282383Y-110599307D01*
X77193425Y-110599307D01*
X77346318Y-110969335D01*
X77629176Y-111252687D01*
X77998936Y-111406225D01*
X78399307Y-111406575D01*
X78769335Y-111253682D01*
X78773717Y-111249307D01*
X84443425Y-111249307D01*
X84596318Y-111619335D01*
X84879176Y-111902687D01*
X85248936Y-112056225D01*
X85649307Y-112056575D01*
X86019335Y-111903682D01*
X86302687Y-111620824D01*
X86456225Y-111251064D01*
X86456525Y-110907475D01*
X86546000Y-110818000D01*
X86546000Y-109754000D01*
X85482000Y-109754000D01*
X85330000Y-109906000D01*
X85330000Y-110043494D01*
X85250693Y-110043425D01*
X84880665Y-110196318D01*
X84597313Y-110479176D01*
X84443775Y-110848936D01*
X84443425Y-111249307D01*
X78773717Y-111249307D01*
X79052687Y-110970824D01*
X79206225Y-110601064D01*
X79206575Y-110200693D01*
X79053682Y-109830665D01*
X78770824Y-109547313D01*
X78401064Y-109393775D01*
X78000693Y-109393425D01*
X77630665Y-109546318D01*
X77347313Y-109829176D01*
X77193775Y-110198936D01*
X77193425Y-110599307D01*
X74282383Y-110599307D01*
X74406225Y-110301064D01*
X74406575Y-109900693D01*
X74253682Y-109530665D01*
X73970824Y-109247313D01*
X73601064Y-109093775D01*
X73200693Y-109093425D01*
X72830665Y-109246318D01*
X72547313Y-109529176D01*
X72393775Y-109898936D01*
X72393425Y-110299307D01*
X61675000Y-110299307D01*
X61675000Y-108717061D01*
X85330000Y-108717061D01*
X85330000Y-109294000D01*
X85482000Y-109446000D01*
X86546000Y-109446000D01*
X86546000Y-108382000D01*
X86854000Y-108382000D01*
X86854000Y-109446000D01*
X86874000Y-109446000D01*
X86874000Y-109754000D01*
X86854000Y-109754000D01*
X86854000Y-110818000D01*
X87006000Y-110970000D01*
X87582938Y-110970000D01*
X87806404Y-110877438D01*
X87977437Y-110706405D01*
X88070000Y-110482939D01*
X88070000Y-110334977D01*
X88084679Y-110370503D01*
X88467482Y-110753974D01*
X88738652Y-110866574D01*
X88738325Y-111241007D01*
X88891218Y-111611035D01*
X89174076Y-111894387D01*
X89543836Y-112047925D01*
X89944207Y-112048275D01*
X90314235Y-111895382D01*
X90597587Y-111612524D01*
X90751125Y-111242764D01*
X90751475Y-110842393D01*
X90598582Y-110472365D01*
X90424800Y-110298280D01*
X90601763Y-109872107D01*
X90602236Y-109330270D01*
X90395321Y-108829497D01*
X90083076Y-108516707D01*
X94820625Y-108516707D01*
X94973518Y-108886735D01*
X95256376Y-109170087D01*
X95626136Y-109323625D01*
X96026507Y-109323975D01*
X96396535Y-109171082D01*
X96679887Y-108888224D01*
X96833425Y-108518464D01*
X96833426Y-108516707D01*
X98441925Y-108516707D01*
X98594818Y-108886735D01*
X98877676Y-109170087D01*
X99247436Y-109323625D01*
X99647807Y-109323975D01*
X100017835Y-109171082D01*
X100301187Y-108888224D01*
X100454725Y-108518464D01*
X100454823Y-108406536D01*
X100499307Y-108406575D01*
X100869335Y-108253682D01*
X101152687Y-107970824D01*
X101306225Y-107601064D01*
X101306575Y-107200693D01*
X101153682Y-106830665D01*
X100870824Y-106547313D01*
X100501064Y-106393775D01*
X100100693Y-106393425D01*
X99730665Y-106546318D01*
X99447313Y-106829176D01*
X99293775Y-107198936D01*
X99293677Y-107310864D01*
X99249193Y-107310825D01*
X98879165Y-107463718D01*
X98595813Y-107746576D01*
X98442275Y-108116336D01*
X98441925Y-108516707D01*
X96833426Y-108516707D01*
X96833775Y-108118093D01*
X96680882Y-107748065D01*
X96398024Y-107464713D01*
X96028264Y-107311175D01*
X95627893Y-107310825D01*
X95257865Y-107463718D01*
X94974513Y-107746576D01*
X94820975Y-108116336D01*
X94820625Y-108516707D01*
X90083076Y-108516707D01*
X90012518Y-108446026D01*
X89512107Y-108238237D01*
X88970270Y-108237764D01*
X88469497Y-108444679D01*
X88086026Y-108827482D01*
X88070000Y-108866077D01*
X88070000Y-108717061D01*
X87977437Y-108493595D01*
X87806404Y-108322562D01*
X87582938Y-108230000D01*
X87006000Y-108230000D01*
X86854000Y-108382000D01*
X86546000Y-108382000D01*
X86394000Y-108230000D01*
X85817062Y-108230000D01*
X85593596Y-108322562D01*
X85422563Y-108493595D01*
X85330000Y-108717061D01*
X61675000Y-108717061D01*
X61675000Y-104338000D01*
X64326246Y-104338000D01*
X64326246Y-105862000D01*
X64368083Y-106084346D01*
X64499490Y-106288558D01*
X64699993Y-106425556D01*
X64938000Y-106473754D01*
X66462000Y-106473754D01*
X66684346Y-106431917D01*
X66888558Y-106300510D01*
X67025556Y-106100007D01*
X67073754Y-105862000D01*
X67073754Y-105844062D01*
X67084679Y-105870503D01*
X67467482Y-106253974D01*
X67967893Y-106461763D01*
X68509730Y-106462236D01*
X69010503Y-106255321D01*
X69393974Y-105872518D01*
X69510029Y-105593028D01*
X69624679Y-105870503D01*
X70007482Y-106253974D01*
X70507893Y-106461763D01*
X71049730Y-106462236D01*
X71550503Y-106255321D01*
X71933974Y-105872518D01*
X72050029Y-105593028D01*
X72164679Y-105870503D01*
X72547482Y-106253974D01*
X73047893Y-106461763D01*
X73589730Y-106462236D01*
X74090503Y-106255321D01*
X74473974Y-105872518D01*
X74590029Y-105593028D01*
X74704679Y-105870503D01*
X75087482Y-106253974D01*
X75587893Y-106461763D01*
X76129730Y-106462236D01*
X76630503Y-106255321D01*
X77013974Y-105872518D01*
X77130029Y-105593028D01*
X77244679Y-105870503D01*
X77627482Y-106253974D01*
X78127893Y-106461763D01*
X78669730Y-106462236D01*
X79170503Y-106255321D01*
X79553974Y-105872518D01*
X79670029Y-105593028D01*
X79784679Y-105870503D01*
X80167482Y-106253974D01*
X80667893Y-106461763D01*
X81209730Y-106462236D01*
X81710503Y-106255321D01*
X82093974Y-105872518D01*
X82210029Y-105593028D01*
X82324679Y-105870503D01*
X82707482Y-106253974D01*
X83207893Y-106461763D01*
X83749730Y-106462236D01*
X84250503Y-106255321D01*
X84633974Y-105872518D01*
X84750029Y-105593028D01*
X84864679Y-105870503D01*
X85247482Y-106253974D01*
X85747893Y-106461763D01*
X86289730Y-106462236D01*
X86790503Y-106255321D01*
X87173974Y-105872518D01*
X87290029Y-105593028D01*
X87404679Y-105870503D01*
X87787482Y-106253974D01*
X88287893Y-106461763D01*
X88829730Y-106462236D01*
X89330503Y-106255321D01*
X89713974Y-105872518D01*
X89830029Y-105593028D01*
X89944679Y-105870503D01*
X90327482Y-106253974D01*
X90827893Y-106461763D01*
X91369730Y-106462236D01*
X91870503Y-106255321D01*
X92253974Y-105872518D01*
X92370029Y-105593028D01*
X92484679Y-105870503D01*
X92867482Y-106253974D01*
X93243026Y-106409914D01*
X93143775Y-106648936D01*
X93143425Y-107049307D01*
X93296318Y-107419335D01*
X93579176Y-107702687D01*
X93948936Y-107856225D01*
X94349307Y-107856575D01*
X94719335Y-107703682D01*
X95002687Y-107420824D01*
X95156225Y-107051064D01*
X95156575Y-106650693D01*
X95003682Y-106280665D01*
X94720824Y-105997313D01*
X94684197Y-105982104D01*
X94793974Y-105872518D01*
X94910029Y-105593028D01*
X95024679Y-105870503D01*
X95407482Y-106253974D01*
X95907893Y-106461763D01*
X96449730Y-106462236D01*
X96950503Y-106255321D01*
X97333974Y-105872518D01*
X97450029Y-105593028D01*
X97564679Y-105870503D01*
X97947482Y-106253974D01*
X98447893Y-106461763D01*
X98989730Y-106462236D01*
X99490503Y-106255321D01*
X99873974Y-105872518D01*
X99990029Y-105593028D01*
X100104679Y-105870503D01*
X100487482Y-106253974D01*
X100987893Y-106461763D01*
X101529730Y-106462236D01*
X102030503Y-106255321D01*
X102413974Y-105872518D01*
X102530029Y-105593028D01*
X102644679Y-105870503D01*
X103027482Y-106253974D01*
X103527893Y-106461763D01*
X104069730Y-106462236D01*
X104570503Y-106255321D01*
X104953974Y-105872518D01*
X105070029Y-105593028D01*
X105184679Y-105870503D01*
X105567482Y-106253974D01*
X106067893Y-106461763D01*
X106609730Y-106462236D01*
X107110503Y-106255321D01*
X107493974Y-105872518D01*
X107701763Y-105372107D01*
X107702236Y-104830270D01*
X107495321Y-104329497D01*
X107112518Y-103946026D01*
X106833028Y-103829971D01*
X107110503Y-103715321D01*
X107493974Y-103332518D01*
X107701763Y-102832107D01*
X107702236Y-102290270D01*
X107495321Y-101789497D01*
X107112518Y-101406026D01*
X106612107Y-101198237D01*
X106070270Y-101197764D01*
X105569497Y-101404679D01*
X105186026Y-101787482D01*
X105069971Y-102066972D01*
X104955321Y-101789497D01*
X104572518Y-101406026D01*
X104072107Y-101198237D01*
X103530270Y-101197764D01*
X103029497Y-101404679D01*
X102646026Y-101787482D01*
X102529971Y-102066972D01*
X102415321Y-101789497D01*
X102032518Y-101406026D01*
X101532107Y-101198237D01*
X100990270Y-101197764D01*
X100489497Y-101404679D01*
X100106026Y-101787482D01*
X99989971Y-102066972D01*
X99875321Y-101789497D01*
X99492518Y-101406026D01*
X98992107Y-101198237D01*
X98450270Y-101197764D01*
X97949497Y-101404679D01*
X97566026Y-101787482D01*
X97449971Y-102066972D01*
X97335321Y-101789497D01*
X96952518Y-101406026D01*
X96452107Y-101198237D01*
X95910270Y-101197764D01*
X95409497Y-101404679D01*
X95026026Y-101787482D01*
X94909971Y-102066972D01*
X94795321Y-101789497D01*
X94412518Y-101406026D01*
X93912107Y-101198237D01*
X93370270Y-101197764D01*
X92869497Y-101404679D01*
X92486026Y-101787482D01*
X92369971Y-102066972D01*
X92255321Y-101789497D01*
X91872518Y-101406026D01*
X91372107Y-101198237D01*
X90830270Y-101197764D01*
X90329497Y-101404679D01*
X89946026Y-101787482D01*
X89829971Y-102066972D01*
X89715321Y-101789497D01*
X89332518Y-101406026D01*
X88832107Y-101198237D01*
X88290270Y-101197764D01*
X87789497Y-101404679D01*
X87406026Y-101787482D01*
X87289971Y-102066972D01*
X87175321Y-101789497D01*
X86792518Y-101406026D01*
X86292107Y-101198237D01*
X85750270Y-101197764D01*
X85249497Y-101404679D01*
X84866026Y-101787482D01*
X84749971Y-102066972D01*
X84635321Y-101789497D01*
X84252518Y-101406026D01*
X83752107Y-101198237D01*
X83210270Y-101197764D01*
X82709497Y-101404679D01*
X82326026Y-101787482D01*
X82209971Y-102066972D01*
X82095321Y-101789497D01*
X81712518Y-101406026D01*
X81212107Y-101198237D01*
X80670270Y-101197764D01*
X80169497Y-101404679D01*
X79786026Y-101787482D01*
X79669971Y-102066972D01*
X79555321Y-101789497D01*
X79172518Y-101406026D01*
X78672107Y-101198237D01*
X78130270Y-101197764D01*
X77629497Y-101404679D01*
X77246026Y-101787482D01*
X77129971Y-102066972D01*
X77015321Y-101789497D01*
X76632518Y-101406026D01*
X76132107Y-101198237D01*
X75590270Y-101197764D01*
X75089497Y-101404679D01*
X74706026Y-101787482D01*
X74589971Y-102066972D01*
X74475321Y-101789497D01*
X74092518Y-101406026D01*
X73592107Y-101198237D01*
X73050270Y-101197764D01*
X72549497Y-101404679D01*
X72166026Y-101787482D01*
X72049971Y-102066972D01*
X71935321Y-101789497D01*
X71552518Y-101406026D01*
X71052107Y-101198237D01*
X70510270Y-101197764D01*
X70009497Y-101404679D01*
X69626026Y-101787482D01*
X69509971Y-102066972D01*
X69395321Y-101789497D01*
X69012518Y-101406026D01*
X68512107Y-101198237D01*
X67970270Y-101197764D01*
X67469497Y-101404679D01*
X67086026Y-101787482D01*
X66969971Y-102066972D01*
X66855321Y-101789497D01*
X66472518Y-101406026D01*
X65972107Y-101198237D01*
X65430270Y-101197764D01*
X64929497Y-101404679D01*
X64546026Y-101787482D01*
X64338237Y-102287893D01*
X64337764Y-102829730D01*
X64544679Y-103330503D01*
X64927482Y-103713974D01*
X64957036Y-103726246D01*
X64938000Y-103726246D01*
X64715654Y-103768083D01*
X64511442Y-103899490D01*
X64374444Y-104099993D01*
X64326246Y-104338000D01*
X61675000Y-104338000D01*
X61675000Y-100675000D01*
X110325000Y-100675000D01*
X110325000Y-149325000D01*
X110325000Y-149325000D01*
G37*
X110325000Y-149325000D02*
X61675000Y-149325000D01*
X61675000Y-146738000D01*
X64326246Y-146738000D01*
X64326246Y-148262000D01*
X64368083Y-148484346D01*
X64499490Y-148688558D01*
X64699993Y-148825556D01*
X64938000Y-148873754D01*
X66462000Y-148873754D01*
X66684346Y-148831917D01*
X66888558Y-148700510D01*
X67025556Y-148500007D01*
X67073754Y-148262000D01*
X67073754Y-148244062D01*
X67084679Y-148270503D01*
X67467482Y-148653974D01*
X67967893Y-148861763D01*
X68509730Y-148862236D01*
X69010503Y-148655321D01*
X69393974Y-148272518D01*
X69510029Y-147993028D01*
X69624679Y-148270503D01*
X70007482Y-148653974D01*
X70507893Y-148861763D01*
X71049730Y-148862236D01*
X71550503Y-148655321D01*
X71933974Y-148272518D01*
X72050029Y-147993028D01*
X72164679Y-148270503D01*
X72547482Y-148653974D01*
X73047893Y-148861763D01*
X73589730Y-148862236D01*
X74090503Y-148655321D01*
X74473974Y-148272518D01*
X74590029Y-147993028D01*
X74704679Y-148270503D01*
X75087482Y-148653974D01*
X75587893Y-148861763D01*
X76129730Y-148862236D01*
X76630503Y-148655321D01*
X77013974Y-148272518D01*
X77130029Y-147993028D01*
X77244679Y-148270503D01*
X77627482Y-148653974D01*
X78127893Y-148861763D01*
X78669730Y-148862236D01*
X79170503Y-148655321D01*
X79553974Y-148272518D01*
X79670029Y-147993028D01*
X79784679Y-148270503D01*
X80167482Y-148653974D01*
X80667893Y-148861763D01*
X81209730Y-148862236D01*
X81710503Y-148655321D01*
X82093974Y-148272518D01*
X82210029Y-147993028D01*
X82324679Y-148270503D01*
X82707482Y-148653974D01*
X83207893Y-148861763D01*
X83749730Y-148862236D01*
X84250503Y-148655321D01*
X84633974Y-148272518D01*
X84750029Y-147993028D01*
X84864679Y-148270503D01*
X85247482Y-148653974D01*
X85747893Y-148861763D01*
X86289730Y-148862236D01*
X86790503Y-148655321D01*
X87173974Y-148272518D01*
X87290029Y-147993028D01*
X87404679Y-148270503D01*
X87787482Y-148653974D01*
X88287893Y-148861763D01*
X88829730Y-148862236D01*
X89330503Y-148655321D01*
X89713974Y-148272518D01*
X89830029Y-147993028D01*
X89944679Y-148270503D01*
X90327482Y-148653974D01*
X90827893Y-148861763D01*
X91369730Y-148862236D01*
X91870503Y-148655321D01*
X92253974Y-148272518D01*
X92370029Y-147993028D01*
X92484679Y-148270503D01*
X92867482Y-148653974D01*
X93367893Y-148861763D01*
X93909730Y-148862236D01*
X94410503Y-148655321D01*
X94793974Y-148272518D01*
X94910029Y-147993028D01*
X95024679Y-148270503D01*
X95407482Y-148653974D01*
X95907893Y-148861763D01*
X96449730Y-148862236D01*
X96950503Y-148655321D01*
X97333974Y-148272518D01*
X97450029Y-147993028D01*
X97564679Y-148270503D01*
X97947482Y-148653974D01*
X98447893Y-148861763D01*
X98989730Y-148862236D01*
X99490503Y-148655321D01*
X99873974Y-148272518D01*
X99990029Y-147993028D01*
X100104679Y-148270503D01*
X100487482Y-148653974D01*
X100987893Y-148861763D01*
X101529730Y-148862236D01*
X102030503Y-148655321D01*
X102413974Y-148272518D01*
X102530029Y-147993028D01*
X102644679Y-148270503D01*
X103027482Y-148653974D01*
X103527893Y-148861763D01*
X104069730Y-148862236D01*
X104570503Y-148655321D01*
X104743757Y-148482368D01*
X105575421Y-148482368D01*
X105648551Y-148713698D01*
X106165647Y-148885917D01*
X106709287Y-148847142D01*
X107031449Y-148713698D01*
X107104579Y-148482368D01*
X106340000Y-147717789D01*
X105575421Y-148482368D01*
X104743757Y-148482368D01*
X104953974Y-148272518D01*
X105057055Y-148024272D01*
X105126302Y-148191449D01*
X105357632Y-148264579D01*
X106122211Y-147500000D01*
X106557789Y-147500000D01*
X107322368Y-148264579D01*
X107553698Y-148191449D01*
X107725917Y-147674353D01*
X107687142Y-147130713D01*
X107553698Y-146808551D01*
X107322368Y-146735421D01*
X106557789Y-147500000D01*
X106122211Y-147500000D01*
X105357632Y-146735421D01*
X105126302Y-146808551D01*
X105064571Y-146993902D01*
X104955321Y-146729497D01*
X104572518Y-146346026D01*
X104293028Y-146229971D01*
X104570503Y-146115321D01*
X104743757Y-145942368D01*
X105575421Y-145942368D01*
X105648551Y-146173698D01*
X105799239Y-146223885D01*
X105648551Y-146286302D01*
X105575421Y-146517632D01*
X106340000Y-147282211D01*
X107104579Y-146517632D01*
X107031449Y-146286302D01*
X106880761Y-146236115D01*
X107031449Y-146173698D01*
X107104579Y-145942368D01*
X106340000Y-145177789D01*
X105575421Y-145942368D01*
X104743757Y-145942368D01*
X104953974Y-145732518D01*
X105057055Y-145484272D01*
X105126302Y-145651449D01*
X105357632Y-145724579D01*
X106122211Y-144960000D01*
X106557789Y-144960000D01*
X107322368Y-145724579D01*
X107553698Y-145651449D01*
X107725917Y-145134353D01*
X107687142Y-144590713D01*
X107553698Y-144268551D01*
X107322368Y-144195421D01*
X106557789Y-144960000D01*
X106122211Y-144960000D01*
X105357632Y-144195421D01*
X105126302Y-144268551D01*
X105064571Y-144453902D01*
X104955321Y-144189497D01*
X104743826Y-143977632D01*
X105575421Y-143977632D01*
X106340000Y-144742211D01*
X107104579Y-143977632D01*
X107031449Y-143746302D01*
X106514353Y-143574083D01*
X105970713Y-143612858D01*
X105648551Y-143746302D01*
X105575421Y-143977632D01*
X104743826Y-143977632D01*
X104572518Y-143806026D01*
X104072107Y-143598237D01*
X103530270Y-143597764D01*
X103029497Y-143804679D01*
X102646026Y-144187482D01*
X102529971Y-144466972D01*
X102415321Y-144189497D01*
X102032518Y-143806026D01*
X101532107Y-143598237D01*
X100990270Y-143597764D01*
X100489497Y-143804679D01*
X100106026Y-144187482D01*
X99989971Y-144466972D01*
X99875321Y-144189497D01*
X99492518Y-143806026D01*
X98992107Y-143598237D01*
X98450270Y-143597764D01*
X97949497Y-143804679D01*
X97566026Y-144187482D01*
X97449971Y-144466972D01*
X97335321Y-144189497D01*
X96952518Y-143806026D01*
X96452107Y-143598237D01*
X95910270Y-143597764D01*
X95409497Y-143804679D01*
X95026026Y-144187482D01*
X94909971Y-144466972D01*
X94795321Y-144189497D01*
X94412518Y-143806026D01*
X93912107Y-143598237D01*
X93370270Y-143597764D01*
X92869497Y-143804679D01*
X92486026Y-144187482D01*
X92369971Y-144466972D01*
X92255321Y-144189497D01*
X91872518Y-143806026D01*
X91372107Y-143598237D01*
X90830270Y-143597764D01*
X90329497Y-143804679D01*
X89946026Y-144187482D01*
X89829971Y-144466972D01*
X89715321Y-144189497D01*
X89332518Y-143806026D01*
X88832107Y-143598237D01*
X88290270Y-143597764D01*
X87789497Y-143804679D01*
X87406026Y-144187482D01*
X87289971Y-144466972D01*
X87175321Y-144189497D01*
X86792518Y-143806026D01*
X86292107Y-143598237D01*
X85750270Y-143597764D01*
X85249497Y-143804679D01*
X84866026Y-144187482D01*
X84749971Y-144466972D01*
X84635321Y-144189497D01*
X84252518Y-143806026D01*
X83752107Y-143598237D01*
X83210270Y-143597764D01*
X82709497Y-143804679D01*
X82326026Y-144187482D01*
X82209971Y-144466972D01*
X82095321Y-144189497D01*
X81712518Y-143806026D01*
X81212107Y-143598237D01*
X80670270Y-143597764D01*
X80169497Y-143804679D01*
X79786026Y-144187482D01*
X79669971Y-144466972D01*
X79555321Y-144189497D01*
X79172518Y-143806026D01*
X78672107Y-143598237D01*
X78130270Y-143597764D01*
X77629497Y-143804679D01*
X77246026Y-144187482D01*
X77129971Y-144466972D01*
X77015321Y-144189497D01*
X76632518Y-143806026D01*
X76132107Y-143598237D01*
X75590270Y-143597764D01*
X75089497Y-143804679D01*
X74706026Y-144187482D01*
X74589971Y-144466972D01*
X74475321Y-144189497D01*
X74092518Y-143806026D01*
X73592107Y-143598237D01*
X73050270Y-143597764D01*
X72549497Y-143804679D01*
X72166026Y-144187482D01*
X72049971Y-144466972D01*
X71935321Y-144189497D01*
X71552518Y-143806026D01*
X71052107Y-143598237D01*
X70510270Y-143597764D01*
X70009497Y-143804679D01*
X69626026Y-144187482D01*
X69509971Y-144466972D01*
X69395321Y-144189497D01*
X69012518Y-143806026D01*
X68512107Y-143598237D01*
X67970270Y-143597764D01*
X67469497Y-143804679D01*
X67086026Y-144187482D01*
X66969971Y-144466972D01*
X66855321Y-144189497D01*
X66472518Y-143806026D01*
X65972107Y-143598237D01*
X65430270Y-143597764D01*
X64929497Y-143804679D01*
X64546026Y-144187482D01*
X64338237Y-144687893D01*
X64337764Y-145229730D01*
X64544679Y-145730503D01*
X64927482Y-146113974D01*
X64957036Y-146126246D01*
X64938000Y-146126246D01*
X64715654Y-146168083D01*
X64511442Y-146299490D01*
X64374444Y-146499993D01*
X64326246Y-146738000D01*
X61675000Y-146738000D01*
X61675000Y-142049307D01*
X83393425Y-142049307D01*
X83546318Y-142419335D01*
X83829176Y-142702687D01*
X84198936Y-142856225D01*
X84599307Y-142856575D01*
X84969335Y-142703682D01*
X85252687Y-142420824D01*
X85406225Y-142051064D01*
X85406575Y-141650693D01*
X85253682Y-141280665D01*
X84970824Y-140997313D01*
X84601064Y-140843775D01*
X84200693Y-140843425D01*
X83830665Y-140996318D01*
X83547313Y-141279176D01*
X83393775Y-141648936D01*
X83393425Y-142049307D01*
X61675000Y-142049307D01*
X61675000Y-140623649D01*
X102444140Y-140623649D01*
X102515788Y-140853738D01*
X103028521Y-141023945D01*
X103567360Y-140984982D01*
X103884212Y-140853738D01*
X103955860Y-140623649D01*
X107744140Y-140623649D01*
X107815788Y-140853738D01*
X108328521Y-141023945D01*
X108867360Y-140984982D01*
X109184212Y-140853738D01*
X109255860Y-140623649D01*
X108500000Y-139867789D01*
X107744140Y-140623649D01*
X103955860Y-140623649D01*
X103200000Y-139867789D01*
X102444140Y-140623649D01*
X61675000Y-140623649D01*
X61675000Y-138549307D01*
X69193425Y-138549307D01*
X69346318Y-138919335D01*
X69629176Y-139202687D01*
X69998936Y-139356225D01*
X70399307Y-139356575D01*
X70703445Y-139230907D01*
X95748125Y-139230907D01*
X95901018Y-139600935D01*
X96183876Y-139884287D01*
X96553636Y-140037825D01*
X96954007Y-140038175D01*
X97324035Y-139885282D01*
X97607387Y-139602424D01*
X97658836Y-139478521D01*
X101826055Y-139478521D01*
X101865018Y-140017360D01*
X101996262Y-140334212D01*
X102226351Y-140405860D01*
X102982211Y-139650000D01*
X103417789Y-139650000D01*
X104173649Y-140405860D01*
X104403738Y-140334212D01*
X104573945Y-139821479D01*
X104549146Y-139478521D01*
X107126055Y-139478521D01*
X107165018Y-140017360D01*
X107296262Y-140334212D01*
X107526351Y-140405860D01*
X108282211Y-139650000D01*
X108717789Y-139650000D01*
X109473649Y-140405860D01*
X109703738Y-140334212D01*
X109873945Y-139821479D01*
X109834982Y-139282640D01*
X109703738Y-138965788D01*
X109473649Y-138894140D01*
X108717789Y-139650000D01*
X108282211Y-139650000D01*
X107526351Y-138894140D01*
X107296262Y-138965788D01*
X107126055Y-139478521D01*
X104549146Y-139478521D01*
X104534982Y-139282640D01*
X104403738Y-138965788D01*
X104173649Y-138894140D01*
X103417789Y-139650000D01*
X102982211Y-139650000D01*
X102226351Y-138894140D01*
X101996262Y-138965788D01*
X101826055Y-139478521D01*
X97658836Y-139478521D01*
X97760925Y-139232664D01*
X97761275Y-138832293D01*
X97696841Y-138676351D01*
X102444140Y-138676351D01*
X103200000Y-139432211D01*
X103955860Y-138676351D01*
X103884212Y-138446262D01*
X103371479Y-138276055D01*
X102832640Y-138315018D01*
X102515788Y-138446262D01*
X102444140Y-138676351D01*
X97696841Y-138676351D01*
X97608382Y-138462265D01*
X97325524Y-138178913D01*
X96955764Y-138025375D01*
X96555393Y-138025025D01*
X96185365Y-138177918D01*
X95902013Y-138460776D01*
X95748475Y-138830536D01*
X95748125Y-139230907D01*
X70703445Y-139230907D01*
X70769335Y-139203682D01*
X71052687Y-138920824D01*
X71206225Y-138551064D01*
X71206575Y-138150693D01*
X71053682Y-137780665D01*
X71034658Y-137761607D01*
X82393425Y-137761607D01*
X82546318Y-138131635D01*
X82829176Y-138414987D01*
X83198936Y-138568525D01*
X83599307Y-138568875D01*
X83969335Y-138415982D01*
X84252687Y-138133124D01*
X84252748Y-138132976D01*
X84529176Y-138409887D01*
X84898936Y-138563425D01*
X85299307Y-138563775D01*
X85669335Y-138410882D01*
X85952687Y-138128024D01*
X86023311Y-137957942D01*
X104149818Y-137957942D01*
X104309334Y-138344000D01*
X104604446Y-138639628D01*
X104990226Y-138799818D01*
X105407942Y-138800182D01*
X105707635Y-138676351D01*
X107744140Y-138676351D01*
X108500000Y-139432211D01*
X109255860Y-138676351D01*
X109184212Y-138446262D01*
X108671479Y-138276055D01*
X108132640Y-138315018D01*
X107815788Y-138446262D01*
X107744140Y-138676351D01*
X105707635Y-138676351D01*
X105794000Y-138640666D01*
X106089628Y-138345554D01*
X106249818Y-137959774D01*
X106250182Y-137542058D01*
X106090666Y-137156000D01*
X105795554Y-136860372D01*
X105409774Y-136700182D01*
X104992058Y-136699818D01*
X104606000Y-136859334D01*
X104310372Y-137154446D01*
X104150182Y-137540226D01*
X104149818Y-137957942D01*
X86023311Y-137957942D01*
X86106225Y-137758264D01*
X86106575Y-137357893D01*
X85953682Y-136987865D01*
X85670824Y-136704513D01*
X85301064Y-136550975D01*
X84900693Y-136550625D01*
X84530665Y-136703518D01*
X84247313Y-136986376D01*
X84247252Y-136986524D01*
X83970824Y-136709613D01*
X83601064Y-136556075D01*
X83200693Y-136555725D01*
X82830665Y-136708618D01*
X82547313Y-136991476D01*
X82393775Y-137361236D01*
X82393425Y-137761607D01*
X71034658Y-137761607D01*
X70770824Y-137497313D01*
X70401064Y-137343775D01*
X70000693Y-137343425D01*
X69630665Y-137496318D01*
X69347313Y-137779176D01*
X69193775Y-138148936D01*
X69193425Y-138549307D01*
X61675000Y-138549307D01*
X61675000Y-137281407D01*
X66834525Y-137281407D01*
X66987418Y-137651435D01*
X67270276Y-137934787D01*
X67640036Y-138088325D01*
X68040407Y-138088675D01*
X68410435Y-137935782D01*
X68693787Y-137652924D01*
X68847325Y-137283164D01*
X68847675Y-136882793D01*
X68694782Y-136512765D01*
X68650502Y-136468407D01*
X97285225Y-136468407D01*
X97438118Y-136838435D01*
X97720976Y-137121787D01*
X98090736Y-137275325D01*
X98491107Y-137275675D01*
X98861135Y-137122782D01*
X99144487Y-136839924D01*
X99298025Y-136470164D01*
X99298375Y-136069793D01*
X99145482Y-135699765D01*
X98862624Y-135416413D01*
X98492864Y-135262875D01*
X98092493Y-135262525D01*
X97722465Y-135415418D01*
X97439113Y-135698276D01*
X97285575Y-136068036D01*
X97285225Y-136468407D01*
X68650502Y-136468407D01*
X68411924Y-136229413D01*
X68042164Y-136075875D01*
X67641793Y-136075525D01*
X67271765Y-136228418D01*
X66988413Y-136511276D01*
X66834875Y-136881036D01*
X66834525Y-137281407D01*
X61675000Y-137281407D01*
X61675000Y-135315807D01*
X84497425Y-135315807D01*
X84650318Y-135685835D01*
X84933176Y-135969187D01*
X85302936Y-136122725D01*
X85703307Y-136123075D01*
X86073335Y-135970182D01*
X86356687Y-135687324D01*
X86510225Y-135317564D01*
X86510575Y-134917193D01*
X86357682Y-134547165D01*
X86268615Y-134457942D01*
X104149818Y-134457942D01*
X104309334Y-134844000D01*
X104604446Y-135139628D01*
X104990226Y-135299818D01*
X105407942Y-135300182D01*
X105794000Y-135140666D01*
X106089628Y-134845554D01*
X106249818Y-134459774D01*
X106250182Y-134042058D01*
X106090666Y-133656000D01*
X105795554Y-133360372D01*
X105707116Y-133323649D01*
X107744140Y-133323649D01*
X107815788Y-133553738D01*
X108328521Y-133723945D01*
X108867360Y-133684982D01*
X109184212Y-133553738D01*
X109255860Y-133323649D01*
X108500000Y-132567789D01*
X107744140Y-133323649D01*
X105707116Y-133323649D01*
X105409774Y-133200182D01*
X104992058Y-133199818D01*
X104606000Y-133359334D01*
X104310372Y-133654446D01*
X104150182Y-134040226D01*
X104149818Y-134457942D01*
X86268615Y-134457942D01*
X86074824Y-134263813D01*
X85705064Y-134110275D01*
X85304693Y-134109925D01*
X84934665Y-134262818D01*
X84651313Y-134545676D01*
X84497775Y-134915436D01*
X84497425Y-135315807D01*
X61675000Y-135315807D01*
X61675000Y-133161607D01*
X96543425Y-133161607D01*
X96696318Y-133531635D01*
X96979176Y-133814987D01*
X97348936Y-133968525D01*
X97749307Y-133968875D01*
X98119335Y-133815982D01*
X98402687Y-133533124D01*
X98489668Y-133323649D01*
X102444140Y-133323649D01*
X102515788Y-133553738D01*
X103028521Y-133723945D01*
X103567360Y-133684982D01*
X103884212Y-133553738D01*
X103955860Y-133323649D01*
X103200000Y-132567789D01*
X102444140Y-133323649D01*
X98489668Y-133323649D01*
X98556225Y-133163364D01*
X98556575Y-132762993D01*
X98403682Y-132392965D01*
X98189612Y-132178521D01*
X101826055Y-132178521D01*
X101865018Y-132717360D01*
X101996262Y-133034212D01*
X102226351Y-133105860D01*
X102982211Y-132350000D01*
X103417789Y-132350000D01*
X104173649Y-133105860D01*
X104403738Y-133034212D01*
X104573945Y-132521479D01*
X104549146Y-132178521D01*
X107126055Y-132178521D01*
X107165018Y-132717360D01*
X107296262Y-133034212D01*
X107526351Y-133105860D01*
X108282211Y-132350000D01*
X108717789Y-132350000D01*
X109473649Y-133105860D01*
X109703738Y-133034212D01*
X109873945Y-132521479D01*
X109834982Y-131982640D01*
X109703738Y-131665788D01*
X109473649Y-131594140D01*
X108717789Y-132350000D01*
X108282211Y-132350000D01*
X107526351Y-131594140D01*
X107296262Y-131665788D01*
X107126055Y-132178521D01*
X104549146Y-132178521D01*
X104534982Y-131982640D01*
X104403738Y-131665788D01*
X104173649Y-131594140D01*
X103417789Y-132350000D01*
X102982211Y-132350000D01*
X102226351Y-131594140D01*
X101996262Y-131665788D01*
X101826055Y-132178521D01*
X98189612Y-132178521D01*
X98120824Y-132109613D01*
X97751064Y-131956075D01*
X97350693Y-131955725D01*
X96980665Y-132108618D01*
X96697313Y-132391476D01*
X96543775Y-132761236D01*
X96543425Y-133161607D01*
X61675000Y-133161607D01*
X61675000Y-131376351D01*
X102444140Y-131376351D01*
X103200000Y-132132211D01*
X103955860Y-131376351D01*
X107744140Y-131376351D01*
X108500000Y-132132211D01*
X109255860Y-131376351D01*
X109184212Y-131146262D01*
X108671479Y-130976055D01*
X108132640Y-131015018D01*
X107815788Y-131146262D01*
X107744140Y-131376351D01*
X103955860Y-131376351D01*
X103884212Y-131146262D01*
X103371479Y-130976055D01*
X102832640Y-131015018D01*
X102515788Y-131146262D01*
X102444140Y-131376351D01*
X61675000Y-131376351D01*
X61675000Y-128445407D01*
X65685825Y-128445407D01*
X65838718Y-128815435D01*
X66121576Y-129098787D01*
X66491336Y-129252325D01*
X66891707Y-129252675D01*
X67261735Y-129099782D01*
X67545087Y-128816924D01*
X67698625Y-128447164D01*
X67698975Y-128046793D01*
X67546082Y-127676765D01*
X67319021Y-127449307D01*
X68993425Y-127449307D01*
X69146318Y-127819335D01*
X69429176Y-128102687D01*
X69798936Y-128256225D01*
X70199307Y-128256575D01*
X70253925Y-128234007D01*
X84924325Y-128234007D01*
X85077218Y-128604035D01*
X85360076Y-128887387D01*
X85625739Y-128997700D01*
X85552365Y-129028018D01*
X85269013Y-129310876D01*
X85115475Y-129680636D01*
X85115125Y-130081007D01*
X85268018Y-130451035D01*
X85550876Y-130734387D01*
X85920636Y-130887925D01*
X86321007Y-130888275D01*
X86691035Y-130735382D01*
X86974387Y-130452524D01*
X87127925Y-130082764D01*
X87128106Y-129874707D01*
X88938925Y-129874707D01*
X89091818Y-130244735D01*
X89374676Y-130528087D01*
X89744436Y-130681625D01*
X90144807Y-130681975D01*
X90514835Y-130529082D01*
X90798187Y-130246224D01*
X90846070Y-130130907D01*
X93463925Y-130130907D01*
X93616818Y-130500935D01*
X93899676Y-130784287D01*
X94269436Y-130937825D01*
X94669807Y-130938175D01*
X95039835Y-130785282D01*
X95323187Y-130502424D01*
X95476725Y-130132664D01*
X95477035Y-129777256D01*
X99499757Y-129777256D01*
X99712445Y-130292000D01*
X100105928Y-130686170D01*
X100620301Y-130899757D01*
X101177256Y-130900243D01*
X101692000Y-130687555D01*
X102086170Y-130294072D01*
X102169942Y-130092327D01*
X102252445Y-130292000D01*
X102645928Y-130686170D01*
X103160301Y-130899757D01*
X103717256Y-130900243D01*
X104232000Y-130687555D01*
X104626170Y-130294072D01*
X104709942Y-130092327D01*
X104792445Y-130292000D01*
X105185928Y-130686170D01*
X105700301Y-130899757D01*
X106257256Y-130900243D01*
X106772000Y-130687555D01*
X106949896Y-130509969D01*
X107727820Y-130509969D01*
X107805643Y-130745229D01*
X108336548Y-130923815D01*
X108895382Y-130885637D01*
X109234357Y-130745229D01*
X109312180Y-130509969D01*
X108520000Y-129717789D01*
X107727820Y-130509969D01*
X106949896Y-130509969D01*
X107166170Y-130294072D01*
X107237067Y-130123333D01*
X107274771Y-130214357D01*
X107510031Y-130292180D01*
X108302211Y-129500000D01*
X108737789Y-129500000D01*
X109529969Y-130292180D01*
X109765229Y-130214357D01*
X109943815Y-129683452D01*
X109905637Y-129124618D01*
X109765229Y-128785643D01*
X109529969Y-128707820D01*
X108737789Y-129500000D01*
X108302211Y-129500000D01*
X107510031Y-128707820D01*
X107274771Y-128785643D01*
X107241053Y-128885880D01*
X107167555Y-128708000D01*
X106949966Y-128490031D01*
X107727820Y-128490031D01*
X108520000Y-129282211D01*
X109312180Y-128490031D01*
X109234357Y-128254771D01*
X108703452Y-128076185D01*
X108144618Y-128114363D01*
X107805643Y-128254771D01*
X107727820Y-128490031D01*
X106949966Y-128490031D01*
X106774072Y-128313830D01*
X106259699Y-128100243D01*
X105702744Y-128099757D01*
X105188000Y-128312445D01*
X104793830Y-128705928D01*
X104710058Y-128907673D01*
X104627555Y-128708000D01*
X104234072Y-128313830D01*
X103719699Y-128100243D01*
X103162744Y-128099757D01*
X102648000Y-128312445D01*
X102253830Y-128705928D01*
X102170058Y-128907673D01*
X102087555Y-128708000D01*
X101694072Y-128313830D01*
X101179699Y-128100243D01*
X100622744Y-128099757D01*
X100108000Y-128312445D01*
X99713830Y-128705928D01*
X99500243Y-129220301D01*
X99499757Y-129777256D01*
X95477035Y-129777256D01*
X95477075Y-129732293D01*
X95324182Y-129362265D01*
X95041324Y-129078913D01*
X94671564Y-128925375D01*
X94271193Y-128925025D01*
X93901165Y-129077918D01*
X93617813Y-129360776D01*
X93464275Y-129730536D01*
X93463925Y-130130907D01*
X90846070Y-130130907D01*
X90951725Y-129876464D01*
X90952075Y-129476093D01*
X90799182Y-129106065D01*
X90516324Y-128822713D01*
X90146564Y-128669175D01*
X89746193Y-128668825D01*
X89376165Y-128821718D01*
X89092813Y-129104576D01*
X88939275Y-129474336D01*
X88938925Y-129874707D01*
X87128106Y-129874707D01*
X87128275Y-129682393D01*
X86975382Y-129312365D01*
X86692524Y-129029013D01*
X86426861Y-128918700D01*
X86500235Y-128888382D01*
X86783587Y-128605524D01*
X86925605Y-128263507D01*
X91370325Y-128263507D01*
X91523218Y-128633535D01*
X91806076Y-128916887D01*
X92175836Y-129070425D01*
X92576207Y-129070775D01*
X92946235Y-128917882D01*
X93229587Y-128635024D01*
X93383125Y-128265264D01*
X93383475Y-127864893D01*
X93230582Y-127494865D01*
X92947724Y-127211513D01*
X92577964Y-127057975D01*
X92177593Y-127057625D01*
X91807565Y-127210518D01*
X91524213Y-127493376D01*
X91370675Y-127863136D01*
X91370325Y-128263507D01*
X86925605Y-128263507D01*
X86937125Y-128235764D01*
X86937475Y-127835393D01*
X86784582Y-127465365D01*
X86501724Y-127182013D01*
X86131964Y-127028475D01*
X85731593Y-127028125D01*
X85361565Y-127181018D01*
X85078213Y-127463876D01*
X84924675Y-127833636D01*
X84924325Y-128234007D01*
X70253925Y-128234007D01*
X70569335Y-128103682D01*
X70852687Y-127820824D01*
X71006225Y-127451064D01*
X71006575Y-127050693D01*
X70853682Y-126680665D01*
X70570824Y-126397313D01*
X70201064Y-126243775D01*
X69800693Y-126243425D01*
X69430665Y-126396318D01*
X69147313Y-126679176D01*
X68993775Y-127048936D01*
X68993425Y-127449307D01*
X67319021Y-127449307D01*
X67263224Y-127393413D01*
X66893464Y-127239875D01*
X66493093Y-127239525D01*
X66123065Y-127392418D01*
X65839713Y-127675276D01*
X65686175Y-128045036D01*
X65685825Y-128445407D01*
X61675000Y-128445407D01*
X61675000Y-124699307D01*
X76880125Y-124699307D01*
X77033018Y-125069335D01*
X77315876Y-125352687D01*
X77685636Y-125506225D01*
X78086007Y-125506575D01*
X78456035Y-125353682D01*
X78501203Y-125308593D01*
X78501025Y-125512007D01*
X78653918Y-125882035D01*
X78936776Y-126165387D01*
X79306536Y-126318925D01*
X79706907Y-126319275D01*
X80076935Y-126166382D01*
X80360287Y-125883524D01*
X80409458Y-125765107D01*
X84682625Y-125765107D01*
X84835518Y-126135135D01*
X85118376Y-126418487D01*
X85488136Y-126572025D01*
X85888507Y-126572375D01*
X86258535Y-126419482D01*
X86541887Y-126136624D01*
X86695425Y-125766864D01*
X86695775Y-125366493D01*
X86542882Y-124996465D01*
X86260024Y-124713113D01*
X85890264Y-124559575D01*
X85489893Y-124559225D01*
X85119865Y-124712118D01*
X84836513Y-124994976D01*
X84682975Y-125364736D01*
X84682625Y-125765107D01*
X80409458Y-125765107D01*
X80513825Y-125513764D01*
X80514175Y-125113393D01*
X80361282Y-124743365D01*
X80078424Y-124460013D01*
X79902607Y-124387007D01*
X94313325Y-124387007D01*
X94466218Y-124757035D01*
X94749076Y-125040387D01*
X95118836Y-125193925D01*
X95519207Y-125194275D01*
X95889235Y-125041382D01*
X95892622Y-125038000D01*
X104526246Y-125038000D01*
X104526246Y-126562000D01*
X104568083Y-126784346D01*
X104699490Y-126988558D01*
X104899993Y-127125556D01*
X105138000Y-127173754D01*
X106662000Y-127173754D01*
X106884346Y-127131917D01*
X107088558Y-127000510D01*
X107225556Y-126800007D01*
X107273754Y-126562000D01*
X107273754Y-126544062D01*
X107284679Y-126570503D01*
X107667482Y-126953974D01*
X108167893Y-127161763D01*
X108709730Y-127162236D01*
X109210503Y-126955321D01*
X109593974Y-126572518D01*
X109801763Y-126072107D01*
X109802236Y-125530270D01*
X109595321Y-125029497D01*
X109212518Y-124646026D01*
X108712107Y-124438237D01*
X108170270Y-124437764D01*
X107669497Y-124644679D01*
X107286026Y-125027482D01*
X107273754Y-125057036D01*
X107273754Y-125038000D01*
X107231917Y-124815654D01*
X107100510Y-124611442D01*
X106900007Y-124474444D01*
X106662000Y-124426246D01*
X105138000Y-124426246D01*
X104915654Y-124468083D01*
X104711442Y-124599490D01*
X104574444Y-124799993D01*
X104526246Y-125038000D01*
X95892622Y-125038000D01*
X96172587Y-124758524D01*
X96326125Y-124388764D01*
X96326475Y-123988393D01*
X96173582Y-123618365D01*
X95890724Y-123335013D01*
X95520964Y-123181475D01*
X95120593Y-123181125D01*
X94750565Y-123334018D01*
X94467213Y-123616876D01*
X94313675Y-123986636D01*
X94313325Y-124387007D01*
X79902607Y-124387007D01*
X79708664Y-124306475D01*
X79308293Y-124306125D01*
X78938265Y-124459018D01*
X78893097Y-124504107D01*
X78893275Y-124300693D01*
X78740382Y-123930665D01*
X78457524Y-123647313D01*
X78087764Y-123493775D01*
X77687393Y-123493425D01*
X77317365Y-123646318D01*
X77034013Y-123929176D01*
X76880475Y-124298936D01*
X76880125Y-124699307D01*
X61675000Y-124699307D01*
X61675000Y-121414907D01*
X72261725Y-121414907D01*
X72414618Y-121784935D01*
X72697476Y-122068287D01*
X73067236Y-122221825D01*
X73467607Y-122222175D01*
X73837635Y-122069282D01*
X74120987Y-121786424D01*
X74136399Y-121749307D01*
X99793425Y-121749307D01*
X99946318Y-122119335D01*
X100229176Y-122402687D01*
X100598936Y-122556225D01*
X100999307Y-122556575D01*
X101369335Y-122403682D01*
X101652687Y-122120824D01*
X101806225Y-121751064D01*
X101806575Y-121350693D01*
X101653682Y-120980665D01*
X101370824Y-120697313D01*
X101001064Y-120543775D01*
X100600693Y-120543425D01*
X100230665Y-120696318D01*
X99947313Y-120979176D01*
X99793775Y-121348936D01*
X99793425Y-121749307D01*
X74136399Y-121749307D01*
X74274525Y-121416664D01*
X74274875Y-121016293D01*
X74121982Y-120646265D01*
X73958211Y-120482207D01*
X82087025Y-120482207D01*
X82239918Y-120852235D01*
X82522776Y-121135587D01*
X82892536Y-121289125D01*
X83292907Y-121289475D01*
X83662935Y-121136582D01*
X83946287Y-120853724D01*
X83983997Y-120762907D01*
X95986825Y-120762907D01*
X96139718Y-121132935D01*
X96422576Y-121416287D01*
X96792336Y-121569825D01*
X97192707Y-121570175D01*
X97562735Y-121417282D01*
X97846087Y-121134424D01*
X97999625Y-120764664D01*
X97999975Y-120364293D01*
X97847082Y-119994265D01*
X97564224Y-119710913D01*
X97194464Y-119557375D01*
X96794093Y-119557025D01*
X96424065Y-119709918D01*
X96140713Y-119992776D01*
X95987175Y-120362536D01*
X95986825Y-120762907D01*
X83983997Y-120762907D01*
X84099825Y-120483964D01*
X84099927Y-120366994D01*
X84344635Y-120265882D01*
X84627987Y-119983024D01*
X84781525Y-119613264D01*
X84781875Y-119212893D01*
X84628982Y-118842865D01*
X84346124Y-118559513D01*
X83976364Y-118405975D01*
X83575993Y-118405625D01*
X83205965Y-118558518D01*
X82922613Y-118841376D01*
X82769075Y-119211136D01*
X82768973Y-119328106D01*
X82524265Y-119429218D01*
X82240913Y-119712076D01*
X82087375Y-120081836D01*
X82087025Y-120482207D01*
X73958211Y-120482207D01*
X73839124Y-120362913D01*
X73469364Y-120209375D01*
X73068993Y-120209025D01*
X72698965Y-120361918D01*
X72415613Y-120644776D01*
X72262075Y-121014536D01*
X72261725Y-121414907D01*
X61675000Y-121414907D01*
X61675000Y-117999307D01*
X74543425Y-117999307D01*
X74696318Y-118369335D01*
X74979176Y-118652687D01*
X75348936Y-118806225D01*
X75749307Y-118806575D01*
X76119335Y-118653682D01*
X76402687Y-118370824D01*
X76556225Y-118001064D01*
X76556252Y-117969807D01*
X80627625Y-117969807D01*
X80780518Y-118339835D01*
X81063376Y-118623187D01*
X81433136Y-118776725D01*
X81833507Y-118777075D01*
X82203535Y-118624182D01*
X82486887Y-118341324D01*
X82546397Y-118198007D01*
X87940725Y-118198007D01*
X88093618Y-118568035D01*
X88376476Y-118851387D01*
X88746236Y-119004925D01*
X89146607Y-119005275D01*
X89516635Y-118852382D01*
X89799987Y-118569524D01*
X89935735Y-118242607D01*
X98444725Y-118242607D01*
X98597618Y-118612635D01*
X98880476Y-118895987D01*
X99250236Y-119049525D01*
X99650607Y-119049875D01*
X100020635Y-118896982D01*
X100303987Y-118614124D01*
X100457525Y-118244364D01*
X100457875Y-117843993D01*
X100304982Y-117473965D01*
X100130629Y-117299307D01*
X102157325Y-117299307D01*
X102310218Y-117669335D01*
X102593076Y-117952687D01*
X102962836Y-118106225D01*
X103363207Y-118106575D01*
X103733235Y-117953682D01*
X104016587Y-117670824D01*
X104170125Y-117301064D01*
X104170475Y-116900693D01*
X104017582Y-116530665D01*
X103734724Y-116247313D01*
X103364964Y-116093775D01*
X102964593Y-116093425D01*
X102594565Y-116246318D01*
X102311213Y-116529176D01*
X102157675Y-116898936D01*
X102157325Y-117299307D01*
X100130629Y-117299307D01*
X100022124Y-117190613D01*
X99652364Y-117037075D01*
X99251993Y-117036725D01*
X98881965Y-117189618D01*
X98598613Y-117472476D01*
X98445075Y-117842236D01*
X98444725Y-118242607D01*
X89935735Y-118242607D01*
X89953525Y-118199764D01*
X89953875Y-117799393D01*
X89800982Y-117429365D01*
X89518124Y-117146013D01*
X89148364Y-116992475D01*
X88747993Y-116992125D01*
X88377965Y-117145018D01*
X88094613Y-117427876D01*
X87941075Y-117797636D01*
X87940725Y-118198007D01*
X82546397Y-118198007D01*
X82640425Y-117971564D01*
X82640775Y-117571193D01*
X82595190Y-117460870D01*
X82887035Y-117340282D01*
X83170387Y-117057424D01*
X83323925Y-116687664D01*
X83324275Y-116287293D01*
X83173150Y-115921544D01*
X83306225Y-115601064D01*
X83306575Y-115200693D01*
X83153682Y-114830665D01*
X82969945Y-114646607D01*
X86947325Y-114646607D01*
X87100218Y-115016635D01*
X87383076Y-115299987D01*
X87752836Y-115453525D01*
X88153207Y-115453875D01*
X88523235Y-115300982D01*
X88725262Y-115099307D01*
X100843425Y-115099307D01*
X100996318Y-115469335D01*
X101279176Y-115752687D01*
X101648936Y-115906225D01*
X102049307Y-115906575D01*
X102419335Y-115753682D01*
X102702687Y-115470824D01*
X102856225Y-115101064D01*
X102856575Y-114700693D01*
X102703682Y-114330665D01*
X102420824Y-114047313D01*
X102051064Y-113893775D01*
X101650693Y-113893425D01*
X101280665Y-114046318D01*
X100997313Y-114329176D01*
X100843775Y-114698936D01*
X100843425Y-115099307D01*
X88725262Y-115099307D01*
X88806587Y-115018124D01*
X88960125Y-114648364D01*
X88960475Y-114247993D01*
X88807582Y-113877965D01*
X88524724Y-113594613D01*
X88154964Y-113441075D01*
X87754593Y-113440725D01*
X87384565Y-113593618D01*
X87101213Y-113876476D01*
X86947675Y-114246236D01*
X86947325Y-114646607D01*
X82969945Y-114646607D01*
X82870824Y-114547313D01*
X82501064Y-114393775D01*
X82100693Y-114393425D01*
X81730665Y-114546318D01*
X81447313Y-114829176D01*
X81293775Y-115198936D01*
X81293425Y-115599307D01*
X81444550Y-115965056D01*
X81311475Y-116285536D01*
X81311125Y-116685907D01*
X81356710Y-116796230D01*
X81064865Y-116916818D01*
X80781513Y-117199676D01*
X80627975Y-117569436D01*
X80627625Y-117969807D01*
X76556252Y-117969807D01*
X76556575Y-117600693D01*
X76403682Y-117230665D01*
X76120824Y-116947313D01*
X75751064Y-116793775D01*
X75350693Y-116793425D01*
X74980665Y-116946318D01*
X74697313Y-117229176D01*
X74543775Y-117598936D01*
X74543425Y-117999307D01*
X61675000Y-117999307D01*
X61675000Y-114438407D01*
X67825125Y-114438407D01*
X67978018Y-114808435D01*
X68260876Y-115091787D01*
X68630636Y-115245325D01*
X69031007Y-115245675D01*
X69401035Y-115092782D01*
X69684387Y-114809924D01*
X69837925Y-114440164D01*
X69838275Y-114039793D01*
X69738908Y-113799307D01*
X70193425Y-113799307D01*
X70346318Y-114169335D01*
X70629176Y-114452687D01*
X70998936Y-114606225D01*
X71399307Y-114606575D01*
X71769335Y-114453682D01*
X72052687Y-114170824D01*
X72206225Y-113801064D01*
X72206575Y-113400693D01*
X72164312Y-113298407D01*
X91322825Y-113298407D01*
X91475718Y-113668435D01*
X91758576Y-113951787D01*
X92128336Y-114105325D01*
X92321439Y-114105494D01*
X92321325Y-114236407D01*
X92474218Y-114606435D01*
X92757076Y-114889787D01*
X93126836Y-115043325D01*
X93527207Y-115043675D01*
X93897235Y-114890782D01*
X94180587Y-114607924D01*
X94334125Y-114238164D01*
X94334475Y-113837793D01*
X94181582Y-113467765D01*
X93954075Y-113239861D01*
X94288735Y-113101582D01*
X94572087Y-112818724D01*
X94725625Y-112448964D01*
X94725808Y-112239107D01*
X94997325Y-112239107D01*
X95150218Y-112609135D01*
X95433076Y-112892487D01*
X95802836Y-113046025D01*
X96203207Y-113046375D01*
X96573235Y-112893482D01*
X96856587Y-112610624D01*
X97010125Y-112240864D01*
X97010475Y-111840493D01*
X96857582Y-111470465D01*
X96684427Y-111297007D01*
X98943425Y-111297007D01*
X99096318Y-111667035D01*
X99379176Y-111950387D01*
X99748936Y-112103925D01*
X100149307Y-112104275D01*
X100519335Y-111951382D01*
X100802687Y-111668524D01*
X100956225Y-111298764D01*
X100956575Y-110898393D01*
X100803682Y-110528365D01*
X100520824Y-110245013D01*
X100151064Y-110091475D01*
X99750693Y-110091125D01*
X99380665Y-110244018D01*
X99097313Y-110526876D01*
X98943775Y-110896636D01*
X98943425Y-111297007D01*
X96684427Y-111297007D01*
X96574724Y-111187113D01*
X96204964Y-111033575D01*
X95804593Y-111033225D01*
X95434565Y-111186118D01*
X95151213Y-111468976D01*
X94997675Y-111838736D01*
X94997325Y-112239107D01*
X94725808Y-112239107D01*
X94725975Y-112048593D01*
X94573082Y-111678565D01*
X94290224Y-111395213D01*
X93920464Y-111241675D01*
X93520093Y-111241325D01*
X93150065Y-111394218D01*
X92866713Y-111677076D01*
X92713175Y-112046836D01*
X92713068Y-112168699D01*
X92530464Y-112092875D01*
X92130093Y-112092525D01*
X91760065Y-112245418D01*
X91476713Y-112528276D01*
X91323175Y-112898036D01*
X91322825Y-113298407D01*
X72164312Y-113298407D01*
X72053682Y-113030665D01*
X71833295Y-112809893D01*
X71969335Y-112753682D01*
X72252687Y-112470824D01*
X72406225Y-112101064D01*
X72406575Y-111700693D01*
X72253682Y-111330665D01*
X71970824Y-111047313D01*
X71601064Y-110893775D01*
X71200693Y-110893425D01*
X70830665Y-111046318D01*
X70547313Y-111329176D01*
X70393775Y-111698936D01*
X70393425Y-112099307D01*
X70546318Y-112469335D01*
X70766705Y-112690107D01*
X70630665Y-112746318D01*
X70347313Y-113029176D01*
X70193775Y-113398936D01*
X70193425Y-113799307D01*
X69738908Y-113799307D01*
X69685382Y-113669765D01*
X69402524Y-113386413D01*
X69032764Y-113232875D01*
X68632393Y-113232525D01*
X68262365Y-113385418D01*
X67979013Y-113668276D01*
X67825475Y-114038036D01*
X67825125Y-114438407D01*
X61675000Y-114438407D01*
X61675000Y-111793807D01*
X64965925Y-111793807D01*
X65118818Y-112163835D01*
X65401676Y-112447187D01*
X65771436Y-112600725D01*
X66171807Y-112601075D01*
X66541835Y-112448182D01*
X66825187Y-112165324D01*
X66978725Y-111795564D01*
X66979075Y-111395193D01*
X66826182Y-111025165D01*
X66543324Y-110741813D01*
X66173564Y-110588275D01*
X65773193Y-110587925D01*
X65403165Y-110740818D01*
X65119813Y-111023676D01*
X64966275Y-111393436D01*
X64965925Y-111793807D01*
X61675000Y-111793807D01*
X61675000Y-110299307D01*
X72393425Y-110299307D01*
X72546318Y-110669335D01*
X72829176Y-110952687D01*
X73198936Y-111106225D01*
X73599307Y-111106575D01*
X73969335Y-110953682D01*
X74252687Y-110670824D01*
X74282383Y-110599307D01*
X77193425Y-110599307D01*
X77346318Y-110969335D01*
X77629176Y-111252687D01*
X77998936Y-111406225D01*
X78399307Y-111406575D01*
X78769335Y-111253682D01*
X78773717Y-111249307D01*
X84443425Y-111249307D01*
X84596318Y-111619335D01*
X84879176Y-111902687D01*
X85248936Y-112056225D01*
X85649307Y-112056575D01*
X86019335Y-111903682D01*
X86302687Y-111620824D01*
X86456225Y-111251064D01*
X86456525Y-110907475D01*
X86546000Y-110818000D01*
X86546000Y-109754000D01*
X85482000Y-109754000D01*
X85330000Y-109906000D01*
X85330000Y-110043494D01*
X85250693Y-110043425D01*
X84880665Y-110196318D01*
X84597313Y-110479176D01*
X84443775Y-110848936D01*
X84443425Y-111249307D01*
X78773717Y-111249307D01*
X79052687Y-110970824D01*
X79206225Y-110601064D01*
X79206575Y-110200693D01*
X79053682Y-109830665D01*
X78770824Y-109547313D01*
X78401064Y-109393775D01*
X78000693Y-109393425D01*
X77630665Y-109546318D01*
X77347313Y-109829176D01*
X77193775Y-110198936D01*
X77193425Y-110599307D01*
X74282383Y-110599307D01*
X74406225Y-110301064D01*
X74406575Y-109900693D01*
X74253682Y-109530665D01*
X73970824Y-109247313D01*
X73601064Y-109093775D01*
X73200693Y-109093425D01*
X72830665Y-109246318D01*
X72547313Y-109529176D01*
X72393775Y-109898936D01*
X72393425Y-110299307D01*
X61675000Y-110299307D01*
X61675000Y-108717061D01*
X85330000Y-108717061D01*
X85330000Y-109294000D01*
X85482000Y-109446000D01*
X86546000Y-109446000D01*
X86546000Y-108382000D01*
X86854000Y-108382000D01*
X86854000Y-109446000D01*
X86874000Y-109446000D01*
X86874000Y-109754000D01*
X86854000Y-109754000D01*
X86854000Y-110818000D01*
X87006000Y-110970000D01*
X87582938Y-110970000D01*
X87806404Y-110877438D01*
X87977437Y-110706405D01*
X88070000Y-110482939D01*
X88070000Y-110334977D01*
X88084679Y-110370503D01*
X88467482Y-110753974D01*
X88738652Y-110866574D01*
X88738325Y-111241007D01*
X88891218Y-111611035D01*
X89174076Y-111894387D01*
X89543836Y-112047925D01*
X89944207Y-112048275D01*
X90314235Y-111895382D01*
X90597587Y-111612524D01*
X90751125Y-111242764D01*
X90751475Y-110842393D01*
X90598582Y-110472365D01*
X90424800Y-110298280D01*
X90601763Y-109872107D01*
X90602236Y-109330270D01*
X90395321Y-108829497D01*
X90083076Y-108516707D01*
X94820625Y-108516707D01*
X94973518Y-108886735D01*
X95256376Y-109170087D01*
X95626136Y-109323625D01*
X96026507Y-109323975D01*
X96396535Y-109171082D01*
X96679887Y-108888224D01*
X96833425Y-108518464D01*
X96833426Y-108516707D01*
X98441925Y-108516707D01*
X98594818Y-108886735D01*
X98877676Y-109170087D01*
X99247436Y-109323625D01*
X99647807Y-109323975D01*
X100017835Y-109171082D01*
X100301187Y-108888224D01*
X100454725Y-108518464D01*
X100454823Y-108406536D01*
X100499307Y-108406575D01*
X100869335Y-108253682D01*
X101152687Y-107970824D01*
X101306225Y-107601064D01*
X101306575Y-107200693D01*
X101153682Y-106830665D01*
X100870824Y-106547313D01*
X100501064Y-106393775D01*
X100100693Y-106393425D01*
X99730665Y-106546318D01*
X99447313Y-106829176D01*
X99293775Y-107198936D01*
X99293677Y-107310864D01*
X99249193Y-107310825D01*
X98879165Y-107463718D01*
X98595813Y-107746576D01*
X98442275Y-108116336D01*
X98441925Y-108516707D01*
X96833426Y-108516707D01*
X96833775Y-108118093D01*
X96680882Y-107748065D01*
X96398024Y-107464713D01*
X96028264Y-107311175D01*
X95627893Y-107310825D01*
X95257865Y-107463718D01*
X94974513Y-107746576D01*
X94820975Y-108116336D01*
X94820625Y-108516707D01*
X90083076Y-108516707D01*
X90012518Y-108446026D01*
X89512107Y-108238237D01*
X88970270Y-108237764D01*
X88469497Y-108444679D01*
X88086026Y-108827482D01*
X88070000Y-108866077D01*
X88070000Y-108717061D01*
X87977437Y-108493595D01*
X87806404Y-108322562D01*
X87582938Y-108230000D01*
X87006000Y-108230000D01*
X86854000Y-108382000D01*
X86546000Y-108382000D01*
X86394000Y-108230000D01*
X85817062Y-108230000D01*
X85593596Y-108322562D01*
X85422563Y-108493595D01*
X85330000Y-108717061D01*
X61675000Y-108717061D01*
X61675000Y-104338000D01*
X64326246Y-104338000D01*
X64326246Y-105862000D01*
X64368083Y-106084346D01*
X64499490Y-106288558D01*
X64699993Y-106425556D01*
X64938000Y-106473754D01*
X66462000Y-106473754D01*
X66684346Y-106431917D01*
X66888558Y-106300510D01*
X67025556Y-106100007D01*
X67073754Y-105862000D01*
X67073754Y-105844062D01*
X67084679Y-105870503D01*
X67467482Y-106253974D01*
X67967893Y-106461763D01*
X68509730Y-106462236D01*
X69010503Y-106255321D01*
X69393974Y-105872518D01*
X69510029Y-105593028D01*
X69624679Y-105870503D01*
X70007482Y-106253974D01*
X70507893Y-106461763D01*
X71049730Y-106462236D01*
X71550503Y-106255321D01*
X71933974Y-105872518D01*
X72050029Y-105593028D01*
X72164679Y-105870503D01*
X72547482Y-106253974D01*
X73047893Y-106461763D01*
X73589730Y-106462236D01*
X74090503Y-106255321D01*
X74473974Y-105872518D01*
X74590029Y-105593028D01*
X74704679Y-105870503D01*
X75087482Y-106253974D01*
X75587893Y-106461763D01*
X76129730Y-106462236D01*
X76630503Y-106255321D01*
X77013974Y-105872518D01*
X77130029Y-105593028D01*
X77244679Y-105870503D01*
X77627482Y-106253974D01*
X78127893Y-106461763D01*
X78669730Y-106462236D01*
X79170503Y-106255321D01*
X79553974Y-105872518D01*
X79670029Y-105593028D01*
X79784679Y-105870503D01*
X80167482Y-106253974D01*
X80667893Y-106461763D01*
X81209730Y-106462236D01*
X81710503Y-106255321D01*
X82093974Y-105872518D01*
X82210029Y-105593028D01*
X82324679Y-105870503D01*
X82707482Y-106253974D01*
X83207893Y-106461763D01*
X83749730Y-106462236D01*
X84250503Y-106255321D01*
X84633974Y-105872518D01*
X84750029Y-105593028D01*
X84864679Y-105870503D01*
X85247482Y-106253974D01*
X85747893Y-106461763D01*
X86289730Y-106462236D01*
X86790503Y-106255321D01*
X87173974Y-105872518D01*
X87290029Y-105593028D01*
X87404679Y-105870503D01*
X87787482Y-106253974D01*
X88287893Y-106461763D01*
X88829730Y-106462236D01*
X89330503Y-106255321D01*
X89713974Y-105872518D01*
X89830029Y-105593028D01*
X89944679Y-105870503D01*
X90327482Y-106253974D01*
X90827893Y-106461763D01*
X91369730Y-106462236D01*
X91870503Y-106255321D01*
X92253974Y-105872518D01*
X92370029Y-105593028D01*
X92484679Y-105870503D01*
X92867482Y-106253974D01*
X93243026Y-106409914D01*
X93143775Y-106648936D01*
X93143425Y-107049307D01*
X93296318Y-107419335D01*
X93579176Y-107702687D01*
X93948936Y-107856225D01*
X94349307Y-107856575D01*
X94719335Y-107703682D01*
X95002687Y-107420824D01*
X95156225Y-107051064D01*
X95156575Y-106650693D01*
X95003682Y-106280665D01*
X94720824Y-105997313D01*
X94684197Y-105982104D01*
X94793974Y-105872518D01*
X94910029Y-105593028D01*
X95024679Y-105870503D01*
X95407482Y-106253974D01*
X95907893Y-106461763D01*
X96449730Y-106462236D01*
X96950503Y-106255321D01*
X97333974Y-105872518D01*
X97450029Y-105593028D01*
X97564679Y-105870503D01*
X97947482Y-106253974D01*
X98447893Y-106461763D01*
X98989730Y-106462236D01*
X99490503Y-106255321D01*
X99873974Y-105872518D01*
X99990029Y-105593028D01*
X100104679Y-105870503D01*
X100487482Y-106253974D01*
X100987893Y-106461763D01*
X101529730Y-106462236D01*
X102030503Y-106255321D01*
X102413974Y-105872518D01*
X102530029Y-105593028D01*
X102644679Y-105870503D01*
X103027482Y-106253974D01*
X103527893Y-106461763D01*
X104069730Y-106462236D01*
X104570503Y-106255321D01*
X104953974Y-105872518D01*
X105070029Y-105593028D01*
X105184679Y-105870503D01*
X105567482Y-106253974D01*
X106067893Y-106461763D01*
X106609730Y-106462236D01*
X107110503Y-106255321D01*
X107493974Y-105872518D01*
X107701763Y-105372107D01*
X107702236Y-104830270D01*
X107495321Y-104329497D01*
X107112518Y-103946026D01*
X106833028Y-103829971D01*
X107110503Y-103715321D01*
X107493974Y-103332518D01*
X107701763Y-102832107D01*
X107702236Y-102290270D01*
X107495321Y-101789497D01*
X107112518Y-101406026D01*
X106612107Y-101198237D01*
X106070270Y-101197764D01*
X105569497Y-101404679D01*
X105186026Y-101787482D01*
X105069971Y-102066972D01*
X104955321Y-101789497D01*
X104572518Y-101406026D01*
X104072107Y-101198237D01*
X103530270Y-101197764D01*
X103029497Y-101404679D01*
X102646026Y-101787482D01*
X102529971Y-102066972D01*
X102415321Y-101789497D01*
X102032518Y-101406026D01*
X101532107Y-101198237D01*
X100990270Y-101197764D01*
X100489497Y-101404679D01*
X100106026Y-101787482D01*
X99989971Y-102066972D01*
X99875321Y-101789497D01*
X99492518Y-101406026D01*
X98992107Y-101198237D01*
X98450270Y-101197764D01*
X97949497Y-101404679D01*
X97566026Y-101787482D01*
X97449971Y-102066972D01*
X97335321Y-101789497D01*
X96952518Y-101406026D01*
X96452107Y-101198237D01*
X95910270Y-101197764D01*
X95409497Y-101404679D01*
X95026026Y-101787482D01*
X94909971Y-102066972D01*
X94795321Y-101789497D01*
X94412518Y-101406026D01*
X93912107Y-101198237D01*
X93370270Y-101197764D01*
X92869497Y-101404679D01*
X92486026Y-101787482D01*
X92369971Y-102066972D01*
X92255321Y-101789497D01*
X91872518Y-101406026D01*
X91372107Y-101198237D01*
X90830270Y-101197764D01*
X90329497Y-101404679D01*
X89946026Y-101787482D01*
X89829971Y-102066972D01*
X89715321Y-101789497D01*
X89332518Y-101406026D01*
X88832107Y-101198237D01*
X88290270Y-101197764D01*
X87789497Y-101404679D01*
X87406026Y-101787482D01*
X87289971Y-102066972D01*
X87175321Y-101789497D01*
X86792518Y-101406026D01*
X86292107Y-101198237D01*
X85750270Y-101197764D01*
X85249497Y-101404679D01*
X84866026Y-101787482D01*
X84749971Y-102066972D01*
X84635321Y-101789497D01*
X84252518Y-101406026D01*
X83752107Y-101198237D01*
X83210270Y-101197764D01*
X82709497Y-101404679D01*
X82326026Y-101787482D01*
X82209971Y-102066972D01*
X82095321Y-101789497D01*
X81712518Y-101406026D01*
X81212107Y-101198237D01*
X80670270Y-101197764D01*
X80169497Y-101404679D01*
X79786026Y-101787482D01*
X79669971Y-102066972D01*
X79555321Y-101789497D01*
X79172518Y-101406026D01*
X78672107Y-101198237D01*
X78130270Y-101197764D01*
X77629497Y-101404679D01*
X77246026Y-101787482D01*
X77129971Y-102066972D01*
X77015321Y-101789497D01*
X76632518Y-101406026D01*
X76132107Y-101198237D01*
X75590270Y-101197764D01*
X75089497Y-101404679D01*
X74706026Y-101787482D01*
X74589971Y-102066972D01*
X74475321Y-101789497D01*
X74092518Y-101406026D01*
X73592107Y-101198237D01*
X73050270Y-101197764D01*
X72549497Y-101404679D01*
X72166026Y-101787482D01*
X72049971Y-102066972D01*
X71935321Y-101789497D01*
X71552518Y-101406026D01*
X71052107Y-101198237D01*
X70510270Y-101197764D01*
X70009497Y-101404679D01*
X69626026Y-101787482D01*
X69509971Y-102066972D01*
X69395321Y-101789497D01*
X69012518Y-101406026D01*
X68512107Y-101198237D01*
X67970270Y-101197764D01*
X67469497Y-101404679D01*
X67086026Y-101787482D01*
X66969971Y-102066972D01*
X66855321Y-101789497D01*
X66472518Y-101406026D01*
X65972107Y-101198237D01*
X65430270Y-101197764D01*
X64929497Y-101404679D01*
X64546026Y-101787482D01*
X64338237Y-102287893D01*
X64337764Y-102829730D01*
X64544679Y-103330503D01*
X64927482Y-103713974D01*
X64957036Y-103726246D01*
X64938000Y-103726246D01*
X64715654Y-103768083D01*
X64511442Y-103899490D01*
X64374444Y-104099993D01*
X64326246Y-104338000D01*
X61675000Y-104338000D01*
X61675000Y-100675000D01*
X110325000Y-100675000D01*
X110325000Y-149325000D01*
M02*
