G04 #@! TF.FileFunction,Legend,Top*
%FSLAX46Y46*%
G04 Gerber Fmt 4.6, Leading zero omitted, Abs format (unit mm)*
G04 Created by KiCad (PCBNEW 4.0.7) date 02/27/18 15:26:37*
%MOMM*%
%LPD*%
G01*
G04 APERTURE LIST*
%ADD10C,0.100000*%
%ADD11C,0.150000*%
%ADD12C,0.200000*%
%ADD13C,0.250000*%
%ADD14C,0.300000*%
%ADD15C,0.097500*%
G04 APERTURE END LIST*
D10*
D11*
X86292858Y-112078571D02*
X86435715Y-112126190D01*
X86483334Y-112173810D01*
X86530953Y-112269048D01*
X86530953Y-112411905D01*
X86483334Y-112507143D01*
X86435715Y-112554762D01*
X86340477Y-112602381D01*
X85959524Y-112602381D01*
X85959524Y-111602381D01*
X86292858Y-111602381D01*
X86388096Y-111650000D01*
X86435715Y-111697619D01*
X86483334Y-111792857D01*
X86483334Y-111888095D01*
X86435715Y-111983333D01*
X86388096Y-112030952D01*
X86292858Y-112078571D01*
X85959524Y-112078571D01*
X87150000Y-111602381D02*
X87340477Y-111602381D01*
X87435715Y-111650000D01*
X87530953Y-111745238D01*
X87578572Y-111935714D01*
X87578572Y-112269048D01*
X87530953Y-112459524D01*
X87435715Y-112554762D01*
X87340477Y-112602381D01*
X87150000Y-112602381D01*
X87054762Y-112554762D01*
X86959524Y-112459524D01*
X86911905Y-112269048D01*
X86911905Y-111935714D01*
X86959524Y-111745238D01*
X87054762Y-111650000D01*
X87150000Y-111602381D01*
X88197619Y-111602381D02*
X88388096Y-111602381D01*
X88483334Y-111650000D01*
X88578572Y-111745238D01*
X88626191Y-111935714D01*
X88626191Y-112269048D01*
X88578572Y-112459524D01*
X88483334Y-112554762D01*
X88388096Y-112602381D01*
X88197619Y-112602381D01*
X88102381Y-112554762D01*
X88007143Y-112459524D01*
X87959524Y-112269048D01*
X87959524Y-111935714D01*
X88007143Y-111745238D01*
X88102381Y-111650000D01*
X88197619Y-111602381D01*
X88911905Y-111602381D02*
X89483334Y-111602381D01*
X89197619Y-112602381D02*
X89197619Y-111602381D01*
X67970238Y-115090476D02*
X67922619Y-115233333D01*
X67922619Y-115471429D01*
X67970238Y-115566667D01*
X68017857Y-115614286D01*
X68113095Y-115661905D01*
X68208333Y-115661905D01*
X68303571Y-115614286D01*
X68351190Y-115566667D01*
X68398810Y-115471429D01*
X68446429Y-115280952D01*
X68494048Y-115185714D01*
X68541667Y-115138095D01*
X68636905Y-115090476D01*
X68732143Y-115090476D01*
X68827381Y-115138095D01*
X68875000Y-115185714D01*
X68922619Y-115280952D01*
X68922619Y-115519048D01*
X68875000Y-115661905D01*
X68922619Y-115947619D02*
X68922619Y-116519048D01*
X67922619Y-116233333D02*
X68922619Y-116233333D01*
X67922619Y-116852381D02*
X68922619Y-116852381D01*
X68208333Y-117185715D01*
X68922619Y-117519048D01*
X67922619Y-117519048D01*
X68922619Y-117900000D02*
X68922619Y-118519048D01*
X68541667Y-118185714D01*
X68541667Y-118328572D01*
X68494048Y-118423810D01*
X68446429Y-118471429D01*
X68351190Y-118519048D01*
X68113095Y-118519048D01*
X68017857Y-118471429D01*
X67970238Y-118423810D01*
X67922619Y-118328572D01*
X67922619Y-118042857D01*
X67970238Y-117947619D01*
X68017857Y-117900000D01*
X68827381Y-118900000D02*
X68875000Y-118947619D01*
X68922619Y-119042857D01*
X68922619Y-119280953D01*
X68875000Y-119376191D01*
X68827381Y-119423810D01*
X68732143Y-119471429D01*
X68636905Y-119471429D01*
X68494048Y-119423810D01*
X67922619Y-118852381D01*
X67922619Y-119471429D01*
X67922619Y-120376191D02*
X67922619Y-119900000D01*
X68922619Y-119900000D01*
X67922619Y-121233334D02*
X67922619Y-120661905D01*
X67922619Y-120947619D02*
X68922619Y-120947619D01*
X68779762Y-120852381D01*
X68684524Y-120757143D01*
X68636905Y-120661905D01*
X68922619Y-122138096D02*
X68922619Y-121661905D01*
X68446429Y-121614286D01*
X68494048Y-121661905D01*
X68541667Y-121757143D01*
X68541667Y-121995239D01*
X68494048Y-122090477D01*
X68446429Y-122138096D01*
X68351190Y-122185715D01*
X68113095Y-122185715D01*
X68017857Y-122138096D01*
X67970238Y-122090477D01*
X67922619Y-121995239D01*
X67922619Y-121757143D01*
X67970238Y-121661905D01*
X68017857Y-121614286D01*
X67922619Y-123138096D02*
X67922619Y-122566667D01*
X67922619Y-122852381D02*
X68922619Y-122852381D01*
X68779762Y-122757143D01*
X68684524Y-122661905D01*
X68636905Y-122566667D01*
X68922619Y-123423810D02*
X67922619Y-123757143D01*
X68922619Y-124090477D01*
X67922619Y-124423810D02*
X68922619Y-124423810D01*
X68922619Y-124661905D01*
X68875000Y-124804763D01*
X68779762Y-124900001D01*
X68684524Y-124947620D01*
X68494048Y-124995239D01*
X68351190Y-124995239D01*
X68160714Y-124947620D01*
X68065476Y-124900001D01*
X67970238Y-124804763D01*
X67922619Y-124661905D01*
X67922619Y-124423810D01*
X68922619Y-125280953D02*
X68922619Y-125852382D01*
X67922619Y-125566667D02*
X68922619Y-125566667D01*
X67922619Y-126947620D02*
X68922619Y-126947620D01*
X68208333Y-127280954D01*
X68922619Y-127614287D01*
X67922619Y-127614287D01*
X68922619Y-128280953D02*
X68922619Y-128471430D01*
X68875000Y-128566668D01*
X68779762Y-128661906D01*
X68589286Y-128709525D01*
X68255952Y-128709525D01*
X68065476Y-128661906D01*
X67970238Y-128566668D01*
X67922619Y-128471430D01*
X67922619Y-128280953D01*
X67970238Y-128185715D01*
X68065476Y-128090477D01*
X68255952Y-128042858D01*
X68589286Y-128042858D01*
X68779762Y-128090477D01*
X68875000Y-128185715D01*
X68922619Y-128280953D01*
X67922619Y-129138096D02*
X68922619Y-129138096D01*
X68922619Y-129376191D01*
X68875000Y-129519049D01*
X68779762Y-129614287D01*
X68684524Y-129661906D01*
X68494048Y-129709525D01*
X68351190Y-129709525D01*
X68160714Y-129661906D01*
X68065476Y-129614287D01*
X67970238Y-129519049D01*
X67922619Y-129376191D01*
X67922619Y-129138096D01*
X68922619Y-130138096D02*
X68113095Y-130138096D01*
X68017857Y-130185715D01*
X67970238Y-130233334D01*
X67922619Y-130328572D01*
X67922619Y-130519049D01*
X67970238Y-130614287D01*
X68017857Y-130661906D01*
X68113095Y-130709525D01*
X68922619Y-130709525D01*
X67922619Y-131661906D02*
X67922619Y-131185715D01*
X68922619Y-131185715D01*
X68446429Y-131995239D02*
X68446429Y-132328573D01*
X67922619Y-132471430D02*
X67922619Y-131995239D01*
X68922619Y-131995239D01*
X68922619Y-132471430D01*
X66272619Y-115709524D02*
X66748810Y-115376190D01*
X66272619Y-115138095D02*
X67272619Y-115138095D01*
X67272619Y-115519048D01*
X67225000Y-115614286D01*
X67177381Y-115661905D01*
X67082143Y-115709524D01*
X66939286Y-115709524D01*
X66844048Y-115661905D01*
X66796429Y-115614286D01*
X66748810Y-115519048D01*
X66748810Y-115138095D01*
X66796429Y-116138095D02*
X66796429Y-116471429D01*
X66272619Y-116614286D02*
X66272619Y-116138095D01*
X67272619Y-116138095D01*
X67272619Y-116614286D01*
X67272619Y-116900000D02*
X66272619Y-117233333D01*
X67272619Y-117566667D01*
X66272619Y-119185715D02*
X66272619Y-118614286D01*
X66272619Y-118900000D02*
X67272619Y-118900000D01*
X67129762Y-118804762D01*
X67034524Y-118709524D01*
X66986905Y-118614286D01*
X66367857Y-119614286D02*
X66320238Y-119661905D01*
X66272619Y-119614286D01*
X66320238Y-119566667D01*
X66367857Y-119614286D01*
X66272619Y-119614286D01*
X67272619Y-120280952D02*
X67272619Y-120376191D01*
X67225000Y-120471429D01*
X67177381Y-120519048D01*
X67082143Y-120566667D01*
X66891667Y-120614286D01*
X66653571Y-120614286D01*
X66463095Y-120566667D01*
X66367857Y-120519048D01*
X66320238Y-120471429D01*
X66272619Y-120376191D01*
X66272619Y-120280952D01*
X66320238Y-120185714D01*
X66367857Y-120138095D01*
X66463095Y-120090476D01*
X66653571Y-120042857D01*
X66891667Y-120042857D01*
X67082143Y-120090476D01*
X67177381Y-120138095D01*
X67225000Y-120185714D01*
X67272619Y-120280952D01*
X64717857Y-115709524D02*
X64670238Y-115661905D01*
X64622619Y-115519048D01*
X64622619Y-115423810D01*
X64670238Y-115280952D01*
X64765476Y-115185714D01*
X64860714Y-115138095D01*
X65051190Y-115090476D01*
X65194048Y-115090476D01*
X65384524Y-115138095D01*
X65479762Y-115185714D01*
X65575000Y-115280952D01*
X65622619Y-115423810D01*
X65622619Y-115519048D01*
X65575000Y-115661905D01*
X65527381Y-115709524D01*
X65622619Y-116328571D02*
X65622619Y-116519048D01*
X65575000Y-116614286D01*
X65479762Y-116709524D01*
X65289286Y-116757143D01*
X64955952Y-116757143D01*
X64765476Y-116709524D01*
X64670238Y-116614286D01*
X64622619Y-116519048D01*
X64622619Y-116328571D01*
X64670238Y-116233333D01*
X64765476Y-116138095D01*
X64955952Y-116090476D01*
X65289286Y-116090476D01*
X65479762Y-116138095D01*
X65575000Y-116233333D01*
X65622619Y-116328571D01*
X64622619Y-117185714D02*
X65622619Y-117185714D01*
X65622619Y-117566667D01*
X65575000Y-117661905D01*
X65527381Y-117709524D01*
X65432143Y-117757143D01*
X65289286Y-117757143D01*
X65194048Y-117709524D01*
X65146429Y-117661905D01*
X65098810Y-117566667D01*
X65098810Y-117185714D01*
X65098810Y-118376190D02*
X64622619Y-118376190D01*
X65622619Y-118042857D02*
X65098810Y-118376190D01*
X65622619Y-118709524D01*
X64622619Y-119614286D02*
X65098810Y-119280952D01*
X64622619Y-119042857D02*
X65622619Y-119042857D01*
X65622619Y-119423810D01*
X65575000Y-119519048D01*
X65527381Y-119566667D01*
X65432143Y-119614286D01*
X65289286Y-119614286D01*
X65194048Y-119566667D01*
X65146429Y-119519048D01*
X65098810Y-119423810D01*
X65098810Y-119042857D01*
X64622619Y-120042857D02*
X65622619Y-120042857D01*
X65575000Y-121042857D02*
X65622619Y-120947619D01*
X65622619Y-120804762D01*
X65575000Y-120661904D01*
X65479762Y-120566666D01*
X65384524Y-120519047D01*
X65194048Y-120471428D01*
X65051190Y-120471428D01*
X64860714Y-120519047D01*
X64765476Y-120566666D01*
X64670238Y-120661904D01*
X64622619Y-120804762D01*
X64622619Y-120900000D01*
X64670238Y-121042857D01*
X64717857Y-121090476D01*
X65051190Y-121090476D01*
X65051190Y-120900000D01*
X64622619Y-121519047D02*
X65622619Y-121519047D01*
X65146429Y-121519047D02*
X65146429Y-122090476D01*
X64622619Y-122090476D02*
X65622619Y-122090476D01*
X65622619Y-122423809D02*
X65622619Y-122995238D01*
X64622619Y-122709523D02*
X65622619Y-122709523D01*
X65527381Y-124042857D02*
X65575000Y-124090476D01*
X65622619Y-124185714D01*
X65622619Y-124423810D01*
X65575000Y-124519048D01*
X65527381Y-124566667D01*
X65432143Y-124614286D01*
X65336905Y-124614286D01*
X65194048Y-124566667D01*
X64622619Y-123995238D01*
X64622619Y-124614286D01*
X65622619Y-125233333D02*
X65622619Y-125328572D01*
X65575000Y-125423810D01*
X65527381Y-125471429D01*
X65432143Y-125519048D01*
X65241667Y-125566667D01*
X65003571Y-125566667D01*
X64813095Y-125519048D01*
X64717857Y-125471429D01*
X64670238Y-125423810D01*
X64622619Y-125328572D01*
X64622619Y-125233333D01*
X64670238Y-125138095D01*
X64717857Y-125090476D01*
X64813095Y-125042857D01*
X65003571Y-124995238D01*
X65241667Y-124995238D01*
X65432143Y-125042857D01*
X65527381Y-125090476D01*
X65575000Y-125138095D01*
X65622619Y-125233333D01*
X64622619Y-126519048D02*
X64622619Y-125947619D01*
X64622619Y-126233333D02*
X65622619Y-126233333D01*
X65479762Y-126138095D01*
X65384524Y-126042857D01*
X65336905Y-125947619D01*
X65194048Y-127090476D02*
X65241667Y-126995238D01*
X65289286Y-126947619D01*
X65384524Y-126900000D01*
X65432143Y-126900000D01*
X65527381Y-126947619D01*
X65575000Y-126995238D01*
X65622619Y-127090476D01*
X65622619Y-127280953D01*
X65575000Y-127376191D01*
X65527381Y-127423810D01*
X65432143Y-127471429D01*
X65384524Y-127471429D01*
X65289286Y-127423810D01*
X65241667Y-127376191D01*
X65194048Y-127280953D01*
X65194048Y-127090476D01*
X65146429Y-126995238D01*
X65098810Y-126947619D01*
X65003571Y-126900000D01*
X64813095Y-126900000D01*
X64717857Y-126947619D01*
X64670238Y-126995238D01*
X64622619Y-127090476D01*
X64622619Y-127280953D01*
X64670238Y-127376191D01*
X64717857Y-127423810D01*
X64813095Y-127471429D01*
X65003571Y-127471429D01*
X65098810Y-127423810D01*
X65146429Y-127376191D01*
X65194048Y-127280953D01*
X63067857Y-115709524D02*
X63020238Y-115661905D01*
X62972619Y-115519048D01*
X62972619Y-115423810D01*
X63020238Y-115280952D01*
X63115476Y-115185714D01*
X63210714Y-115138095D01*
X63401190Y-115090476D01*
X63544048Y-115090476D01*
X63734524Y-115138095D01*
X63829762Y-115185714D01*
X63925000Y-115280952D01*
X63972619Y-115423810D01*
X63972619Y-115519048D01*
X63925000Y-115661905D01*
X63877381Y-115709524D01*
X63496429Y-116138095D02*
X63496429Y-116471429D01*
X62972619Y-116614286D02*
X62972619Y-116138095D01*
X63972619Y-116138095D01*
X63972619Y-116614286D01*
X62972619Y-117519048D02*
X62972619Y-117042857D01*
X63972619Y-117042857D01*
X63496429Y-117852381D02*
X63496429Y-118185715D01*
X62972619Y-118328572D02*
X62972619Y-117852381D01*
X63972619Y-117852381D01*
X63972619Y-118328572D01*
X62972619Y-119328572D02*
X63448810Y-118995238D01*
X62972619Y-118757143D02*
X63972619Y-118757143D01*
X63972619Y-119138096D01*
X63925000Y-119233334D01*
X63877381Y-119280953D01*
X63782143Y-119328572D01*
X63639286Y-119328572D01*
X63544048Y-119280953D01*
X63496429Y-119233334D01*
X63448810Y-119138096D01*
X63448810Y-118757143D01*
X62972619Y-119757143D02*
X63972619Y-119757143D01*
X63972619Y-120090476D02*
X63972619Y-120661905D01*
X62972619Y-120376190D02*
X63972619Y-120376190D01*
X63972619Y-121185714D02*
X63972619Y-121376191D01*
X63925000Y-121471429D01*
X63829762Y-121566667D01*
X63639286Y-121614286D01*
X63305952Y-121614286D01*
X63115476Y-121566667D01*
X63020238Y-121471429D01*
X62972619Y-121376191D01*
X62972619Y-121185714D01*
X63020238Y-121090476D01*
X63115476Y-120995238D01*
X63305952Y-120947619D01*
X63639286Y-120947619D01*
X63829762Y-120995238D01*
X63925000Y-121090476D01*
X63972619Y-121185714D01*
X63972619Y-122042857D02*
X63163095Y-122042857D01*
X63067857Y-122090476D01*
X63020238Y-122138095D01*
X62972619Y-122233333D01*
X62972619Y-122423810D01*
X63020238Y-122519048D01*
X63067857Y-122566667D01*
X63163095Y-122614286D01*
X63972619Y-122614286D01*
X63020238Y-123042857D02*
X62972619Y-123185714D01*
X62972619Y-123423810D01*
X63020238Y-123519048D01*
X63067857Y-123566667D01*
X63163095Y-123614286D01*
X63258333Y-123614286D01*
X63353571Y-123566667D01*
X63401190Y-123519048D01*
X63448810Y-123423810D01*
X63496429Y-123233333D01*
X63544048Y-123138095D01*
X63591667Y-123090476D01*
X63686905Y-123042857D01*
X63782143Y-123042857D01*
X63877381Y-123090476D01*
X63925000Y-123138095D01*
X63972619Y-123233333D01*
X63972619Y-123471429D01*
X63925000Y-123614286D01*
X100530952Y-127102381D02*
X101150000Y-127102381D01*
X100816666Y-127483333D01*
X100959524Y-127483333D01*
X101054762Y-127530952D01*
X101102381Y-127578571D01*
X101150000Y-127673810D01*
X101150000Y-127911905D01*
X101102381Y-128007143D01*
X101054762Y-128054762D01*
X100959524Y-128102381D01*
X100673809Y-128102381D01*
X100578571Y-128054762D01*
X100530952Y-128007143D01*
X103673810Y-128007143D02*
X103626191Y-128054762D01*
X103483334Y-128102381D01*
X103388096Y-128102381D01*
X103245238Y-128054762D01*
X103150000Y-127959524D01*
X103102381Y-127864286D01*
X103054762Y-127673810D01*
X103054762Y-127530952D01*
X103102381Y-127340476D01*
X103150000Y-127245238D01*
X103245238Y-127150000D01*
X103388096Y-127102381D01*
X103483334Y-127102381D01*
X103626191Y-127150000D01*
X103673810Y-127197619D01*
X105626191Y-128102381D02*
X105626191Y-127102381D01*
X105864286Y-127102381D01*
X106007144Y-127150000D01*
X106102382Y-127245238D01*
X106150001Y-127340476D01*
X106197620Y-127530952D01*
X106197620Y-127673810D01*
X106150001Y-127864286D01*
X106102382Y-127959524D01*
X106007144Y-128054762D01*
X105864286Y-128102381D01*
X105626191Y-128102381D01*
X108673811Y-127150000D02*
X108578573Y-127102381D01*
X108435716Y-127102381D01*
X108292858Y-127150000D01*
X108197620Y-127245238D01*
X108150001Y-127340476D01*
X108102382Y-127530952D01*
X108102382Y-127673810D01*
X108150001Y-127864286D01*
X108197620Y-127959524D01*
X108292858Y-128054762D01*
X108435716Y-128102381D01*
X108530954Y-128102381D01*
X108673811Y-128054762D01*
X108721430Y-128007143D01*
X108721430Y-127673810D01*
X108530954Y-127673810D01*
D12*
X61650000Y-113100000D02*
X61650000Y-110100000D01*
X61650000Y-110100000D02*
X63350000Y-110100000D01*
X63350000Y-110100000D02*
X63350000Y-113100000D01*
X63350000Y-113100000D02*
X61650000Y-113100000D01*
X62500000Y-111894400D02*
X62160000Y-111305600D01*
X62160000Y-111305600D02*
X62840000Y-111305600D01*
X62840000Y-111305600D02*
X62500000Y-111894400D01*
X62160000Y-111894400D02*
X62840000Y-111894400D01*
D11*
X97800000Y-138100000D02*
X97800000Y-135100000D01*
X97800000Y-135100000D02*
X99000000Y-135100000D01*
X99000000Y-135100000D02*
X99000000Y-138100000D01*
X99000000Y-138100000D02*
X97800000Y-138100000D01*
X100800000Y-137600000D02*
G75*
G03X100800000Y-137600000I-100000J0D01*
G01*
X102300000Y-139700000D02*
X101600000Y-139700000D01*
X101600000Y-139700000D02*
X101600000Y-138300000D01*
X101600000Y-138300000D02*
X102500000Y-138300000D01*
X107600000Y-139700000D02*
X104100000Y-139700000D01*
X109400000Y-132300000D02*
X111600000Y-132300000D01*
X111600000Y-132300000D02*
X111600000Y-139700000D01*
X111600000Y-139700000D02*
X109400000Y-139700000D01*
X104100000Y-132300000D02*
X107600000Y-132300000D01*
X102500000Y-133600000D02*
X101600000Y-133600000D01*
X101600000Y-133600000D02*
X101600000Y-132300000D01*
X101600000Y-132300000D02*
X102300000Y-132300000D01*
X90510000Y-108330000D02*
X90510000Y-110870000D01*
X90510000Y-110870000D02*
X85430000Y-110870000D01*
X85430000Y-110870000D02*
X85430000Y-108330000D01*
X85430000Y-108330000D02*
X90510000Y-108330000D01*
X109710000Y-124530000D02*
X109710000Y-127070000D01*
X109710000Y-127070000D02*
X104630000Y-127070000D01*
X104630000Y-127070000D02*
X104630000Y-124530000D01*
X104630000Y-124530000D02*
X109710000Y-124530000D01*
X63160000Y-150040000D02*
X61890000Y-150040000D01*
X63160000Y-142420000D02*
X61890000Y-142420000D01*
X63160000Y-142420000D02*
X110150000Y-142420000D01*
X110150000Y-150040000D02*
X63160000Y-150040000D01*
X110150000Y-142420000D02*
X110150000Y-150040000D01*
X66223634Y-151310000D02*
G75*
G03X66223634Y-151310000I-523634J0D01*
G01*
X61890000Y-142420000D02*
X61890000Y-150040000D01*
X63160000Y-107640000D02*
X61890000Y-107640000D01*
X63160000Y-100020000D02*
X61890000Y-100020000D01*
X63160000Y-100020000D02*
X110150000Y-100020000D01*
X110150000Y-107640000D02*
X63160000Y-107640000D01*
X110150000Y-100020000D02*
X110150000Y-107640000D01*
X66223634Y-108910000D02*
G75*
G03X66223634Y-108910000I-523634J0D01*
G01*
X61890000Y-100020000D02*
X61890000Y-107640000D01*
X99630000Y-130770000D02*
X99630000Y-128230000D01*
X99630000Y-128230000D02*
X109790000Y-128230000D01*
X109790000Y-128230000D02*
X109790000Y-130770000D01*
X109790000Y-130770000D02*
X99630000Y-130770000D01*
D12*
X94550000Y-109150000D02*
X94550000Y-111650000D01*
X94550000Y-111650000D02*
X93250000Y-111650000D01*
X93250000Y-111650000D02*
X93250000Y-109150000D01*
X93250000Y-109150000D02*
X94550000Y-109150000D01*
X96450000Y-109150000D02*
X96450000Y-111650000D01*
X96450000Y-111650000D02*
X95150000Y-111650000D01*
X95150000Y-111650000D02*
X95150000Y-109150000D01*
X95150000Y-109150000D02*
X96450000Y-109150000D01*
X84450000Y-140450000D02*
X84450000Y-137950000D01*
X84450000Y-137950000D02*
X85750000Y-137950000D01*
X85750000Y-137950000D02*
X85750000Y-140450000D01*
X85750000Y-140450000D02*
X84450000Y-140450000D01*
X82750000Y-140450000D02*
X82750000Y-137950000D01*
X82750000Y-137950000D02*
X84050000Y-137950000D01*
X84050000Y-137950000D02*
X84050000Y-140450000D01*
X84050000Y-140450000D02*
X82750000Y-140450000D01*
X65350000Y-110150000D02*
X65350000Y-112650000D01*
X65350000Y-112650000D02*
X64050000Y-112650000D01*
X64050000Y-112650000D02*
X64050000Y-110150000D01*
X64050000Y-110150000D02*
X65350000Y-110150000D01*
X92550000Y-109150000D02*
X92550000Y-111650000D01*
X92550000Y-111650000D02*
X91250000Y-111650000D01*
X91250000Y-111650000D02*
X91250000Y-109150000D01*
X91250000Y-109150000D02*
X92550000Y-109150000D01*
X97050000Y-133350000D02*
X99550000Y-133350000D01*
X99550000Y-133350000D02*
X99550000Y-134650000D01*
X99550000Y-134650000D02*
X97050000Y-134650000D01*
X97050000Y-134650000D02*
X97050000Y-133350000D01*
X97150000Y-138750000D02*
X99650000Y-138750000D01*
X99650000Y-138750000D02*
X99650000Y-140050000D01*
X99650000Y-140050000D02*
X97150000Y-140050000D01*
X97150000Y-140050000D02*
X97150000Y-138750000D01*
D11*
X87046447Y-114954058D02*
X87753553Y-114954058D01*
X96945942Y-124146447D02*
X97299495Y-124500000D01*
X97299495Y-124500000D02*
X96945942Y-124853553D01*
X77854058Y-124853553D02*
X77500505Y-124500000D01*
X77500505Y-124500000D02*
X77854058Y-124146447D01*
X87046447Y-134045942D02*
X87400000Y-134399495D01*
X87400000Y-134399495D02*
X87753553Y-134045942D01*
X100500000Y-111600000D02*
X97500000Y-111600000D01*
X97500000Y-111600000D02*
X97500000Y-110400000D01*
X97500000Y-110400000D02*
X100500000Y-110400000D01*
X100500000Y-110400000D02*
X100500000Y-111600000D01*
X100100000Y-108700000D02*
G75*
G03X100100000Y-108700000I-100000J0D01*
G01*
X68984924Y-113536396D02*
X66863604Y-111415076D01*
X66863604Y-111415076D02*
X67712132Y-110566548D01*
X67712132Y-110566548D02*
X69833452Y-112687868D01*
X69833452Y-112687868D02*
X68984924Y-113536396D01*
X70781981Y-111132233D02*
G75*
G03X70781981Y-111132233I-100000J0D01*
G01*
D13*
X106600000Y-123700000D02*
X105200000Y-123700000D01*
D11*
X104500000Y-119700000D02*
X104500000Y-123100000D01*
X104500000Y-123100000D02*
X105000000Y-123100000D01*
X107300000Y-119700000D02*
X107300000Y-123200000D01*
X107300000Y-123200000D02*
X106700000Y-123200000D01*
D12*
X78656497Y-115424264D02*
X80424264Y-113656497D01*
X80424264Y-113656497D02*
X81343503Y-114575736D01*
X81343503Y-114575736D02*
X79575736Y-116343503D01*
X79575736Y-116343503D02*
X78656497Y-115424264D01*
X77456497Y-114224264D02*
X79224264Y-112456497D01*
X79224264Y-112456497D02*
X80143503Y-113375736D01*
X80143503Y-113375736D02*
X78375736Y-115143503D01*
X78375736Y-115143503D02*
X77456497Y-114224264D01*
X77124264Y-121443503D02*
X75356497Y-119675736D01*
X75356497Y-119675736D02*
X76275736Y-118756497D01*
X76275736Y-118756497D02*
X78043503Y-120524264D01*
X78043503Y-120524264D02*
X77124264Y-121443503D01*
X75924264Y-122643503D02*
X74156497Y-120875736D01*
X74156497Y-120875736D02*
X75075736Y-119956497D01*
X75075736Y-119956497D02*
X76843503Y-121724264D01*
X76843503Y-121724264D02*
X75924264Y-122643503D01*
X73875736Y-121156497D02*
X75643503Y-122924264D01*
X75643503Y-122924264D02*
X74724264Y-123843503D01*
X74724264Y-123843503D02*
X72956497Y-122075736D01*
X72956497Y-122075736D02*
X73875736Y-121156497D01*
X101050000Y-115550000D02*
X98550000Y-115550000D01*
X98550000Y-115550000D02*
X98550000Y-114250000D01*
X98550000Y-114250000D02*
X101050000Y-114250000D01*
X101050000Y-114250000D02*
X101050000Y-115550000D01*
X101050000Y-117250000D02*
X98550000Y-117250000D01*
X98550000Y-117250000D02*
X98550000Y-115950000D01*
X98550000Y-115950000D02*
X101050000Y-115950000D01*
X101050000Y-115950000D02*
X101050000Y-117250000D01*
X76050000Y-114450000D02*
X73550000Y-114450000D01*
X73550000Y-114450000D02*
X73550000Y-113150000D01*
X73550000Y-113150000D02*
X76050000Y-113150000D01*
X76050000Y-113150000D02*
X76050000Y-114450000D01*
X76050000Y-112750000D02*
X73550000Y-112750000D01*
X73550000Y-112750000D02*
X73550000Y-111450000D01*
X73550000Y-111450000D02*
X76050000Y-111450000D01*
X76050000Y-111450000D02*
X76050000Y-112750000D01*
D11*
X71232000Y-140240000D02*
X71232000Y-140494000D01*
X71232000Y-140494000D02*
X67168000Y-140494000D01*
X67168000Y-140494000D02*
X67168000Y-140240000D01*
X71232000Y-135160000D02*
X71232000Y-134906000D01*
X71232000Y-134906000D02*
X67168000Y-134906000D01*
X67168000Y-134906000D02*
X67168000Y-135160000D01*
D14*
X65136000Y-135668000D02*
G75*
G03X65136000Y-135668000I-254000J0D01*
G01*
D12*
X71124264Y-111143503D02*
X69356497Y-109375736D01*
X69356497Y-109375736D02*
X70275736Y-108456497D01*
X70275736Y-108456497D02*
X72043503Y-110224264D01*
X72043503Y-110224264D02*
X71124264Y-111143503D01*
D10*
X62916667Y-114516666D02*
X62216667Y-114516666D01*
X62216667Y-114350000D01*
X62250000Y-114250000D01*
X62316667Y-114183333D01*
X62383333Y-114150000D01*
X62516667Y-114116666D01*
X62616667Y-114116666D01*
X62750000Y-114150000D01*
X62816667Y-114183333D01*
X62883333Y-114250000D01*
X62916667Y-114350000D01*
X62916667Y-114516666D01*
X62916667Y-113450000D02*
X62916667Y-113850000D01*
X62916667Y-113650000D02*
X62216667Y-113650000D01*
X62316667Y-113716666D01*
X62383333Y-113783333D01*
X62416667Y-113850000D01*
X61626190Y-113538095D02*
X61626190Y-113461905D01*
X61664286Y-113385714D01*
X61740476Y-113347619D01*
X61816667Y-113347619D01*
X61892857Y-113385714D01*
X61930952Y-113461905D01*
X61930952Y-113538095D01*
X61892857Y-113614286D01*
X61816667Y-113652381D01*
X61740476Y-113652381D01*
X61664286Y-113614286D01*
X61626190Y-113538095D01*
X100046428Y-139139286D02*
X100046428Y-138389286D01*
X100225000Y-138389286D01*
X100332143Y-138425000D01*
X100403571Y-138496429D01*
X100439286Y-138567857D01*
X100475000Y-138710714D01*
X100475000Y-138817857D01*
X100439286Y-138960714D01*
X100403571Y-139032143D01*
X100332143Y-139103571D01*
X100225000Y-139139286D01*
X100046428Y-139139286D01*
X100725000Y-138389286D02*
X101189286Y-138389286D01*
X100939286Y-138675000D01*
X101046428Y-138675000D01*
X101117857Y-138710714D01*
X101153571Y-138746429D01*
X101189286Y-138817857D01*
X101189286Y-138996429D01*
X101153571Y-139067857D01*
X101117857Y-139103571D01*
X101046428Y-139139286D01*
X100832143Y-139139286D01*
X100760714Y-139103571D01*
X100725000Y-139067857D01*
D11*
X107828571Y-110333333D02*
X107828571Y-110666667D01*
X108352381Y-110666667D02*
X107352381Y-110666667D01*
X107352381Y-110190476D01*
X108352381Y-109285714D02*
X108352381Y-109857143D01*
X108352381Y-109571429D02*
X107352381Y-109571429D01*
X107495238Y-109666667D01*
X107590476Y-109761905D01*
X107638095Y-109857143D01*
D10*
X105966667Y-140116667D02*
X105966667Y-140616667D01*
X105933333Y-140716667D01*
X105866667Y-140783333D01*
X105766667Y-140816667D01*
X105700000Y-140816667D01*
X106266666Y-140183333D02*
X106300000Y-140150000D01*
X106366666Y-140116667D01*
X106533333Y-140116667D01*
X106600000Y-140150000D01*
X106633333Y-140183333D01*
X106666666Y-140250000D01*
X106666666Y-140316667D01*
X106633333Y-140416667D01*
X106233333Y-140816667D01*
X106666666Y-140816667D01*
X83683334Y-110016667D02*
X83683334Y-109316667D01*
X83950000Y-109316667D01*
X84016667Y-109350000D01*
X84050000Y-109383333D01*
X84083334Y-109450000D01*
X84083334Y-109550000D01*
X84050000Y-109616667D01*
X84016667Y-109650000D01*
X83950000Y-109683333D01*
X83683334Y-109683333D01*
X84750000Y-110016667D02*
X84350000Y-110016667D01*
X84550000Y-110016667D02*
X84550000Y-109316667D01*
X84483334Y-109416667D01*
X84416667Y-109483333D01*
X84350000Y-109516667D01*
X102983334Y-126216667D02*
X102983334Y-125516667D01*
X103250000Y-125516667D01*
X103316667Y-125550000D01*
X103350000Y-125583333D01*
X103383334Y-125650000D01*
X103383334Y-125750000D01*
X103350000Y-125816667D01*
X103316667Y-125850000D01*
X103250000Y-125883333D01*
X102983334Y-125883333D01*
X103650000Y-125583333D02*
X103683334Y-125550000D01*
X103750000Y-125516667D01*
X103916667Y-125516667D01*
X103983334Y-125550000D01*
X104016667Y-125583333D01*
X104050000Y-125650000D01*
X104050000Y-125716667D01*
X104016667Y-125816667D01*
X103616667Y-126216667D01*
X104050000Y-126216667D01*
X62643334Y-151626667D02*
X62643334Y-150926667D01*
X62910000Y-150926667D01*
X62976667Y-150960000D01*
X63010000Y-150993333D01*
X63043334Y-151060000D01*
X63043334Y-151160000D01*
X63010000Y-151226667D01*
X62976667Y-151260000D01*
X62910000Y-151293333D01*
X62643334Y-151293333D01*
X63276667Y-150926667D02*
X63710000Y-150926667D01*
X63476667Y-151193333D01*
X63576667Y-151193333D01*
X63643334Y-151226667D01*
X63676667Y-151260000D01*
X63710000Y-151326667D01*
X63710000Y-151493333D01*
X63676667Y-151560000D01*
X63643334Y-151593333D01*
X63576667Y-151626667D01*
X63376667Y-151626667D01*
X63310000Y-151593333D01*
X63276667Y-151560000D01*
X63583334Y-108716667D02*
X63583334Y-108016667D01*
X63850000Y-108016667D01*
X63916667Y-108050000D01*
X63950000Y-108083333D01*
X63983334Y-108150000D01*
X63983334Y-108250000D01*
X63950000Y-108316667D01*
X63916667Y-108350000D01*
X63850000Y-108383333D01*
X63583334Y-108383333D01*
X64583334Y-108250000D02*
X64583334Y-108716667D01*
X64416667Y-107983333D02*
X64250000Y-108483333D01*
X64683334Y-108483333D01*
X100383334Y-131816667D02*
X100383334Y-131116667D01*
X100650000Y-131116667D01*
X100716667Y-131150000D01*
X100750000Y-131183333D01*
X100783334Y-131250000D01*
X100783334Y-131350000D01*
X100750000Y-131416667D01*
X100716667Y-131450000D01*
X100650000Y-131483333D01*
X100383334Y-131483333D01*
X101416667Y-131116667D02*
X101083334Y-131116667D01*
X101050000Y-131450000D01*
X101083334Y-131416667D01*
X101150000Y-131383333D01*
X101316667Y-131383333D01*
X101383334Y-131416667D01*
X101416667Y-131450000D01*
X101450000Y-131516667D01*
X101450000Y-131683333D01*
X101416667Y-131750000D01*
X101383334Y-131783333D01*
X101316667Y-131816667D01*
X101150000Y-131816667D01*
X101083334Y-131783333D01*
X101050000Y-131750000D01*
D15*
X93791666Y-108694048D02*
X93575000Y-108384524D01*
X93420238Y-108694048D02*
X93420238Y-108044048D01*
X93667857Y-108044048D01*
X93729762Y-108075000D01*
X93760714Y-108105952D01*
X93791666Y-108167857D01*
X93791666Y-108260714D01*
X93760714Y-108322619D01*
X93729762Y-108353571D01*
X93667857Y-108384524D01*
X93420238Y-108384524D01*
X94410714Y-108694048D02*
X94039286Y-108694048D01*
X94225000Y-108694048D02*
X94225000Y-108044048D01*
X94163095Y-108136905D01*
X94101190Y-108198810D01*
X94039286Y-108229762D01*
X95591666Y-108694048D02*
X95375000Y-108384524D01*
X95220238Y-108694048D02*
X95220238Y-108044048D01*
X95467857Y-108044048D01*
X95529762Y-108075000D01*
X95560714Y-108105952D01*
X95591666Y-108167857D01*
X95591666Y-108260714D01*
X95560714Y-108322619D01*
X95529762Y-108353571D01*
X95467857Y-108384524D01*
X95220238Y-108384524D01*
X95839286Y-108105952D02*
X95870238Y-108075000D01*
X95932143Y-108044048D01*
X96086905Y-108044048D01*
X96148809Y-108075000D01*
X96179762Y-108105952D01*
X96210714Y-108167857D01*
X96210714Y-108229762D01*
X96179762Y-108322619D01*
X95808333Y-108694048D01*
X96210714Y-108694048D01*
X85091666Y-141394048D02*
X84875000Y-141084524D01*
X84720238Y-141394048D02*
X84720238Y-140744048D01*
X84967857Y-140744048D01*
X85029762Y-140775000D01*
X85060714Y-140805952D01*
X85091666Y-140867857D01*
X85091666Y-140960714D01*
X85060714Y-141022619D01*
X85029762Y-141053571D01*
X84967857Y-141084524D01*
X84720238Y-141084524D01*
X85308333Y-140744048D02*
X85710714Y-140744048D01*
X85494047Y-140991667D01*
X85586905Y-140991667D01*
X85648809Y-141022619D01*
X85679762Y-141053571D01*
X85710714Y-141115476D01*
X85710714Y-141270238D01*
X85679762Y-141332143D01*
X85648809Y-141363095D01*
X85586905Y-141394048D01*
X85401190Y-141394048D01*
X85339286Y-141363095D01*
X85308333Y-141332143D01*
X83391666Y-141394048D02*
X83175000Y-141084524D01*
X83020238Y-141394048D02*
X83020238Y-140744048D01*
X83267857Y-140744048D01*
X83329762Y-140775000D01*
X83360714Y-140805952D01*
X83391666Y-140867857D01*
X83391666Y-140960714D01*
X83360714Y-141022619D01*
X83329762Y-141053571D01*
X83267857Y-141084524D01*
X83020238Y-141084524D01*
X83948809Y-140960714D02*
X83948809Y-141394048D01*
X83794047Y-140713095D02*
X83639286Y-141177381D01*
X84041666Y-141177381D01*
X64994048Y-113608334D02*
X64684524Y-113825000D01*
X64994048Y-113979762D02*
X64344048Y-113979762D01*
X64344048Y-113732143D01*
X64375000Y-113670238D01*
X64405952Y-113639286D01*
X64467857Y-113608334D01*
X64560714Y-113608334D01*
X64622619Y-113639286D01*
X64653571Y-113670238D01*
X64684524Y-113732143D01*
X64684524Y-113979762D01*
X64344048Y-113020238D02*
X64344048Y-113329762D01*
X64653571Y-113360714D01*
X64622619Y-113329762D01*
X64591667Y-113267857D01*
X64591667Y-113113095D01*
X64622619Y-113051191D01*
X64653571Y-113020238D01*
X64715476Y-112989286D01*
X64870238Y-112989286D01*
X64932143Y-113020238D01*
X64963095Y-113051191D01*
X64994048Y-113113095D01*
X64994048Y-113267857D01*
X64963095Y-113329762D01*
X64932143Y-113360714D01*
X91791666Y-108794048D02*
X91575000Y-108484524D01*
X91420238Y-108794048D02*
X91420238Y-108144048D01*
X91667857Y-108144048D01*
X91729762Y-108175000D01*
X91760714Y-108205952D01*
X91791666Y-108267857D01*
X91791666Y-108360714D01*
X91760714Y-108422619D01*
X91729762Y-108453571D01*
X91667857Y-108484524D01*
X91420238Y-108484524D01*
X92348809Y-108144048D02*
X92225000Y-108144048D01*
X92163095Y-108175000D01*
X92132143Y-108205952D01*
X92070238Y-108298810D01*
X92039286Y-108422619D01*
X92039286Y-108670238D01*
X92070238Y-108732143D01*
X92101190Y-108763095D01*
X92163095Y-108794048D01*
X92286905Y-108794048D01*
X92348809Y-108763095D01*
X92379762Y-108732143D01*
X92410714Y-108670238D01*
X92410714Y-108515476D01*
X92379762Y-108453571D01*
X92348809Y-108422619D01*
X92286905Y-108391667D01*
X92163095Y-108391667D01*
X92101190Y-108422619D01*
X92070238Y-108453571D01*
X92039286Y-108515476D01*
X95991666Y-134394048D02*
X95775000Y-134084524D01*
X95620238Y-134394048D02*
X95620238Y-133744048D01*
X95867857Y-133744048D01*
X95929762Y-133775000D01*
X95960714Y-133805952D01*
X95991666Y-133867857D01*
X95991666Y-133960714D01*
X95960714Y-134022619D01*
X95929762Y-134053571D01*
X95867857Y-134084524D01*
X95620238Y-134084524D01*
X96208333Y-133744048D02*
X96641666Y-133744048D01*
X96363095Y-134394048D01*
X96091666Y-139694048D02*
X95875000Y-139384524D01*
X95720238Y-139694048D02*
X95720238Y-139044048D01*
X95967857Y-139044048D01*
X96029762Y-139075000D01*
X96060714Y-139105952D01*
X96091666Y-139167857D01*
X96091666Y-139260714D01*
X96060714Y-139322619D01*
X96029762Y-139353571D01*
X95967857Y-139384524D01*
X95720238Y-139384524D01*
X96463095Y-139322619D02*
X96401190Y-139291667D01*
X96370238Y-139260714D01*
X96339286Y-139198810D01*
X96339286Y-139167857D01*
X96370238Y-139105952D01*
X96401190Y-139075000D01*
X96463095Y-139044048D01*
X96586905Y-139044048D01*
X96648809Y-139075000D01*
X96679762Y-139105952D01*
X96710714Y-139167857D01*
X96710714Y-139198810D01*
X96679762Y-139260714D01*
X96648809Y-139291667D01*
X96586905Y-139322619D01*
X96463095Y-139322619D01*
X96401190Y-139353571D01*
X96370238Y-139384524D01*
X96339286Y-139446429D01*
X96339286Y-139570238D01*
X96370238Y-139632143D01*
X96401190Y-139663095D01*
X96463095Y-139694048D01*
X96586905Y-139694048D01*
X96648809Y-139663095D01*
X96679762Y-139632143D01*
X96710714Y-139570238D01*
X96710714Y-139446429D01*
X96679762Y-139384524D01*
X96648809Y-139353571D01*
X96586905Y-139322619D01*
D10*
X84505520Y-113313642D02*
X84934835Y-113742957D01*
X85010596Y-113768210D01*
X85061104Y-113768210D01*
X85136866Y-113742956D01*
X85237881Y-113641941D01*
X85263134Y-113566179D01*
X85263135Y-113515671D01*
X85237881Y-113439910D01*
X84808566Y-113010595D01*
X85869226Y-113010595D02*
X85566180Y-113313642D01*
X85717703Y-113162119D02*
X85187373Y-112631788D01*
X85212627Y-112758058D01*
X85212627Y-112859072D01*
X85187372Y-112934834D01*
X100328571Y-108139286D02*
X100328571Y-108746429D01*
X100364286Y-108817857D01*
X100400000Y-108853571D01*
X100471429Y-108889286D01*
X100614286Y-108889286D01*
X100685714Y-108853571D01*
X100721429Y-108817857D01*
X100757143Y-108746429D01*
X100757143Y-108139286D01*
X101078571Y-108210714D02*
X101114285Y-108175000D01*
X101185714Y-108139286D01*
X101364285Y-108139286D01*
X101435714Y-108175000D01*
X101471428Y-108210714D01*
X101507143Y-108282143D01*
X101507143Y-108353571D01*
X101471428Y-108460714D01*
X101042857Y-108889286D01*
X101507143Y-108889286D01*
X69305520Y-113613643D02*
X69734835Y-114042958D01*
X69810596Y-114068211D01*
X69861104Y-114068211D01*
X69936866Y-114042957D01*
X70037881Y-113941942D01*
X70063134Y-113866180D01*
X70063135Y-113815672D01*
X70037881Y-113739911D01*
X69608566Y-113310596D01*
X69810596Y-113108566D02*
X70138896Y-112780266D01*
X70164150Y-113159073D01*
X70239911Y-113083313D01*
X70315672Y-113058058D01*
X70366180Y-113058059D01*
X70441942Y-113083312D01*
X70568211Y-113209581D01*
X70593464Y-113285343D01*
X70593464Y-113335850D01*
X70568211Y-113411612D01*
X70416688Y-113563135D01*
X70340926Y-113588388D01*
X70290419Y-113588388D01*
X106539286Y-118753572D02*
X105789286Y-118753572D01*
X105789286Y-118575000D01*
X105825000Y-118467857D01*
X105896429Y-118396429D01*
X105967857Y-118360714D01*
X106110714Y-118325000D01*
X106217857Y-118325000D01*
X106360714Y-118360714D01*
X106432143Y-118396429D01*
X106503571Y-118467857D01*
X106539286Y-118575000D01*
X106539286Y-118753572D01*
X105860714Y-118039286D02*
X105825000Y-118003572D01*
X105789286Y-117932143D01*
X105789286Y-117753572D01*
X105825000Y-117682143D01*
X105860714Y-117646429D01*
X105932143Y-117610714D01*
X106003571Y-117610714D01*
X106110714Y-117646429D01*
X106539286Y-118075000D01*
X106539286Y-117610714D01*
D15*
X78068680Y-117159620D02*
X78068680Y-117203393D01*
X78024907Y-117290940D01*
X77981133Y-117334713D01*
X77893587Y-117378486D01*
X77806040Y-117378486D01*
X77740381Y-117356600D01*
X77630947Y-117290939D01*
X77565288Y-117225279D01*
X77499628Y-117115847D01*
X77477741Y-117050187D01*
X77477741Y-116962640D01*
X77521514Y-116875094D01*
X77565288Y-116831320D01*
X77652834Y-116787547D01*
X77696606Y-116787547D01*
X78550186Y-116765661D02*
X78287547Y-117028300D01*
X78418867Y-116896980D02*
X77959247Y-116437361D01*
X77981133Y-116546794D01*
X77981133Y-116634341D01*
X77959247Y-116700000D01*
X78243773Y-116152834D02*
X78528300Y-115868308D01*
X78550186Y-116196608D01*
X78615847Y-116130947D01*
X78681506Y-116109061D01*
X78725279Y-116109060D01*
X78790939Y-116130947D01*
X78900372Y-116240381D01*
X78922259Y-116306040D01*
X78922259Y-116349814D01*
X78900373Y-116415474D01*
X78769053Y-116546794D01*
X78703393Y-116568680D01*
X78659619Y-116568680D01*
X76968680Y-115959620D02*
X76968680Y-116003393D01*
X76924907Y-116090940D01*
X76881133Y-116134713D01*
X76793587Y-116178486D01*
X76706040Y-116178486D01*
X76640381Y-116156600D01*
X76530947Y-116090939D01*
X76465288Y-116025279D01*
X76399628Y-115915847D01*
X76377741Y-115850187D01*
X76377741Y-115762640D01*
X76421514Y-115675094D01*
X76465288Y-115631320D01*
X76552834Y-115587547D01*
X76596606Y-115587547D01*
X77450186Y-115565661D02*
X77187547Y-115828300D01*
X77318867Y-115696980D02*
X76859247Y-115237361D01*
X76881133Y-115346794D01*
X76881133Y-115434341D01*
X76859247Y-115500000D01*
X77537732Y-114865288D02*
X77844146Y-115171701D01*
X77253206Y-114799628D02*
X77472073Y-115237360D01*
X77756599Y-114952834D01*
X74340381Y-118268680D02*
X74296608Y-118268680D01*
X74209061Y-118224907D01*
X74165288Y-118181133D01*
X74121515Y-118093587D01*
X74121515Y-118006040D01*
X74143401Y-117940381D01*
X74209062Y-117830947D01*
X74274722Y-117765288D01*
X74384154Y-117699628D01*
X74449814Y-117677741D01*
X74537361Y-117677741D01*
X74624907Y-117721514D01*
X74668681Y-117765288D01*
X74712454Y-117852834D01*
X74712454Y-117896606D01*
X74734340Y-118750186D02*
X74471701Y-118487547D01*
X74603021Y-118618867D02*
X75062640Y-118159247D01*
X74953207Y-118181133D01*
X74865660Y-118181133D01*
X74800001Y-118159247D01*
X75609807Y-118706413D02*
X75390940Y-118487547D01*
X75150188Y-118684526D01*
X75193961Y-118684526D01*
X75259620Y-118706413D01*
X75369054Y-118815847D01*
X75390940Y-118881506D01*
X75390941Y-118925279D01*
X75369054Y-118990939D01*
X75259620Y-119100372D01*
X75193961Y-119122259D01*
X75150187Y-119122259D01*
X75084527Y-119100373D01*
X74975094Y-118990940D01*
X74953208Y-118925279D01*
X74953208Y-118881506D01*
X73240380Y-119468680D02*
X73196607Y-119468680D01*
X73109060Y-119424907D01*
X73065287Y-119381133D01*
X73021514Y-119293587D01*
X73021514Y-119206040D01*
X73043400Y-119140381D01*
X73109061Y-119030947D01*
X73174721Y-118965288D01*
X73284153Y-118899628D01*
X73349813Y-118877741D01*
X73437360Y-118877741D01*
X73524906Y-118921514D01*
X73568680Y-118965288D01*
X73612453Y-119052834D01*
X73612453Y-119096606D01*
X73634339Y-119950186D02*
X73371700Y-119687547D01*
X73503020Y-119818867D02*
X73962639Y-119359247D01*
X73853206Y-119381133D01*
X73765659Y-119381133D01*
X73700000Y-119359247D01*
X74487918Y-119884526D02*
X74400372Y-119796980D01*
X74334712Y-119775093D01*
X74290940Y-119775093D01*
X74181506Y-119796980D01*
X74072073Y-119862640D01*
X73896980Y-120037733D01*
X73875093Y-120103393D01*
X73875093Y-120147166D01*
X73896979Y-120212826D01*
X73984526Y-120300373D01*
X74050186Y-120322259D01*
X74093960Y-120322259D01*
X74159619Y-120300372D01*
X74269053Y-120190939D01*
X74290940Y-120125279D01*
X74290939Y-120081506D01*
X74269053Y-120015847D01*
X74181506Y-119928300D01*
X74115846Y-119906413D01*
X74072073Y-119906413D01*
X74006413Y-119928300D01*
X72315474Y-121031320D02*
X72096607Y-120812454D01*
X72556227Y-120352834D01*
X72709433Y-121425279D02*
X72446793Y-121162640D01*
X72578113Y-121293960D02*
X73037732Y-120834340D01*
X72928299Y-120856227D01*
X72840752Y-120856227D01*
X72775093Y-120834340D01*
X96882142Y-115232143D02*
X96851190Y-115263095D01*
X96758333Y-115294048D01*
X96696428Y-115294048D01*
X96603571Y-115263095D01*
X96541666Y-115201190D01*
X96510714Y-115139286D01*
X96479762Y-115015476D01*
X96479762Y-114922619D01*
X96510714Y-114798810D01*
X96541666Y-114736905D01*
X96603571Y-114675000D01*
X96696428Y-114644048D01*
X96758333Y-114644048D01*
X96851190Y-114675000D01*
X96882142Y-114705952D01*
X97501190Y-115294048D02*
X97129762Y-115294048D01*
X97315476Y-115294048D02*
X97315476Y-114644048D01*
X97253571Y-114736905D01*
X97191666Y-114798810D01*
X97129762Y-114829762D01*
X97717857Y-114644048D02*
X98151190Y-114644048D01*
X97872619Y-115294048D01*
X96882142Y-116832143D02*
X96851190Y-116863095D01*
X96758333Y-116894048D01*
X96696428Y-116894048D01*
X96603571Y-116863095D01*
X96541666Y-116801190D01*
X96510714Y-116739286D01*
X96479762Y-116615476D01*
X96479762Y-116522619D01*
X96510714Y-116398810D01*
X96541666Y-116336905D01*
X96603571Y-116275000D01*
X96696428Y-116244048D01*
X96758333Y-116244048D01*
X96851190Y-116275000D01*
X96882142Y-116305952D01*
X97501190Y-116894048D02*
X97129762Y-116894048D01*
X97315476Y-116894048D02*
X97315476Y-116244048D01*
X97253571Y-116336905D01*
X97191666Y-116398810D01*
X97129762Y-116429762D01*
X97872619Y-116522619D02*
X97810714Y-116491667D01*
X97779762Y-116460714D01*
X97748810Y-116398810D01*
X97748810Y-116367857D01*
X97779762Y-116305952D01*
X97810714Y-116275000D01*
X97872619Y-116244048D01*
X97996429Y-116244048D01*
X98058333Y-116275000D01*
X98089286Y-116305952D01*
X98120238Y-116367857D01*
X98120238Y-116398810D01*
X98089286Y-116460714D01*
X98058333Y-116491667D01*
X97996429Y-116522619D01*
X97872619Y-116522619D01*
X97810714Y-116553571D01*
X97779762Y-116584524D01*
X97748810Y-116646429D01*
X97748810Y-116770238D01*
X97779762Y-116832143D01*
X97810714Y-116863095D01*
X97872619Y-116894048D01*
X97996429Y-116894048D01*
X98058333Y-116863095D01*
X98089286Y-116832143D01*
X98120238Y-116770238D01*
X98120238Y-116646429D01*
X98089286Y-116584524D01*
X98058333Y-116553571D01*
X97996429Y-116522619D01*
X71782142Y-114032143D02*
X71751190Y-114063095D01*
X71658333Y-114094048D01*
X71596428Y-114094048D01*
X71503571Y-114063095D01*
X71441666Y-114001190D01*
X71410714Y-113939286D01*
X71379762Y-113815476D01*
X71379762Y-113722619D01*
X71410714Y-113598810D01*
X71441666Y-113536905D01*
X71503571Y-113475000D01*
X71596428Y-113444048D01*
X71658333Y-113444048D01*
X71751190Y-113475000D01*
X71782142Y-113505952D01*
X72401190Y-114094048D02*
X72029762Y-114094048D01*
X72215476Y-114094048D02*
X72215476Y-113444048D01*
X72153571Y-113536905D01*
X72091666Y-113598810D01*
X72029762Y-113629762D01*
X72710714Y-114094048D02*
X72834524Y-114094048D01*
X72896429Y-114063095D01*
X72927381Y-114032143D01*
X72989286Y-113939286D01*
X73020238Y-113815476D01*
X73020238Y-113567857D01*
X72989286Y-113505952D01*
X72958333Y-113475000D01*
X72896429Y-113444048D01*
X72772619Y-113444048D01*
X72710714Y-113475000D01*
X72679762Y-113505952D01*
X72648810Y-113567857D01*
X72648810Y-113722619D01*
X72679762Y-113784524D01*
X72710714Y-113815476D01*
X72772619Y-113846429D01*
X72896429Y-113846429D01*
X72958333Y-113815476D01*
X72989286Y-113784524D01*
X73020238Y-113722619D01*
X71982142Y-112382143D02*
X71951190Y-112413095D01*
X71858333Y-112444048D01*
X71796428Y-112444048D01*
X71703571Y-112413095D01*
X71641666Y-112351190D01*
X71610714Y-112289286D01*
X71579762Y-112165476D01*
X71579762Y-112072619D01*
X71610714Y-111948810D01*
X71641666Y-111886905D01*
X71703571Y-111825000D01*
X71796428Y-111794048D01*
X71858333Y-111794048D01*
X71951190Y-111825000D01*
X71982142Y-111855952D01*
X72229762Y-111855952D02*
X72260714Y-111825000D01*
X72322619Y-111794048D01*
X72477381Y-111794048D01*
X72539285Y-111825000D01*
X72570238Y-111855952D01*
X72601190Y-111917857D01*
X72601190Y-111979762D01*
X72570238Y-112072619D01*
X72198809Y-112444048D01*
X72601190Y-112444048D01*
X73003571Y-111794048D02*
X73065476Y-111794048D01*
X73127381Y-111825000D01*
X73158333Y-111855952D01*
X73189286Y-111917857D01*
X73220238Y-112041667D01*
X73220238Y-112196429D01*
X73189286Y-112320238D01*
X73158333Y-112382143D01*
X73127381Y-112413095D01*
X73065476Y-112444048D01*
X73003571Y-112444048D01*
X72941667Y-112413095D01*
X72910714Y-112382143D01*
X72879762Y-112320238D01*
X72848810Y-112196429D01*
X72848810Y-112041667D01*
X72879762Y-111917857D01*
X72910714Y-111855952D01*
X72941667Y-111825000D01*
X73003571Y-111794048D01*
D11*
X68285714Y-133137857D02*
X68285714Y-134109286D01*
X68342857Y-134223571D01*
X68400000Y-134280714D01*
X68514286Y-134337857D01*
X68742857Y-134337857D01*
X68857143Y-134280714D01*
X68914286Y-134223571D01*
X68971429Y-134109286D01*
X68971429Y-133137857D01*
X70057143Y-133537857D02*
X70057143Y-134337857D01*
X69771429Y-133080714D02*
X69485714Y-133937857D01*
X70228572Y-133937857D01*
D15*
X71340380Y-108768679D02*
X71296607Y-108768679D01*
X71209060Y-108724906D01*
X71165287Y-108681132D01*
X71121514Y-108593586D01*
X71121514Y-108506039D01*
X71143400Y-108440380D01*
X71209061Y-108330946D01*
X71274721Y-108265287D01*
X71384153Y-108199627D01*
X71449813Y-108177740D01*
X71537360Y-108177740D01*
X71624906Y-108221513D01*
X71668680Y-108265287D01*
X71712453Y-108352833D01*
X71712453Y-108396605D01*
X71887547Y-108571699D02*
X71931320Y-108571699D01*
X71996979Y-108593586D01*
X72106413Y-108703020D01*
X72128299Y-108768679D01*
X72128300Y-108812452D01*
X72106413Y-108878112D01*
X72062639Y-108921885D01*
X71975093Y-108965659D01*
X71449813Y-108965659D01*
X71734339Y-109250185D01*
X72172073Y-109687918D02*
X71909433Y-109425279D01*
X72040753Y-109556599D02*
X72500372Y-109096979D01*
X72390939Y-109118866D01*
X72303392Y-109118866D01*
X72237733Y-109096979D01*
M02*
