G04 #@! TF.FileFunction,Copper,L3,Inr,Plane*
%FSLAX46Y46*%
G04 Gerber Fmt 4.6, Leading zero omitted, Abs format (unit mm)*
G04 Created by KiCad (PCBNEW 4.0.7) date 02/27/18 15:26:36*
%MOMM*%
%LPD*%
G01*
G04 APERTURE LIST*
%ADD10C,0.100000*%
%ADD11C,1.500000*%
%ADD12C,1.524000*%
%ADD13R,1.524000X1.524000*%
%ADD14C,1.600000*%
%ADD15C,0.812800*%
%ADD16C,0.200000*%
G04 APERTURE END LIST*
D10*
D11*
X103200000Y-139650000D03*
X103200000Y-132350000D03*
X108500000Y-139650000D03*
X108500000Y-132350000D03*
D12*
X89240000Y-109600000D03*
D13*
X86700000Y-109600000D03*
D12*
X108440000Y-125800000D03*
D13*
X105900000Y-125800000D03*
D12*
X65700000Y-144960000D03*
D13*
X65700000Y-147500000D03*
D12*
X68240000Y-144960000D03*
X68240000Y-147500000D03*
X70780000Y-144960000D03*
X70780000Y-147500000D03*
X73320000Y-144960000D03*
X73320000Y-147500000D03*
X75860000Y-144960000D03*
X75860000Y-147500000D03*
X78400000Y-144960000D03*
X78400000Y-147500000D03*
X80940000Y-144960000D03*
X80940000Y-147500000D03*
X83480000Y-144960000D03*
X83480000Y-147500000D03*
X86020000Y-144960000D03*
X86020000Y-147500000D03*
X88560000Y-144960000D03*
X88560000Y-147500000D03*
X91100000Y-144960000D03*
X91100000Y-147500000D03*
X93640000Y-144960000D03*
X93640000Y-147500000D03*
X96180000Y-144960000D03*
X96180000Y-147500000D03*
X98720000Y-144960000D03*
X98720000Y-147500000D03*
X101260000Y-144960000D03*
X101260000Y-147500000D03*
X103800000Y-144960000D03*
X103800000Y-147500000D03*
X106340000Y-144960000D03*
X106340000Y-147500000D03*
X65700000Y-102560000D03*
D13*
X65700000Y-105100000D03*
D12*
X68240000Y-102560000D03*
X68240000Y-105100000D03*
X70780000Y-102560000D03*
X70780000Y-105100000D03*
X73320000Y-102560000D03*
X73320000Y-105100000D03*
X75860000Y-102560000D03*
X75860000Y-105100000D03*
X78400000Y-102560000D03*
X78400000Y-105100000D03*
X80940000Y-102560000D03*
X80940000Y-105100000D03*
X83480000Y-102560000D03*
X83480000Y-105100000D03*
X86020000Y-102560000D03*
X86020000Y-105100000D03*
X88560000Y-102560000D03*
X88560000Y-105100000D03*
X91100000Y-102560000D03*
X91100000Y-105100000D03*
X93640000Y-102560000D03*
X93640000Y-105100000D03*
X96180000Y-102560000D03*
X96180000Y-105100000D03*
X98720000Y-102560000D03*
X98720000Y-105100000D03*
X101260000Y-102560000D03*
X101260000Y-105100000D03*
X103800000Y-102560000D03*
X103800000Y-105100000D03*
X106340000Y-102560000D03*
X106340000Y-105100000D03*
D14*
X100900000Y-129500000D03*
X103440000Y-129500000D03*
X105980000Y-129500000D03*
X108520000Y-129500000D03*
D15*
X83775300Y-119412200D03*
X74050000Y-110900000D03*
X109900000Y-109700000D03*
X109800000Y-121000000D03*
X103800000Y-120700000D03*
X67841100Y-135757600D03*
X100704900Y-136687800D03*
X69569300Y-108618900D03*
X90615300Y-112500000D03*
X97542800Y-126864600D03*
X74390600Y-120081500D03*
X81263400Y-115202800D03*
X76713400Y-133596700D03*
X103961600Y-112789400D03*
X90940700Y-124637100D03*
X98058200Y-115685400D03*
X98937100Y-110892000D03*
X87915100Y-116299400D03*
X83062100Y-125227400D03*
X76999500Y-126621600D03*
X86421400Y-131860300D03*
X66734300Y-113692600D03*
X78893100Y-120492900D03*
X82300000Y-115400000D03*
X83093600Y-120282900D03*
X82317700Y-116486600D03*
X85504000Y-135116500D03*
X83400000Y-137562300D03*
X96003900Y-112039800D03*
X68831700Y-114239100D03*
X67841100Y-137082100D03*
X89945500Y-129675400D03*
X97550000Y-132962300D03*
X98291800Y-136269100D03*
X87953900Y-114447300D03*
X89744900Y-111041700D03*
X93719400Y-112247900D03*
X99950000Y-111097700D03*
X92329400Y-113099100D03*
X95319900Y-124187700D03*
X96754700Y-139031600D03*
X85100000Y-137557200D03*
X81634200Y-117770500D03*
X73268300Y-121215600D03*
X79507600Y-125312700D03*
X65972500Y-111594500D03*
X92376900Y-128064200D03*
X94470500Y-129931600D03*
X96993400Y-120563600D03*
X99451300Y-118043300D03*
X103163900Y-117100000D03*
X100800000Y-121550000D03*
X66692400Y-128246100D03*
X85689200Y-125565800D03*
X86121700Y-129881700D03*
X85930900Y-128034700D03*
X84400000Y-141850000D03*
X71200000Y-113600000D03*
X77886700Y-124500000D03*
X78200000Y-110400000D03*
X85450000Y-111050000D03*
X95827200Y-108317400D03*
X93327900Y-114037100D03*
X99448500Y-108317400D03*
X94150000Y-106850000D03*
X88947300Y-117998700D03*
X100300000Y-107400000D03*
X73400000Y-110100000D03*
X71400000Y-111900000D03*
X70200000Y-138350000D03*
X101850000Y-114900000D03*
X70000000Y-127250000D03*
X75550000Y-117800000D03*
D16*
G36*
X110325000Y-108786761D02*
X110101064Y-108693775D01*
X109700693Y-108693425D01*
X109330665Y-108846318D01*
X109047313Y-109129176D01*
X108893775Y-109498936D01*
X108893425Y-109899307D01*
X109046318Y-110269335D01*
X109329176Y-110552687D01*
X109698936Y-110706225D01*
X110099307Y-110706575D01*
X110325000Y-110613320D01*
X110325000Y-120128285D01*
X110001064Y-119993775D01*
X109600693Y-119993425D01*
X109230665Y-120146318D01*
X108947313Y-120429176D01*
X108793775Y-120798936D01*
X108793425Y-121199307D01*
X108946318Y-121569335D01*
X109229176Y-121852687D01*
X109598936Y-122006225D01*
X109999307Y-122006575D01*
X110325000Y-121872001D01*
X110325000Y-149325000D01*
X61675000Y-149325000D01*
X61675000Y-146738000D01*
X64326246Y-146738000D01*
X64326246Y-148262000D01*
X64368083Y-148484346D01*
X64499490Y-148688558D01*
X64699993Y-148825556D01*
X64938000Y-148873754D01*
X66462000Y-148873754D01*
X66684346Y-148831917D01*
X66888558Y-148700510D01*
X67025556Y-148500007D01*
X67073754Y-148262000D01*
X67073754Y-148244062D01*
X67084679Y-148270503D01*
X67467482Y-148653974D01*
X67967893Y-148861763D01*
X68509730Y-148862236D01*
X69010503Y-148655321D01*
X69393974Y-148272518D01*
X69510029Y-147993028D01*
X69624679Y-148270503D01*
X70007482Y-148653974D01*
X70507893Y-148861763D01*
X71049730Y-148862236D01*
X71550503Y-148655321D01*
X71933974Y-148272518D01*
X72050029Y-147993028D01*
X72164679Y-148270503D01*
X72547482Y-148653974D01*
X73047893Y-148861763D01*
X73589730Y-148862236D01*
X74090503Y-148655321D01*
X74473974Y-148272518D01*
X74590029Y-147993028D01*
X74704679Y-148270503D01*
X75087482Y-148653974D01*
X75587893Y-148861763D01*
X76129730Y-148862236D01*
X76630503Y-148655321D01*
X77013974Y-148272518D01*
X77130029Y-147993028D01*
X77244679Y-148270503D01*
X77627482Y-148653974D01*
X78127893Y-148861763D01*
X78669730Y-148862236D01*
X79170503Y-148655321D01*
X79553974Y-148272518D01*
X79670029Y-147993028D01*
X79784679Y-148270503D01*
X80167482Y-148653974D01*
X80667893Y-148861763D01*
X81209730Y-148862236D01*
X81710503Y-148655321D01*
X82093974Y-148272518D01*
X82210029Y-147993028D01*
X82324679Y-148270503D01*
X82707482Y-148653974D01*
X83207893Y-148861763D01*
X83749730Y-148862236D01*
X84250503Y-148655321D01*
X84633974Y-148272518D01*
X84750029Y-147993028D01*
X84864679Y-148270503D01*
X85247482Y-148653974D01*
X85747893Y-148861763D01*
X86289730Y-148862236D01*
X86790503Y-148655321D01*
X87173974Y-148272518D01*
X87290029Y-147993028D01*
X87404679Y-148270503D01*
X87787482Y-148653974D01*
X88287893Y-148861763D01*
X88829730Y-148862236D01*
X89330503Y-148655321D01*
X89713974Y-148272518D01*
X89830029Y-147993028D01*
X89944679Y-148270503D01*
X90327482Y-148653974D01*
X90827893Y-148861763D01*
X91369730Y-148862236D01*
X91870503Y-148655321D01*
X92253974Y-148272518D01*
X92370029Y-147993028D01*
X92484679Y-148270503D01*
X92867482Y-148653974D01*
X93367893Y-148861763D01*
X93909730Y-148862236D01*
X94410503Y-148655321D01*
X94793974Y-148272518D01*
X94910029Y-147993028D01*
X95024679Y-148270503D01*
X95407482Y-148653974D01*
X95907893Y-148861763D01*
X96449730Y-148862236D01*
X96950503Y-148655321D01*
X97333974Y-148272518D01*
X97450029Y-147993028D01*
X97564679Y-148270503D01*
X97947482Y-148653974D01*
X98447893Y-148861763D01*
X98989730Y-148862236D01*
X99490503Y-148655321D01*
X99873974Y-148272518D01*
X99990029Y-147993028D01*
X100104679Y-148270503D01*
X100487482Y-148653974D01*
X100987893Y-148861763D01*
X101529730Y-148862236D01*
X102030503Y-148655321D01*
X102413974Y-148272518D01*
X102530029Y-147993028D01*
X102644679Y-148270503D01*
X103027482Y-148653974D01*
X103527893Y-148861763D01*
X104069730Y-148862236D01*
X104570503Y-148655321D01*
X104953974Y-148272518D01*
X105070029Y-147993028D01*
X105184679Y-148270503D01*
X105567482Y-148653974D01*
X106067893Y-148861763D01*
X106609730Y-148862236D01*
X107110503Y-148655321D01*
X107493974Y-148272518D01*
X107701763Y-147772107D01*
X107702236Y-147230270D01*
X107495321Y-146729497D01*
X107112518Y-146346026D01*
X106833028Y-146229971D01*
X107110503Y-146115321D01*
X107493974Y-145732518D01*
X107701763Y-145232107D01*
X107702236Y-144690270D01*
X107495321Y-144189497D01*
X107112518Y-143806026D01*
X106612107Y-143598237D01*
X106070270Y-143597764D01*
X105569497Y-143804679D01*
X105186026Y-144187482D01*
X105069971Y-144466972D01*
X104955321Y-144189497D01*
X104572518Y-143806026D01*
X104072107Y-143598237D01*
X103530270Y-143597764D01*
X103029497Y-143804679D01*
X102646026Y-144187482D01*
X102529971Y-144466972D01*
X102415321Y-144189497D01*
X102032518Y-143806026D01*
X101532107Y-143598237D01*
X100990270Y-143597764D01*
X100489497Y-143804679D01*
X100106026Y-144187482D01*
X99989971Y-144466972D01*
X99875321Y-144189497D01*
X99492518Y-143806026D01*
X98992107Y-143598237D01*
X98450270Y-143597764D01*
X97949497Y-143804679D01*
X97566026Y-144187482D01*
X97449971Y-144466972D01*
X97335321Y-144189497D01*
X96952518Y-143806026D01*
X96452107Y-143598237D01*
X95910270Y-143597764D01*
X95409497Y-143804679D01*
X95026026Y-144187482D01*
X94909971Y-144466972D01*
X94795321Y-144189497D01*
X94412518Y-143806026D01*
X93912107Y-143598237D01*
X93370270Y-143597764D01*
X92869497Y-143804679D01*
X92486026Y-144187482D01*
X92369971Y-144466972D01*
X92255321Y-144189497D01*
X91872518Y-143806026D01*
X91372107Y-143598237D01*
X90830270Y-143597764D01*
X90329497Y-143804679D01*
X89946026Y-144187482D01*
X89829971Y-144466972D01*
X89715321Y-144189497D01*
X89332518Y-143806026D01*
X88832107Y-143598237D01*
X88290270Y-143597764D01*
X87789497Y-143804679D01*
X87406026Y-144187482D01*
X87289971Y-144466972D01*
X87175321Y-144189497D01*
X86792518Y-143806026D01*
X86292107Y-143598237D01*
X85750270Y-143597764D01*
X85249497Y-143804679D01*
X84866026Y-144187482D01*
X84749971Y-144466972D01*
X84635321Y-144189497D01*
X84252518Y-143806026D01*
X83752107Y-143598237D01*
X83210270Y-143597764D01*
X82709497Y-143804679D01*
X82326026Y-144187482D01*
X82209971Y-144466972D01*
X82095321Y-144189497D01*
X81712518Y-143806026D01*
X81212107Y-143598237D01*
X80670270Y-143597764D01*
X80169497Y-143804679D01*
X79786026Y-144187482D01*
X79669971Y-144466972D01*
X79555321Y-144189497D01*
X79172518Y-143806026D01*
X78672107Y-143598237D01*
X78130270Y-143597764D01*
X77629497Y-143804679D01*
X77246026Y-144187482D01*
X77129971Y-144466972D01*
X77015321Y-144189497D01*
X76632518Y-143806026D01*
X76132107Y-143598237D01*
X75590270Y-143597764D01*
X75089497Y-143804679D01*
X74706026Y-144187482D01*
X74589971Y-144466972D01*
X74475321Y-144189497D01*
X74092518Y-143806026D01*
X73592107Y-143598237D01*
X73050270Y-143597764D01*
X72549497Y-143804679D01*
X72166026Y-144187482D01*
X72049971Y-144466972D01*
X71935321Y-144189497D01*
X71552518Y-143806026D01*
X71052107Y-143598237D01*
X70510270Y-143597764D01*
X70009497Y-143804679D01*
X69626026Y-144187482D01*
X69509971Y-144466972D01*
X69395321Y-144189497D01*
X69012518Y-143806026D01*
X68512107Y-143598237D01*
X67970270Y-143597764D01*
X67469497Y-143804679D01*
X67086026Y-144187482D01*
X66969971Y-144466972D01*
X66855321Y-144189497D01*
X66472518Y-143806026D01*
X65972107Y-143598237D01*
X65430270Y-143597764D01*
X64929497Y-143804679D01*
X64546026Y-144187482D01*
X64338237Y-144687893D01*
X64337764Y-145229730D01*
X64544679Y-145730503D01*
X64927482Y-146113974D01*
X64957036Y-146126246D01*
X64938000Y-146126246D01*
X64715654Y-146168083D01*
X64511442Y-146299490D01*
X64374444Y-146499993D01*
X64326246Y-146738000D01*
X61675000Y-146738000D01*
X61675000Y-142049307D01*
X83393425Y-142049307D01*
X83546318Y-142419335D01*
X83829176Y-142702687D01*
X84198936Y-142856225D01*
X84599307Y-142856575D01*
X84969335Y-142703682D01*
X85252687Y-142420824D01*
X85406225Y-142051064D01*
X85406575Y-141650693D01*
X85253682Y-141280665D01*
X84970824Y-140997313D01*
X84601064Y-140843775D01*
X84200693Y-140843425D01*
X83830665Y-140996318D01*
X83547313Y-141279176D01*
X83393775Y-141648936D01*
X83393425Y-142049307D01*
X61675000Y-142049307D01*
X61675000Y-139917353D01*
X101849766Y-139917353D01*
X102054858Y-140413715D01*
X102434288Y-140793807D01*
X102930290Y-140999765D01*
X103467353Y-141000234D01*
X103963715Y-140795142D01*
X104343807Y-140415712D01*
X104549765Y-139919710D01*
X104549767Y-139917353D01*
X107149766Y-139917353D01*
X107354858Y-140413715D01*
X107734288Y-140793807D01*
X108230290Y-140999765D01*
X108767353Y-141000234D01*
X109263715Y-140795142D01*
X109643807Y-140415712D01*
X109849765Y-139919710D01*
X109850234Y-139382647D01*
X109645142Y-138886285D01*
X109265712Y-138506193D01*
X108769710Y-138300235D01*
X108232647Y-138299766D01*
X107736285Y-138504858D01*
X107356193Y-138884288D01*
X107150235Y-139380290D01*
X107149766Y-139917353D01*
X104549767Y-139917353D01*
X104550234Y-139382647D01*
X104345142Y-138886285D01*
X103965712Y-138506193D01*
X103469710Y-138300235D01*
X102932647Y-138299766D01*
X102436285Y-138504858D01*
X102056193Y-138884288D01*
X101850235Y-139380290D01*
X101849766Y-139917353D01*
X61675000Y-139917353D01*
X61675000Y-138549307D01*
X69193425Y-138549307D01*
X69346318Y-138919335D01*
X69629176Y-139202687D01*
X69998936Y-139356225D01*
X70399307Y-139356575D01*
X70769335Y-139203682D01*
X71052687Y-138920824D01*
X71206225Y-138551064D01*
X71206575Y-138150693D01*
X71126932Y-137957942D01*
X104149818Y-137957942D01*
X104309334Y-138344000D01*
X104604446Y-138639628D01*
X104990226Y-138799818D01*
X105407942Y-138800182D01*
X105794000Y-138640666D01*
X106089628Y-138345554D01*
X106249818Y-137959774D01*
X106250182Y-137542058D01*
X106090666Y-137156000D01*
X105795554Y-136860372D01*
X105409774Y-136700182D01*
X104992058Y-136699818D01*
X104606000Y-136859334D01*
X104310372Y-137154446D01*
X104150182Y-137540226D01*
X104149818Y-137957942D01*
X71126932Y-137957942D01*
X71053682Y-137780665D01*
X70770824Y-137497313D01*
X70401064Y-137343775D01*
X70000693Y-137343425D01*
X69630665Y-137496318D01*
X69347313Y-137779176D01*
X69193775Y-138148936D01*
X69193425Y-138549307D01*
X61675000Y-138549307D01*
X61675000Y-136887107D01*
X99698325Y-136887107D01*
X99851218Y-137257135D01*
X100134076Y-137540487D01*
X100503836Y-137694025D01*
X100904207Y-137694375D01*
X101274235Y-137541482D01*
X101557587Y-137258624D01*
X101711125Y-136888864D01*
X101711475Y-136488493D01*
X101558582Y-136118465D01*
X101275724Y-135835113D01*
X100905964Y-135681575D01*
X100505593Y-135681225D01*
X100135565Y-135834118D01*
X99852213Y-136116976D01*
X99698675Y-136486736D01*
X99698325Y-136887107D01*
X61675000Y-136887107D01*
X61675000Y-135956907D01*
X66834525Y-135956907D01*
X66987418Y-136326935D01*
X67270276Y-136610287D01*
X67640036Y-136763825D01*
X68040407Y-136764175D01*
X68410435Y-136611282D01*
X68693787Y-136328424D01*
X68847325Y-135958664D01*
X68847675Y-135558293D01*
X68694782Y-135188265D01*
X68411924Y-134904913D01*
X68042164Y-134751375D01*
X67641793Y-134751025D01*
X67271765Y-134903918D01*
X66988413Y-135186776D01*
X66834875Y-135556536D01*
X66834525Y-135956907D01*
X61675000Y-135956907D01*
X61675000Y-133796007D01*
X75706825Y-133796007D01*
X75859718Y-134166035D01*
X76142576Y-134449387D01*
X76512336Y-134602925D01*
X76912707Y-134603275D01*
X77264438Y-134457942D01*
X104149818Y-134457942D01*
X104309334Y-134844000D01*
X104604446Y-135139628D01*
X104990226Y-135299818D01*
X105407942Y-135300182D01*
X105794000Y-135140666D01*
X106089628Y-134845554D01*
X106249818Y-134459774D01*
X106250182Y-134042058D01*
X106090666Y-133656000D01*
X105795554Y-133360372D01*
X105409774Y-133200182D01*
X104992058Y-133199818D01*
X104606000Y-133359334D01*
X104310372Y-133654446D01*
X104150182Y-134040226D01*
X104149818Y-134457942D01*
X77264438Y-134457942D01*
X77282735Y-134450382D01*
X77566087Y-134167524D01*
X77719625Y-133797764D01*
X77719975Y-133397393D01*
X77567082Y-133027365D01*
X77284224Y-132744013D01*
X76914464Y-132590475D01*
X76514093Y-132590125D01*
X76144065Y-132743018D01*
X75860713Y-133025876D01*
X75707175Y-133395636D01*
X75706825Y-133796007D01*
X61675000Y-133796007D01*
X61675000Y-128445407D01*
X65685825Y-128445407D01*
X65838718Y-128815435D01*
X66121576Y-129098787D01*
X66491336Y-129252325D01*
X66891707Y-129252675D01*
X67261735Y-129099782D01*
X67545087Y-128816924D01*
X67698625Y-128447164D01*
X67698975Y-128046793D01*
X67546082Y-127676765D01*
X67319021Y-127449307D01*
X68993425Y-127449307D01*
X69146318Y-127819335D01*
X69429176Y-128102687D01*
X69798936Y-128256225D01*
X70199307Y-128256575D01*
X70253925Y-128234007D01*
X84924325Y-128234007D01*
X85077218Y-128604035D01*
X85360076Y-128887387D01*
X85625739Y-128997700D01*
X85552365Y-129028018D01*
X85269013Y-129310876D01*
X85115475Y-129680636D01*
X85115125Y-130081007D01*
X85268018Y-130451035D01*
X85550876Y-130734387D01*
X85920636Y-130887925D01*
X86138861Y-130888116D01*
X85852065Y-131006618D01*
X85568713Y-131289476D01*
X85415175Y-131659236D01*
X85414825Y-132059607D01*
X85567718Y-132429635D01*
X85850576Y-132712987D01*
X86220336Y-132866525D01*
X86620707Y-132866875D01*
X86990735Y-132713982D01*
X87087532Y-132617353D01*
X101849766Y-132617353D01*
X102054858Y-133113715D01*
X102434288Y-133493807D01*
X102930290Y-133699765D01*
X103467353Y-133700234D01*
X103963715Y-133495142D01*
X104343807Y-133115712D01*
X104549765Y-132619710D01*
X104549767Y-132617353D01*
X107149766Y-132617353D01*
X107354858Y-133113715D01*
X107734288Y-133493807D01*
X108230290Y-133699765D01*
X108767353Y-133700234D01*
X109263715Y-133495142D01*
X109643807Y-133115712D01*
X109849765Y-132619710D01*
X109850234Y-132082647D01*
X109645142Y-131586285D01*
X109265712Y-131206193D01*
X108769710Y-131000235D01*
X108232647Y-130999766D01*
X107736285Y-131204858D01*
X107356193Y-131584288D01*
X107150235Y-132080290D01*
X107149766Y-132617353D01*
X104549767Y-132617353D01*
X104550234Y-132082647D01*
X104345142Y-131586285D01*
X103965712Y-131206193D01*
X103469710Y-131000235D01*
X102932647Y-130999766D01*
X102436285Y-131204858D01*
X102056193Y-131584288D01*
X101850235Y-132080290D01*
X101849766Y-132617353D01*
X87087532Y-132617353D01*
X87274087Y-132431124D01*
X87427625Y-132061364D01*
X87427975Y-131660993D01*
X87275082Y-131290965D01*
X86992224Y-131007613D01*
X86622464Y-130854075D01*
X86404239Y-130853884D01*
X86691035Y-130735382D01*
X86974387Y-130452524D01*
X87107934Y-130130907D01*
X93463925Y-130130907D01*
X93616818Y-130500935D01*
X93899676Y-130784287D01*
X94269436Y-130937825D01*
X94669807Y-130938175D01*
X95039835Y-130785282D01*
X95315628Y-130509969D01*
X100107820Y-130509969D01*
X100185643Y-130745229D01*
X100716548Y-130923815D01*
X101275382Y-130885637D01*
X101614357Y-130745229D01*
X101692180Y-130509969D01*
X100900000Y-129717789D01*
X100107820Y-130509969D01*
X95315628Y-130509969D01*
X95323187Y-130502424D01*
X95476725Y-130132664D01*
X95477075Y-129732293D01*
X95324182Y-129362265D01*
X95278545Y-129316548D01*
X99476185Y-129316548D01*
X99514363Y-129875382D01*
X99654771Y-130214357D01*
X99890031Y-130292180D01*
X100682211Y-129500000D01*
X101117789Y-129500000D01*
X101909969Y-130292180D01*
X102145229Y-130214357D01*
X102178947Y-130114120D01*
X102252445Y-130292000D01*
X102645928Y-130686170D01*
X103160301Y-130899757D01*
X103717256Y-130900243D01*
X104232000Y-130687555D01*
X104626170Y-130294072D01*
X104709942Y-130092327D01*
X104792445Y-130292000D01*
X105185928Y-130686170D01*
X105700301Y-130899757D01*
X106257256Y-130900243D01*
X106772000Y-130687555D01*
X107166170Y-130294072D01*
X107249942Y-130092327D01*
X107332445Y-130292000D01*
X107725928Y-130686170D01*
X108240301Y-130899757D01*
X108797256Y-130900243D01*
X109312000Y-130687555D01*
X109706170Y-130294072D01*
X109919757Y-129779699D01*
X109920243Y-129222744D01*
X109707555Y-128708000D01*
X109314072Y-128313830D01*
X108799699Y-128100243D01*
X108242744Y-128099757D01*
X107728000Y-128312445D01*
X107333830Y-128705928D01*
X107250058Y-128907673D01*
X107167555Y-128708000D01*
X106774072Y-128313830D01*
X106259699Y-128100243D01*
X105702744Y-128099757D01*
X105188000Y-128312445D01*
X104793830Y-128705928D01*
X104710058Y-128907673D01*
X104627555Y-128708000D01*
X104234072Y-128313830D01*
X103719699Y-128100243D01*
X103162744Y-128099757D01*
X102648000Y-128312445D01*
X102253830Y-128705928D01*
X102182933Y-128876667D01*
X102145229Y-128785643D01*
X101909969Y-128707820D01*
X101117789Y-129500000D01*
X100682211Y-129500000D01*
X99890031Y-128707820D01*
X99654771Y-128785643D01*
X99476185Y-129316548D01*
X95278545Y-129316548D01*
X95041324Y-129078913D01*
X94671564Y-128925375D01*
X94271193Y-128925025D01*
X93901165Y-129077918D01*
X93617813Y-129360776D01*
X93464275Y-129730536D01*
X93463925Y-130130907D01*
X87107934Y-130130907D01*
X87127925Y-130082764D01*
X87128275Y-129682393D01*
X86975382Y-129312365D01*
X86692524Y-129029013D01*
X86426861Y-128918700D01*
X86500235Y-128888382D01*
X86783587Y-128605524D01*
X86925605Y-128263507D01*
X91370325Y-128263507D01*
X91523218Y-128633535D01*
X91806076Y-128916887D01*
X92175836Y-129070425D01*
X92576207Y-129070775D01*
X92946235Y-128917882D01*
X93229587Y-128635024D01*
X93289793Y-128490031D01*
X100107820Y-128490031D01*
X100900000Y-129282211D01*
X101692180Y-128490031D01*
X101614357Y-128254771D01*
X101083452Y-128076185D01*
X100524618Y-128114363D01*
X100185643Y-128254771D01*
X100107820Y-128490031D01*
X93289793Y-128490031D01*
X93383125Y-128265264D01*
X93383475Y-127864893D01*
X93230582Y-127494865D01*
X92947724Y-127211513D01*
X92592250Y-127063907D01*
X96536225Y-127063907D01*
X96689118Y-127433935D01*
X96971976Y-127717287D01*
X97341736Y-127870825D01*
X97742107Y-127871175D01*
X98112135Y-127718282D01*
X98395487Y-127435424D01*
X98549025Y-127065664D01*
X98549375Y-126665293D01*
X98396482Y-126295265D01*
X98207547Y-126106000D01*
X104530000Y-126106000D01*
X104530000Y-126682939D01*
X104622563Y-126906405D01*
X104793596Y-127077438D01*
X105017062Y-127170000D01*
X105594000Y-127170000D01*
X105746000Y-127018000D01*
X105746000Y-125954000D01*
X104682000Y-125954000D01*
X104530000Y-126106000D01*
X98207547Y-126106000D01*
X98113624Y-126011913D01*
X97743864Y-125858375D01*
X97343493Y-125858025D01*
X96973465Y-126010918D01*
X96690113Y-126293776D01*
X96536575Y-126663536D01*
X96536225Y-127063907D01*
X92592250Y-127063907D01*
X92577964Y-127057975D01*
X92177593Y-127057625D01*
X91807565Y-127210518D01*
X91524213Y-127493376D01*
X91370675Y-127863136D01*
X91370325Y-128263507D01*
X86925605Y-128263507D01*
X86937125Y-128235764D01*
X86937475Y-127835393D01*
X86784582Y-127465365D01*
X86501724Y-127182013D01*
X86131964Y-127028475D01*
X85731593Y-127028125D01*
X85361565Y-127181018D01*
X85078213Y-127463876D01*
X84924675Y-127833636D01*
X84924325Y-128234007D01*
X70253925Y-128234007D01*
X70569335Y-128103682D01*
X70852687Y-127820824D01*
X71006225Y-127451064D01*
X71006575Y-127050693D01*
X70911630Y-126820907D01*
X75992925Y-126820907D01*
X76145818Y-127190935D01*
X76428676Y-127474287D01*
X76798436Y-127627825D01*
X77198807Y-127628175D01*
X77568835Y-127475282D01*
X77852187Y-127192424D01*
X78005725Y-126822664D01*
X78006075Y-126422293D01*
X77853182Y-126052265D01*
X77570324Y-125768913D01*
X77200564Y-125615375D01*
X76800193Y-125615025D01*
X76430165Y-125767918D01*
X76146813Y-126050776D01*
X75993275Y-126420536D01*
X75992925Y-126820907D01*
X70911630Y-126820907D01*
X70853682Y-126680665D01*
X70570824Y-126397313D01*
X70201064Y-126243775D01*
X69800693Y-126243425D01*
X69430665Y-126396318D01*
X69147313Y-126679176D01*
X68993775Y-127048936D01*
X68993425Y-127449307D01*
X67319021Y-127449307D01*
X67263224Y-127393413D01*
X66893464Y-127239875D01*
X66493093Y-127239525D01*
X66123065Y-127392418D01*
X65839713Y-127675276D01*
X65686175Y-128045036D01*
X65685825Y-128445407D01*
X61675000Y-128445407D01*
X61675000Y-124699307D01*
X76880125Y-124699307D01*
X77033018Y-125069335D01*
X77315876Y-125352687D01*
X77685636Y-125506225D01*
X78086007Y-125506575D01*
X78279301Y-125426707D01*
X82055525Y-125426707D01*
X82208418Y-125796735D01*
X82491276Y-126080087D01*
X82861036Y-126233625D01*
X83261407Y-126233975D01*
X83631435Y-126081082D01*
X83914787Y-125798224D01*
X83928538Y-125765107D01*
X84682625Y-125765107D01*
X84835518Y-126135135D01*
X85118376Y-126418487D01*
X85488136Y-126572025D01*
X85888507Y-126572375D01*
X86258535Y-126419482D01*
X86541887Y-126136624D01*
X86695425Y-125766864D01*
X86695775Y-125366493D01*
X86542882Y-124996465D01*
X86383104Y-124836407D01*
X89934125Y-124836407D01*
X90087018Y-125206435D01*
X90369876Y-125489787D01*
X90739636Y-125643325D01*
X91140007Y-125643675D01*
X91510035Y-125490782D01*
X91793387Y-125207924D01*
X91914164Y-124917061D01*
X104530000Y-124917061D01*
X104530000Y-125494000D01*
X104682000Y-125646000D01*
X105746000Y-125646000D01*
X105746000Y-124582000D01*
X106054000Y-124582000D01*
X106054000Y-125646000D01*
X106074000Y-125646000D01*
X106074000Y-125954000D01*
X106054000Y-125954000D01*
X106054000Y-127018000D01*
X106206000Y-127170000D01*
X106782938Y-127170000D01*
X107006404Y-127077438D01*
X107177437Y-126906405D01*
X107270000Y-126682939D01*
X107270000Y-126534977D01*
X107284679Y-126570503D01*
X107667482Y-126953974D01*
X108167893Y-127161763D01*
X108709730Y-127162236D01*
X109210503Y-126955321D01*
X109593974Y-126572518D01*
X109801763Y-126072107D01*
X109802236Y-125530270D01*
X109595321Y-125029497D01*
X109212518Y-124646026D01*
X108712107Y-124438237D01*
X108170270Y-124437764D01*
X107669497Y-124644679D01*
X107286026Y-125027482D01*
X107270000Y-125066077D01*
X107270000Y-124917061D01*
X107177437Y-124693595D01*
X107006404Y-124522562D01*
X106782938Y-124430000D01*
X106206000Y-124430000D01*
X106054000Y-124582000D01*
X105746000Y-124582000D01*
X105594000Y-124430000D01*
X105017062Y-124430000D01*
X104793596Y-124522562D01*
X104622563Y-124693595D01*
X104530000Y-124917061D01*
X91914164Y-124917061D01*
X91946925Y-124838164D01*
X91947275Y-124437793D01*
X91794382Y-124067765D01*
X91511524Y-123784413D01*
X91141764Y-123630875D01*
X90741393Y-123630525D01*
X90371365Y-123783418D01*
X90088013Y-124066276D01*
X89934475Y-124436036D01*
X89934125Y-124836407D01*
X86383104Y-124836407D01*
X86260024Y-124713113D01*
X85890264Y-124559575D01*
X85489893Y-124559225D01*
X85119865Y-124712118D01*
X84836513Y-124994976D01*
X84682975Y-125364736D01*
X84682625Y-125765107D01*
X83928538Y-125765107D01*
X84068325Y-125428464D01*
X84068675Y-125028093D01*
X83915782Y-124658065D01*
X83632924Y-124374713D01*
X83263164Y-124221175D01*
X82862793Y-124220825D01*
X82492765Y-124373718D01*
X82209413Y-124656576D01*
X82055875Y-125026336D01*
X82055525Y-125426707D01*
X78279301Y-125426707D01*
X78456035Y-125353682D01*
X78739387Y-125070824D01*
X78892925Y-124701064D01*
X78893275Y-124300693D01*
X78740382Y-123930665D01*
X78457524Y-123647313D01*
X78087764Y-123493775D01*
X77687393Y-123493425D01*
X77317365Y-123646318D01*
X77034013Y-123929176D01*
X76880475Y-124298936D01*
X76880125Y-124699307D01*
X61675000Y-124699307D01*
X61675000Y-121749307D01*
X99793425Y-121749307D01*
X99946318Y-122119335D01*
X100229176Y-122402687D01*
X100598936Y-122556225D01*
X100999307Y-122556575D01*
X101369335Y-122403682D01*
X101652687Y-122120824D01*
X101806225Y-121751064D01*
X101806575Y-121350693D01*
X101653682Y-120980665D01*
X101572466Y-120899307D01*
X102793425Y-120899307D01*
X102946318Y-121269335D01*
X103229176Y-121552687D01*
X103598936Y-121706225D01*
X103999307Y-121706575D01*
X104369335Y-121553682D01*
X104652687Y-121270824D01*
X104806225Y-120901064D01*
X104806575Y-120500693D01*
X104653682Y-120130665D01*
X104370824Y-119847313D01*
X104001064Y-119693775D01*
X103600693Y-119693425D01*
X103230665Y-119846318D01*
X102947313Y-120129176D01*
X102793775Y-120498936D01*
X102793425Y-120899307D01*
X101572466Y-120899307D01*
X101370824Y-120697313D01*
X101001064Y-120543775D01*
X100600693Y-120543425D01*
X100230665Y-120696318D01*
X99947313Y-120979176D01*
X99793775Y-121348936D01*
X99793425Y-121749307D01*
X61675000Y-121749307D01*
X61675000Y-120280807D01*
X73384025Y-120280807D01*
X73536918Y-120650835D01*
X73819776Y-120934187D01*
X74189536Y-121087725D01*
X74589907Y-121088075D01*
X74959935Y-120935182D01*
X75203334Y-120692207D01*
X77886525Y-120692207D01*
X78039418Y-121062235D01*
X78322276Y-121345587D01*
X78692036Y-121499125D01*
X79092407Y-121499475D01*
X79462435Y-121346582D01*
X79745787Y-121063724D01*
X79899325Y-120693964D01*
X79899510Y-120482207D01*
X82087025Y-120482207D01*
X82239918Y-120852235D01*
X82522776Y-121135587D01*
X82892536Y-121289125D01*
X83292907Y-121289475D01*
X83662935Y-121136582D01*
X83946287Y-120853724D01*
X83983997Y-120762907D01*
X95986825Y-120762907D01*
X96139718Y-121132935D01*
X96422576Y-121416287D01*
X96792336Y-121569825D01*
X97192707Y-121570175D01*
X97562735Y-121417282D01*
X97846087Y-121134424D01*
X97999625Y-120764664D01*
X97999975Y-120364293D01*
X97847082Y-119994265D01*
X97564224Y-119710913D01*
X97194464Y-119557375D01*
X96794093Y-119557025D01*
X96424065Y-119709918D01*
X96140713Y-119992776D01*
X95987175Y-120362536D01*
X95986825Y-120762907D01*
X83983997Y-120762907D01*
X84099825Y-120483964D01*
X84099927Y-120366994D01*
X84344635Y-120265882D01*
X84627987Y-119983024D01*
X84781525Y-119613264D01*
X84781875Y-119212893D01*
X84628982Y-118842865D01*
X84346124Y-118559513D01*
X83976364Y-118405975D01*
X83575993Y-118405625D01*
X83205965Y-118558518D01*
X82922613Y-118841376D01*
X82769075Y-119211136D01*
X82768973Y-119328106D01*
X82524265Y-119429218D01*
X82240913Y-119712076D01*
X82087375Y-120081836D01*
X82087025Y-120482207D01*
X79899510Y-120482207D01*
X79899675Y-120293593D01*
X79746782Y-119923565D01*
X79463924Y-119640213D01*
X79094164Y-119486675D01*
X78693793Y-119486325D01*
X78323765Y-119639218D01*
X78040413Y-119922076D01*
X77886875Y-120291836D01*
X77886525Y-120692207D01*
X75203334Y-120692207D01*
X75243287Y-120652324D01*
X75396825Y-120282564D01*
X75397175Y-119882193D01*
X75244282Y-119512165D01*
X74961424Y-119228813D01*
X74591664Y-119075275D01*
X74191293Y-119074925D01*
X73821265Y-119227818D01*
X73537913Y-119510676D01*
X73384375Y-119880436D01*
X73384025Y-120280807D01*
X61675000Y-120280807D01*
X61675000Y-117999307D01*
X74543425Y-117999307D01*
X74696318Y-118369335D01*
X74979176Y-118652687D01*
X75348936Y-118806225D01*
X75749307Y-118806575D01*
X76119335Y-118653682D01*
X76402687Y-118370824D01*
X76556225Y-118001064D01*
X76556575Y-117600693D01*
X76403682Y-117230665D01*
X76120824Y-116947313D01*
X75751064Y-116793775D01*
X75350693Y-116793425D01*
X74980665Y-116946318D01*
X74697313Y-117229176D01*
X74543775Y-117598936D01*
X74543425Y-117999307D01*
X61675000Y-117999307D01*
X61675000Y-115402107D01*
X80256825Y-115402107D01*
X80409718Y-115772135D01*
X80692576Y-116055487D01*
X81062336Y-116209025D01*
X81343143Y-116209270D01*
X81311475Y-116285536D01*
X81311125Y-116685907D01*
X81464018Y-117055935D01*
X81746876Y-117339287D01*
X82116636Y-117492825D01*
X82517007Y-117493175D01*
X82887035Y-117340282D01*
X83170387Y-117057424D01*
X83323925Y-116687664D01*
X83324090Y-116498707D01*
X86908525Y-116498707D01*
X87061418Y-116868735D01*
X87344276Y-117152087D01*
X87714036Y-117305625D01*
X88114407Y-117305975D01*
X88288989Y-117233839D01*
X88094613Y-117427876D01*
X87941075Y-117797636D01*
X87940725Y-118198007D01*
X88093618Y-118568035D01*
X88376476Y-118851387D01*
X88746236Y-119004925D01*
X89146607Y-119005275D01*
X89516635Y-118852382D01*
X89799987Y-118569524D01*
X89935735Y-118242607D01*
X98444725Y-118242607D01*
X98597618Y-118612635D01*
X98880476Y-118895987D01*
X99250236Y-119049525D01*
X99650607Y-119049875D01*
X100020635Y-118896982D01*
X100303987Y-118614124D01*
X100457525Y-118244364D01*
X100457875Y-117843993D01*
X100304982Y-117473965D01*
X100130629Y-117299307D01*
X102157325Y-117299307D01*
X102310218Y-117669335D01*
X102593076Y-117952687D01*
X102962836Y-118106225D01*
X103363207Y-118106575D01*
X103733235Y-117953682D01*
X104016587Y-117670824D01*
X104170125Y-117301064D01*
X104170475Y-116900693D01*
X104017582Y-116530665D01*
X103734724Y-116247313D01*
X103364964Y-116093775D01*
X102964593Y-116093425D01*
X102594565Y-116246318D01*
X102311213Y-116529176D01*
X102157675Y-116898936D01*
X102157325Y-117299307D01*
X100130629Y-117299307D01*
X100022124Y-117190613D01*
X99652364Y-117037075D01*
X99251993Y-117036725D01*
X98881965Y-117189618D01*
X98598613Y-117472476D01*
X98445075Y-117842236D01*
X98444725Y-118242607D01*
X89935735Y-118242607D01*
X89953525Y-118199764D01*
X89953875Y-117799393D01*
X89800982Y-117429365D01*
X89518124Y-117146013D01*
X89148364Y-116992475D01*
X88747993Y-116992125D01*
X88573411Y-117064261D01*
X88767787Y-116870224D01*
X88921325Y-116500464D01*
X88921675Y-116100093D01*
X88832680Y-115884707D01*
X97051625Y-115884707D01*
X97204518Y-116254735D01*
X97487376Y-116538087D01*
X97857136Y-116691625D01*
X98257507Y-116691975D01*
X98627535Y-116539082D01*
X98910887Y-116256224D01*
X99064425Y-115886464D01*
X99064775Y-115486093D01*
X98911882Y-115116065D01*
X98895154Y-115099307D01*
X100843425Y-115099307D01*
X100996318Y-115469335D01*
X101279176Y-115752687D01*
X101648936Y-115906225D01*
X102049307Y-115906575D01*
X102419335Y-115753682D01*
X102702687Y-115470824D01*
X102856225Y-115101064D01*
X102856575Y-114700693D01*
X102703682Y-114330665D01*
X102420824Y-114047313D01*
X102051064Y-113893775D01*
X101650693Y-113893425D01*
X101280665Y-114046318D01*
X100997313Y-114329176D01*
X100843775Y-114698936D01*
X100843425Y-115099307D01*
X98895154Y-115099307D01*
X98629024Y-114832713D01*
X98259264Y-114679175D01*
X97858893Y-114678825D01*
X97488865Y-114831718D01*
X97205513Y-115114576D01*
X97051975Y-115484336D01*
X97051625Y-115884707D01*
X88832680Y-115884707D01*
X88768782Y-115730065D01*
X88485924Y-115446713D01*
X88116164Y-115293175D01*
X87715793Y-115292825D01*
X87345765Y-115445718D01*
X87062413Y-115728576D01*
X86908875Y-116098336D01*
X86908525Y-116498707D01*
X83324090Y-116498707D01*
X83324275Y-116287293D01*
X83173150Y-115921544D01*
X83306225Y-115601064D01*
X83306575Y-115200693D01*
X83153682Y-114830665D01*
X82870824Y-114547313D01*
X82501064Y-114393775D01*
X82100693Y-114393425D01*
X81942649Y-114458728D01*
X81834224Y-114350113D01*
X81560390Y-114236407D01*
X92321325Y-114236407D01*
X92474218Y-114606435D01*
X92757076Y-114889787D01*
X93126836Y-115043325D01*
X93527207Y-115043675D01*
X93897235Y-114890782D01*
X94180587Y-114607924D01*
X94334125Y-114238164D01*
X94334475Y-113837793D01*
X94181582Y-113467765D01*
X93898724Y-113184413D01*
X93528964Y-113030875D01*
X93128593Y-113030525D01*
X92758565Y-113183418D01*
X92475213Y-113466276D01*
X92321675Y-113836036D01*
X92321325Y-114236407D01*
X81560390Y-114236407D01*
X81464464Y-114196575D01*
X81064093Y-114196225D01*
X80694065Y-114349118D01*
X80410713Y-114631976D01*
X80257175Y-115001736D01*
X80256825Y-115402107D01*
X61675000Y-115402107D01*
X61675000Y-113891907D01*
X65727725Y-113891907D01*
X65880618Y-114261935D01*
X66163476Y-114545287D01*
X66533236Y-114698825D01*
X66933607Y-114699175D01*
X67303635Y-114546282D01*
X67586987Y-114263424D01*
X67740525Y-113893664D01*
X67740607Y-113799307D01*
X70193425Y-113799307D01*
X70346318Y-114169335D01*
X70629176Y-114452687D01*
X70998936Y-114606225D01*
X71399307Y-114606575D01*
X71769335Y-114453682D01*
X72052687Y-114170824D01*
X72206225Y-113801064D01*
X72206575Y-113400693D01*
X72053682Y-113030665D01*
X71833295Y-112809893D01*
X71969335Y-112753682D01*
X72023804Y-112699307D01*
X89608725Y-112699307D01*
X89761618Y-113069335D01*
X90044476Y-113352687D01*
X90414236Y-113506225D01*
X90814607Y-113506575D01*
X91184635Y-113353682D01*
X91467987Y-113070824D01*
X91502085Y-112988707D01*
X102955025Y-112988707D01*
X103107918Y-113358735D01*
X103390776Y-113642087D01*
X103760536Y-113795625D01*
X104160907Y-113795975D01*
X104530935Y-113643082D01*
X104814287Y-113360224D01*
X104967825Y-112990464D01*
X104968175Y-112590093D01*
X104815282Y-112220065D01*
X104532424Y-111936713D01*
X104162664Y-111783175D01*
X103762293Y-111782825D01*
X103392265Y-111935718D01*
X103108913Y-112218576D01*
X102955375Y-112588336D01*
X102955025Y-112988707D01*
X91502085Y-112988707D01*
X91621525Y-112701064D01*
X91621875Y-112300693D01*
X91468982Y-111930665D01*
X91186124Y-111647313D01*
X90816364Y-111493775D01*
X90415993Y-111493425D01*
X90045965Y-111646318D01*
X89762613Y-111929176D01*
X89609075Y-112298936D01*
X89608725Y-112699307D01*
X72023804Y-112699307D01*
X72252687Y-112470824D01*
X72406225Y-112101064D01*
X72406575Y-111700693D01*
X72253682Y-111330665D01*
X71970824Y-111047313D01*
X71601064Y-110893775D01*
X71200693Y-110893425D01*
X70830665Y-111046318D01*
X70547313Y-111329176D01*
X70393775Y-111698936D01*
X70393425Y-112099307D01*
X70546318Y-112469335D01*
X70766705Y-112690107D01*
X70630665Y-112746318D01*
X70347313Y-113029176D01*
X70193775Y-113398936D01*
X70193425Y-113799307D01*
X67740607Y-113799307D01*
X67740875Y-113493293D01*
X67587982Y-113123265D01*
X67305124Y-112839913D01*
X66935364Y-112686375D01*
X66534993Y-112686025D01*
X66164965Y-112838918D01*
X65881613Y-113121776D01*
X65728075Y-113491536D01*
X65727725Y-113891907D01*
X61675000Y-113891907D01*
X61675000Y-110299307D01*
X72393425Y-110299307D01*
X72546318Y-110669335D01*
X72829176Y-110952687D01*
X73043475Y-111041672D01*
X73043425Y-111099307D01*
X73196318Y-111469335D01*
X73479176Y-111752687D01*
X73848936Y-111906225D01*
X74249307Y-111906575D01*
X74619335Y-111753682D01*
X74902687Y-111470824D01*
X75056225Y-111101064D01*
X75056575Y-110700693D01*
X75014684Y-110599307D01*
X77193425Y-110599307D01*
X77346318Y-110969335D01*
X77629176Y-111252687D01*
X77998936Y-111406225D01*
X78399307Y-111406575D01*
X78769335Y-111253682D01*
X78773717Y-111249307D01*
X84443425Y-111249307D01*
X84596318Y-111619335D01*
X84879176Y-111902687D01*
X85248936Y-112056225D01*
X85649307Y-112056575D01*
X86019335Y-111903682D01*
X86302687Y-111620824D01*
X86456225Y-111251064D01*
X86456364Y-111091307D01*
X97930525Y-111091307D01*
X98083418Y-111461335D01*
X98366276Y-111744687D01*
X98736036Y-111898225D01*
X99136407Y-111898575D01*
X99506435Y-111745682D01*
X99789787Y-111462824D01*
X99943325Y-111093064D01*
X99943675Y-110692693D01*
X99790782Y-110322665D01*
X99507924Y-110039313D01*
X99138164Y-109885775D01*
X98737793Y-109885425D01*
X98367765Y-110038318D01*
X98084413Y-110321176D01*
X97930875Y-110690936D01*
X97930525Y-111091307D01*
X86456364Y-111091307D01*
X86456467Y-110973754D01*
X87462000Y-110973754D01*
X87684346Y-110931917D01*
X87888558Y-110800510D01*
X88025556Y-110600007D01*
X88073754Y-110362000D01*
X88073754Y-110344062D01*
X88084679Y-110370503D01*
X88467482Y-110753974D01*
X88967893Y-110961763D01*
X89509730Y-110962236D01*
X90010503Y-110755321D01*
X90393974Y-110372518D01*
X90601763Y-109872107D01*
X90602236Y-109330270D01*
X90395321Y-108829497D01*
X90083076Y-108516707D01*
X94820625Y-108516707D01*
X94973518Y-108886735D01*
X95256376Y-109170087D01*
X95626136Y-109323625D01*
X96026507Y-109323975D01*
X96396535Y-109171082D01*
X96679887Y-108888224D01*
X96833425Y-108518464D01*
X96833426Y-108516707D01*
X98441925Y-108516707D01*
X98594818Y-108886735D01*
X98877676Y-109170087D01*
X99247436Y-109323625D01*
X99647807Y-109323975D01*
X100017835Y-109171082D01*
X100301187Y-108888224D01*
X100454725Y-108518464D01*
X100454823Y-108406536D01*
X100499307Y-108406575D01*
X100869335Y-108253682D01*
X101152687Y-107970824D01*
X101306225Y-107601064D01*
X101306575Y-107200693D01*
X101153682Y-106830665D01*
X100870824Y-106547313D01*
X100501064Y-106393775D01*
X100100693Y-106393425D01*
X99730665Y-106546318D01*
X99447313Y-106829176D01*
X99293775Y-107198936D01*
X99293677Y-107310864D01*
X99249193Y-107310825D01*
X98879165Y-107463718D01*
X98595813Y-107746576D01*
X98442275Y-108116336D01*
X98441925Y-108516707D01*
X96833426Y-108516707D01*
X96833775Y-108118093D01*
X96680882Y-107748065D01*
X96398024Y-107464713D01*
X96028264Y-107311175D01*
X95627893Y-107310825D01*
X95257865Y-107463718D01*
X94974513Y-107746576D01*
X94820975Y-108116336D01*
X94820625Y-108516707D01*
X90083076Y-108516707D01*
X90012518Y-108446026D01*
X89512107Y-108238237D01*
X88970270Y-108237764D01*
X88469497Y-108444679D01*
X88086026Y-108827482D01*
X88073754Y-108857036D01*
X88073754Y-108838000D01*
X88031917Y-108615654D01*
X87900510Y-108411442D01*
X87700007Y-108274444D01*
X87462000Y-108226246D01*
X85938000Y-108226246D01*
X85715654Y-108268083D01*
X85511442Y-108399490D01*
X85374444Y-108599993D01*
X85326246Y-108838000D01*
X85326246Y-110043491D01*
X85250693Y-110043425D01*
X84880665Y-110196318D01*
X84597313Y-110479176D01*
X84443775Y-110848936D01*
X84443425Y-111249307D01*
X78773717Y-111249307D01*
X79052687Y-110970824D01*
X79206225Y-110601064D01*
X79206575Y-110200693D01*
X79053682Y-109830665D01*
X78770824Y-109547313D01*
X78401064Y-109393775D01*
X78000693Y-109393425D01*
X77630665Y-109546318D01*
X77347313Y-109829176D01*
X77193775Y-110198936D01*
X77193425Y-110599307D01*
X75014684Y-110599307D01*
X74903682Y-110330665D01*
X74620824Y-110047313D01*
X74406525Y-109958328D01*
X74406575Y-109900693D01*
X74253682Y-109530665D01*
X73970824Y-109247313D01*
X73601064Y-109093775D01*
X73200693Y-109093425D01*
X72830665Y-109246318D01*
X72547313Y-109529176D01*
X72393775Y-109898936D01*
X72393425Y-110299307D01*
X61675000Y-110299307D01*
X61675000Y-108818207D01*
X68562725Y-108818207D01*
X68715618Y-109188235D01*
X68998476Y-109471587D01*
X69368236Y-109625125D01*
X69768607Y-109625475D01*
X70138635Y-109472582D01*
X70421987Y-109189724D01*
X70575525Y-108819964D01*
X70575875Y-108419593D01*
X70422982Y-108049565D01*
X70140124Y-107766213D01*
X69770364Y-107612675D01*
X69369993Y-107612325D01*
X68999965Y-107765218D01*
X68716613Y-108048076D01*
X68563075Y-108417836D01*
X68562725Y-108818207D01*
X61675000Y-108818207D01*
X61675000Y-104338000D01*
X64326246Y-104338000D01*
X64326246Y-105862000D01*
X64368083Y-106084346D01*
X64499490Y-106288558D01*
X64699993Y-106425556D01*
X64938000Y-106473754D01*
X66462000Y-106473754D01*
X66684346Y-106431917D01*
X66888558Y-106300510D01*
X67025556Y-106100007D01*
X67073754Y-105862000D01*
X67073754Y-105844062D01*
X67084679Y-105870503D01*
X67467482Y-106253974D01*
X67967893Y-106461763D01*
X68509730Y-106462236D01*
X69010503Y-106255321D01*
X69393974Y-105872518D01*
X69510029Y-105593028D01*
X69624679Y-105870503D01*
X70007482Y-106253974D01*
X70507893Y-106461763D01*
X71049730Y-106462236D01*
X71550503Y-106255321D01*
X71933974Y-105872518D01*
X72050029Y-105593028D01*
X72164679Y-105870503D01*
X72547482Y-106253974D01*
X73047893Y-106461763D01*
X73589730Y-106462236D01*
X74090503Y-106255321D01*
X74473974Y-105872518D01*
X74590029Y-105593028D01*
X74704679Y-105870503D01*
X75087482Y-106253974D01*
X75587893Y-106461763D01*
X76129730Y-106462236D01*
X76630503Y-106255321D01*
X77013974Y-105872518D01*
X77130029Y-105593028D01*
X77244679Y-105870503D01*
X77627482Y-106253974D01*
X78127893Y-106461763D01*
X78669730Y-106462236D01*
X79170503Y-106255321D01*
X79553974Y-105872518D01*
X79670029Y-105593028D01*
X79784679Y-105870503D01*
X80167482Y-106253974D01*
X80667893Y-106461763D01*
X81209730Y-106462236D01*
X81710503Y-106255321D01*
X82093974Y-105872518D01*
X82210029Y-105593028D01*
X82324679Y-105870503D01*
X82707482Y-106253974D01*
X83207893Y-106461763D01*
X83749730Y-106462236D01*
X84250503Y-106255321D01*
X84633974Y-105872518D01*
X84750029Y-105593028D01*
X84864679Y-105870503D01*
X85247482Y-106253974D01*
X85747893Y-106461763D01*
X86289730Y-106462236D01*
X86790503Y-106255321D01*
X87173974Y-105872518D01*
X87290029Y-105593028D01*
X87404679Y-105870503D01*
X87787482Y-106253974D01*
X88287893Y-106461763D01*
X88829730Y-106462236D01*
X89330503Y-106255321D01*
X89713974Y-105872518D01*
X89830029Y-105593028D01*
X89944679Y-105870503D01*
X90327482Y-106253974D01*
X90827893Y-106461763D01*
X91369730Y-106462236D01*
X91870503Y-106255321D01*
X92253974Y-105872518D01*
X92370029Y-105593028D01*
X92484679Y-105870503D01*
X92867482Y-106253974D01*
X93243026Y-106409914D01*
X93143775Y-106648936D01*
X93143425Y-107049307D01*
X93296318Y-107419335D01*
X93579176Y-107702687D01*
X93948936Y-107856225D01*
X94349307Y-107856575D01*
X94719335Y-107703682D01*
X95002687Y-107420824D01*
X95156225Y-107051064D01*
X95156575Y-106650693D01*
X95003682Y-106280665D01*
X94720824Y-105997313D01*
X94684197Y-105982104D01*
X94793974Y-105872518D01*
X94910029Y-105593028D01*
X95024679Y-105870503D01*
X95407482Y-106253974D01*
X95907893Y-106461763D01*
X96449730Y-106462236D01*
X96950503Y-106255321D01*
X97333974Y-105872518D01*
X97450029Y-105593028D01*
X97564679Y-105870503D01*
X97947482Y-106253974D01*
X98447893Y-106461763D01*
X98989730Y-106462236D01*
X99490503Y-106255321D01*
X99873974Y-105872518D01*
X99990029Y-105593028D01*
X100104679Y-105870503D01*
X100487482Y-106253974D01*
X100987893Y-106461763D01*
X101529730Y-106462236D01*
X102030503Y-106255321D01*
X102413974Y-105872518D01*
X102530029Y-105593028D01*
X102644679Y-105870503D01*
X103027482Y-106253974D01*
X103527893Y-106461763D01*
X104069730Y-106462236D01*
X104570503Y-106255321D01*
X104953974Y-105872518D01*
X105070029Y-105593028D01*
X105184679Y-105870503D01*
X105567482Y-106253974D01*
X106067893Y-106461763D01*
X106609730Y-106462236D01*
X107110503Y-106255321D01*
X107493974Y-105872518D01*
X107701763Y-105372107D01*
X107702236Y-104830270D01*
X107495321Y-104329497D01*
X107112518Y-103946026D01*
X106833028Y-103829971D01*
X107110503Y-103715321D01*
X107493974Y-103332518D01*
X107701763Y-102832107D01*
X107702236Y-102290270D01*
X107495321Y-101789497D01*
X107112518Y-101406026D01*
X106612107Y-101198237D01*
X106070270Y-101197764D01*
X105569497Y-101404679D01*
X105186026Y-101787482D01*
X105069971Y-102066972D01*
X104955321Y-101789497D01*
X104572518Y-101406026D01*
X104072107Y-101198237D01*
X103530270Y-101197764D01*
X103029497Y-101404679D01*
X102646026Y-101787482D01*
X102529971Y-102066972D01*
X102415321Y-101789497D01*
X102032518Y-101406026D01*
X101532107Y-101198237D01*
X100990270Y-101197764D01*
X100489497Y-101404679D01*
X100106026Y-101787482D01*
X99989971Y-102066972D01*
X99875321Y-101789497D01*
X99492518Y-101406026D01*
X98992107Y-101198237D01*
X98450270Y-101197764D01*
X97949497Y-101404679D01*
X97566026Y-101787482D01*
X97449971Y-102066972D01*
X97335321Y-101789497D01*
X96952518Y-101406026D01*
X96452107Y-101198237D01*
X95910270Y-101197764D01*
X95409497Y-101404679D01*
X95026026Y-101787482D01*
X94909971Y-102066972D01*
X94795321Y-101789497D01*
X94412518Y-101406026D01*
X93912107Y-101198237D01*
X93370270Y-101197764D01*
X92869497Y-101404679D01*
X92486026Y-101787482D01*
X92369971Y-102066972D01*
X92255321Y-101789497D01*
X91872518Y-101406026D01*
X91372107Y-101198237D01*
X90830270Y-101197764D01*
X90329497Y-101404679D01*
X89946026Y-101787482D01*
X89829971Y-102066972D01*
X89715321Y-101789497D01*
X89332518Y-101406026D01*
X88832107Y-101198237D01*
X88290270Y-101197764D01*
X87789497Y-101404679D01*
X87406026Y-101787482D01*
X87289971Y-102066972D01*
X87175321Y-101789497D01*
X86792518Y-101406026D01*
X86292107Y-101198237D01*
X85750270Y-101197764D01*
X85249497Y-101404679D01*
X84866026Y-101787482D01*
X84749971Y-102066972D01*
X84635321Y-101789497D01*
X84252518Y-101406026D01*
X83752107Y-101198237D01*
X83210270Y-101197764D01*
X82709497Y-101404679D01*
X82326026Y-101787482D01*
X82209971Y-102066972D01*
X82095321Y-101789497D01*
X81712518Y-101406026D01*
X81212107Y-101198237D01*
X80670270Y-101197764D01*
X80169497Y-101404679D01*
X79786026Y-101787482D01*
X79669971Y-102066972D01*
X79555321Y-101789497D01*
X79172518Y-101406026D01*
X78672107Y-101198237D01*
X78130270Y-101197764D01*
X77629497Y-101404679D01*
X77246026Y-101787482D01*
X77129971Y-102066972D01*
X77015321Y-101789497D01*
X76632518Y-101406026D01*
X76132107Y-101198237D01*
X75590270Y-101197764D01*
X75089497Y-101404679D01*
X74706026Y-101787482D01*
X74589971Y-102066972D01*
X74475321Y-101789497D01*
X74092518Y-101406026D01*
X73592107Y-101198237D01*
X73050270Y-101197764D01*
X72549497Y-101404679D01*
X72166026Y-101787482D01*
X72049971Y-102066972D01*
X71935321Y-101789497D01*
X71552518Y-101406026D01*
X71052107Y-101198237D01*
X70510270Y-101197764D01*
X70009497Y-101404679D01*
X69626026Y-101787482D01*
X69509971Y-102066972D01*
X69395321Y-101789497D01*
X69012518Y-101406026D01*
X68512107Y-101198237D01*
X67970270Y-101197764D01*
X67469497Y-101404679D01*
X67086026Y-101787482D01*
X66969971Y-102066972D01*
X66855321Y-101789497D01*
X66472518Y-101406026D01*
X65972107Y-101198237D01*
X65430270Y-101197764D01*
X64929497Y-101404679D01*
X64546026Y-101787482D01*
X64338237Y-102287893D01*
X64337764Y-102829730D01*
X64544679Y-103330503D01*
X64927482Y-103713974D01*
X64957036Y-103726246D01*
X64938000Y-103726246D01*
X64715654Y-103768083D01*
X64511442Y-103899490D01*
X64374444Y-104099993D01*
X64326246Y-104338000D01*
X61675000Y-104338000D01*
X61675000Y-100675000D01*
X110325000Y-100675000D01*
X110325000Y-108786761D01*
X110325000Y-108786761D01*
G37*
X110325000Y-108786761D02*
X110101064Y-108693775D01*
X109700693Y-108693425D01*
X109330665Y-108846318D01*
X109047313Y-109129176D01*
X108893775Y-109498936D01*
X108893425Y-109899307D01*
X109046318Y-110269335D01*
X109329176Y-110552687D01*
X109698936Y-110706225D01*
X110099307Y-110706575D01*
X110325000Y-110613320D01*
X110325000Y-120128285D01*
X110001064Y-119993775D01*
X109600693Y-119993425D01*
X109230665Y-120146318D01*
X108947313Y-120429176D01*
X108793775Y-120798936D01*
X108793425Y-121199307D01*
X108946318Y-121569335D01*
X109229176Y-121852687D01*
X109598936Y-122006225D01*
X109999307Y-122006575D01*
X110325000Y-121872001D01*
X110325000Y-149325000D01*
X61675000Y-149325000D01*
X61675000Y-146738000D01*
X64326246Y-146738000D01*
X64326246Y-148262000D01*
X64368083Y-148484346D01*
X64499490Y-148688558D01*
X64699993Y-148825556D01*
X64938000Y-148873754D01*
X66462000Y-148873754D01*
X66684346Y-148831917D01*
X66888558Y-148700510D01*
X67025556Y-148500007D01*
X67073754Y-148262000D01*
X67073754Y-148244062D01*
X67084679Y-148270503D01*
X67467482Y-148653974D01*
X67967893Y-148861763D01*
X68509730Y-148862236D01*
X69010503Y-148655321D01*
X69393974Y-148272518D01*
X69510029Y-147993028D01*
X69624679Y-148270503D01*
X70007482Y-148653974D01*
X70507893Y-148861763D01*
X71049730Y-148862236D01*
X71550503Y-148655321D01*
X71933974Y-148272518D01*
X72050029Y-147993028D01*
X72164679Y-148270503D01*
X72547482Y-148653974D01*
X73047893Y-148861763D01*
X73589730Y-148862236D01*
X74090503Y-148655321D01*
X74473974Y-148272518D01*
X74590029Y-147993028D01*
X74704679Y-148270503D01*
X75087482Y-148653974D01*
X75587893Y-148861763D01*
X76129730Y-148862236D01*
X76630503Y-148655321D01*
X77013974Y-148272518D01*
X77130029Y-147993028D01*
X77244679Y-148270503D01*
X77627482Y-148653974D01*
X78127893Y-148861763D01*
X78669730Y-148862236D01*
X79170503Y-148655321D01*
X79553974Y-148272518D01*
X79670029Y-147993028D01*
X79784679Y-148270503D01*
X80167482Y-148653974D01*
X80667893Y-148861763D01*
X81209730Y-148862236D01*
X81710503Y-148655321D01*
X82093974Y-148272518D01*
X82210029Y-147993028D01*
X82324679Y-148270503D01*
X82707482Y-148653974D01*
X83207893Y-148861763D01*
X83749730Y-148862236D01*
X84250503Y-148655321D01*
X84633974Y-148272518D01*
X84750029Y-147993028D01*
X84864679Y-148270503D01*
X85247482Y-148653974D01*
X85747893Y-148861763D01*
X86289730Y-148862236D01*
X86790503Y-148655321D01*
X87173974Y-148272518D01*
X87290029Y-147993028D01*
X87404679Y-148270503D01*
X87787482Y-148653974D01*
X88287893Y-148861763D01*
X88829730Y-148862236D01*
X89330503Y-148655321D01*
X89713974Y-148272518D01*
X89830029Y-147993028D01*
X89944679Y-148270503D01*
X90327482Y-148653974D01*
X90827893Y-148861763D01*
X91369730Y-148862236D01*
X91870503Y-148655321D01*
X92253974Y-148272518D01*
X92370029Y-147993028D01*
X92484679Y-148270503D01*
X92867482Y-148653974D01*
X93367893Y-148861763D01*
X93909730Y-148862236D01*
X94410503Y-148655321D01*
X94793974Y-148272518D01*
X94910029Y-147993028D01*
X95024679Y-148270503D01*
X95407482Y-148653974D01*
X95907893Y-148861763D01*
X96449730Y-148862236D01*
X96950503Y-148655321D01*
X97333974Y-148272518D01*
X97450029Y-147993028D01*
X97564679Y-148270503D01*
X97947482Y-148653974D01*
X98447893Y-148861763D01*
X98989730Y-148862236D01*
X99490503Y-148655321D01*
X99873974Y-148272518D01*
X99990029Y-147993028D01*
X100104679Y-148270503D01*
X100487482Y-148653974D01*
X100987893Y-148861763D01*
X101529730Y-148862236D01*
X102030503Y-148655321D01*
X102413974Y-148272518D01*
X102530029Y-147993028D01*
X102644679Y-148270503D01*
X103027482Y-148653974D01*
X103527893Y-148861763D01*
X104069730Y-148862236D01*
X104570503Y-148655321D01*
X104953974Y-148272518D01*
X105070029Y-147993028D01*
X105184679Y-148270503D01*
X105567482Y-148653974D01*
X106067893Y-148861763D01*
X106609730Y-148862236D01*
X107110503Y-148655321D01*
X107493974Y-148272518D01*
X107701763Y-147772107D01*
X107702236Y-147230270D01*
X107495321Y-146729497D01*
X107112518Y-146346026D01*
X106833028Y-146229971D01*
X107110503Y-146115321D01*
X107493974Y-145732518D01*
X107701763Y-145232107D01*
X107702236Y-144690270D01*
X107495321Y-144189497D01*
X107112518Y-143806026D01*
X106612107Y-143598237D01*
X106070270Y-143597764D01*
X105569497Y-143804679D01*
X105186026Y-144187482D01*
X105069971Y-144466972D01*
X104955321Y-144189497D01*
X104572518Y-143806026D01*
X104072107Y-143598237D01*
X103530270Y-143597764D01*
X103029497Y-143804679D01*
X102646026Y-144187482D01*
X102529971Y-144466972D01*
X102415321Y-144189497D01*
X102032518Y-143806026D01*
X101532107Y-143598237D01*
X100990270Y-143597764D01*
X100489497Y-143804679D01*
X100106026Y-144187482D01*
X99989971Y-144466972D01*
X99875321Y-144189497D01*
X99492518Y-143806026D01*
X98992107Y-143598237D01*
X98450270Y-143597764D01*
X97949497Y-143804679D01*
X97566026Y-144187482D01*
X97449971Y-144466972D01*
X97335321Y-144189497D01*
X96952518Y-143806026D01*
X96452107Y-143598237D01*
X95910270Y-143597764D01*
X95409497Y-143804679D01*
X95026026Y-144187482D01*
X94909971Y-144466972D01*
X94795321Y-144189497D01*
X94412518Y-143806026D01*
X93912107Y-143598237D01*
X93370270Y-143597764D01*
X92869497Y-143804679D01*
X92486026Y-144187482D01*
X92369971Y-144466972D01*
X92255321Y-144189497D01*
X91872518Y-143806026D01*
X91372107Y-143598237D01*
X90830270Y-143597764D01*
X90329497Y-143804679D01*
X89946026Y-144187482D01*
X89829971Y-144466972D01*
X89715321Y-144189497D01*
X89332518Y-143806026D01*
X88832107Y-143598237D01*
X88290270Y-143597764D01*
X87789497Y-143804679D01*
X87406026Y-144187482D01*
X87289971Y-144466972D01*
X87175321Y-144189497D01*
X86792518Y-143806026D01*
X86292107Y-143598237D01*
X85750270Y-143597764D01*
X85249497Y-143804679D01*
X84866026Y-144187482D01*
X84749971Y-144466972D01*
X84635321Y-144189497D01*
X84252518Y-143806026D01*
X83752107Y-143598237D01*
X83210270Y-143597764D01*
X82709497Y-143804679D01*
X82326026Y-144187482D01*
X82209971Y-144466972D01*
X82095321Y-144189497D01*
X81712518Y-143806026D01*
X81212107Y-143598237D01*
X80670270Y-143597764D01*
X80169497Y-143804679D01*
X79786026Y-144187482D01*
X79669971Y-144466972D01*
X79555321Y-144189497D01*
X79172518Y-143806026D01*
X78672107Y-143598237D01*
X78130270Y-143597764D01*
X77629497Y-143804679D01*
X77246026Y-144187482D01*
X77129971Y-144466972D01*
X77015321Y-144189497D01*
X76632518Y-143806026D01*
X76132107Y-143598237D01*
X75590270Y-143597764D01*
X75089497Y-143804679D01*
X74706026Y-144187482D01*
X74589971Y-144466972D01*
X74475321Y-144189497D01*
X74092518Y-143806026D01*
X73592107Y-143598237D01*
X73050270Y-143597764D01*
X72549497Y-143804679D01*
X72166026Y-144187482D01*
X72049971Y-144466972D01*
X71935321Y-144189497D01*
X71552518Y-143806026D01*
X71052107Y-143598237D01*
X70510270Y-143597764D01*
X70009497Y-143804679D01*
X69626026Y-144187482D01*
X69509971Y-144466972D01*
X69395321Y-144189497D01*
X69012518Y-143806026D01*
X68512107Y-143598237D01*
X67970270Y-143597764D01*
X67469497Y-143804679D01*
X67086026Y-144187482D01*
X66969971Y-144466972D01*
X66855321Y-144189497D01*
X66472518Y-143806026D01*
X65972107Y-143598237D01*
X65430270Y-143597764D01*
X64929497Y-143804679D01*
X64546026Y-144187482D01*
X64338237Y-144687893D01*
X64337764Y-145229730D01*
X64544679Y-145730503D01*
X64927482Y-146113974D01*
X64957036Y-146126246D01*
X64938000Y-146126246D01*
X64715654Y-146168083D01*
X64511442Y-146299490D01*
X64374444Y-146499993D01*
X64326246Y-146738000D01*
X61675000Y-146738000D01*
X61675000Y-142049307D01*
X83393425Y-142049307D01*
X83546318Y-142419335D01*
X83829176Y-142702687D01*
X84198936Y-142856225D01*
X84599307Y-142856575D01*
X84969335Y-142703682D01*
X85252687Y-142420824D01*
X85406225Y-142051064D01*
X85406575Y-141650693D01*
X85253682Y-141280665D01*
X84970824Y-140997313D01*
X84601064Y-140843775D01*
X84200693Y-140843425D01*
X83830665Y-140996318D01*
X83547313Y-141279176D01*
X83393775Y-141648936D01*
X83393425Y-142049307D01*
X61675000Y-142049307D01*
X61675000Y-139917353D01*
X101849766Y-139917353D01*
X102054858Y-140413715D01*
X102434288Y-140793807D01*
X102930290Y-140999765D01*
X103467353Y-141000234D01*
X103963715Y-140795142D01*
X104343807Y-140415712D01*
X104549765Y-139919710D01*
X104549767Y-139917353D01*
X107149766Y-139917353D01*
X107354858Y-140413715D01*
X107734288Y-140793807D01*
X108230290Y-140999765D01*
X108767353Y-141000234D01*
X109263715Y-140795142D01*
X109643807Y-140415712D01*
X109849765Y-139919710D01*
X109850234Y-139382647D01*
X109645142Y-138886285D01*
X109265712Y-138506193D01*
X108769710Y-138300235D01*
X108232647Y-138299766D01*
X107736285Y-138504858D01*
X107356193Y-138884288D01*
X107150235Y-139380290D01*
X107149766Y-139917353D01*
X104549767Y-139917353D01*
X104550234Y-139382647D01*
X104345142Y-138886285D01*
X103965712Y-138506193D01*
X103469710Y-138300235D01*
X102932647Y-138299766D01*
X102436285Y-138504858D01*
X102056193Y-138884288D01*
X101850235Y-139380290D01*
X101849766Y-139917353D01*
X61675000Y-139917353D01*
X61675000Y-138549307D01*
X69193425Y-138549307D01*
X69346318Y-138919335D01*
X69629176Y-139202687D01*
X69998936Y-139356225D01*
X70399307Y-139356575D01*
X70769335Y-139203682D01*
X71052687Y-138920824D01*
X71206225Y-138551064D01*
X71206575Y-138150693D01*
X71126932Y-137957942D01*
X104149818Y-137957942D01*
X104309334Y-138344000D01*
X104604446Y-138639628D01*
X104990226Y-138799818D01*
X105407942Y-138800182D01*
X105794000Y-138640666D01*
X106089628Y-138345554D01*
X106249818Y-137959774D01*
X106250182Y-137542058D01*
X106090666Y-137156000D01*
X105795554Y-136860372D01*
X105409774Y-136700182D01*
X104992058Y-136699818D01*
X104606000Y-136859334D01*
X104310372Y-137154446D01*
X104150182Y-137540226D01*
X104149818Y-137957942D01*
X71126932Y-137957942D01*
X71053682Y-137780665D01*
X70770824Y-137497313D01*
X70401064Y-137343775D01*
X70000693Y-137343425D01*
X69630665Y-137496318D01*
X69347313Y-137779176D01*
X69193775Y-138148936D01*
X69193425Y-138549307D01*
X61675000Y-138549307D01*
X61675000Y-136887107D01*
X99698325Y-136887107D01*
X99851218Y-137257135D01*
X100134076Y-137540487D01*
X100503836Y-137694025D01*
X100904207Y-137694375D01*
X101274235Y-137541482D01*
X101557587Y-137258624D01*
X101711125Y-136888864D01*
X101711475Y-136488493D01*
X101558582Y-136118465D01*
X101275724Y-135835113D01*
X100905964Y-135681575D01*
X100505593Y-135681225D01*
X100135565Y-135834118D01*
X99852213Y-136116976D01*
X99698675Y-136486736D01*
X99698325Y-136887107D01*
X61675000Y-136887107D01*
X61675000Y-135956907D01*
X66834525Y-135956907D01*
X66987418Y-136326935D01*
X67270276Y-136610287D01*
X67640036Y-136763825D01*
X68040407Y-136764175D01*
X68410435Y-136611282D01*
X68693787Y-136328424D01*
X68847325Y-135958664D01*
X68847675Y-135558293D01*
X68694782Y-135188265D01*
X68411924Y-134904913D01*
X68042164Y-134751375D01*
X67641793Y-134751025D01*
X67271765Y-134903918D01*
X66988413Y-135186776D01*
X66834875Y-135556536D01*
X66834525Y-135956907D01*
X61675000Y-135956907D01*
X61675000Y-133796007D01*
X75706825Y-133796007D01*
X75859718Y-134166035D01*
X76142576Y-134449387D01*
X76512336Y-134602925D01*
X76912707Y-134603275D01*
X77264438Y-134457942D01*
X104149818Y-134457942D01*
X104309334Y-134844000D01*
X104604446Y-135139628D01*
X104990226Y-135299818D01*
X105407942Y-135300182D01*
X105794000Y-135140666D01*
X106089628Y-134845554D01*
X106249818Y-134459774D01*
X106250182Y-134042058D01*
X106090666Y-133656000D01*
X105795554Y-133360372D01*
X105409774Y-133200182D01*
X104992058Y-133199818D01*
X104606000Y-133359334D01*
X104310372Y-133654446D01*
X104150182Y-134040226D01*
X104149818Y-134457942D01*
X77264438Y-134457942D01*
X77282735Y-134450382D01*
X77566087Y-134167524D01*
X77719625Y-133797764D01*
X77719975Y-133397393D01*
X77567082Y-133027365D01*
X77284224Y-132744013D01*
X76914464Y-132590475D01*
X76514093Y-132590125D01*
X76144065Y-132743018D01*
X75860713Y-133025876D01*
X75707175Y-133395636D01*
X75706825Y-133796007D01*
X61675000Y-133796007D01*
X61675000Y-128445407D01*
X65685825Y-128445407D01*
X65838718Y-128815435D01*
X66121576Y-129098787D01*
X66491336Y-129252325D01*
X66891707Y-129252675D01*
X67261735Y-129099782D01*
X67545087Y-128816924D01*
X67698625Y-128447164D01*
X67698975Y-128046793D01*
X67546082Y-127676765D01*
X67319021Y-127449307D01*
X68993425Y-127449307D01*
X69146318Y-127819335D01*
X69429176Y-128102687D01*
X69798936Y-128256225D01*
X70199307Y-128256575D01*
X70253925Y-128234007D01*
X84924325Y-128234007D01*
X85077218Y-128604035D01*
X85360076Y-128887387D01*
X85625739Y-128997700D01*
X85552365Y-129028018D01*
X85269013Y-129310876D01*
X85115475Y-129680636D01*
X85115125Y-130081007D01*
X85268018Y-130451035D01*
X85550876Y-130734387D01*
X85920636Y-130887925D01*
X86138861Y-130888116D01*
X85852065Y-131006618D01*
X85568713Y-131289476D01*
X85415175Y-131659236D01*
X85414825Y-132059607D01*
X85567718Y-132429635D01*
X85850576Y-132712987D01*
X86220336Y-132866525D01*
X86620707Y-132866875D01*
X86990735Y-132713982D01*
X87087532Y-132617353D01*
X101849766Y-132617353D01*
X102054858Y-133113715D01*
X102434288Y-133493807D01*
X102930290Y-133699765D01*
X103467353Y-133700234D01*
X103963715Y-133495142D01*
X104343807Y-133115712D01*
X104549765Y-132619710D01*
X104549767Y-132617353D01*
X107149766Y-132617353D01*
X107354858Y-133113715D01*
X107734288Y-133493807D01*
X108230290Y-133699765D01*
X108767353Y-133700234D01*
X109263715Y-133495142D01*
X109643807Y-133115712D01*
X109849765Y-132619710D01*
X109850234Y-132082647D01*
X109645142Y-131586285D01*
X109265712Y-131206193D01*
X108769710Y-131000235D01*
X108232647Y-130999766D01*
X107736285Y-131204858D01*
X107356193Y-131584288D01*
X107150235Y-132080290D01*
X107149766Y-132617353D01*
X104549767Y-132617353D01*
X104550234Y-132082647D01*
X104345142Y-131586285D01*
X103965712Y-131206193D01*
X103469710Y-131000235D01*
X102932647Y-130999766D01*
X102436285Y-131204858D01*
X102056193Y-131584288D01*
X101850235Y-132080290D01*
X101849766Y-132617353D01*
X87087532Y-132617353D01*
X87274087Y-132431124D01*
X87427625Y-132061364D01*
X87427975Y-131660993D01*
X87275082Y-131290965D01*
X86992224Y-131007613D01*
X86622464Y-130854075D01*
X86404239Y-130853884D01*
X86691035Y-130735382D01*
X86974387Y-130452524D01*
X87107934Y-130130907D01*
X93463925Y-130130907D01*
X93616818Y-130500935D01*
X93899676Y-130784287D01*
X94269436Y-130937825D01*
X94669807Y-130938175D01*
X95039835Y-130785282D01*
X95315628Y-130509969D01*
X100107820Y-130509969D01*
X100185643Y-130745229D01*
X100716548Y-130923815D01*
X101275382Y-130885637D01*
X101614357Y-130745229D01*
X101692180Y-130509969D01*
X100900000Y-129717789D01*
X100107820Y-130509969D01*
X95315628Y-130509969D01*
X95323187Y-130502424D01*
X95476725Y-130132664D01*
X95477075Y-129732293D01*
X95324182Y-129362265D01*
X95278545Y-129316548D01*
X99476185Y-129316548D01*
X99514363Y-129875382D01*
X99654771Y-130214357D01*
X99890031Y-130292180D01*
X100682211Y-129500000D01*
X101117789Y-129500000D01*
X101909969Y-130292180D01*
X102145229Y-130214357D01*
X102178947Y-130114120D01*
X102252445Y-130292000D01*
X102645928Y-130686170D01*
X103160301Y-130899757D01*
X103717256Y-130900243D01*
X104232000Y-130687555D01*
X104626170Y-130294072D01*
X104709942Y-130092327D01*
X104792445Y-130292000D01*
X105185928Y-130686170D01*
X105700301Y-130899757D01*
X106257256Y-130900243D01*
X106772000Y-130687555D01*
X107166170Y-130294072D01*
X107249942Y-130092327D01*
X107332445Y-130292000D01*
X107725928Y-130686170D01*
X108240301Y-130899757D01*
X108797256Y-130900243D01*
X109312000Y-130687555D01*
X109706170Y-130294072D01*
X109919757Y-129779699D01*
X109920243Y-129222744D01*
X109707555Y-128708000D01*
X109314072Y-128313830D01*
X108799699Y-128100243D01*
X108242744Y-128099757D01*
X107728000Y-128312445D01*
X107333830Y-128705928D01*
X107250058Y-128907673D01*
X107167555Y-128708000D01*
X106774072Y-128313830D01*
X106259699Y-128100243D01*
X105702744Y-128099757D01*
X105188000Y-128312445D01*
X104793830Y-128705928D01*
X104710058Y-128907673D01*
X104627555Y-128708000D01*
X104234072Y-128313830D01*
X103719699Y-128100243D01*
X103162744Y-128099757D01*
X102648000Y-128312445D01*
X102253830Y-128705928D01*
X102182933Y-128876667D01*
X102145229Y-128785643D01*
X101909969Y-128707820D01*
X101117789Y-129500000D01*
X100682211Y-129500000D01*
X99890031Y-128707820D01*
X99654771Y-128785643D01*
X99476185Y-129316548D01*
X95278545Y-129316548D01*
X95041324Y-129078913D01*
X94671564Y-128925375D01*
X94271193Y-128925025D01*
X93901165Y-129077918D01*
X93617813Y-129360776D01*
X93464275Y-129730536D01*
X93463925Y-130130907D01*
X87107934Y-130130907D01*
X87127925Y-130082764D01*
X87128275Y-129682393D01*
X86975382Y-129312365D01*
X86692524Y-129029013D01*
X86426861Y-128918700D01*
X86500235Y-128888382D01*
X86783587Y-128605524D01*
X86925605Y-128263507D01*
X91370325Y-128263507D01*
X91523218Y-128633535D01*
X91806076Y-128916887D01*
X92175836Y-129070425D01*
X92576207Y-129070775D01*
X92946235Y-128917882D01*
X93229587Y-128635024D01*
X93289793Y-128490031D01*
X100107820Y-128490031D01*
X100900000Y-129282211D01*
X101692180Y-128490031D01*
X101614357Y-128254771D01*
X101083452Y-128076185D01*
X100524618Y-128114363D01*
X100185643Y-128254771D01*
X100107820Y-128490031D01*
X93289793Y-128490031D01*
X93383125Y-128265264D01*
X93383475Y-127864893D01*
X93230582Y-127494865D01*
X92947724Y-127211513D01*
X92592250Y-127063907D01*
X96536225Y-127063907D01*
X96689118Y-127433935D01*
X96971976Y-127717287D01*
X97341736Y-127870825D01*
X97742107Y-127871175D01*
X98112135Y-127718282D01*
X98395487Y-127435424D01*
X98549025Y-127065664D01*
X98549375Y-126665293D01*
X98396482Y-126295265D01*
X98207547Y-126106000D01*
X104530000Y-126106000D01*
X104530000Y-126682939D01*
X104622563Y-126906405D01*
X104793596Y-127077438D01*
X105017062Y-127170000D01*
X105594000Y-127170000D01*
X105746000Y-127018000D01*
X105746000Y-125954000D01*
X104682000Y-125954000D01*
X104530000Y-126106000D01*
X98207547Y-126106000D01*
X98113624Y-126011913D01*
X97743864Y-125858375D01*
X97343493Y-125858025D01*
X96973465Y-126010918D01*
X96690113Y-126293776D01*
X96536575Y-126663536D01*
X96536225Y-127063907D01*
X92592250Y-127063907D01*
X92577964Y-127057975D01*
X92177593Y-127057625D01*
X91807565Y-127210518D01*
X91524213Y-127493376D01*
X91370675Y-127863136D01*
X91370325Y-128263507D01*
X86925605Y-128263507D01*
X86937125Y-128235764D01*
X86937475Y-127835393D01*
X86784582Y-127465365D01*
X86501724Y-127182013D01*
X86131964Y-127028475D01*
X85731593Y-127028125D01*
X85361565Y-127181018D01*
X85078213Y-127463876D01*
X84924675Y-127833636D01*
X84924325Y-128234007D01*
X70253925Y-128234007D01*
X70569335Y-128103682D01*
X70852687Y-127820824D01*
X71006225Y-127451064D01*
X71006575Y-127050693D01*
X70911630Y-126820907D01*
X75992925Y-126820907D01*
X76145818Y-127190935D01*
X76428676Y-127474287D01*
X76798436Y-127627825D01*
X77198807Y-127628175D01*
X77568835Y-127475282D01*
X77852187Y-127192424D01*
X78005725Y-126822664D01*
X78006075Y-126422293D01*
X77853182Y-126052265D01*
X77570324Y-125768913D01*
X77200564Y-125615375D01*
X76800193Y-125615025D01*
X76430165Y-125767918D01*
X76146813Y-126050776D01*
X75993275Y-126420536D01*
X75992925Y-126820907D01*
X70911630Y-126820907D01*
X70853682Y-126680665D01*
X70570824Y-126397313D01*
X70201064Y-126243775D01*
X69800693Y-126243425D01*
X69430665Y-126396318D01*
X69147313Y-126679176D01*
X68993775Y-127048936D01*
X68993425Y-127449307D01*
X67319021Y-127449307D01*
X67263224Y-127393413D01*
X66893464Y-127239875D01*
X66493093Y-127239525D01*
X66123065Y-127392418D01*
X65839713Y-127675276D01*
X65686175Y-128045036D01*
X65685825Y-128445407D01*
X61675000Y-128445407D01*
X61675000Y-124699307D01*
X76880125Y-124699307D01*
X77033018Y-125069335D01*
X77315876Y-125352687D01*
X77685636Y-125506225D01*
X78086007Y-125506575D01*
X78279301Y-125426707D01*
X82055525Y-125426707D01*
X82208418Y-125796735D01*
X82491276Y-126080087D01*
X82861036Y-126233625D01*
X83261407Y-126233975D01*
X83631435Y-126081082D01*
X83914787Y-125798224D01*
X83928538Y-125765107D01*
X84682625Y-125765107D01*
X84835518Y-126135135D01*
X85118376Y-126418487D01*
X85488136Y-126572025D01*
X85888507Y-126572375D01*
X86258535Y-126419482D01*
X86541887Y-126136624D01*
X86695425Y-125766864D01*
X86695775Y-125366493D01*
X86542882Y-124996465D01*
X86383104Y-124836407D01*
X89934125Y-124836407D01*
X90087018Y-125206435D01*
X90369876Y-125489787D01*
X90739636Y-125643325D01*
X91140007Y-125643675D01*
X91510035Y-125490782D01*
X91793387Y-125207924D01*
X91914164Y-124917061D01*
X104530000Y-124917061D01*
X104530000Y-125494000D01*
X104682000Y-125646000D01*
X105746000Y-125646000D01*
X105746000Y-124582000D01*
X106054000Y-124582000D01*
X106054000Y-125646000D01*
X106074000Y-125646000D01*
X106074000Y-125954000D01*
X106054000Y-125954000D01*
X106054000Y-127018000D01*
X106206000Y-127170000D01*
X106782938Y-127170000D01*
X107006404Y-127077438D01*
X107177437Y-126906405D01*
X107270000Y-126682939D01*
X107270000Y-126534977D01*
X107284679Y-126570503D01*
X107667482Y-126953974D01*
X108167893Y-127161763D01*
X108709730Y-127162236D01*
X109210503Y-126955321D01*
X109593974Y-126572518D01*
X109801763Y-126072107D01*
X109802236Y-125530270D01*
X109595321Y-125029497D01*
X109212518Y-124646026D01*
X108712107Y-124438237D01*
X108170270Y-124437764D01*
X107669497Y-124644679D01*
X107286026Y-125027482D01*
X107270000Y-125066077D01*
X107270000Y-124917061D01*
X107177437Y-124693595D01*
X107006404Y-124522562D01*
X106782938Y-124430000D01*
X106206000Y-124430000D01*
X106054000Y-124582000D01*
X105746000Y-124582000D01*
X105594000Y-124430000D01*
X105017062Y-124430000D01*
X104793596Y-124522562D01*
X104622563Y-124693595D01*
X104530000Y-124917061D01*
X91914164Y-124917061D01*
X91946925Y-124838164D01*
X91947275Y-124437793D01*
X91794382Y-124067765D01*
X91511524Y-123784413D01*
X91141764Y-123630875D01*
X90741393Y-123630525D01*
X90371365Y-123783418D01*
X90088013Y-124066276D01*
X89934475Y-124436036D01*
X89934125Y-124836407D01*
X86383104Y-124836407D01*
X86260024Y-124713113D01*
X85890264Y-124559575D01*
X85489893Y-124559225D01*
X85119865Y-124712118D01*
X84836513Y-124994976D01*
X84682975Y-125364736D01*
X84682625Y-125765107D01*
X83928538Y-125765107D01*
X84068325Y-125428464D01*
X84068675Y-125028093D01*
X83915782Y-124658065D01*
X83632924Y-124374713D01*
X83263164Y-124221175D01*
X82862793Y-124220825D01*
X82492765Y-124373718D01*
X82209413Y-124656576D01*
X82055875Y-125026336D01*
X82055525Y-125426707D01*
X78279301Y-125426707D01*
X78456035Y-125353682D01*
X78739387Y-125070824D01*
X78892925Y-124701064D01*
X78893275Y-124300693D01*
X78740382Y-123930665D01*
X78457524Y-123647313D01*
X78087764Y-123493775D01*
X77687393Y-123493425D01*
X77317365Y-123646318D01*
X77034013Y-123929176D01*
X76880475Y-124298936D01*
X76880125Y-124699307D01*
X61675000Y-124699307D01*
X61675000Y-121749307D01*
X99793425Y-121749307D01*
X99946318Y-122119335D01*
X100229176Y-122402687D01*
X100598936Y-122556225D01*
X100999307Y-122556575D01*
X101369335Y-122403682D01*
X101652687Y-122120824D01*
X101806225Y-121751064D01*
X101806575Y-121350693D01*
X101653682Y-120980665D01*
X101572466Y-120899307D01*
X102793425Y-120899307D01*
X102946318Y-121269335D01*
X103229176Y-121552687D01*
X103598936Y-121706225D01*
X103999307Y-121706575D01*
X104369335Y-121553682D01*
X104652687Y-121270824D01*
X104806225Y-120901064D01*
X104806575Y-120500693D01*
X104653682Y-120130665D01*
X104370824Y-119847313D01*
X104001064Y-119693775D01*
X103600693Y-119693425D01*
X103230665Y-119846318D01*
X102947313Y-120129176D01*
X102793775Y-120498936D01*
X102793425Y-120899307D01*
X101572466Y-120899307D01*
X101370824Y-120697313D01*
X101001064Y-120543775D01*
X100600693Y-120543425D01*
X100230665Y-120696318D01*
X99947313Y-120979176D01*
X99793775Y-121348936D01*
X99793425Y-121749307D01*
X61675000Y-121749307D01*
X61675000Y-120280807D01*
X73384025Y-120280807D01*
X73536918Y-120650835D01*
X73819776Y-120934187D01*
X74189536Y-121087725D01*
X74589907Y-121088075D01*
X74959935Y-120935182D01*
X75203334Y-120692207D01*
X77886525Y-120692207D01*
X78039418Y-121062235D01*
X78322276Y-121345587D01*
X78692036Y-121499125D01*
X79092407Y-121499475D01*
X79462435Y-121346582D01*
X79745787Y-121063724D01*
X79899325Y-120693964D01*
X79899510Y-120482207D01*
X82087025Y-120482207D01*
X82239918Y-120852235D01*
X82522776Y-121135587D01*
X82892536Y-121289125D01*
X83292907Y-121289475D01*
X83662935Y-121136582D01*
X83946287Y-120853724D01*
X83983997Y-120762907D01*
X95986825Y-120762907D01*
X96139718Y-121132935D01*
X96422576Y-121416287D01*
X96792336Y-121569825D01*
X97192707Y-121570175D01*
X97562735Y-121417282D01*
X97846087Y-121134424D01*
X97999625Y-120764664D01*
X97999975Y-120364293D01*
X97847082Y-119994265D01*
X97564224Y-119710913D01*
X97194464Y-119557375D01*
X96794093Y-119557025D01*
X96424065Y-119709918D01*
X96140713Y-119992776D01*
X95987175Y-120362536D01*
X95986825Y-120762907D01*
X83983997Y-120762907D01*
X84099825Y-120483964D01*
X84099927Y-120366994D01*
X84344635Y-120265882D01*
X84627987Y-119983024D01*
X84781525Y-119613264D01*
X84781875Y-119212893D01*
X84628982Y-118842865D01*
X84346124Y-118559513D01*
X83976364Y-118405975D01*
X83575993Y-118405625D01*
X83205965Y-118558518D01*
X82922613Y-118841376D01*
X82769075Y-119211136D01*
X82768973Y-119328106D01*
X82524265Y-119429218D01*
X82240913Y-119712076D01*
X82087375Y-120081836D01*
X82087025Y-120482207D01*
X79899510Y-120482207D01*
X79899675Y-120293593D01*
X79746782Y-119923565D01*
X79463924Y-119640213D01*
X79094164Y-119486675D01*
X78693793Y-119486325D01*
X78323765Y-119639218D01*
X78040413Y-119922076D01*
X77886875Y-120291836D01*
X77886525Y-120692207D01*
X75203334Y-120692207D01*
X75243287Y-120652324D01*
X75396825Y-120282564D01*
X75397175Y-119882193D01*
X75244282Y-119512165D01*
X74961424Y-119228813D01*
X74591664Y-119075275D01*
X74191293Y-119074925D01*
X73821265Y-119227818D01*
X73537913Y-119510676D01*
X73384375Y-119880436D01*
X73384025Y-120280807D01*
X61675000Y-120280807D01*
X61675000Y-117999307D01*
X74543425Y-117999307D01*
X74696318Y-118369335D01*
X74979176Y-118652687D01*
X75348936Y-118806225D01*
X75749307Y-118806575D01*
X76119335Y-118653682D01*
X76402687Y-118370824D01*
X76556225Y-118001064D01*
X76556575Y-117600693D01*
X76403682Y-117230665D01*
X76120824Y-116947313D01*
X75751064Y-116793775D01*
X75350693Y-116793425D01*
X74980665Y-116946318D01*
X74697313Y-117229176D01*
X74543775Y-117598936D01*
X74543425Y-117999307D01*
X61675000Y-117999307D01*
X61675000Y-115402107D01*
X80256825Y-115402107D01*
X80409718Y-115772135D01*
X80692576Y-116055487D01*
X81062336Y-116209025D01*
X81343143Y-116209270D01*
X81311475Y-116285536D01*
X81311125Y-116685907D01*
X81464018Y-117055935D01*
X81746876Y-117339287D01*
X82116636Y-117492825D01*
X82517007Y-117493175D01*
X82887035Y-117340282D01*
X83170387Y-117057424D01*
X83323925Y-116687664D01*
X83324090Y-116498707D01*
X86908525Y-116498707D01*
X87061418Y-116868735D01*
X87344276Y-117152087D01*
X87714036Y-117305625D01*
X88114407Y-117305975D01*
X88288989Y-117233839D01*
X88094613Y-117427876D01*
X87941075Y-117797636D01*
X87940725Y-118198007D01*
X88093618Y-118568035D01*
X88376476Y-118851387D01*
X88746236Y-119004925D01*
X89146607Y-119005275D01*
X89516635Y-118852382D01*
X89799987Y-118569524D01*
X89935735Y-118242607D01*
X98444725Y-118242607D01*
X98597618Y-118612635D01*
X98880476Y-118895987D01*
X99250236Y-119049525D01*
X99650607Y-119049875D01*
X100020635Y-118896982D01*
X100303987Y-118614124D01*
X100457525Y-118244364D01*
X100457875Y-117843993D01*
X100304982Y-117473965D01*
X100130629Y-117299307D01*
X102157325Y-117299307D01*
X102310218Y-117669335D01*
X102593076Y-117952687D01*
X102962836Y-118106225D01*
X103363207Y-118106575D01*
X103733235Y-117953682D01*
X104016587Y-117670824D01*
X104170125Y-117301064D01*
X104170475Y-116900693D01*
X104017582Y-116530665D01*
X103734724Y-116247313D01*
X103364964Y-116093775D01*
X102964593Y-116093425D01*
X102594565Y-116246318D01*
X102311213Y-116529176D01*
X102157675Y-116898936D01*
X102157325Y-117299307D01*
X100130629Y-117299307D01*
X100022124Y-117190613D01*
X99652364Y-117037075D01*
X99251993Y-117036725D01*
X98881965Y-117189618D01*
X98598613Y-117472476D01*
X98445075Y-117842236D01*
X98444725Y-118242607D01*
X89935735Y-118242607D01*
X89953525Y-118199764D01*
X89953875Y-117799393D01*
X89800982Y-117429365D01*
X89518124Y-117146013D01*
X89148364Y-116992475D01*
X88747993Y-116992125D01*
X88573411Y-117064261D01*
X88767787Y-116870224D01*
X88921325Y-116500464D01*
X88921675Y-116100093D01*
X88832680Y-115884707D01*
X97051625Y-115884707D01*
X97204518Y-116254735D01*
X97487376Y-116538087D01*
X97857136Y-116691625D01*
X98257507Y-116691975D01*
X98627535Y-116539082D01*
X98910887Y-116256224D01*
X99064425Y-115886464D01*
X99064775Y-115486093D01*
X98911882Y-115116065D01*
X98895154Y-115099307D01*
X100843425Y-115099307D01*
X100996318Y-115469335D01*
X101279176Y-115752687D01*
X101648936Y-115906225D01*
X102049307Y-115906575D01*
X102419335Y-115753682D01*
X102702687Y-115470824D01*
X102856225Y-115101064D01*
X102856575Y-114700693D01*
X102703682Y-114330665D01*
X102420824Y-114047313D01*
X102051064Y-113893775D01*
X101650693Y-113893425D01*
X101280665Y-114046318D01*
X100997313Y-114329176D01*
X100843775Y-114698936D01*
X100843425Y-115099307D01*
X98895154Y-115099307D01*
X98629024Y-114832713D01*
X98259264Y-114679175D01*
X97858893Y-114678825D01*
X97488865Y-114831718D01*
X97205513Y-115114576D01*
X97051975Y-115484336D01*
X97051625Y-115884707D01*
X88832680Y-115884707D01*
X88768782Y-115730065D01*
X88485924Y-115446713D01*
X88116164Y-115293175D01*
X87715793Y-115292825D01*
X87345765Y-115445718D01*
X87062413Y-115728576D01*
X86908875Y-116098336D01*
X86908525Y-116498707D01*
X83324090Y-116498707D01*
X83324275Y-116287293D01*
X83173150Y-115921544D01*
X83306225Y-115601064D01*
X83306575Y-115200693D01*
X83153682Y-114830665D01*
X82870824Y-114547313D01*
X82501064Y-114393775D01*
X82100693Y-114393425D01*
X81942649Y-114458728D01*
X81834224Y-114350113D01*
X81560390Y-114236407D01*
X92321325Y-114236407D01*
X92474218Y-114606435D01*
X92757076Y-114889787D01*
X93126836Y-115043325D01*
X93527207Y-115043675D01*
X93897235Y-114890782D01*
X94180587Y-114607924D01*
X94334125Y-114238164D01*
X94334475Y-113837793D01*
X94181582Y-113467765D01*
X93898724Y-113184413D01*
X93528964Y-113030875D01*
X93128593Y-113030525D01*
X92758565Y-113183418D01*
X92475213Y-113466276D01*
X92321675Y-113836036D01*
X92321325Y-114236407D01*
X81560390Y-114236407D01*
X81464464Y-114196575D01*
X81064093Y-114196225D01*
X80694065Y-114349118D01*
X80410713Y-114631976D01*
X80257175Y-115001736D01*
X80256825Y-115402107D01*
X61675000Y-115402107D01*
X61675000Y-113891907D01*
X65727725Y-113891907D01*
X65880618Y-114261935D01*
X66163476Y-114545287D01*
X66533236Y-114698825D01*
X66933607Y-114699175D01*
X67303635Y-114546282D01*
X67586987Y-114263424D01*
X67740525Y-113893664D01*
X67740607Y-113799307D01*
X70193425Y-113799307D01*
X70346318Y-114169335D01*
X70629176Y-114452687D01*
X70998936Y-114606225D01*
X71399307Y-114606575D01*
X71769335Y-114453682D01*
X72052687Y-114170824D01*
X72206225Y-113801064D01*
X72206575Y-113400693D01*
X72053682Y-113030665D01*
X71833295Y-112809893D01*
X71969335Y-112753682D01*
X72023804Y-112699307D01*
X89608725Y-112699307D01*
X89761618Y-113069335D01*
X90044476Y-113352687D01*
X90414236Y-113506225D01*
X90814607Y-113506575D01*
X91184635Y-113353682D01*
X91467987Y-113070824D01*
X91502085Y-112988707D01*
X102955025Y-112988707D01*
X103107918Y-113358735D01*
X103390776Y-113642087D01*
X103760536Y-113795625D01*
X104160907Y-113795975D01*
X104530935Y-113643082D01*
X104814287Y-113360224D01*
X104967825Y-112990464D01*
X104968175Y-112590093D01*
X104815282Y-112220065D01*
X104532424Y-111936713D01*
X104162664Y-111783175D01*
X103762293Y-111782825D01*
X103392265Y-111935718D01*
X103108913Y-112218576D01*
X102955375Y-112588336D01*
X102955025Y-112988707D01*
X91502085Y-112988707D01*
X91621525Y-112701064D01*
X91621875Y-112300693D01*
X91468982Y-111930665D01*
X91186124Y-111647313D01*
X90816364Y-111493775D01*
X90415993Y-111493425D01*
X90045965Y-111646318D01*
X89762613Y-111929176D01*
X89609075Y-112298936D01*
X89608725Y-112699307D01*
X72023804Y-112699307D01*
X72252687Y-112470824D01*
X72406225Y-112101064D01*
X72406575Y-111700693D01*
X72253682Y-111330665D01*
X71970824Y-111047313D01*
X71601064Y-110893775D01*
X71200693Y-110893425D01*
X70830665Y-111046318D01*
X70547313Y-111329176D01*
X70393775Y-111698936D01*
X70393425Y-112099307D01*
X70546318Y-112469335D01*
X70766705Y-112690107D01*
X70630665Y-112746318D01*
X70347313Y-113029176D01*
X70193775Y-113398936D01*
X70193425Y-113799307D01*
X67740607Y-113799307D01*
X67740875Y-113493293D01*
X67587982Y-113123265D01*
X67305124Y-112839913D01*
X66935364Y-112686375D01*
X66534993Y-112686025D01*
X66164965Y-112838918D01*
X65881613Y-113121776D01*
X65728075Y-113491536D01*
X65727725Y-113891907D01*
X61675000Y-113891907D01*
X61675000Y-110299307D01*
X72393425Y-110299307D01*
X72546318Y-110669335D01*
X72829176Y-110952687D01*
X73043475Y-111041672D01*
X73043425Y-111099307D01*
X73196318Y-111469335D01*
X73479176Y-111752687D01*
X73848936Y-111906225D01*
X74249307Y-111906575D01*
X74619335Y-111753682D01*
X74902687Y-111470824D01*
X75056225Y-111101064D01*
X75056575Y-110700693D01*
X75014684Y-110599307D01*
X77193425Y-110599307D01*
X77346318Y-110969335D01*
X77629176Y-111252687D01*
X77998936Y-111406225D01*
X78399307Y-111406575D01*
X78769335Y-111253682D01*
X78773717Y-111249307D01*
X84443425Y-111249307D01*
X84596318Y-111619335D01*
X84879176Y-111902687D01*
X85248936Y-112056225D01*
X85649307Y-112056575D01*
X86019335Y-111903682D01*
X86302687Y-111620824D01*
X86456225Y-111251064D01*
X86456364Y-111091307D01*
X97930525Y-111091307D01*
X98083418Y-111461335D01*
X98366276Y-111744687D01*
X98736036Y-111898225D01*
X99136407Y-111898575D01*
X99506435Y-111745682D01*
X99789787Y-111462824D01*
X99943325Y-111093064D01*
X99943675Y-110692693D01*
X99790782Y-110322665D01*
X99507924Y-110039313D01*
X99138164Y-109885775D01*
X98737793Y-109885425D01*
X98367765Y-110038318D01*
X98084413Y-110321176D01*
X97930875Y-110690936D01*
X97930525Y-111091307D01*
X86456364Y-111091307D01*
X86456467Y-110973754D01*
X87462000Y-110973754D01*
X87684346Y-110931917D01*
X87888558Y-110800510D01*
X88025556Y-110600007D01*
X88073754Y-110362000D01*
X88073754Y-110344062D01*
X88084679Y-110370503D01*
X88467482Y-110753974D01*
X88967893Y-110961763D01*
X89509730Y-110962236D01*
X90010503Y-110755321D01*
X90393974Y-110372518D01*
X90601763Y-109872107D01*
X90602236Y-109330270D01*
X90395321Y-108829497D01*
X90083076Y-108516707D01*
X94820625Y-108516707D01*
X94973518Y-108886735D01*
X95256376Y-109170087D01*
X95626136Y-109323625D01*
X96026507Y-109323975D01*
X96396535Y-109171082D01*
X96679887Y-108888224D01*
X96833425Y-108518464D01*
X96833426Y-108516707D01*
X98441925Y-108516707D01*
X98594818Y-108886735D01*
X98877676Y-109170087D01*
X99247436Y-109323625D01*
X99647807Y-109323975D01*
X100017835Y-109171082D01*
X100301187Y-108888224D01*
X100454725Y-108518464D01*
X100454823Y-108406536D01*
X100499307Y-108406575D01*
X100869335Y-108253682D01*
X101152687Y-107970824D01*
X101306225Y-107601064D01*
X101306575Y-107200693D01*
X101153682Y-106830665D01*
X100870824Y-106547313D01*
X100501064Y-106393775D01*
X100100693Y-106393425D01*
X99730665Y-106546318D01*
X99447313Y-106829176D01*
X99293775Y-107198936D01*
X99293677Y-107310864D01*
X99249193Y-107310825D01*
X98879165Y-107463718D01*
X98595813Y-107746576D01*
X98442275Y-108116336D01*
X98441925Y-108516707D01*
X96833426Y-108516707D01*
X96833775Y-108118093D01*
X96680882Y-107748065D01*
X96398024Y-107464713D01*
X96028264Y-107311175D01*
X95627893Y-107310825D01*
X95257865Y-107463718D01*
X94974513Y-107746576D01*
X94820975Y-108116336D01*
X94820625Y-108516707D01*
X90083076Y-108516707D01*
X90012518Y-108446026D01*
X89512107Y-108238237D01*
X88970270Y-108237764D01*
X88469497Y-108444679D01*
X88086026Y-108827482D01*
X88073754Y-108857036D01*
X88073754Y-108838000D01*
X88031917Y-108615654D01*
X87900510Y-108411442D01*
X87700007Y-108274444D01*
X87462000Y-108226246D01*
X85938000Y-108226246D01*
X85715654Y-108268083D01*
X85511442Y-108399490D01*
X85374444Y-108599993D01*
X85326246Y-108838000D01*
X85326246Y-110043491D01*
X85250693Y-110043425D01*
X84880665Y-110196318D01*
X84597313Y-110479176D01*
X84443775Y-110848936D01*
X84443425Y-111249307D01*
X78773717Y-111249307D01*
X79052687Y-110970824D01*
X79206225Y-110601064D01*
X79206575Y-110200693D01*
X79053682Y-109830665D01*
X78770824Y-109547313D01*
X78401064Y-109393775D01*
X78000693Y-109393425D01*
X77630665Y-109546318D01*
X77347313Y-109829176D01*
X77193775Y-110198936D01*
X77193425Y-110599307D01*
X75014684Y-110599307D01*
X74903682Y-110330665D01*
X74620824Y-110047313D01*
X74406525Y-109958328D01*
X74406575Y-109900693D01*
X74253682Y-109530665D01*
X73970824Y-109247313D01*
X73601064Y-109093775D01*
X73200693Y-109093425D01*
X72830665Y-109246318D01*
X72547313Y-109529176D01*
X72393775Y-109898936D01*
X72393425Y-110299307D01*
X61675000Y-110299307D01*
X61675000Y-108818207D01*
X68562725Y-108818207D01*
X68715618Y-109188235D01*
X68998476Y-109471587D01*
X69368236Y-109625125D01*
X69768607Y-109625475D01*
X70138635Y-109472582D01*
X70421987Y-109189724D01*
X70575525Y-108819964D01*
X70575875Y-108419593D01*
X70422982Y-108049565D01*
X70140124Y-107766213D01*
X69770364Y-107612675D01*
X69369993Y-107612325D01*
X68999965Y-107765218D01*
X68716613Y-108048076D01*
X68563075Y-108417836D01*
X68562725Y-108818207D01*
X61675000Y-108818207D01*
X61675000Y-104338000D01*
X64326246Y-104338000D01*
X64326246Y-105862000D01*
X64368083Y-106084346D01*
X64499490Y-106288558D01*
X64699993Y-106425556D01*
X64938000Y-106473754D01*
X66462000Y-106473754D01*
X66684346Y-106431917D01*
X66888558Y-106300510D01*
X67025556Y-106100007D01*
X67073754Y-105862000D01*
X67073754Y-105844062D01*
X67084679Y-105870503D01*
X67467482Y-106253974D01*
X67967893Y-106461763D01*
X68509730Y-106462236D01*
X69010503Y-106255321D01*
X69393974Y-105872518D01*
X69510029Y-105593028D01*
X69624679Y-105870503D01*
X70007482Y-106253974D01*
X70507893Y-106461763D01*
X71049730Y-106462236D01*
X71550503Y-106255321D01*
X71933974Y-105872518D01*
X72050029Y-105593028D01*
X72164679Y-105870503D01*
X72547482Y-106253974D01*
X73047893Y-106461763D01*
X73589730Y-106462236D01*
X74090503Y-106255321D01*
X74473974Y-105872518D01*
X74590029Y-105593028D01*
X74704679Y-105870503D01*
X75087482Y-106253974D01*
X75587893Y-106461763D01*
X76129730Y-106462236D01*
X76630503Y-106255321D01*
X77013974Y-105872518D01*
X77130029Y-105593028D01*
X77244679Y-105870503D01*
X77627482Y-106253974D01*
X78127893Y-106461763D01*
X78669730Y-106462236D01*
X79170503Y-106255321D01*
X79553974Y-105872518D01*
X79670029Y-105593028D01*
X79784679Y-105870503D01*
X80167482Y-106253974D01*
X80667893Y-106461763D01*
X81209730Y-106462236D01*
X81710503Y-106255321D01*
X82093974Y-105872518D01*
X82210029Y-105593028D01*
X82324679Y-105870503D01*
X82707482Y-106253974D01*
X83207893Y-106461763D01*
X83749730Y-106462236D01*
X84250503Y-106255321D01*
X84633974Y-105872518D01*
X84750029Y-105593028D01*
X84864679Y-105870503D01*
X85247482Y-106253974D01*
X85747893Y-106461763D01*
X86289730Y-106462236D01*
X86790503Y-106255321D01*
X87173974Y-105872518D01*
X87290029Y-105593028D01*
X87404679Y-105870503D01*
X87787482Y-106253974D01*
X88287893Y-106461763D01*
X88829730Y-106462236D01*
X89330503Y-106255321D01*
X89713974Y-105872518D01*
X89830029Y-105593028D01*
X89944679Y-105870503D01*
X90327482Y-106253974D01*
X90827893Y-106461763D01*
X91369730Y-106462236D01*
X91870503Y-106255321D01*
X92253974Y-105872518D01*
X92370029Y-105593028D01*
X92484679Y-105870503D01*
X92867482Y-106253974D01*
X93243026Y-106409914D01*
X93143775Y-106648936D01*
X93143425Y-107049307D01*
X93296318Y-107419335D01*
X93579176Y-107702687D01*
X93948936Y-107856225D01*
X94349307Y-107856575D01*
X94719335Y-107703682D01*
X95002687Y-107420824D01*
X95156225Y-107051064D01*
X95156575Y-106650693D01*
X95003682Y-106280665D01*
X94720824Y-105997313D01*
X94684197Y-105982104D01*
X94793974Y-105872518D01*
X94910029Y-105593028D01*
X95024679Y-105870503D01*
X95407482Y-106253974D01*
X95907893Y-106461763D01*
X96449730Y-106462236D01*
X96950503Y-106255321D01*
X97333974Y-105872518D01*
X97450029Y-105593028D01*
X97564679Y-105870503D01*
X97947482Y-106253974D01*
X98447893Y-106461763D01*
X98989730Y-106462236D01*
X99490503Y-106255321D01*
X99873974Y-105872518D01*
X99990029Y-105593028D01*
X100104679Y-105870503D01*
X100487482Y-106253974D01*
X100987893Y-106461763D01*
X101529730Y-106462236D01*
X102030503Y-106255321D01*
X102413974Y-105872518D01*
X102530029Y-105593028D01*
X102644679Y-105870503D01*
X103027482Y-106253974D01*
X103527893Y-106461763D01*
X104069730Y-106462236D01*
X104570503Y-106255321D01*
X104953974Y-105872518D01*
X105070029Y-105593028D01*
X105184679Y-105870503D01*
X105567482Y-106253974D01*
X106067893Y-106461763D01*
X106609730Y-106462236D01*
X107110503Y-106255321D01*
X107493974Y-105872518D01*
X107701763Y-105372107D01*
X107702236Y-104830270D01*
X107495321Y-104329497D01*
X107112518Y-103946026D01*
X106833028Y-103829971D01*
X107110503Y-103715321D01*
X107493974Y-103332518D01*
X107701763Y-102832107D01*
X107702236Y-102290270D01*
X107495321Y-101789497D01*
X107112518Y-101406026D01*
X106612107Y-101198237D01*
X106070270Y-101197764D01*
X105569497Y-101404679D01*
X105186026Y-101787482D01*
X105069971Y-102066972D01*
X104955321Y-101789497D01*
X104572518Y-101406026D01*
X104072107Y-101198237D01*
X103530270Y-101197764D01*
X103029497Y-101404679D01*
X102646026Y-101787482D01*
X102529971Y-102066972D01*
X102415321Y-101789497D01*
X102032518Y-101406026D01*
X101532107Y-101198237D01*
X100990270Y-101197764D01*
X100489497Y-101404679D01*
X100106026Y-101787482D01*
X99989971Y-102066972D01*
X99875321Y-101789497D01*
X99492518Y-101406026D01*
X98992107Y-101198237D01*
X98450270Y-101197764D01*
X97949497Y-101404679D01*
X97566026Y-101787482D01*
X97449971Y-102066972D01*
X97335321Y-101789497D01*
X96952518Y-101406026D01*
X96452107Y-101198237D01*
X95910270Y-101197764D01*
X95409497Y-101404679D01*
X95026026Y-101787482D01*
X94909971Y-102066972D01*
X94795321Y-101789497D01*
X94412518Y-101406026D01*
X93912107Y-101198237D01*
X93370270Y-101197764D01*
X92869497Y-101404679D01*
X92486026Y-101787482D01*
X92369971Y-102066972D01*
X92255321Y-101789497D01*
X91872518Y-101406026D01*
X91372107Y-101198237D01*
X90830270Y-101197764D01*
X90329497Y-101404679D01*
X89946026Y-101787482D01*
X89829971Y-102066972D01*
X89715321Y-101789497D01*
X89332518Y-101406026D01*
X88832107Y-101198237D01*
X88290270Y-101197764D01*
X87789497Y-101404679D01*
X87406026Y-101787482D01*
X87289971Y-102066972D01*
X87175321Y-101789497D01*
X86792518Y-101406026D01*
X86292107Y-101198237D01*
X85750270Y-101197764D01*
X85249497Y-101404679D01*
X84866026Y-101787482D01*
X84749971Y-102066972D01*
X84635321Y-101789497D01*
X84252518Y-101406026D01*
X83752107Y-101198237D01*
X83210270Y-101197764D01*
X82709497Y-101404679D01*
X82326026Y-101787482D01*
X82209971Y-102066972D01*
X82095321Y-101789497D01*
X81712518Y-101406026D01*
X81212107Y-101198237D01*
X80670270Y-101197764D01*
X80169497Y-101404679D01*
X79786026Y-101787482D01*
X79669971Y-102066972D01*
X79555321Y-101789497D01*
X79172518Y-101406026D01*
X78672107Y-101198237D01*
X78130270Y-101197764D01*
X77629497Y-101404679D01*
X77246026Y-101787482D01*
X77129971Y-102066972D01*
X77015321Y-101789497D01*
X76632518Y-101406026D01*
X76132107Y-101198237D01*
X75590270Y-101197764D01*
X75089497Y-101404679D01*
X74706026Y-101787482D01*
X74589971Y-102066972D01*
X74475321Y-101789497D01*
X74092518Y-101406026D01*
X73592107Y-101198237D01*
X73050270Y-101197764D01*
X72549497Y-101404679D01*
X72166026Y-101787482D01*
X72049971Y-102066972D01*
X71935321Y-101789497D01*
X71552518Y-101406026D01*
X71052107Y-101198237D01*
X70510270Y-101197764D01*
X70009497Y-101404679D01*
X69626026Y-101787482D01*
X69509971Y-102066972D01*
X69395321Y-101789497D01*
X69012518Y-101406026D01*
X68512107Y-101198237D01*
X67970270Y-101197764D01*
X67469497Y-101404679D01*
X67086026Y-101787482D01*
X66969971Y-102066972D01*
X66855321Y-101789497D01*
X66472518Y-101406026D01*
X65972107Y-101198237D01*
X65430270Y-101197764D01*
X64929497Y-101404679D01*
X64546026Y-101787482D01*
X64338237Y-102287893D01*
X64337764Y-102829730D01*
X64544679Y-103330503D01*
X64927482Y-103713974D01*
X64957036Y-103726246D01*
X64938000Y-103726246D01*
X64715654Y-103768083D01*
X64511442Y-103899490D01*
X64374444Y-104099993D01*
X64326246Y-104338000D01*
X61675000Y-104338000D01*
X61675000Y-100675000D01*
X110325000Y-100675000D01*
X110325000Y-108786761D01*
M02*
